<?xml version="1.0" encoding="UTF-8"?>
<svg id="Layer_1" data-name="Layer 1" xmlns="http://www.w3.org/2000/svg" viewBox="0 0 168.13 364.9">
  <path d="M129.27,335.59c.29.24.54.53.85.71,2.59,1.57,5.92-2.19,8.17.96,1.61,2.25.81,5.04.84,7.59.04,3.38.98,6.53,1.8,9.74.45,1.73.33,3.62-.71,5.34-.92,1.52-3.38,2.35-4.8,1.37-.89-.63-1.99-1.25-2.45-2.15-1.28-2.49-2.97-3.92-5.89-4.39-2.53-.4-4.02-2.6-2.27-4.84,2.53-3.21,1.08-5.33-1.01-7.68-4.55-5.11-9.22-9.86-17.04-7.32-4.7-1.44-9.53-.32-14.29-.7-4.8-.38-9.6-.69-13.99-2.98-5.81-4.11-12.36-3.06-18.82-2.68-1.09-.34-1.8-1.07-2.22-2.11-.11-1.12.03-2.2.34-3.27,1.47-3.75,1.74-7.71,2.31-11.64.43-2.92-.03-7.01,5.02-6.64,2.47,2.53,2.33,5.87,2.8,9.01,1.87,6.55,6.44,2.29,9.89,2.43,9.25,1.98,18.3-1.89,27.51-1,7.51,1.12,11.03,8,16.82,11.64,3.36,2.06,6.78,4.07,7.15,8.61Z" style="fill: #45362e; fill-rule: evenodd;"/>
  <path d="M40.61,364.88c-2.89.21-4.93-.88-5.9-3.72-.86-2.51-.96-5.07-.11-7.55,1.53-4.47,2.82-9.08,5.84-12.88,3.31-9.3,9.98-9.44,17.78-6.52.87,4.31-1.62,7.83-2.89,11.61-.27.81-1.59,1.75-2.43,1.74-.86,0-1.99-.91-2.51-1.73-.75-1.2-1.05-2.68-1.64-4.31-3.68,4.4-3.59,9.84-5.61,14.48,2.33,3.87-1.57,5.96-2.53,8.89Z" style="fill: #5c4a3e; fill-rule: evenodd;"/>
  <path d="M127.48,128.32c3.37,2.15,3.23,6.64,6.1,9.12.8,5.53,3.76,10.17,6.1,15.07.32,1,.93,1.76,1.82,2.3l-.03-.1c1.57,2.42,1.06,4.23-1.59,5.41-5,.21-8.55-2.07-10.89-6.39-1.17-2.39-1.86-4.98-3.09-7.35-1.95-3.81-4.65-7.28-5.35-11.67-.44-5.1-.75-10.1,6.94-6.39Z" style="fill: #544734; fill-rule: evenodd;"/>
  <path d="M139.12,159.47c2.25-.85,1.93-2.99,2.35-4.75,3.34.96,5.34,3.66,7.29,6.14,2.53,3.23,3.41,7.08,2.16,11.21-1.14,3.79-2.19,7.6-3.28,11.41-1.52,2.02-1.39,4.73-2.83,6.79-.75.7-1.64,1.04-2.67.96-.89-.48-1.56-1.18-2.01-2.08-.86-2.31-1.21-4.76-1.76-7.15-.14-.99-.12-1.98.04-2.96,4.72-6.36-1.66-13.13.72-19.57Z" style="fill: #ad983d; fill-rule: evenodd;"/>
  <path d="M164.65,263.93c-.49,1.51-.53,3,.17,4.47-.26,4.14.64,8.08,2.04,11.93,2.34,6.46,1.65,12.26-3.6,17.12-1.91-.17-3.19-1.21-4.07-2.85-.89-2.23-.85-4.52-.44-6.83.87-10.74-2.2-21.2-2.21-31.88.41-3.5.59-7.05,2.09-10.33,1.14-1.55,2.38-2.73,4.36-1.18.73,6.5.85,13.06,1.66,19.55Z" style="fill: #85804d; fill-rule: evenodd;"/>
  <path d="M58.21,334.2c-2.11,2.12-3.91,4.19-7.42,1.64-3.75-2.74-3.97-2.41-5.69,1.63-.56,1.33-1.03,2.79-1.94,3.85-.87,1.01-1.97.32-2.74-.6-.25-.72-.13-1.36.38-1.93.88-1.12.88-2.45.88-3.77-.02-.84-.03-1.7-.03-2.55.18-1.22.68-2.33,1.27-3.38.36-.66.82-1.26,1.34-1.79.57-.52,1.24-.64,1.95-.36,1.4-1.42-1.17-1.24-.89-2.21-.41-1.26-.52-2.53-.51-3.84.38-4.01,1.17-7.86,3.66-11.16.88-.61,1.85-.79,2.9-.56,5.04,3.64-1.44,11.4,5.19,14.46.72,1.21.58,2.81,1.73,3.83h0c1.34,1.55,1.27,3.2.32,4.91l.03.97-.45.86Z" style="fill: #45362e; fill-rule: evenodd;"/>
  <path d="M161.95,243.92c-.72.8-1.42,1.6-2.14,2.4-1.06.47-2.01.32-2.88-.45-.64-.87-1.13-1.82-1.5-2.84-1.73-6.72-3.56-13.41-6.19-19.86-.38-2.4-.09-4.62,1.78-6.38,1.14-.81,2.15-.68,3.04.39,2.07,5.98,5.84,10.91,9.73,15.76l.18-.07c2.23,4.21,2.91,8.14-2.02,11.05Z" style="fill: #92803f; fill-rule: evenodd;"/>
  <path d="M129.27,335.59c-1.93-3.43-5.77-4.11-8.73-6.06.25-.44.49-.88.73-1.32,7.7-3.47,15.07-7.56,22.34-11.84.83-.57,1.72-1.02,2.65-1.42.48-.11.98-.21,1.46-.31,1,.13,1.85.56,2.57,1.28.63,3.84,7.38,5.62,3.72,10.92-1.77-1.32-3.55-2.71-5.96-2.22-6.53,1.32-12.61,3.77-17.89,7.88-.69.54-.61,2.05-.88,3.1Z" style="fill: #58493e; fill-rule: evenodd;"/>
  <path d="M160.56,295.12c.9.78,1.8,1.56,2.7,2.33.98,4.04.04,7.83-1.52,11.53.08,1.42.13,2.84-.45,4.21-3.25,1.46-6.45,1.22-9.64-.22-.94-1.17-1.21-2.52-1.07-3.98.47-2.68,1.04-5.35,1.81-7.97.61-1.69.66-3.47.83-5.24.41-.89,1.08-1.51,1.97-1.93,2.03-.58,3.85-.26,5.38,1.28Z" style="fill: #534842; fill-rule: evenodd;"/>
  <path d="M154.07,217.18c-1.08.06-2.16.13-3.23.2-.44-.3-.88-.59-1.33-.88-1.52-1.58-2.49-3.48-3.32-5.48-1.57-6.75-6.88-12.96-3-20.5.7-2.84.29-6.38,4.45-7.03,1.08,11.43,4.4,22.43,6.43,33.68Z" style="fill: #5f5c3d; fill-rule: evenodd;"/>
  <path d="M151.56,312.81c3.08-1.28,6.15-2.25,8.99.55,1.5,6.45-.52,11.5-6.01,15.18-.56-.44-.74-1.01-.54-1.7.26-1.52.11-3.62-1.23-3.84-5.35-.88-3.39-4.36-3.03-7.35,0,0-.05-.91-.05-.91.24-.58.6-1.07,1.06-1.48,0,0,.8-.45.8-.45Z" style="fill: #342923; fill-rule: evenodd;"/>
  <path d="M58.64,332.37c-.11-1.64-.22-3.28-.32-4.93,3.47-.06,6.67-3.03,10.45-.72,1,.6,2.77,0,4.18-.15,4.5-.47,4.5-.49,5.53,4.68-6.64-.12-13.4-2.25-19.84,1.12Z" style="fill: #5c4a3e; fill-rule: evenodd;"/>
  <path d="M154.54,328.54c2.63-4.81,4.87-9.79,6.01-15.18.39-1.46.79-2.92,1.19-4.38,3.83,8.12.19,14.83-4.3,21.18-.8,1.14-2.66.31-2.9-1.62Z" style="fill: #58493e; fill-rule: evenodd;"/>
  <path d="M141.49,154.82c-1.19-.31-1.92-.98-1.83-2.31,1.31.22,2.05.89,1.83,2.31Z" style="fill: #ad983d; fill-rule: evenodd;"/>
  <path d="M73.33,101.55c-.03-.71.12-1.39.44-2.03.86-.48,1.5-1.16,1.95-2.03l.28-.1c5.25-9.79,11.99-18.77,15.75-29.35,4.1-6.03,1.94-13.72,5.26-19.96,1.37-1.67,3.17-2.71,5.15-3.48,2.05-.62,4.09-.7,6.08.25,3.1,2.79.97,6.52,1.75,9.73-.03,3.92-2.6,7.02-3.47,10.68-.29.9-.65,1.77-1.05,2.63-2.2,3.77-2.33,8.12-3.45,12.19-2.1,3.8-4.36,7.5-5.95,11.56-2.41,3.72-3.87,8.01-6.91,11.35-1.11,1.01-2.36,1.83-3.69,2.52-3.92,2.1-7.58,2.09-10.78-1.4-.66-.74-1.09-1.61-1.35-2.57Z" style="fill: #554440; fill-rule: evenodd;"/>
  <path d="M122.5,48.2c2.19,8.12.81,15.83-2.92,23.16-2.1,4.11-1.72,8.56-2.3,12.88-1.27,9.45-1.64,18.93-.69,28.43-.53.47-1.09.71-1.71.7-.64,0-.96-.06-.97-.18-.8-.8-1.13-1.76-.94-2.89-1.45.75-.83,2.49-1.69,3.57-.63.91-1.44,1.49-2.49,1.77-1.08-.33-1.93-.94-2.55-1.89-.7-1.6-.86-3.27-.69-4.99,1.81-8.01.12-16.25,1.67-24.27,2.22-6.45.47-13.71,4.04-19.87,8.3-8.57,3.81-16.3-1.63-23.98-.19-6.88,2.79-7.94,7.68-3.75,3.31,2.84,5.88,6.45,5.19,11.32Z" style="fill: #554440; fill-rule: evenodd;"/>
  <path d="M75.71,91.12c-.56-.94-1.44-1.83-1.62-2.84-1.44-8.31.6-16.23,3.85-23.67,2.18-4.99,5.76-9.35,8.72-14,2.62-1.17,3.93.5,5.14,2.38.31,1.03.38,2.08.22,3.14-2.11,8.37-6.7,15.96-7.35,24.87-.38,5.15-4.52,8.01-8.96,10.11Z" style="fill: #d4d2dd; fill-rule: evenodd;"/>
  <path d="M75.71,91.12c4.75-5.76,9.01-11.69,7.37-19.84-.14-.67-.05-1.69.37-2.11,3.94-3.95,3.53-10.31,7.83-14.03,4.91,3.73,2.85,8.75,2.48,13.46-2.52,6.12-4.99,12.27-7.6,18.36-.89,2.07-2.4,3.76-4.79,4.19-.93.16-1.64.57-1.23,1.41,2.41,4.92-1.45,4.36-4.14,4.85-.1-2.09-.2-4.19-.29-6.28Z" style="fill: #bdb9ca; fill-rule: evenodd;"/>
  <path d="M126.4,1.32c5.8-2.34,7.9-1.68,9.18,2.91.8,2.88.88,5.6-.41,8.52-2.92,6.62-5.48,13.38-8.19,20.09-4.65-2.75-4.06-7.29-3.97-11.64.05-.88.23-1.74.48-2.58.57-1.6.46-3.15-.49-4.64-.45-.78-.81-1.57-1.14-2.4-.75-2.64-2.32-5.3.16-7.87.59-.41,1.23-.66,1.95-.74,1.67.71,1.65-1.07,2.44-1.65Z" style="fill: #a6a5b7; fill-rule: evenodd;"/>
  <path d="M93.76,68.59c-.83-4.49-1.66-8.98-2.48-13.46v-.06c.24-4.6-1.15-9.41,1.81-13.65,1.57-2.87,3.14-5.74,4.71-8.61,3.06-.89,5.24-5.5,9.3-2.18,2.81,4.39-.56,7.52-2.21,11-.44.86-1.01,1.63-1.66,2.33-1.97,1.25-3.86,2.59-5.3,4.47-.39,4.4-.59,8.84-1.27,13.2-.38,2.46-.46,5.26-2.89,6.96Z" style="fill: #a19bb0; fill-rule: evenodd;"/>
  <path d="M102.21,41.54c.12-1.81.64-3.45,2.22-4.53,2.43-1.66,2.19-4.17,2.15-6.63.17-.39.34-.77.5-1.17,1.33-1.67,2.72-3.27,4.95-3.77.84.15,1.63.45,2.37.86,1.28.42,2.59.2,3.91.09,4.46,3.1,5.04,4.49,6.31,15.13-.51,2.29.13,4.95-2.11,6.69-1.98-2.98-3.88-6.02-5.97-8.91-1.02-1.4-2.45-3.38-4.16-2.76-1.77.64-1.29,3.08-1.39,4.84-.6.71-1.36,1.15-2.29,1.3-2.17-.29-4.48.18-6.48-1.12Z" style="fill: #8d818c; fill-rule: evenodd;"/>
  <path d="M106.58,30.38c-1.23.44-3.04.52-3.6,1.39-1.52,2.39-3.24,1.81-5.18,1.03,6.25-11.21,13.75-21.39,24.22-29.1.73,2.86,1.47,5.73,2.2,8.59-.44.8-1.11,1.06-1.98.87-.66-.31-.68-1.01-.92-1.58-.31.57-.4,1.19-.26,1.86-.22.81-.62,1.5-1.2,2.1-.94.79-1.97,1.44-2.96,2.15-.57.58-1.11,1.17-1.59,1.82-.83,1.48-.91,3.27-1.91,4.68-3.4.82-4.67,3.99-6.81,6.18h0Z" style="fill: #b2b3ca; fill-rule: evenodd;"/>
  <path d="M60.48,129.47c-.6-.27-1.2-.56-1.78-.88,0-5.05-.81-10.09,1.64-14.99,1.9-3.79,4.09-6.8,8.51-7.57.43.26.86.53,1.3.78,1.65,3.7,3.47,7.39.84,11.41-1.66,2.32-3.45,4.56-5.25,6.79-1.61,1.65-2.95,3.62-5.26,4.45Z" style="fill: #5d4a40; fill-rule: evenodd;"/>
  <path d="M124.61,41.52c-.22-1.77-.2-4.28-1.83-4.75-4.21-1.22-5.25-2.64-1.76-5.98.66-.62-.17-2.12-1.29-2.38-1.37-.31-2.82-.23-4.24-.32-.29-.29-.59-.59-.88-.88,0-.42,0-.83,0-1.24.17-.37.34-.75.5-1.12,1.08-1.26-1.1-1.93-.57-3.12.4-.87.98-1.57,1.73-2.14,2.62-1.39,5.22-2.93,8.07-.51.88,4.59,1.76,9.18,2.64,13.77-.35,3.01.49,6.35-2.37,8.68Z" style="fill: #958f9e; fill-rule: evenodd;"/>
  <path d="M127.48,128.32c-.68.01-1.36.05-2.04.04-2.8,0-3.49,1.33-2.62,3.88.32.93.24,2,.34,3.02-2.93,2.44-.19,9.39-6.96,8.79-3.03-3.87-1.32-7.95-.53-11.99.19-1.43.46-2.86.72-4.28.14-.91.39-1.8.7-2.66.2-.4.42-.8.63-1.2.53-.69,1.15-1.32,1.81-1.89,1.27-1.11,2.32-2.51,3.88-3.3.89-.12,1.62.18,2.19.88-2.08,3.49,1.76,5.7,1.9,8.71Z" style="fill: #554440; fill-rule: evenodd;"/>
  <path d="M125.57,119.61c-.95-.03-1.91-.06-2.86-.08-1.27.72-2.08-.08-2.92-.82-1.69-.93-.92,1.51-1.99,1.44-4.36.99-4.6-4.66-8.13-4.98.1-.88.19-1.76.28-2.64,1.27-.85,2.52-1,3.75.07.97.02,1.93.05,2.89.07,1.18-.06,2.36-.13,3.54-.19,7.59-1.97,7.23,2.03,5.37,7.15l.07-.03Z" style="fill: #544734; fill-rule: evenodd;"/>
  <path d="M93.08,41.42c.09,2.93.17,5.88.25,8.81.05,1.93-.47,3.61-2.06,4.84-1-2.06-2.47-3.61-4.63-4.45.38-4.29,3.11-6.95,6.43-9.2Z" style="fill: #bdb9ca; fill-rule: evenodd;"/>
  <path d="M125.5,119.64c-.08-3.67-.66-6.95-5.37-7.15.59-.42,1.14-.93,1.79-1.24,2.42-1.2,5.03-1.95,6.86.67.69.99.42,2.8.25,4.2-.24,1.98-1.42,3.28-3.53,3.53Z" style="fill: #554440; fill-rule: evenodd;"/>
  <path d="M68.85,106.04c1.49-1.49,2.99-2.99,4.48-4.48.31.31.62.62.93.93,1.06,4.09-.39,5.58-4.48,4.35-.3-.28-.6-.55-.92-.81Z" style="fill: #554440; fill-rule: evenodd;"/>
  <path d="M126.4,1.32c-.3.96-.61,1.92-.92,2.88-.5-.4-1.01-.81-1.52-1.22.81-.55,1.63-1.11,2.44-1.66Z" style="fill: #b2b3ca; fill-rule: evenodd;"/>
  <path d="M75.72,97.49c.07,1.36-.75,1.88-1.95,2.03.15-1.16.79-1.84,1.95-2.03Z" style="fill: #d4d2dd; fill-rule: evenodd;"/>
  <path d="M161.95,243.92c3.06-3.24,2.01-7.25,2.02-11.05,1.34.77,2.45,1.79,2.48,3.41.05,3.33.72,6.91-.26,9.94-1.45,4.51-1.85,8.56.19,12.91.88,1.86-.05,3.59-1.74,4.79-3.49-6.32-2.75-13.21-2.69-20.01Z" style="fill: #fffffb; fill-rule: evenodd;"/>
  <path d="M26.98,338.93c-1.39,4.48-2.78,8.96-4.16,13.44-1.82,1.6-3.73,3.59-6.3,2.2-1.71-.92-1.58-2.84-.4-4.45v.03c2.18-1.91.39-4.97,2.04-7.03,1.27-10.48,3.93-20.7,4.99-31.24.59-5.79,1.19-11.57,1.55-17.38,2.07-3.68.25-7.6.69-11.39.71-2.35,1.83-4.36,4.19-5.43,1.94-.38,3.64-.02,4.92,1.62,3.03,6.52,1.86,13.4,1.77,20.19-.08,1.2-.29,2.39-.57,3.56-2.29,8.97-1.05,18.43-3.64,27.37-.2,1.12-.56,2.2-1.05,3.22-1.3,1.79-2.58,3.62-4.04,5.3Z" style="fill: #3b312b; fill-rule: evenodd;"/>
  <path d="M28.86,278.66c0,1.73-.28,3.36-1.73,4.55-3.48-2.57-2.4,2.72-4.46,2.6-1.73,4.8-4.56,8.96-7.39,13.14-.58.78-1.1,1.6-1.55,2.46h0c-2.58,1.56-3.31,4.28-4.32,6.83h0c-4.56,1.57-7.33.46-7.25-4.88l-.03.03c.98-.58,1.79-1.32,2.21-2.41l-.1.11c1.15-.54,1.87-1.45,2.22-2.65-.06-.73.21-1.29.81-1.69.4-.84.92-1.6,1.54-2.28l.02-.03c1.03-.79,1.86-1.69,1.87-3.09,2.72-5.23,5.47-10.44,8.16-15.69,1.25-2.43,1.7-4.79-.48-7.11-1.81-1.92-1.25-4.35-.14-6.23,3.92-6.64,6.98-13.82,12.31-19.58,1.4.99,1.99,2.43,2.23,4.06-2.4,10.48-1.81,21.35-3.95,31.88Z" style="fill: #473930; fill-rule: evenodd;"/>
  <path d="M30.74,247.45c-.05-1.57-.1-3.15-.16-4.73,4.78-9.46,7.63-19.82,13.33-28.86,1.31-1.46.98-3.48,1.78-5.11-.25-.63-.12-1.15.42-1.57,8.56-1.48,6.16,4.85,6.58,9.18-.53,2.77-1.44,5.48-1.47,8.34-.14,2.11-.41,4.21-.92,6.26-1.02,3.23-1.55,6.65-3.26,9.65-.93,1.49-1.67,3.07-1.92,4.84-.31,1.35-1.08,2.36-2.28,3.04-1.23.5-2.52.64-3.83.52-.83-.1-1.66-.27-2.47-.44-1.23-.13-2.46-.1-3.7-.03-.88-.03-1.56-.42-2.09-1.1Z" style="fill: #372d28; fill-rule: evenodd;"/>
  <path d="M60.48,129.47c.44-2.8,1.52-5,4.82-5.13,0,0,.69.78.7.78-.2.68-.59,1.23-1.18,1.61,1.66.54.23-1.71,1.44-1.61.34-.78.75-1.48,1.23-2.17.34-.3.67-.57,1.02-.86.86-.46,1.74-.59,2.69-.41.41.28.79.55,1.19.83,2.9,4.31-.31,8.67.18,12.99-.56,7.69,5.43,15.77-1.31,23.11-4.14,2.21-4.5,12.23-12.66,6.19l.05.07c-1.21-2.49-1.1-5-.11-7.52-.5-2.05-.5-4.08.32-6.06,1.92-1.86.14-4.85,2.04-6.71l.03-.04c1.76-4.47,1.66-8.93-.1-13.38-.54-.48-.65-1.05-.35-1.7Z" style="fill: #473930; fill-rule: evenodd;"/>
  <path d="M58.59,164.81c1.91.33,3.73,1.61,5.32-1.17,1.36-2.36,3.71-4.14,5.61-6.18.43.29.86.58,1.29.87.53.92.83,1.9.96,2.94.02,1.04-.09,2.07-.33,3.09-2.54,7.22-6.97,13.69-8.48,21.33-1.93,4.12.46,9.89-4.83,12.73-4.31-1.81-4.73-5.06-3.41-8.93-2.91,2.24-.54,8.42-6.26,8.74.08-3.24-.04-6.5.31-9.71.26-2.47.48-5.36,1.85-7.22,3.72-5.04,4.93-11.18,7.96-16.47Z" style="fill: #62553b; fill-rule: evenodd;"/>
  <path d="M48.47,198.21c2.87-2.76,2.67-6.76,4.06-10.13.69-1.67,1.1-4.26,3.13-3.67,1.92.57,1.51,3.39.85,4.95-1.29,3.09.34,5.8.45,8.68.07.51.15,1.03.23,1.55.2,1.05.3,2.1.31,3.16-.39,5.81.9,12.23-5.59,15.89-.52-.16-1.04-.33-1.56-.49.02-2.08.03-4.16.05-6.23.02-2.9-1.38-4.5-4.3-4.75-.42-3.31,2.13-5.83,2.37-8.97Z" style="fill: #453a2e; fill-rule: evenodd;"/>
  <path d="M26.98,338.93c-.45-2.04.29-3.58,2.02-4.68,6.11-5.23,9.81-11.83,11.12-19.77.36-2.16,1.01-4.23,1.74-6.26.82-2.3,1.51-5.69,4.55-5.01,3.03.69,4.3,3.59,3.12,6.91.68,4.49-2.29,8.19-2.68,12.45-1.01,1.54-.32,3.7-1.87,5.04v.05c-1.42,1.14-1,3.03-1.82,4.41-.44.62-.59,1.31-.47,2.06-.37.78-.96,1.07-1.8.78-.61-.89-1.69-1.88-2.48-1.18-3.32,2.92-7.84,3.03-11.43,5.21Z" style="fill: #e9ebe9; fill-rule: evenodd;"/>
  <path d="M16.11,350.12c.42,2.8,1.82,3.73,4.52,2.5.63-.29,1.45-.18,2.18-.25-1.08,5.17-2.8,7.5-4.97,6.7-2.9-1.07-3.54-4.39-1.74-8.95Z" style="fill: #6e584b; fill-rule: evenodd;"/>
  <path d="M2.16,303.35c1.36,3.2,4.02,4.47,7.25,4.88-.32.64-.49,1.42-.97,1.87-2.67,2.5-4.93,2.98-6.43,1.42-1.27-1.34-1.98-2.96-2-4.84-.02-1.6.7-2.7,2.16-3.33Z" style="fill: #5b4c40; fill-rule: evenodd;"/>
  <path d="M22.66,285.81c.35-1.3.57-2.65,1.1-3.87.37-.87,1.15-1.56,1.74-2.33.47.87.96,1.72,1.4,2.6.14.29.15.66.22.99-1.13,3.69.09,7.89-2.43,11.28-1.37-2.73.68-6.27-2.03-8.68Z" style="fill: #b1a7a1; fill-rule: evenodd;"/>
  <path d="M60.83,131.17c3.39,4.44,3.57,8.9.1,13.38-.03-4.46-.07-8.92-.1-13.38Z" style="fill: #5d4a40; fill-rule: evenodd;"/>
  <path d="M9.41,308.23q-.31-5.74,4.32-6.82c-.63,2.79-1.6,5.36-4.32,6.82Z" style="fill: #5b4c40; fill-rule: evenodd;"/>
  <path d="M18.16,343.12c.44,2.67.71,5.29-2.05,7.03-.36-2.65.07-5.07,2.05-7.03Z" style="fill: #6e584b; fill-rule: evenodd;"/>
  <path d="M60.89,144.59c.31,2.53.44,5.02-2.04,6.71-.3-2.54.14-4.85,2.04-6.71Z" style="fill: #62553b; fill-rule: evenodd;"/>
  <path d="M58.53,157.36c.03,2.5.07,5.02.11,7.52-2.14-2.48-1.72-4.99-.11-7.52Z" style="fill: #62553b; fill-rule: evenodd;"/>
  <path d="M40.9,334.9c.63-.18,1.23-.44,1.8-.78.23,1.9-.15,3.55-1.88,4.66.03-1.3.06-2.59.08-3.88Z" style="fill: #5c4a3e; fill-rule: evenodd;"/>
  <path d="M45.69,208.75c.3,2.01.14,3.87-1.78,5.11-.29-2.01-.22-3.9,1.78-5.11Z" style="fill: #453a2e; fill-rule: evenodd;"/>
  <path d="M13.72,301.41c-.08-1.19.49-1.98,1.55-2.46.24,1.3-.32,2.1-1.55,2.46Z" style="fill: #5b4c40; fill-rule: evenodd;"/>
  <path d="M10.72,291.34c.05,1.44-.58,2.46-1.87,3.09-.05-1.43.59-2.46,1.87-3.09Z" style="fill: #5b4c40; fill-rule: evenodd;"/>
  <path d="M8.84,294.46c.03,1.13-.5,1.88-1.54,2.28-.19-1.24.42-1.93,1.54-2.28Z" style="fill: #5b4c40; fill-rule: evenodd;"/>
  <path d="M6.48,298.43c-.15,1.37-.9,2.25-2.22,2.65.16-1.37.95-2.22,2.22-2.65Z" style="fill: #5b4c40; fill-rule: evenodd;"/>
  <path d="M4.35,300.98c-.21,1.28-.97,2.07-2.21,2.41.21-1.29.91-2.12,2.21-2.41Z" style="fill: #5b4c40; fill-rule: evenodd;"/>
  <path d="M56.14,325.35c-5-.24-7-1.99-5.82-6.15.94-3.29,1.16-6.46,1.03-9.77-2.31-7.81-1.47-15.4,1.63-22.82,3.44-3.28,5.48-9.79,12.31-5.5,2.45,7,1.02,14.14.76,21.25-.13,1.03-.54,1.94-1.19,2.74-3.69,3.15-2.01,7.41-2.12,11.21-.11,3.85-.6,7.22-4.55,9-.44.52-.89.7-1.35.54-.47-.16-.69-.32-.7-.49Z" style="fill: #3c3335; fill-rule: evenodd;"/>
  <path d="M64.61,282.61c-1.56-2.3-3.37-2.34-5.18-.39-1.42,1.52-2.67,3.21-3.99,4.83-7.13-4.93-.31-8.57,1.15-12.71.71-.73,1.57-1.18,2.59-1.3,3.47.6,5.98,2.95,8.74,4.83.69.57,1.29,1.25,1.81,1.98.61,1.11.93,2.31,1.05,3.54.21,1.93,1.76.21,2.47.86.81.44,1.45,1.03,1.99,1.76,1.45,2.34,4.44,3.88,3.77,7.3-1.42,3.51-2.98,6.98-3.76,10.72-.36.91-.85,1.73-1.42,2.51-1.65,1.93-2.37,4.24-3.02,6.66-.79,2.94-2.13,5.43-5.85,3.07-.04-3.72-.08-7.45-.11-11.18-.11-.76-.22-1.52-.32-2.29,3.61-6.71,1.69-13.46.08-20.19Z" style="fill: #8d89a1; fill-rule: evenodd;"/>
  <path d="M106.76,317.73c-5.07.55-10.39.32-15.13,1.87-5.33,1.74-9.88-2.09-14.87-.73-7.75-3.16-7.98-8.03-3.21-14.05l-.03-.07c2.92-1.36,4.96.23,6.92,2.07,3.45,5.65,8.6,7.15,14.93,6.65,4.12-.33,8.7-2.43,12.25,1.77.45,1.09.2,1.93-.86,2.5Z" style="fill: #c4ccdf; fill-rule: evenodd;"/>
  <path d="M106.76,317.73c.26-.58.5-1.18.71-1.78.68-1.03,1.59-1.81,2.69-2.36,12.43-3.33,13.07-3.01,14.72,7.37-.53,2.95-1.78,5.55-3.84,7.75,0,0-.5.81-.51.82-1.18-1.36-2.11-3.38-3.61-3.97-3.45-1.37-6.62-2.54-7.21-6.88-.06-.44-1.93-.64-2.96-.94Z" style="fill: #63544d; fill-rule: evenodd;"/>
  <path d="M73.55,304.83c-2.46,5.49-1.11,10.11,3.21,14.05-3.59,3.16-7.39,1.32-11.05.29-.49-.14-.51-1.89-.75-2.9,2.24-.33,4.12-.81,3.55-3.88-.76-4.04.54-6.92,5.04-7.55Z" style="fill: #b1b7cf; fill-rule: evenodd;"/>
  <path d="M56.14,325.35c.68-.05,1.36-.06,2.04-.05.07.72.12,1.44.14,2.17-.72-.7-1.45-1.41-2.18-2.11Z" style="fill: #5c4a3e; fill-rule: evenodd;"/>
  <path d="M139.12,159.47c.23,1.07.1,2.5.75,3.17,4.96,5.16,4.38,10.51.93,16.11-.58.93-.99,1.97-1.48,2.96-6.84-5.23-10.52-12.6-13.75-20.3.03-3.87.63-7.44,4.96-8.92,1.67,2.78,3.58,5.19,7.22,5.46.49.04.92.98,1.38,1.51Z" style="fill: #b59830; fill-rule: evenodd;"/>
  <path d="M130.52,152.5c-1.81,2.82-2.84,5.86-2.56,9.26-2.23,1.92.34,5.4-2.34,7.18-6.28-.16-6.93-6.24-10.17-9.63-1.23-2.76-1.44-5.6-.74-8.53.34-1.16.93-2.19,1.76-3.08,3.85-2.55,7.93-2.22,12.08-.93,1.62,1.58,1.53,3.74,1.97,5.73Z" style="fill: #f7cc1d; fill-rule: evenodd;"/>
  <path d="M128.55,146.77c-3.55,2.71-7.45,1.38-11.27.97-1.73-.97-1.6-2.22-.56-3.62.88-1.92,1.82-3.81,2.61-5.77.72-1.79,1.74-3.07,3.83-3.09,1.8,3.83,3.59,7.67,5.39,11.5Z" style="fill: #e9ead9; fill-rule: evenodd;"/>
  <path d="M125.78,168.42c.1-2.43-.42-5.05,2.18-6.66.27,2.27.78,4.69,3,5.62,4.88,2.03,6.44,5.72,6.26,10.62-.05,1.58.9,2.75,2.09,3.72v-.02c1.96,1.96.47,4.95,2.08,7.02v.93s.11.93.11.93c1.81,9.16,5.31,17.89,7.05,27.06.16,10.02,7.69,18.26,6.91,28.52.17,1.69,0,3.34-.38,4.98-1.07,3.08-1.08,6.63-3.98,8.88-2.8-.05-4.11-2.12-4.2-4.29-.47-12.03-5.89-22.8-8.39-34.28-1.49-6.85-9.03-9.74-9.9-17.13-.24-2.06-5.39-.7-8.28-.91-4.24-.59-5.18-3.7-5.2-7.22-.03-5.21-1.02-10.11-2.87-15.04-2.18-5.81.49-7.11,5.46-5.27-1.31-1.91-5.44-.89-6.22-4.31-.1-.93.1-1.82.55-2.64.75-1.58,3.4.44,3.77-1.97.45-.78,1.09-1.28,1.95-1.53.93-.02,1.72.31,2.4.91,1.76.98,2.77,3.95,5.59,2.09Z" style="fill: #e2bb25; fill-rule: evenodd;"/>
  <path d="M146.42,219.52c.57-5.63-1.72-10.8-3.11-16.02-1.15-4.31-1.78-8.53-1.81-12.92.56,0,1.13-.03,1.69-.06,1.13,4.61,2.02,9.3,3.5,13.8.92,2.8,2,5.49,1.96,8.49,1.28,1.19.76,3.23,2.08,4.41l.1.16c.06,2.16.11,4.33.17,6.5-4.36,1.54-2.6-3.38-4.59-4.36Z" style="fill: #b59830; fill-rule: evenodd;"/>
  <path d="M141.39,188.71c-2.23-1.88-2.08-4.48-2.09-7.02,2.8,1.71,2.25,4.43,2.09,7.02Z" style="fill: #b59830; fill-rule: evenodd;"/>
  <path d="M160.56,295.12c-2.07.01-4.14.03-6.2.04-3.26.67-6.47.56-9.66-.39-6.11-2.24-13.1-3.4-14.26-11.67,4.44-7.03,10.46-7.67,17.99-.1,3.5,3.52,5.11,1.23,7.68.35,2.51.91,5.54,1.36,4.53,5.28-.03,2.16-.05,4.33-.08,6.49Z" style="fill: #cba630; fill-rule: evenodd;"/>
  <path d="M160.64,288.63c-1.57-1.52-3.13-3.05-4.7-4.57-6.85-6.26-.91-14.33-3.06-21.26-.44-.95-.6-1.95-.54-2.99.52-3.02-.92-6.27,1.04-9.12,0-1.47,0-2.95.02-4.43.97-1.64,1.84-3.46,4.3-2.36.07.77.13,1.55.2,2.32.39,2.97.68,5.94.03,8.92.7,2.05,1.89,4.06,2.01,6.14.39,6.85.41,13.71,2.5,20.39.75,2.4.43,5.08-1.81,6.98Z" style="fill: #baa137; fill-rule: evenodd;"/>
  <path d="M157.94,255.12c-1.91-2.97-2.28-5.94-.03-8.92.64-.01,1.28.02,1.91.12-.07,3.05,1.19,6.39-1.88,8.8Z" style="fill: #7b6e3e; fill-rule: evenodd;"/>
  <path d="M57.78,273.69c-.22,2.39.55,5.03-2.02,6.77-2.96,2-1.2,4.34-.32,6.58-1.54,1.86-1.6,4.01-1.33,6.28.66,5.63-.55,10.96-2.75,16.11-.59.28-1.19.51-1.81.69-1.32-1.66-1.52-4.16-4.53-5.35.5,4.31-2.06,7.64-2.56,11.56-9.42-1.41-7.09-9.46-8.65-15.31-.22-7.46-.44-14.92-.66-22.38-.66-.85-.97-1.82-.95-2.9.91-3.36.3-7.6,5-8.83,5.29,8.44,12.64,6.97,20.25,4.18.82.77.94,1.64.34,2.6Z" style="fill: #b3bfd9; fill-rule: evenodd;"/>
  <path d="M43.17,332.06c-.35-1.86.42-3.26,1.81-4.41.17,1.79-.21,3.34-1.81,4.41Z" style="fill: #5c4a3e; fill-rule: evenodd;"/>
  <path d="M44.99,327.61c-.1-1.95-.05-3.84,1.87-5.04.1,1.67.2,3.33.29,5.01l.03-.02c-.73,0-1.46.02-2.19.05Z" style="fill: #5c4a3e; fill-rule: evenodd;"/>
  <path d="M47.15,327.58c.31.16.91.39.89.48-.15.73-.49.55-.86-.5l-.03.02Z" style="fill: #5c4a3e; fill-rule: evenodd;"/>
  <path d="M157.71,243.88c-1.43.79-2.87,1.57-4.31,2.36-.77-7.52-2.6-14.7-6.26-21.41-.8-1.47-.52-3.53-.73-5.32,1.53,1.46,3.06,2.9,4.59,4.36,5.03,5.73,5.67,12.94,6.71,20.01Z" style="fill: #dcb52d; fill-rule: evenodd;"/>
  <path d="M121.04,328.71c-.77-2.5-1.15-4.89,1.57-6.55,2.66-2.13,5.24-4.38,8.07-6.32,1.48-1.1,2.8-2.34,3.86-3.87,4.95-7.19,9.5-7.15,13.59.8.3,1.02.21,2-.32,2.92l-.38-.22c-.79.67-1.51,1.4-2.16,2.2-5.59,3.55-11.21,7.04-16.75,10.67-2.5,1.63-4.94,1.11-7.47.38Z" style="fill: #f1f0ef; fill-rule: evenodd;"/>
  <path d="M145.27,317.67c.72-.73,1.44-1.47,2.16-2.2-.1,1.35-.9,2-2.16,2.2Z" style="fill: #dce1ed; fill-rule: evenodd;"/>
  <path d="M147.81,315.69c-.13-.84-.26-1.68-.39-2.52.4-.23.81-.45,1.22-.68.45.12.9.24,1.36.35.44.9.39,1.77-.13,2.61l-.12.19c-.64.05-1.29.07-1.94.04Z" style="fill: #aca7ac; fill-rule: evenodd;"/>
  <path d="M145.17,292.75c3.09.69,6.58-.15,9.18,2.41,0,0,.05.98.05.98l-.07.98c-.43.36-.85.72-1.28,1.08-3.67-.31-8.12.49-7.88-5.46Z" style="fill: #aca7ac; fill-rule: evenodd;"/>
  <path d="M154.4,300.1c-.83,3.01,1.23,6.62-1.94,9.13-1.05-.26-1.87-.83-2.47-1.73-1.79-3.9-1.89-7.16,3.23-8.42.39.34.79.68,1.18,1.02Z" style="fill: #aca7ac; fill-rule: evenodd;"/>
  <path d="M152.47,309.24c-.3,1.19-.61,2.38-.91,3.57l.02.02c-.25.55-.59.82-1.02.79-.47-.02-.71-.11-.71-.25-.29-.26-.59-.53-.88-.8-.77-2.3-.34-3.92,2.41-4.22.37.29.73.59,1.09.88Z" style="fill: #aca7ac; fill-rule: evenodd;"/>
  <path d="M154.33,297.12c1.1.97,1.07,1.96.07,2.98-.38-.29-.75-.58-1.13-.87-.02-.4-.04-.81-.06-1.22.37-.3.74-.6,1.11-.9Z" style="fill: #aca7ac; fill-rule: evenodd;"/>
  <path d="M150.73,217.22c-1.78-.96-2.16-2.57-2.08-4.41,1.68,1,2.1,2.59,2.08,4.41Z" style="fill: #92803f; fill-rule: evenodd;"/>
  <path d="M149.85,313.37c.53-.33,1.1-.51,1.73-.54-.04,1.22-.64,2.07-1.71,2.63-.1-.69-.11-1.39-.02-2.09Z" style="fill: #58493e; fill-rule: evenodd;"/>
  <path d="M87.68,102.07c.67-4.6,4.06-7.66,6.41-11.3,3.22-2.05,4.9-9.02,10.3-4.27,5.9,5.19,2.94,11.22.04,16.87-9.35,4.56-2.89,7.74,1,11.16.68,1.04.73,2.09.14,3.19-.91.81-1.93,1.35-3.11,1.64-15.36-1.82-19.1-6.2-14.79-17.28Z" style="fill: #cfd2e0; fill-rule: evenodd;"/>
  <path d="M102.91,103.99c.8-3.13,1.38-6.34,2.46-9.37,1.02-2.88.16-4.78-2.03-6.58-2.96-2.43-4.41-.05-6.28,1.62-.73.66-1.96.76-2.97,1.11.66-4.59,3.03-8.19,6.43-11.21,2.99-3.92,1.53-9.31,4.37-13.28h.03c8.78,4.02,4.54,11.56,4.85,17.87-.11,3.92-.12,7.85-.37,11.76-.31,4.93.75,10.06-1.93,14.68-5.14.3-5.43-2.75-4.57-6.6Z" style="fill: #bbb7c0; fill-rule: evenodd;"/>
  <path d="M69.78,106.85c2.52-.4,3.96-1.9,4.48-4.36.7.04,1.8-.2,2.04.15,2.36,3.47,5.64,1.77,8.63,1.67,5.52,8.79-3.54,13.34-5.78,19.87-.69.74-1.56,1.17-2.55,1.33-3.49.18-3.59-4.5-6.78-4.75-.78-.71-.95-1.53-.54-2.5,1.06-2.26,2.1-4.39-.17-6.71-1.54-1.58-.34-3.24.67-4.71Z" style="fill: #41352d; fill-rule: evenodd;"/>
  <path d="M78.35,124.02c-.16-1.91-3.94-3.95.88-5.7,1.99-.72,3.56-3.74,5.29-5.64,1.45-1.59.37-5.5.41-8.38.92-.75,1.83-1.49,2.75-2.23-.05,2.51-.37,5.06-.05,7.52.16,1.24,1.23,2.95,2.31,3.39,4.92,2.01,9.44,5.64,15.31,4.45-3.96,11.89-10.87,2.37-16.55,2.24-.71,1.96,2.74,4.63-.98,6.08-3.46,1.2-6.73,1.43-9.37-1.73Z" style="fill: #574a41; fill-rule: evenodd;"/>
  <path d="M109.29,41.83c.56-.16,1.12-.32,1.68-.47,8.07,6.41,9.76,11.78,5.89,19.63-.58,1.18-2.18,1.85-3.31,2.76-.71-.54-1.23-1.22-1.59-2.03-.42-1.16-.65-2.37-.83-3.58-.07-.72-.1-1.46-.1-2.17,0,.03.1-.96.1-.96,0,0-.97-.22-.97-.2,0,0-.94.29-.94.29-4.21-2.93-1.44-6.04-.24-9.11-1.33-1.49-1.41-2.89.3-4.17Z" style="fill: #403430; fill-rule: evenodd;"/>
  <path d="M113.41,61.81v.99s.15.96.15.96c-1.14,4.66-2.49,9.25-2.11,14.18.16,2.13.19,4.5-1.68,6.21-.54-3.83-1.15-7.66-1.6-11.51-.3-2.56-1.05-4.8-3.25-6.35-1.59-4.9,2.23-7.7,4.31-11.19,0,0-.05,0-.05,0,.44-.58.87-.77,1.29-.56.41.21.61.42.61.62l-.06-.14c2.4,1.7.58,4.89,2.4,6.79Z" style="fill: #91848e; fill-rule: evenodd;"/>
  <path d="M104.89,66.28c0,1.8-.13,3.6.02,5.39.29,3.65-1.13,6.26-4.39,7.89-.47-5.06-.19-9.88,4.37-13.28Z" style="fill: #91848e; fill-rule: evenodd;"/>
  <path d="M109.29,41.83c-.1,1.39-.2,2.78-.3,4.17-2.21.05-4.42.11-6.63.16-.86-.74-.99-1.6-.38-2.56.04-.69.11-1.37.22-2.05,2.43-1.54,4.78-1.18,7.09.29Z" style="fill: #796c77; fill-rule: evenodd;"/>
  <path d="M101.99,43.6c.12.86.25,1.71.38,2.56-1.08,1.54-2.62,2.19-4.45,2.27-.13-2.86,1.32-4.4,4.07-4.83Z" style="fill: #8d818c; fill-rule: evenodd;"/>
  <path d="M89.75,124.14c-.94-2.4-4.01-1.48-5.29-3.35,4.5-5.79,4.54-5.8,8.96-2.72q5.35,3.73,11.83-.63l.1-.04c.45-.65.85-1.33,1.17-2.05.39-.06.79-.12,1.18-.18.65.09,1.31.09,1.97,0,2.29.16,4.96-1.27,5.88,2.79.47,2.06,2.22.57,3.07-.72.49-.45.98-.6,1.48-.45.49.15.73.3.74.45.62.77,1.25,1.53,1.88,2.29.04,1.67-.04,3.28-1.69,4.28-.54-.51-1.08-.67-1.61-.48-.52.19-.78.37-.78.55h0c-.75.78-.75,1.57.01,2.35.02,1.44.04,2.88.07,4.32-7.11,9.14-14.9,2.64-22.48.99-1.94-.69-3.78-1.56-5.17-3.16-.6-.83-1.04-1.74-1.32-2.73,0-.51,0-1.02,0-1.52Z" style="fill: #342924; fill-rule: evenodd;"/>
  <path d="M102.91,103.99c1.4,2.28,2.04,5.1,4.57,6.6.07,1.52.14,3.05.22,4.57l-.19.23c-.52.48-1.08.53-1.67.15-2.04-.69-4.09-1.34-6.11-2.07-2.28-.83-3.1-2.69-3.75-4.89-1.05-3.63-.09-5.31,3.86-5.55.99-.06,2.04.62,3.07.96Z" style="fill: #e6e9f0; fill-rule: evenodd;"/>
  <path d="M113.7,112.61c-1.25-.02-2.5-.05-3.76-.07.64-1.27,1.26-2.56,1.94-3.81.15-.27.71-.62.76-.58.41.37.98.79,1.05,1.25.14,1.05.02,2.14,0,3.21Z" style="fill: #342924; fill-rule: evenodd;"/>
  <path d="M124.34,19.06c-2.95.79-5.9,1.59-8.86,2.38-1.45-1.47-1.41-2.99-.14-4.55h0c1.22-1.26,3.28-.9,4.44-2.28,0-.73.03-1.44.07-2.17.47-.53.94-.72,1.43-.56.49.16.73.32.73.49.73-.01,1.47-.03,2.2-.07.02.78.04,1.55.05,2.32,0,0-.12.97-.11.97.25.62.58,1.19,1.02,1.7-.1.68-.39,1.28-.86,1.79h.02Z" style="fill: #a19bb0; fill-rule: evenodd;"/>
  <path d="M124.31,19.08c-.01-.76-.03-1.51-.05-2.27-.69-.75-.69-1.49.02-2.21,0,0-.02.02-.02.03.95.28,2.57.36,2.73.88.64,2.12-1.24,2.77-2.68,3.57Z" style="fill: #958f9e; fill-rule: evenodd;"/>
  <path d="M106.58,30.38c.12-4.27,2.32-6.52,6.57-6.78.29.38.57.76.85,1.13-.28.38-.55.77-.83,1.15-2.41,1.18-3.07,4.95-6.6,4.49Z" style="fill: #a19bb0; fill-rule: evenodd;"/>
  <path d="M115.49,28.08c-.33.87-.88,1.19-1.56.79-.27-.15-.38-.58-.56-.89.46-.67.92-.89,1.37-.66.44.23.67.46.67.69l.07.07Z" style="fill: #958f9e; fill-rule: evenodd;"/>
  <path d="M115.42,28.01c-.68.03-1.37.02-2.05-.03-.08-.7-.15-1.4-.19-2.09,0,0,.09-.09.09-.09.5-.6.98-.79,1.46-.57.46.21.7.42.7.64.02.71,0,1.43-.02,2.15Z" style="fill: #a19bb0; fill-rule: evenodd;"/>
  <path d="M115.44,25.86c-.73-.01-1.44-.04-2.16-.07-.05-.73-.09-1.46-.11-2.19-.29-.65-.61-1.28-.85-1.93-1.26-3.4-1.27-3.45,3.03-4.78.05,1.52.1,3.03.14,4.55v2.12c.68.76.64,1.51,0,2.25l-.04.05Z" style="fill: #a6a5b7; fill-rule: evenodd;"/>
  <path d="M119.78,14.61c-.91,1.86-2.59,2.23-4.44,2.29.94-1.82,2.61-2.2,4.44-2.29Z" style="fill: #a6a5b7; fill-rule: evenodd;"/>
  <path d="M122.01,12.38c-.72.02-1.44.05-2.16.07.25-.9.78-1.27,1.51-.91.29.14.44.55.65.84Z" style="fill: #a6a5b7; fill-rule: evenodd;"/>
  <path d="M69.27,118.27c.1.55.22,1.08.39,1.61,1,.78,1.01,1.52-.11,2.19l-.02.08c-.63.85-1.49,1.47-2.18,2.26l.02-.02c-.49.62-.96.82-1.42.59-.45-.22-.68-.44-.68-.65,0,0,.03.01.03.01-.36-3.13.89-5.2,3.97-6.08Z" style="fill: #888f86; fill-rule: evenodd;"/>
  <path d="M115.48,25.81c0-.75,0-1.5.01-2.25,1.24.76,1.28,1.51-.01,2.25Z" style="fill: #a19bb0; fill-rule: evenodd;"/>
  <path d="M96.33,128.7c3.45,2.59,8.61.9,11.6,4.63,3.3-2.09,7.67,0,10.8-2.77-.55,4.54-2.95,8.81-2.01,13.57.19,1.2.37,2.41.56,3.62-.25.87-.51,1.74-.77,2.61-1.21,1.88-.7,4.28-1.89,6.18-3.33,5.28-8.47,7.32-14.34,8.11-5.83-.3-12.04,0-13.55-7.79,5.57-6.02,13.81-7.83,20.04-12.62.79-1.15,1.16,1,.64-.39-.5-1.37-1.45.14-2.2-.2-6.58-.41-7.07-6.42-9.75-10.42-.45-1.65-.29-3.18.87-4.52Z" style="fill: #544734; fill-rule: evenodd;"/>
  <path d="M118.65,123.88c.74-1.57,1.54-1.46,2.38-.07-.8.03-1.59.05-2.38.07Z" style="fill: #544734; fill-rule: evenodd;"/>
  <path d="M118.66,126.23c-1.38-.78-1.54-1.56-.01-2.35,0,.78,0,1.57.01,2.35Z" style="fill: #544734; fill-rule: evenodd;"/>
  <path d="M120.84,117.24c-.74.02-1.48.02-2.22,0,.74-1.56,1.48-1.55,2.22,0Z" style="fill: #554440; fill-rule: evenodd;"/>
  <path d="M33.53,276.91l.09.93-.49.79c-1.42,0-2.85.01-4.28.02-1.34-2.62-2.04-5.1-1.82-8.34.3-4.45,4.3-8.85.65-13.46,1.02-3.13,2.03-6.27,3.04-9.41.76-.01,1.52-.03,2.28-.05,1.47-1.29,2.94-1.22,4.42,0h-.02c2.56,4.72-2.31,9.88.83,14.58-.06,1.02-.42,1.92-1.05,2.72-4.81,2.99-1.69,8.37-3.67,12.22Z" style="fill: #312520; fill-rule: evenodd;"/>
  <path d="M33.8,301.02c1.64.83,2.81,2.02,3.68,3.7,1.07,2.06-3.78,4.93.64,6.12,3.18.86,1.56,4.76,4.33,5.5-.19,5.02-3.05,9.01-5.35,13.14-1.66,2.98-4.28,5.08-8.1,4.77.26-.71.52-1.41.77-2.11,5.2-9.37,1.95-19.75,3.52-29.56-.24-.65-.07-1.17.51-1.56Z" style="fill: #bfcbe0; fill-rule: evenodd;"/>
  <path d="M33.29,302.58c.65,4.52-.48,9.42,3.35,13.27.72.73.71,3.5,0,4.13-3.79,3.29-2.99,9.04-6.86,12.16-.03-.36-.14-.73-.1-1.08.99-7.8,2.13-15.59,1.89-23.5-.05-1.82.38-3.58,1.72-4.98Z" style="fill: #b5bfd7; fill-rule: evenodd;"/>
  <path d="M42.2,247.47c.91-.62,1.24-1.46.99-2.53-.18-1.54-.32-3.06.93-4.29,1.56-1.26,1.74-3.07,1.94-4.86.2-1.79.28-3.63,1.87-4.89,2.42,4.31,4.97-2.48,7.43.09,2.27,1.8,3.37,4.24,3.89,7.01.18,1.64-.02,3.23-.57,4.76-.25.66-.7,1.27-.88,1.94q-3.01,10.95-16.89,8.7c-.85-2.26-.7-4.3,1.29-5.94Z" style="fill: #b2bfd8; fill-rule: evenodd;"/>
  <path d="M42.2,247.47c0,2.2-.02,4.4-.03,6.61.82,4.15.98,7.97-4.47,9-1.72-2.16-4.26-3.59-2.77-7.44,1-2.59,1.12-5.64,2.49-8.25,1.59.03,3.18.05,4.78.08Z" style="fill: #473930; fill-rule: evenodd;"/>
  <path d="M54.34,231.55c-.68.23-1.44.34-2.04.7-3.24,2-3.22,2.02-4.37-1.34.24-1.75.48-3.51.72-5.26,1.35-1.74-.22-5.2,3.33-5.66,5.58,2.88,7.22,6.56,2.37,11.56Z" style="fill: #eaebdd; fill-rule: evenodd;"/>
  <path d="M50.84,220.52c-.61,1.76-.52,3.82-2.2,5.13-.38-2.71-.76-5.43,1.71-7.49l.27.18c.84.65.92,1.37.22,2.18Z" style="fill: #453a2e; fill-rule: evenodd;"/>
  <path d="M37.44,247.4c-1.47,0-2.95,0-4.42,0,1.47-2.34,2.94-2.22,4.42,0Z" style="fill: #473930; fill-rule: evenodd;"/>
  <path d="M44.12,240.66c-.31,1.43-.62,2.86-.93,4.29-1.71-1.87-1.22-3.25.93-4.29Z" style="fill: #473930; fill-rule: evenodd;"/>
  <path d="M87.78,155.24c.03,3.5,2.47,5.12,5.27,5.88,2.7.73,5.6.71,8.42,1.02-3.03,7.66-9.5,4.7-14.82,4.54-4.01-.12-7.65-2.15-11.19-4.04-2.23-1.04-3.66-2.99-5.35-4.66l-.58-.53c1.05-1.85,2.09-3.69,3.14-5.53-4.49-2.88.54-7.6-2.13-11.05-.96-1.24-.59-3.51-.83-5.32,1.33-1.28,2.85-1.39,4.49-.73,2.76,7.98,7.86,14.4,13.58,20.41Z" style="fill: #62553b; fill-rule: evenodd;"/>
  <path d="M74.4,135.57c-1.57,0-3.13,0-4.69-.01-.15-2.82.52-5.43,1.58-8.05.86-2.1.27-4.08-1.74-5.44-.12-.73-.08-1.47.11-2.19,3.47-.33,4.28,3.28,6.68,4.5.72.73,1.2,1.59,1.39,2.6-.86,2.96,1.83,7.31-3.34,8.59Z" style="fill: #5d4a40; fill-rule: evenodd;"/>
  <path d="M67.35,124.4c.72-.75,1.45-1.51,2.18-2.26-.25,1.21-1.01,1.94-2.18,2.26Z" style="fill: #5d4a40; fill-rule: evenodd;"/>
  <path d="M65.27,124.33c.7.03,1.4.05,2.1.05-.73.77-1.46,1.53-2.19,2.29l.02.02c.03-.79.04-1.57.07-2.36Z" style="fill: #5d4a40; fill-rule: evenodd;"/>
  <path d="M65.18,126.68c-.17.33-.41.94-.5.92-.78-.18-.59-.53.52-.9l-.02-.02Z" style="fill: #5d4a40; fill-rule: evenodd;"/>
  <path d="M74.72,159.51c2.65,1.17,5.24,2.54,7.96,3.47,6.34,2.18,12.68,2.83,18.78-.85,5.15-.98,9.32-3.62,12.77-7.5,2.11,1.75,1.2,4.19,1.47,6.36-2.44,4.21-7.35,4.37-10.92,6.72-6,3.18-13.22,5.27-12.73,14.25.05,1.48-.1,2.93-.6,4.32.37,1.01-2.85,1.37-.48,2.76.44.9.59,1.83.47,2.81-3.47,5.3-9.84,1.57-14.06,4.51-.81-.7-1.26-1.59-1.42-2.64.18-5.53,2.2-10.53,4.4-15.5,2.79-6.28.2-8.76-6.14-8.48-4.48-.76-2.84-4.88-4.08-7.42-.1-.69-.03-1.37.23-2.02,1.2-1.69,2.77-1.27,4.36-.79Z" style="fill: #deaf2b; fill-rule: evenodd;"/>
  <path d="M50.84,220.52c-.24-.71-.32-1.44-.22-2.18,3.06-2.84,4.01-6.5,4.07-10.5.03-2.47.09-4.93.14-7.4.73-.74,1.42-1.52,2.08-2.32l.05-.06c2.23-1.28,2.02-3.48,2.17-5.58.19-2.75-.51-5.75,2.1-7.86,2.03,1.01,3.01,2.8,3.71,4.83-.25,4.42,3.22,9.05-.69,13.3-6.22,9.69-4.14,20.24-3.18,30.68-.13,2.23.04,4.66-3.23,4.73-1.17-2.2-2.33-4.4-3.49-6.6,1.05-4.38,1.8-8.66-3.5-11.03Z" style="fill: #9d7b31; fill-rule: evenodd;"/>
  <path d="M63.6,189.22c-1.79-1.02-2.08-2.81-2.37-4.61-.24-3.83,1.28-7.19,2.91-10.5,1.96-3.95,3.99-7.87,5.99-11.79,2.76,1.32,1.5,5.31,4.36,6.57.28.37.55.74.83,1.12.15.93.1,1.86-.12,2.78-.83,3.23-2.1,6.27-3.7,9.19-2.08,3.01-2.18,8.21-7.89,7.24Z" style="fill: #c79734; fill-rule: evenodd;"/>
  <path d="M74.72,159.51c-1.45.26-2.91.53-4.36.79-.09-.77-.18-1.55-.26-2.31,1.86-.47,3.55-.38,4.62,1.52Z" style="fill: #e3dfb2; fill-rule: evenodd;"/>
  <path d="M56.91,198.11c-.7.77-1.39,1.55-2.08,2.32.69-.77,1.38-1.55,2.08-2.32Z" style="fill: #62553b; fill-rule: evenodd;"/>
  <path d="M64.61,282.61c2.63,5.09,3.09,10.98,6.39,15.19-1.81,3.15-5.39,2.29-6.47,5-.42-.54-1.24-1.11-1.21-1.62.35-6.19.84-12.38,1.29-18.57Z" style="fill: #45362e; fill-rule: evenodd;"/>
  <path d="M57.78,273.69c0-.65,0-1.31-.05-1.96q-9.58-3.44,1.74-13.45c.87-.55,1.82-.78,2.84-.76.99.2,1.92.54,2.82,1.01.86.52,1.58,1.21,2.16,2.05.35.95.54,1.94.61,2.95,3.19,8.08,8.28,9.25,15.12,4.22,5.06-1.78,9.68-.05,14.29,1.76,3.74,2.17,7.1,4.84,10.11,7.96,2.07,5.23-.03,11.17,5.76,16.22,3.43,3-1.93,10.92-4.36,15.3-2.62,4.71-8.41.77-12.39-1.91-1.34-1.08-2.56-2.37-4.45-2.5-.88.16-1.73.29-2.6.49-5.36,1.47-6.63-2.35-7.96-6.12-.26-1-.32-2.01-.24-3.03,5.33-8.72,10.84-5.48,15.94-.2.34-14.25-12.03-9.55-19.24-12.75-.88.4-1.79.63-2.73.74-2.35-.51-4.51-1.42-6.28-3.1h0c-.96-4.89-6.32-3.92-8.88-6.67-.73-.11-1.47-.2-2.21-.24Z" style="fill: #d4dbea; fill-rule: evenodd;"/>
  <path d="M78,293.77c-.3-.94-.49-2.65-.91-2.71-3.77-.51-3.69-3.25-3.77-5.97.13-1.4,1.42-1.75,2.26-2.51l.1-.03c5.55-2.27,8.23,1.8,9.66,5.54,1.63,4.28-3.08,4.7-5.69,6.17-.55-.16-1.1-.32-1.66-.49Z" style="fill: #b1b7cf; fill-rule: evenodd;"/>
  <path d="M80.42,307.18c-2.62.11-4.69-1.36-6.9-2.43.39-4.11-.45-8.72,4.47-10.98l.31.22c1.56,1.26,2.75,2.89,4.19,4.26h0c2.51,3.06-.67,5.22-1.25,7.79-.27.39-.55.76-.84,1.14Z" style="fill: #b1b7cf; fill-rule: evenodd;"/>
  <path d="M59.99,273.93c2.13.31,4.25.75,6.4.91,4.48.34,4.48.29,2.94,4.76-.12.34-.3.67-.45,1-3.17-1.95-7.47-2.39-8.88-6.67Z" style="fill: #c4ccdf; fill-rule: evenodd;"/>
  <path d="M75.59,282.58c-.76.83-1.5,1.67-2.26,2.51-.62.02-1.24.04-1.86.05-.82.59-1.58.49-2.28-.22-.1-1.44-.21-2.88-.32-4.32,2.52-.3,4.53,1.13,6.72,1.98Z" style="fill: #c4ccdf; fill-rule: evenodd;"/>
  <path d="M69.19,284.93c.76.07,1.52.14,2.28.22-.9,1.37-1.69,1.66-2.28-.22Z" style="fill: #b1b7cf; fill-rule: evenodd;"/>
  <path d="M95.97,304.75c3.03,1.33,6,2.8,9.09,3.96,1.45.54,2.98-.02,3.66-1.59.62-1.43.74-2.93-1.24-3.47-1.62-.44-2.75-1.31-2.13-3.04.32-.9,1.25-1.81,2.14-2.23,1.29-.61,2.87-.63,4.19-1.2,1.23-.54,1.42-2.09.4-2.6-2.65-1.34-4.83-3.13-7.01-5.11-2.42-2.2-1.67-2.68.71-4.36,1.76-1.23-.91-4.82,1.07-7.02,1.75-4.9,6.02-6.67,10.37-8.37,1.04-.1,2.05,0,3.06.29,4.55,3.23,9.41,6.21,10.68,12.3,2.45,6.6,8.85,7.8,14.21,10.43.37,1.42,1.18,2.47,2.69,2.64,2.13.23,3.89,1.1,5.36,2.62,0,0,.09.61.09.61,0,0-.03.62-.03.61-3.84,2.37-1.73,5.98-1.91,9.11-1.42,1.05-2.06,2.56-2.4,4.22-.46.35-.98.54-1.55.59-1.02-.28-2.28-.27-3-.89-3.35-2.86-5.06-3.03-7.12-.09-1.54,2.2-1.52,5.82-5.5,5.58-1.71-2.84-2-5.88-1.32-8.94.47-.42.52-.86.1-1.2-.02.61-.27,1.12-.79,1.6-6.56,2.93-14.23,2.06-20.29,6.36-.63.36-1.31.49-2.02.37-4.32-2.59-8.63.32-12.97.16-3.62-.13-7.17.69-10.04-2.36-.47-.5-1.32-.65-1.99-.94q-3.58-1.57-2.04-5.63h.02c3.37-2.34,8.59-.19,11.1-4.6l-.04.02c2.58-1.54,3.2.98,4.47,2.15Z" style="fill: #dce1ed; fill-rule: evenodd;"/>
  <path d="M109.49,315.58c4.5-4.38,9.45-7.44,16.19-6.89,1.94.16,4.01-1.32,6.02-2.05l-.02-.02c.18,1.72-.01,3.6.63,5.14.93,2.23.26,4.06-.52,6-2.6,2.42-4.8,5.68-9.17,4.4.74-2.16.68-4.29-.34-6.35-.92-1.84-2.44-2.79-4.42-2.14-2.74.9-5.28,2.55-8.36,1.91Z" style="fill: #cfcfd9; fill-rule: evenodd;"/>
  <path d="M103.44,166.38c2.9-3.55,6.83-4.55,11.17-4.51.76-.73.88-2.1,2.22-2.25,2.27.15,3.99.98,4.49,3.47.51,2.58,2.08,4.31,4.47,5.34-3.31,2.49-3.62,2.39-6.68-2.16-.51-.55-1.14-.91-1.89-.97-.22-.02-.34.44-.33,1.01,0,.74,0,1.49,0,2.23-.49.51-.99.68-1.48.51-.5-.16-.74-.33-.74-.49-.73,0-1.45.02-2.18.03-.45-.04-.9-.09-1.35-.11-2.25-.31-4.6-.03-6.73-1.07-.33-.34-.64-.68-.96-1.01Z" style="fill: #ecc425; fill-rule: evenodd;"/>
  <path d="M116.82,159.62c-.74.75-1.48,1.5-2.22,2.25-.12-2.41-.24-4.82-.37-7.23.2-1.72.79-3.23,2.26-4.29.11,3.09.22,6.18.32,9.27Z" style="fill: #e2bb25; fill-rule: evenodd;"/>
  <path d="M119.46,201.97c1-.48,1.96-1.08,3-1.42,3.61-1.18,7.29-1.81,10.52.84,3.4,2.8,1.17,6.04.42,9.17-.34,1.42-.35,3.18,1.62,3.43,1.87.24,2.06-1.64,2.77-2.83.14-.24.63-.27,1.22-.49,1.22,6.01,1.54,12.38,3.96,17.82,1.62,3.65,3.09,7.14,4.24,11,1.42,4.74,1.69,9.41,1.79,14.19.05,2.26.23,4.45,2.26,5.95,1.38.1,1.48,1.46,2.18,2.23v.04c.8.7,1.12,1.57.97,2.63-.39,1.5-1.11,2.84-2.1,4.03-.79.69-1.72,1.11-2.74,1.31-7.96-4.42-17.52-5.03-25.09-10.43-7.4-6.64-12.69-12.96-5.98-24.07,3.01-4.99.81-12.84-1.2-19.23-.67-4.94-1.66-9.93,2.17-14.17Z" style="fill: #f5d120; fill-rule: evenodd;"/>
  <path d="M119.46,201.97c.06,5.2.11,10.4.17,15.6-1.79,7.33-7.71,8.91-10.29,2.92-3.49-8.11-7.82-4.11-12.32-3.72-1.06-.14-1.98-.59-2.78-1.29-2.67-4.15-1.54-9.03-2.62-13.47-.2-.93-.27-1.89-.28-2.84.18-2.18.41-4.39.39-6.59.61-1.62.47-2.98-1.38-3.7h0c-.7-.74-.71-1.5-.05-2.26,0-1.48-.02-2.95-.02-4.43,2.67-1.54,5.14-.4,7.64.52,2.6,1.06,4.86,4.28,7.93,2.54,3.71-2.11,1.56-5.8,1.53-8.96-.03-3.51-3.81-9.89,5.04-7.73h.05c.19,2.47,1.36,3.93,3.87,4.59,4.34,1.13,5.58,4.22,4.72,8.66-2.57-.7-2.32-4.34-5.01-4.61-.69-.07-1.45-.44-2.05-.25-.83.26-1.05,1.15-.5,1.85,4.31,5.54,5.1,11.75,3.82,18.47-.36,1.9.49,3.56,2.14,4.7Z" style="fill: #efcc30; fill-rule: evenodd;"/>
  <path d="M153.44,261.87c-.73-.74-1.46-1.49-2.18-2.23.34-3.08-1.08-6.57,2.13-8.96.02,3.73.03,7.46.05,11.19Z" style="fill: #dcb52d; fill-rule: evenodd;"/>
  <path d="M116.88,166.31c-.78-.69-1.49-1.57.19-1.72.63-.05,1.35,1.08,2.04,1.68-.74.01-1.48.03-2.22.04Z" style="fill: #efcc30; fill-rule: evenodd;"/>
  <path d="M114.66,168.55c.74,0,1.49-.01,2.23-.02-.73,1.58-1.47,1.51-2.23.02Z" style="fill: #efcc30; fill-rule: evenodd;"/>
  <path d="M153.38,263.92c0-.67.02-1.35.07-2.01,3.86,1.52,5.33,3.06,3.98,4.71-3.39,4.17-2.86,8.48-1.62,13.1.37,1.36.1,2.89.12,4.34-1.97,1.18-1.47,3.01-1.45,4.84.02,1.33-2.38,2.17-3.23,1.25-.7-.78-1.45-1.61-1.86-2.56-2.68-6.37-9.3-6.13-14.38-8.36-.75-.33-2.68,2-4.06,3.1-4.68-2.68-7.21-7.45-10.89-11.11-1.05-1.31-.59-2.62,0-3.93.44-.85.98-1.64,1.57-2.4,1.25-1.49,2.39-3.16,4.66-3.11,8.91.16,16.33,5.87,25.05,6.73h0c1.41-1.2.93-3.23,2.03-4.58Z" style="fill: #dcb52d; fill-rule: evenodd;"/>
  <path d="M62.38,258.03c-2.41,1.03-1.73,4.41-3.45,5.3-1.87.97-4.31.91-5.65,2.96-.36.55-.79,1.39-.61,1.88.15.41,1.25.81,1.78.66,2.7-.76,3.21.77,3.28,2.89-1,.31-2.52.34-2.88,1-.78,1.46-.62,3.67-3.27,2.74-1.55-.54-2.63.23-3.97.84-4.52,2.08-5.56,1.79-7.56-2.13-1.13-2.22-1.74-4.69-2.58-7.05-1.15-1.42-1.17-2.77.23-4.04h0c3.01-2.25,2.42-6.29,4.47-9.01,2.8-.16,4.62-1.71,6.31-3.88,1.62-2.08,2.1.03,2.68,1.16.54,1.07,1.26,1.96,2.52,1.26.46-.25.82-1.22.74-1.8-.21-1.43-.91-2.81-1.02-4.24-.24-2.94,1.91-3.59,4.24-3.92,5.59,3.89,7.68,8.85,4.73,15.37Z" style="fill: #c4cfe5; fill-rule: evenodd;"/>
  <path d="M37.69,263.09c-.08,1.35-.15,2.69-.23,4.04-2.46,2.8-1.03,7.16-3.93,9.79-.07-3.29-.25-6.58-.18-9.87.06-2.69,1.91-3.72,4.34-3.96Z" style="fill: #473930; fill-rule: evenodd;"/>
  <path d="M105.84,115.54c.55-.14,1.11-.19,1.67-.15-.2,1.24-.92,1.9-2.17,2.01.13-.63.3-1.25.49-1.86Z" style="fill: #554440; fill-rule: evenodd;"/>
  <path d="M76.4,126.65c-.02-.76-.03-1.51-.05-2.27.68-.08,1.35-.2,2.01-.36,3.8.04,7.6.08,11.4.11v.03c.63.85,1.39,1.56,2.2,2.24.98,1.68,2.63,2.1,4.39,2.3.04,1.51.07,3.02.1,4.53-8.46,3.22-13.72-3.28-20.04-6.58Z" style="fill: #765f51; fill-rule: evenodd;"/>
  <path d="M113.41,61.81c-2.03-1.83-2.17-4.33-2.39-6.8,3.14,1.44,2.52,4.21,2.39,6.8Z" style="fill: #554440; fill-rule: evenodd;"/>
  <path d="M111.08,55.16c-.64.06-1.27.04-1.9-.06.69-1.75,1.33-1.78,1.9.06Z" style="fill: #554440; fill-rule: evenodd;"/>
  <path d="M91.94,126.4c-.73-.74-1.46-1.49-2.2-2.24.73.74,1.47,1.49,2.2,2.24Z" style="fill: #574a41; fill-rule: evenodd;"/>
  <path d="M124.29,14.6c0,.73,0,1.47-.02,2.21-1.57-.75-1.51-1.49.02-2.21Z" style="fill: #a6a5b7; fill-rule: evenodd;"/>
  <path d="M76.4,126.65c5.75-.03,11.18.65,15.12,5.65,1.18,1.5,3.11,1.5,4.92.93,3.04.3,4.23,2.13,4.65,5.03.55,3.88,3.18,4.43,6.47,3.37,2.09-.44,3.17.12,2.44,2.47-6.24,6.04-13.07,10.91-22.22,11.15-1.34-.62-2.65-1.29-4.02-1.86-7.02-2.87-10.45-7.86-9.3-15.61.11-.72-.03-1.47-.06-2.2.67-2.98,1.33-5.95,2-8.92Z" style="fill: #f9fcf8; fill-rule: evenodd;"/>
  <path d="M110,144.09c-.81-.82-1.63-1.64-2.44-2.47.55-.84,1.02-1.77,1.71-2.5.42-.44,1.62-.89,1.7-.78.53.72,1.32,1.75,1.13,2.4-.37,1.22-1.36,2.24-2.09,3.35Z" style="fill: #ada499; fill-rule: evenodd;"/>
  <path d="M62.38,258.03c-.44-5.48-2.79-10.36-4.73-15.37.06-1.51.12-3.02.19-4.52,1.57-1.15,1.79-2.78,1.64-4.55-.66-2.12.59-2.54,2.28-2.55,4.03,3.29,5.3,8.26,7.73,12.54.39.94.62,1.91.74,2.91-.21,4.02-1.06,7.95-1.94,11.87-.41.96-1.06,1.71-1.92,2.29-.73-.04-1.46-.1-2.18-.16-.54-.92-1.42-1.54-2-2.42l.2-.05Z" style="fill: #c49e40; fill-rule: evenodd;"/>
  <path d="M92.67,197.76c0,.74.01,1.49.02,2.24.89,4.08-.1,7.77-2.3,11.22-.55.86-1.19,1.65-1.85,2.42-5.55,4.22-3.23,14.95-12.97,15.71-4.91-6.38.83-14.32-3.08-20.86-.25-4.89-1.09-10,4.56-12.78,3.67-.45,6.36-3.99,10.7-2.89,1.93.49,2.35-2.17,2.6-3.94.98-.44,1.93-.94,2.93-1.32,1.06-.39,2.21-.39,2.74.76.22.48-.1,1.42-.49,1.91-.86,1.11-1.92,2.06-2.9,3.08,1.3,1.47,1.32,2.96.05,4.45Z" style="fill: #ecc425; fill-rule: evenodd;"/>
  <path d="M77.06,195.7c-2.57,4.15-1.98,8.81-2.15,13.35-1.59,4.6,3.49,10.55-2.9,14.17-1.17-.09-2.06-.64-2.73-1.57-6.65-8.99-5.32-18.6-1.97-28.22,1.6-4.59,3.49-9.48,10.18-6.75.67,2.32,1.1,4.62-.43,6.79,0,.75,0,1.5,0,2.25Z" style="fill: #af9934; fill-rule: evenodd;"/>
  <path d="M97.02,184.35c-2.53.15-4.55-1.26-6.73-2.16-.24-9.04.02-9.27,7.19-13.21,1.94-1.07,3.63-2.5,5.97-2.6,0,0,.09.08.09.08,1.9,7.44-3.97,12.06-6.51,17.89Z" style="fill: #ecc425; fill-rule: evenodd;"/>
  <path d="M77.05,193.46c-.05-2.25-.11-4.5-.16-6.75-2.42-2.66-1.03-5.44-.05-8.03,1.43-3.75,1.39-6.97-2.12-9.53l-.24-.26c2.28-2.67,5.05-2.87,7.76-1.01,2.63,1.8,3.2,5.34,1.8,8.75-2.31,5.62-4.66,11.22-7,16.83Z" style="fill: #c79734; fill-rule: evenodd;"/>
  <path d="M90.31,186.62c.02.75.03,1.51.05,2.26-1.55-.73-1.54-1.48-.05-2.26Z" style="fill: #ecc425; fill-rule: evenodd;"/>
  <path d="M74.73,169.15c1.81,0,3.79-.38,5.22,1.06,1.8,1.81,1.42,4.07.73,6.2-1.15,3.47-3.54,6.49-3.78,10.3-3.21.29-5.43,1.77-6.41,4.99-1.15,3.82-2.63,7.56-3.59,11.43-.91,3.67-2.79,7.3,2.54,10.18,2.61,1.41.9,6.12,1.33,9.31.31,3.67-1.2,5.31-4.96,4.46-5.91-8.57-9.49-17.31-1.9-26.84q-1.56-5.47-.3-11.02c2.33-1.2,3.94-2.95,4.35-5.64.22-1.47.94-2.64,2.18-3.47,3.98-1.74,5.61-4.65,4.42-8.94.03-.68.09-1.35.17-2.02Z" style="fill: #9a8737; fill-rule: evenodd;"/>
  <path d="M63.9,200.24c-.56,4.23-3.06,8.05-2.28,12.61.44,2.55.54,5.33,2.96,6.58,3.91,2.02,1.41,4.94,1.54,7.49-.32,2.59-1.83,4.12-4.27,4.83-.79.62-1.58,1.24-2.38,1.86-.5-.52-1.36-.98-1.45-1.56-1.49-10.13-1.34-20.18,2.18-29.95.55-1.52,2.29-1.57,3.71-1.86Z" style="fill: #685f31; fill-rule: evenodd;"/>
  <path d="M74.55,171.18c4.05,1.63,4.68,2.59,2.79,4.75-1.63,1.86-3.55,3.48-5.46,5.07-.2.16-1.15-.57-1.75-.88,2.03-2.7,1.37-6.74,4.42-8.94Z" style="fill: #8a783b; fill-rule: evenodd;"/>
  <path d="M72.82,222.44c.26-3.23,1.69-6.35.24-9.73-.57-1.34.53-2.79,1.85-3.67,2.74,4.65,3.17,9.39.9,14.4-.95,2.11-.62,4.23,1.56,5.66.16.49.32.98.48,1.47-2.05,4.3-4.13,8.29,1.51,11.98,3.82,2.5,5.63,6.57,4.33,11.41-3.14,3.72-4.62,8.12-5.18,12.88-1.54,1.63-3.26,1.65-5.07.52-.6-1.18-.75-3.17-2.94-1.72-1.97-.13-3.35-1.03-3.9-2.99,0-.68-.07-1.35-.24-2.01.09-.77.19-1.54.28-2.31,2.33-4.26,3.55-8.67,1.98-13.5h0c-4.77-8.62-2.06-15.85,4.21-22.4Z" style="fill: #e7b723; fill-rule: evenodd;"/>
  <path d="M117.99,271.1c-3.72,2.33-7.43,4.66-11.14,7-4.1-.73-6.7-3.71-9.5-6.37-1.7-4.04-6.01-4.87-9.05-7.23-3.63-2.82-6.6-5.63-5.08-10.74.07-1.98-.35-4.16,2.05-5.24,6.99-.14,7.02,7.56,11.55,10.19,2.94,1.18,5.35,5.41,9.13,1.45.67-.7,1.45-1.13,2.39-1.27,4.74,2.89,7.82,7.06,9.65,12.23Z" style="fill: #d2b941; fill-rule: evenodd;"/>
  <path d="M82.5,298.25c-2.76-.08-4.33-1.33-4.2-4.26,7.44-5.15,7.37-6.71-.55-11.05-.58-.32-1.38-.26-2.07-.39,1.59-1.48,3.18-2.96,4.91-4.58,2.61-.05,1.66,2.64,2.67,3.82,1.61,1.88,3.51,3.31,5.37.98,2.18-2.74,4.67-1.16,7.06-1.31,1.35-.09,2.21.79,2.06,1.91-.8,5.73,3.27,10.74,2.09,16.74-1.56,1.46-2.1-.75-3.01-1.43-1.15-.86-2.12-1.98-3.13-3.02-4.12-4.27-8.27-3.32-11.2,2.58Z" style="fill: #c4ccdf; fill-rule: evenodd;"/>
  <path d="M84.26,253.61c-.1,3.14.65,5.65,3.7,7.44,3.48,2.05,6.72,4.56,9.89,7.09,1.41,1.12,1.01,2.56-.49,3.58-5.2.32-9.73-3.63-15.07-2.38-2.57.98-3.77-.38-4.46-2.61-.38-1.34-.74-2.69-1.14-4.04-1.33-4.49-1.32-4.46,3.06-7.08.88-.52,1.57-1.34,2.35-2.02.48-.72.97-.95,1.45-.71.47.24.71.48.71.73Z" style="fill: #d7a829; fill-rule: evenodd;"/>
  <path d="M77.82,266.72c1.49.87,2.97,1.74,4.46,2.61-2.91,5.76-4.12,6.32-8.47,3.91-2.52-1.41-5.21-2.59-7.49-4.32-2.57-1.95-2.22-4.27.27-6.26,1.51.63,3.01,1.25,4.52,1.88.85-.41,1.55-.21,2.12.53,1.29,1.22,2.79,1.85,4.59,1.65Z" style="fill: #f5f1e4; fill-rule: evenodd;"/>
  <path d="M91.54,302.59c-2.07,5.19-2.97,5.78-7.81,5.09-1.1-.15-2.19-.33-3.28-.5-.48-.95-1.02-1.88-1.42-2.86-.67-1.62-.21-2.57,1.66-2.81,1.94-.25,1.7-1.9,1.83-3.26.3.2.72.34.9.62q2.91,4.59,8.13,3.72Z" style="fill: #c4ccdf; fill-rule: evenodd;"/>
  <path d="M95.97,304.75c-1.49-.72-2.98-1.44-4.47-2.15,3.01-2.32,3.46-2.11,4.47,2.15Z" style="fill: #c4ccdf; fill-rule: evenodd;"/>
  <path d="M62.18,258.08c.67.81,1.33,1.61,2,2.42-.66-.81-1.33-1.62-2-2.42Z" style="fill: #c4cfe5; fill-rule: evenodd;"/>
  <path d="M117.99,271.1c-.65-.88-1.14-2.33-1.96-2.55-3.01-.83-5.39-1.65-5.24-5.63.09-2.19-2.21-2.62-4.11-2.85-1.14-4.84,2.64-5.88,5.73-7.48,3.26-.74,5.45,1.19,7.67,3.06.68.59,1.32,1.23,1.95,1.89.3.32.59.67.89,1,.58.68,1.04,1.44,1.42,2.25.08.44.16.88.24,1.32-.05,1.84-.43,3.52-2.23,4.49l.02-.02c-.77,1.55-1.53,3.09-2.3,4.64-.7.14-1.39.1-2.08-.12Z" style="fill: #dac447; fill-rule: evenodd;"/>
  <path d="M125.04,302.79c.26.21.52.42.79.63-.3.17-.6.48-.88.45-.28-.02-.53-.38-.79-.59.3-.17.6-.33.89-.49Z" style="fill: #cfcfd9; fill-rule: evenodd;"/>
  <path d="M131.7,306.65c.16-.31.39-.92.48-.9.75.16.57.51-.5.88l.02.02Z" style="fill: #cfcfd9; fill-rule: evenodd;"/>
  <path d="M97.02,184.35c-.39-5.34.39-10.21,4.79-13.99.97-.84,1.17-2.58,1.72-3.9,1.83-.21,3.72-.21,5.48-.68,2.61-.69,3.23.69,3.41,2.78-1.75.38-3.9.57-3.55,3.06.39,2.84.85,5.77,1.92,8.39,1.41,3.44,1.75,6.2-1.98,8.3-3.87,2.19-5.09,2.02-9.45-1.76-.81-.7-1.57-1.47-2.35-2.2Z" style="fill: #f6d731; fill-rule: evenodd;"/>
  <path d="M120.13,257.75c-2.27-1.47-4.55-2.93-6.82-4.39-4.21-.9-9.42.8-11.88-4.61.84-4.51,6.78-8.59-.15-14.93,6.44,15.84-7.44,10.33-12.34,14.26-1.05.1-2.09.04-3.12-.16-8.37-3.75-11.09-10.04-8.42-18.74l-.03-.06c1.24-2.99,4.4-4.96,4.39-8.64-.01-4.6,2.92-7.24,6.6-9.29,1.63,1.56.59,3.89,1.57,5.47-.07-.15.13.05.13.05,0,0-.33-.48-.38-.62-.23-1.79.03-3.55-1.32-4.88,1.45-3.73,2.9-7.46,4.35-11.2,1.58,1.17,2.22,2.79,2.25,4.7.06,3.63.11,7.27.17,10.9.49.56.98.74,1.46.54.48-.2.72-.39.72-.59,1.32-1.26,2.55-3.44,3.98-3.58,3.13-.3,6.35.39,9.51.84.38.05.86,1.19.83,1.81-.03.67-.53,1.36-.94,1.95-1.3,1.84-1.15,3.47.82,4.6,1.71.99,3.55,1,5.1-.43,1.07-.99,2.02-2.11,3.03-3.18.64.88,1.79,1.72,1.85,2.63.31,5.15.4,10.32.48,15.49.01,1.06-.64,1.85-1.36,2.76-4.5,5.82-4.16,10.37,1.35,14.47,2.51,1.87,4.7,3.53,4.82,6.88-.5.79-1.23,1.14-2.15,1.11-.89-.09-1.67-.43-2.33-1.04l.02.03c-.73-.71-1.46-1.43-2.19-2.15Z" style="fill: #f3d633; fill-rule: evenodd;"/>
  <path d="M124.53,259.92c.75-.04,1.5-.08,2.25-.12,1.36.42,2.71,1.15,4.08,1.19,6.26.19,11.95,1.52,16.47,6.34.82.88,2.66.81,4.03,1.17-1.45,2.19-3.47,2.63-5.67,1.47-2.57-1.35-4.96-3.03-7.48-4.47-1.61-.93-3.34-1.2-5.25-.76-4.6,1.07-6.18.52-8.38-2.63l-.02-.04c-.72-.71-.69-1.43-.03-2.16Z" style="fill: #e2bb25; fill-rule: evenodd;"/>
  <path d="M153.38,263.92c.16,1.9-.19,3.57-2.03,4.59,0-1.83.38-3.49,2.03-4.59Z" style="fill: #e2bb25; fill-rule: evenodd;"/>
  <path d="M102.64,200.55c-.34,1.78-1.3,2.85-2.89,2.97-1.18.08-2.01-.85-2.21-1.99-.19-1.05-.2-2.18-.02-3.23.11-.61.63-1.33,1.17-1.66,1.23-.74,2.07.15,2.65,1.09.56.92.91,1.96,1.29,2.81Z" style="fill: #f3d633; fill-rule: evenodd;"/>
  <path d="M92.67,197.76c-.01-1.48-.03-2.97-.05-4.45,2.3,1.46,2.32,2.94.05,4.45Z" style="fill: #f3d633; fill-rule: evenodd;"/>
  <path d="M97.29,215.56c-.29.88-.83,1.24-1.54.88-.28-.14-.43-.55-.64-.84.73-.02,1.45-.03,2.18-.04Z" style="fill: #ecc425; fill-rule: evenodd;"/>
  <path d="M72.82,222.44c-.03.35.06.79-.11,1.05-4.34,6.55-4.64,13.87-4.1,21.35-3.64-3.65-5.78-8.08-6.77-13.1.9-2.08,2.41-3.6,4.27-4.83,2.33-.59,3.64-2.28,4.65-4.29.68-.09,1.36-.15,2.05-.18Z" style="fill: #daaa2d; fill-rule: evenodd;"/>
  <path d="M68.61,244.84c1.66,1.07,2.33,2.66,2.19,4.55-.14,2.09-.49,4.17-.62,6.26-.09,1.38,3.32,2.67.35,3.99-.93.41-2.58-.82-3.9-1.31-.94-4.73,1.34-8.99,1.98-13.5Z" style="fill: #daaa2d; fill-rule: evenodd;"/>
  <path d="M77.4,229.18c2.13,1.39,2.55,3.43,1.58,5.55-1.42,3.1-.83,5.33,1.96,7.3,1.99,1.41,3.69,3.23,5.52,4.86.78.73.83,1.48.02,2.23-1.77.98-2.15,2.66-2.23,4.49-.72,0-1.44,0-2.16-.01.47-5.11-2.01-8.62-6.34-10.76-6.19-3.07-4.77-6.31-1.53-10.6.88-1.16,2.11-2.04,3.18-3.05Z" style="fill: #ecc425; fill-rule: evenodd;"/>
  <path d="M73.23,265.07c-.71-.18-1.42-.35-2.12-.53.46-.8,1.05-.98,1.66-.43.24.22.31.64.46.96Z" style="fill: #daaa2d; fill-rule: evenodd;"/>
  <path d="M86.48,249.12c0-.74-.01-1.48-.02-2.23.75,0,1.5-.02,2.25-.04,4.98-2.56,9.54-2.43,13.42,2.08,2.57,1.14,4.95,2.77,8.08,1.59,2.52-.96,2.87,1,3.1,2.84-1.63,2.8-5.76,3.14-6.63,6.71-3.69,2.7-7.46-3.25-11.15.1-2.79-1.64-5.57-3.07-5.87-7.06-.1-1.4-2.07-2.66-3.19-3.99Z" style="fill: #e7d54a; fill-rule: evenodd;"/>
  <path d="M95.54,260.16c1.35-1.65,2.55-3.44,4.07-4.91,1.31-1.27,2.96-.64,3.43.84.65,2.02.44,4.44,3.65,3.97.38,1.78.87,3.54,1.07,5.34.06.58-.49,1.37-.99,1.83-.68.62-1.57.42-1.78-.42-.64-2.55-1.81-3.42-4.65-2.87-2.47.48-3.78-1.77-4.8-3.79Z" style="fill: #dac447; fill-rule: evenodd;"/>
  <path d="M122.37,266.58c-.31-.17-.91-.39-.89-.49.15-.74.5-.56.87.51l.02-.02Z" style="fill: #dcb52d; fill-rule: evenodd;"/>
  <path d="M120.13,257.75c.73.72,1.46,1.43,2.19,2.15-.73-.72-1.46-1.43-2.19-2.15Z" style="fill: #dcb52d; fill-rule: evenodd;"/>
  <path d="M124.53,259.92c0,.72.01,1.44.03,2.16-.75-.73-1.51-1.47-2.26-2.21.74,0,1.48.02,2.23.05Z" style="fill: #dcb52d; fill-rule: evenodd;"/>
  <path d="M102.13,248.93c-4.5-.55-8.71-2.88-13.42-2.08,2.84-3.16,6.1-5.19,10.57-3.85,1.32.39,2.2-.13,2.35-1.39.2-1.75-.66-2.61-2.53-2.34-.69.1-1.54.17-2.1-.14-1.47-.82-1.92-2.4-1.1-3.69,1.59-2.5,4.22-3.83,6.84-5.04,2,1.59,5.13,2.63,5.05,5.34-.1,3.79.67,8.16-3.41,10.87-.88.58-1.51,1.53-2.25,2.31Z" style="fill: #f6e041; fill-rule: evenodd;"/>
  <path d="M90.65,217.86c1.37.84,2.12,2.04,1.93,3.67-.14,1.19-.74,2.28-2.09,2.01-1.29-.26-1.45-1.48-1.11-2.6.33-1.06.84-2.06,1.27-3.08h0Z" style="fill: #ecc425; fill-rule: evenodd;"/>
  <path d="M88.35,211.19c2.65,1.57,2.19,4.22,2.3,6.67h0c-2.66-1.58-2.2-4.22-2.3-6.68h0Z" style="fill: #ecc425; fill-rule: evenodd;"/>
</svg>