<?xml version="1.0" encoding="UTF-8"?>
<svg id="Layer_1" data-name="Layer 1" xmlns="http://www.w3.org/2000/svg" viewBox="0 0 146.65 277.18">
  <path d="M64.42,63.91c-.17-.45-.03-.76.41-.95,1.41-1.36,2.55-.76,3.58.51.25.68.31,1.37.18,2.09-1.24.9-1.02,1.75.12,2.56.39,1.05.41,2.12.23,3.21-.31,1.46-.42,2.94-.42,4.43.26,5.53.11,11.02-1.28,16.4-.1,6.59-6.39,5.95-9.93,8.54-1.24,1.41-1.55,3.2-2.11,4.9-1.95,5.26-2.33,10.87-3.66,16.27-.38,1.54-.83,3.43-2.67,3.51-1.75.07-2.99-1.46-2.91-3.18.33-7.24-4.09-13.76-3.13-21.07.06-.78.21-1.54.43-2.29.98-2.9,2.8-5.3,4.61-7.7,2.45-3.35,1.68-8.4,5.74-10.89,4.61-2.11,6.95-5.93,8.02-10.68.28-1.25.36-2.57,1.44-3.49.68-.58,1.28-1.22,1.33-2.18Z" style="fill: #56413b; fill-rule: evenodd;"/>
  <path d="M27.49,203.6c-2.71-1.16-2.4-3.5-2.24-5.77-.8-1.69.03-3.77-1.27-5.34-.21-.36-.3-.75-.27-1.17-.76-2.84-2.03-6.01,3.2-5.13.46.21,1.17.43,1.22.78.73,4.86,2.52,1.61,4.01.53,6.35-2.97,8.54.6,9.76,6.05,1.28,5.73.68,12.43,7.51,15.48-2.22,5-3.24,5.13-9.16.69-.1,3.03.75,5.8-.32,8.36-.33.71-.81,1.29-1.45,1.74-4.53.44-7.29-2.64-10.2-5.29-1.45-1.33-2.46-4.25-.38-4.57,8.75-1.36,1.4-7.09,3.2-9.34.01,1.57-.63,3.35-3.6,2.97Z" style="fill: #423c39; fill-rule: evenodd;"/>
  <path d="M53.63,80.26c-.55,2.38-2.7,4.18-1.89,7.17.39,1.44-.82,3.45-2.59,4.41-2.54,1.19-3.95,3.41-5.25,5.74-1.55,3.45-4.17,6.22-6,9.49-1.73,2.6-3.07,5.39-3.91,8.41-.29,1.06-.68,2.09-1.19,3.07-3.87,5.08-3.36,11.55-5.44,17.19-1.19,2.95-.89,6.85-5.05,7.89-2.59-1.43-1.6-3.6-1.18-5.66,1.47-10.99,4.83-21.39,10.14-31.1,2.5-4.58,5.21-9.09,8.29-13.29,3.85-5.25,8.13-10.2,14.06-13.32Z" style="fill: #736054; fill-rule: evenodd;"/>
  <path d="M80.13,38.76c2.39-3.21,3.73-6.84,4.72-10.7.89-3.44.89-6.71-.29-10.03-.94-1-1.05-2.15-.59-3.4,4.9-4.31,9.03-.27,13.4,1.24-1.99,8.27-4.2,16.46-8.96,23.69-2.57,2.8-2.34,7.22-5.55,9.65-2.47,1.24-4.95,2.13-7.44.05-1.2-1.05-.62-2.83-1.63-3.96l-.06.07c-.39-4.64,4.22-4.45,6.39-6.62Z" style="fill: #3f342e; fill-rule: evenodd;"/>
  <path d="M69.13,266.84c-5.25-3.86-8.03-9.59-11.3-14.94-1.23-2.02-2.11-4.24-3.32-6.27-1.76-2.95-3.66-5.83-7.3-6.77-1.58-4.29,1.58-5.79,4.41-7.49,3.36-.11,5.51,2,6.92,4.55,4.61,8.32,9.05,16.71,15.2,24.07,1.17,1.4,1.76,3.27.99,5.22-1.55,1.64-3.57,1.68-5.61,1.64Z" style="fill: #594f42; fill-rule: evenodd;"/>
  <path d="M69.13,266.84c1.47-1.81,3.56-1.89,5.63-2.03,4.64-10.27,7.8-21.12,12.31-31.45.51-.59,1.15-.98,1.91-1.18,1.7-.04,2.86.88,3.8,2.18-1.53,4.64-3.1,9.27-4.57,13.94-.53,1.71-.8,3.5-1.19,5.25-4.17,5.64-4.89,12.68-7.6,18.91-.3.7-.26,1.56-.42,2.33-.23,1.12-1.01,1.89-2,2.24-1.09.39-2.24-.11-2.78-1.01-1.06-1.76-2.84-3.15-3.04-5.4-.53-1.31-.08-3.13-1.93-3.76l-.13-.03Z" style="fill: #524c42; fill-rule: evenodd;"/>
  <path d="M27.49,203.6c2.24-.85,2.45-3.17,3.54-4.93,1.69.43,1.13,2.08,1.68,3.08.49.89.81,1.97.89,2.98.1,1.28.14,2.68-.27,3.86-.49,1.41-2.11,1.25-3.34,1.63-2.14.67-2.22,1.53-.44,3.07,2.78,2.41,5.56,4.82,9.07,6.17,2.42,2.63,2.46,5.26.02,7.89-3.9.06-.8-5.35-4.34-5.57-2.02-.78-3.99-1.76-6.26-1.44-.71.02-1.41-.07-2.1-.24-1.43-.27-2.05-3.31-4.19-1.24-1.03,0-2.04-.1-2.92-.7-2.4-2.97-5.18-1.48-7.91-.71-3.02.86-5.68.04-5.99-3.17-.34-3.56,1.71-5.16,5.58-4.3,2.49.55,5.29.89,7.13-1.8,1.71-1.48,3.73-1.61,5.84-1.35,2.44.3,4.88.62,7.35.94.17-2.81-3.02-2.22-3.34-4.19Z" style="fill: #695c51; fill-rule: evenodd;"/>
  <path d="M21.14,137.98c.47,1.78-.11,3.91,1.73,5.25,2.01,1.48,1.91,3.66,1.95,5.8.03,4.63.82,9.23.73,13.87-.76,8.29,3.92,16.2,1.73,24.59q-3.15-.21-3.57,3.83c-2.68-3.5-2.4-7.86-3.15-11.85-1.11-5.9-2.2-11.87-1.81-17.96.05-.78-.04-1.6-.25-2.34-2.08-7.44-.3-14.38,2.64-21.19Z" style="fill: #856f63; fill-rule: evenodd;"/>
  <path d="M84.52,14.83c.01,1.07.02,2.14.04,3.21-6.13-1.89-8.35-6.32-8.06-12.39C83.44-.39,91.71-.42,100.17.38c.38,2.91-2.45,3.25-3.82,4.77-4.63,2.38-11.12,2.49-11.82,9.68Z" style="fill: #5d4d40; fill-rule: evenodd;"/>
  <path d="M1.1,211.55c1.07-1.56,2.67-2.56,4.64-2.68,2.64-.16,5.29-.25,7.94-.39,1.32-.07,2.64-.19,3.96-.28-.47,2.41-2.03,3.62-4.39,3.55-1.52-.05-3.02-.6-4.55-.78-1.17-.14-2.82,1.94-2.59,3.31.25,1.47,1.36,2.21,2.77,2.15.99-.05,2-.42,2.94-.79,1.21-.47,2.33-1.16,3.54-1.62,2.42-.93,3.41-.26,4.13,2.74.12.5.08,1.03.11,1.55.68.64.52,1.05-.35,1.26-.31-.17-.62-.17-.92.01-1.54-1.09-3.59-.08-5.12-1.22-.53,0-1.07,0-1.6,0-3.56-.21-5.49,4.59-9.47,3.1-.74-1.21-3.93-1.89-.81-3.99.38-.26.38-1.53.13-2.16-.49-1.26-1.18-2.58-.37-3.76" style="fill: #857464; fill-rule: evenodd;"/>
  <path d="M51.65,231.89c-.9,2.69-4.16,3.88-4.45,6.97-.18,1.6-.29,3.21-1.54,4.43-1.21.75-.92,2.21-1.52,3.25l.03-.04c-1.24.6-.83,2.18-1.78,2.95-.5.17-.99.35-1.48.52-1.76-1.02-2.28-2.72-2.49-4.59.05-.75.21-1.47.45-2.18.22-.72.5-1.42.79-2.13,3.54-5.67,2.31-12.78,5.57-18.52,3.56.26,1.99,2.78,2.08,4.16-.22,1.49,1.7-.1.71.29-.73-3.13-.93-5.85,3.73-4.9.6.63,1.03,1.35,1.31,2.17.61,2.74.73,5.38-1.4,7.6Z" style="fill: #4f453c; fill-rule: evenodd;"/>
  <path d="M39.12,244.85c.77,1.65,1.82,3.2,1.78,5.13-1.99,2.02-4.36,3.69-5.15,6.71-.3,1.14-1.6,1.14-2.65.87-1.15-.29-1.88-1.22-1.76-2.28.56-5.12.49-10.37,2.84-15.16.94-.89,2.02-1,3.19-.55,1.81,1.35,1.65,3.35,1.75,5.28Z" style="fill: #655949; fill-rule: evenodd;"/>
  <path d="M73.8,45.31c1.6.34,1.81,1.5,1.7,2.86,1.09,1.47.31,2.84-.23,4.21-2.17,3.91-2.19,8.77-5.37,12.23-.72.42-1.4.36-2.03-.19-.67-1.2-1.79-1.45-3.03-1.47-.52-3.68,2.13-6.92,1.42-10.68-.26-1.36,1.17-2.2,1.84-3.28,1.34-2.15,4-2.17,5.7-3.7Z" style="fill: #614e43; fill-rule: evenodd;"/>
  <path d="M2.15,221.46c1.15-.56,4.08.94,2.89-2.47-.04-.1,1.22-.93,1.89-.95,1.56-.05,3.13.19,4.69.32.6,3.6,3.49,4.07,6.31,4.49,2.22.34,4.7-.61,6.57,1.38-.52,1.45-2.31.67-3.04,1.74-6.22-.1-14.97-2.15-19.31-4.52Z" style="fill: #f3f1ee; fill-rule: evenodd;"/>
  <path d="M37.33,240.12c-1.05,0-2.11,0-3.16,0-.39-.5-.38-.99.02-1.47,1.79-2.02.03-4.74,1.36-6.85-.2-.44-.12-.82.23-1.16.66-.75.7-1.69.8-2.61.2-.24.39-.48.59-.73,2.71-2.2,1.27-5.17,1.45-7.84,0,0,.14-.12.14-.12,4.15.35,3.21,4.14,4.41,6.48.36,5.7-1.96,10.32-5.85,14.29Z" style="fill: #423c39; fill-rule: evenodd;"/>
  <path d="M80.13,38.76c-1.06,3.24-4.47,4.22-6.39,6.62-1.88-.59-3.42-1.68-4.78-3.07-.61-2.46.05-4.63,1.57-6.59,1.73-.33,3.05.66,4.39,1.47,1.62.97,3.27,1.73,5.21,1.57Z" style="fill: #6f6153; fill-rule: evenodd;"/>
  <path d="M33.91,220.8c2.48.34,3.58,1.69,3.2,4.22-.11.74.03,1.52.06,2.28v.04c-.2.43-.46.64-.79.61-.36-.03-.54-.09-.55-.21.61-3.97-2.64-4.9-5.1-6.46.9-1.15,2-1.02,3.17-.5Z" style="fill: #f3f1ee; fill-rule: evenodd;"/>
  <path d="M70.53,35.72c.34,2.4-.58,4.51-1.57,6.59-2.64-3.38-2.31-4.75,1.57-6.59Z" style="fill: #a38f7b; fill-rule: evenodd;"/>
  <path d="M35.56,231.8c.22,2.42.95,4.94-1.36,6.85-.23-2.42-.33-4.81,1.36-6.85Z" style="fill: #655949; fill-rule: evenodd;"/>
  <path d="M33.91,220.8c-1.06.16-2.11.33-3.17.5-.95-.09-1.9-.18-2.85-.27-.69-.16-.91-.57-.67-1.24,2.31-.22,4.7-.93,6.69,1.01Z" style="fill: #857464; fill-rule: evenodd;"/>
  <path d="M21.46,225.98c.59-1.32,1.85-1.47,3.04-1.74.51.54,1.01,1.09,1.52,1.63-.97,1.05-2.02,1.05-3.14.26-.47-.1-.94-.15-1.42-.15Z" style="fill: #cdc9b6; fill-rule: evenodd;"/>
  <path d="M13.22,218.37c1.88-.32,3.67-.27,5.12,1.22-1.86.22-3.75.58-5.12-1.22Z" style="fill: #f3f1ee; fill-rule: evenodd;"/>
  <path d="M23.98,192.49c1.7,1.47,1.72,3.35,1.27,5.34-1.61-1.5-1.62-3.37-1.27-5.34Z" style="fill: #856f63; fill-rule: evenodd;"/>
  <path d="M29.91,225.19c-.21.4-.34.88-.65,1.17-.44.43-1,.28-1.09-.32-.05-.37.23-.97.54-1.14.27-.15.79.17,1.2.28Z" style="fill: #f3f1ee; fill-rule: evenodd;"/>
  <path d="M27.23,219.79c.21.42.44.83.67,1.24-1.92.31-3.81.42-5.4-1.01.17-.31.35-.61.52-.92,1.06-.33,2.07-.34,2.94.47.39.28.81.36,1.27.22Z" style="fill: #f3f1ee; fill-rule: evenodd;"/>
  <path d="M19.26,219.58c.17-.4.29-.82.35-1.26,1.01.08,2.01.16,3.02.25.81.28.82.65.14,1.11,0,0-.27.33-.27.33-1.08-.14-2.16-.29-3.23-.44Z" style="fill: #f3f1ee; fill-rule: evenodd;"/>
  <path d="M22.89,226.13c1.04-.09,2.09-.17,3.14-.26-.9,1.8-1.96,1.78-3.14.26Z" style="fill: #f3f1ee; fill-rule: evenodd;"/>
  <path d="M35.84,227.75c.44-.15.88-.29,1.32-.41.32,1.43-.12,2.53-1.38,3.3.02-.96.04-1.92.06-2.89Z" style="fill: #695c51; fill-rule: evenodd;"/>
  <path d="M44.14,246.55c-.25-1.44,0-2.65,1.52-3.26.09,1.36-.18,2.56-1.52,3.26Z" style="fill: #655949; fill-rule: evenodd;"/>
  <path d="M42.38,249.46c0-1.34.32-2.49,1.78-2.95-.04,1.32-.1,2.62-1.78,2.95Z" style="fill: #655949; fill-rule: evenodd;"/>
  <path d="M69.26,266.88c2.03.54,2.02,2.13,1.93,3.75-1.3-.91-1.77-2.26-1.93-3.75Z" style="fill: #594f42; fill-rule: evenodd;"/>
  <path d="M64.42,63.91c.01,1-.43,1.74-1.33,2.18,0-1,.44-1.73,1.33-2.18Z" style="fill: #614e43; fill-rule: evenodd;"/>
  <path d="M138.81,106.64l.07.65c1.48,8.72,1.98,17.48.57,26.24-.37,2.33-.29,5.81-4.56,4.41-.64-.37-1.22-.84-1.75-1.36-1.43-1.62-3.27-2.84-4.6-4.57-2.63-3.54-2.18-7.39-1.14-11.29.1-.68.27-1.35.44-2.01.16-.66.38-1.3.6-1.93.55-1.61.61-3.28.47-4.97-.08-.72-.11-1.43-.13-2.14-.04-6.35-.68-12.7.42-19,.15-.71.43-1.37.8-1.98-.44-1.67,5.26,1.13,1.91-2.65-.57-.94-.98-1.94-1.13-3.03.01-2.42.61-4.54,2.98-5.73,4.5,2.11,2.5,6.64,3.7,9.98.05,1.09-.15,2.26,1.04,2.94h0c.41,5.48.64,10.97.31,16.47Z" style="fill: #3a2c29; fill-rule: evenodd;"/>
  <path d="M114.51,1.65c5.86-1.04,11.29,1.4,16.94,2.1,1.79.22,3.58.53,5.37.8,2.65,1.01,5.31,2,7.95,3.03,1.78.7,2.06,2.22,1.8,3.86-.44,2.76-2.09,4.69-4.44,6.07-2.89.48-5.75.45-8.58-.39-2.56-1.21-5.7,0-8.1-1.89-.89-3.87-3.2-5.7-7.28-5.53-2.63.11-5.27-.31-6.98-2.8-.96-3.07,1.33-4.06,3.33-5.24Z" style="fill: #52453a; fill-rule: evenodd;"/>
  <path d="M142.97,174.58c-3.6,5.2-8.38,8.9-14.2,11.3-1.53-1.64-.76-3.49-.5-5.3-.06-4.09,5.51-5.67,4.5-10.18.39-.6.93-.99,1.61-1.18,3.45.04,3.28-2.36,3.14-4.75-.14-4.2-.34-8.37-.37-12.56.24-4.19-.63-8.43.63-12.57,3.05-7.24,1.22-14.81,1.57-22.24.14-3.08-.43-6.23.8-9.22,2.43,1.67,1.73,4.24,1.78,6.52.35,16.36.63,32.72.92,49.08.07,3.69.08,7.39.12,11.09Z" style="fill: #f6dce2; fill-rule: evenodd;"/>
  <path d="M133.56,15.67c2.06-.3,4,1.09,6.17.28,1.05-.39,1.88.58,2.4,1.55-2.79,4.42-4.23,9.18-5.07,14.4-1.02,6.35-1.55,12.88-3.94,18.98-2-1.54-1.97-4.56-4.29-5.88-1.77-6.04,2.57-11.78.83-17.8-1.16-1.87-2.81-2.15-4.76-1.44-.65.2-1.29.23-1.95.12-.97-.38-1.71-1.04-2.27-1.91-.27-.63-.39-1.3-.38-1.97,1.22-2.11-.76-3.42-1.31-5.11.05-.74.37-1.33.93-1.8,1.34-.72,2.72-.73,4.12-.21.9.56,1.61,1.37,2.54,1.89,2.63,1.54,4.73-.36,7-1.11Z" style="fill: #50453b; fill-rule: evenodd;"/>
  <path d="M129.42,45.68q3.1-.25,3.32,2.19c.1,1.01.24,2.01.37,3.02.02,1.94.04,3.88.05,5.82.17,6.95,3.2,13.87.24,20.86-.51,2.17-1.02,4.34-1.53,6.51.49.45.65,1,.5,1.65-.34,1.24-1.07,2.22-1.98,3.09l-.03.05c-4.43-.58-4.6-3.33-3.45-6.76,3.07-5.96,2.07-11.54-2.01-16.54-1.42-1.73-2.87-3.07-1.62-5.43.56-.85,1.2-1.64,1.79-2.46.88-1.39,1.51-2.89,2.06-4.43.86-2.19.56-4.66,1.59-6.81.23-.25.46-.5.69-.75Z" style="fill: #342c28; fill-rule: evenodd;"/>
  <path d="M140.16,107.9c-.14,8.85.99,17.67.25,26.54-.16,1.87-.38,3.59-1.25,5.23-1.16,1.01-.54,4.31-3.3,3.09-2.85-1.26-3.47-3.6-1.4-6.26,1.14.26,2.74,1.36,2.96-.79.25-2.34.3-4.66,1.21-6.91.37-.91.4-2.16.09-3.08-2.04-6.18-.38-12.3.17-18.43.46.11.89.32,1.27.6Z" style="fill: #4c3936; fill-rule: evenodd;"/>
  <path d="M133.41,77.57c-.08-6.95-.16-13.91-.24-20.86,2.33,10.59,5.29,21.08,5.02,32.08-.32.32-.64.42-.96.31-.32-.11-.48-.22-.48-.33-.72-3.85-1.06-7.82-3.34-11.2Z" style="fill: #514e47; fill-rule: evenodd;"/>
  <path d="M138.81,106.64c-.37-1.75-.8-3.49-1.12-5.25-.69-3.8-.37-7.54.8-11.22,1.95,1.91,2.88,3.99,1.7,6.76-1.32,3.08.53,6.67-1.38,9.71Z" style="fill: #4c3936; fill-rule: evenodd;"/>
  <path d="M136.75,88.77c.48,0,.96,0,1.44.01l.39.65-.06.75c-.88-.11-1.43-.62-1.76-1.41Z" style="fill: #4e3934; fill-rule: evenodd;"/>
  <path d="M130.2,181.29c-.19,1.62-1.88,2.77-1.43,4.59-.44,2.73-.98,5.45-1.28,8.2-.18,1.63-1.12,2.8-1.85,4.12-.12.62-.34.87-.66.77-.37-.12-.56-.26-.56-.43h.06c-4.48-1.54-3.45-5.57-4.04-8.87.15-2.92-3.9-2.98-3.95-5.76-.06-.69,0-1.39.16-2.06.86-1.22.57-2.34-.34-3.41-1.12-3.67-.53-7.17.97-10.59.74-1.59,1.34-3.25,2.12-4.82.35-.59.86-1,1.49-1.27,2.06.32,3.62-.74,5.19-1.88.75-.16,1.46-.12,2.19.12.66.47,1.15,1.07,1.51,1.79,1.22,4.07.95,8.22.72,12.36-.68,2.35-1.76,4.69-.3,7.13Z" style="fill: #4b3d38; fill-rule: evenodd;"/>
  <path d="M92.78,234.37c-1.2-.11-2.29-.42-2.94-1.57-1.27-1.03-1.55-2.49-1.75-3.98-.17-.75-.42-1.47-1.13-1.94-.52-.18-1.03-.32-1.57-.37-1.22-.09-2.41-.21-3.56-.67-.6-.32-1.12-.73-1.57-1.24-1.27-1.98-1.6-3.8.85-5.15.63-.17,1.28-.23,1.92-.19,1.24.13,2.47.1,3.68-.29.91-.31,1.82-.6,2.73-.91.96-.38,1.92-.73,2.91-.99,2.16-.51,4.32-.48,6.48.02,2.11.64,4.35.9,6.24,2.19,1.52,1.71.79,3.37-.13,5.02-.47.51-1.05.84-1.73.98-1.55-.31-3.1-.8-4.71-.25-.82.37-1.72.6-2.32,1.36-1.3.7-1.61,1.92-1.47,3.22.22,1.98-.82,3.38-1.95,4.76Z" style="fill: #2e2c2c; fill-rule: evenodd;"/>
  <path d="M122.37,187.99c.06,2.24.26,4.49.16,6.73-.08,1.74.93,2.75,1.95,3.84-4.27,4.56-6.63,9.67-5.62,16.19.62,3.97-.18,7.85-3.89,10.37-1.43.97-2.42.18-3.12-1.14-.31-1.23-.09-2.42.24-3.6,1.4-4.27.4-8.8,1.39-13.11,1.69-4.99,1.53-10.42,3.39-15.33.86-2.27,1.14-6.21,5.51-3.93Z" style="fill: #e7eded; fill-rule: evenodd;"/>
  <path d="M113.52,221.29c-.56.89-1.12,1.79-1.68,2.68-.55,0-1.02.17-1.43.54-2.13,1.19-4.26,1.31-6.39.04-.18-1.8.87-3.2,1.54-4.72.29-.23.58-.46.87-.7,2.75-.56,5.13.09,7.09,2.16Z" style="fill: #4e4c48; fill-rule: evenodd;"/>
  <path d="M104.03,224.55c2.13-.01,4.26-.03,6.39-.04-1.01,1.45-2.52,1.69-4.11,1.72-3.37.06-6.74.11-10.1.16-.06-1.05.75-1.27,1.49-1.56,1.51-1.33,3.12-1.07,4.77-.33.52.01,1.04.03,1.56.04Z" style="fill: #e7eded; fill-rule: evenodd;"/>
  <path d="M124.42,198.54c.34-.36.74-.48,1.21-.34-.12.39-.25.79-.38,1.19-.28-.28-.55-.57-.83-.85Z" style="fill: #e7eded; fill-rule: evenodd;"/>
  <path d="M114.51,1.65c-1.02,1.58-2.05,3.16-3.08,4.73-6.19,4.18-11.14,1.32-15.88-2.78.73-2.23,3.66-1.32,4.61-3.23,1.07-.04,2.13-.08,3.19-.12,3.17,1.74,6.77-.31,9.97,1.16.45-.2.84-.12,1.18.23Z" style="fill: #463b31; fill-rule: evenodd;"/>
  <path d="M113.33,1.42c-3.37.02-6.9,1.44-9.97-1.16,3.41-.38,6.8-.6,9.97,1.16Z" style="fill: #5d4d40; fill-rule: evenodd;"/>
  <path d="M44.65,99.98c.42,5.15.21,10.37,2.87,15.16,1.32,2.38.33,5.12.07,7.7-.04.36.46.97.85,1.12.24.1,1.04-.39,1.08-.68.65-5.17,1.45-10.31,2.93-15.33.37-1.26.58-2.56,1.65-3.47,3.81,5.5.83,11.26.1,16.67-1.04,7.76,1.04,15.17.92,22.75-.07,4.49,6.47,3.57,6.64,7.92-1.21,1.83-3.16,2.05-4.87,1.5-7.17-2.34-10.84.42-11.85,7.59-.11.76-.96,1.16-1.72,1.43-2.92-1.35-2.79-4.1-3.09-6.66-.51-5.85,1.01-11.53,1.48-17.29,1.05-8.83,1.67-17.61-.42-26.43-.77-3.26-.66-6.76.34-10.09.67-1.17,1.26-2.47,3.01-1.89Z" style="fill: #805e58; fill-rule: evenodd;"/>
  <path d="M55.83,99.89c1.05-2.24,2.31-3.86,5.3-3.4,3.06.47,3.09.24,3.88-3.42,1.49-1.19.87-4.89,4.38-3.67,1.76,1.03,2.3,2.86,3.05,4.57.29.68.49,1.39.66,2.11.66,4.58.32,9.43,3.58,13.31,3.23,4.66,3.83,9.87,3.18,15.34-.62,1.96-1.69,3.45-3.91,3.73-1.15-.91-1.9-3.21-3.92-1.11-.75-.1-1.38-.42-1.89-.98,0-4.69,4.98-11.1-4.36-12.54-1.84-.85-3.18-2-2.45-4.3,1.11-2.14,4.58-.91,5.43-3.95-1.17,2.19-3.72,1.85-4.89,3.52-3.06-.3-4.86-3.34-7.92-3.63-1.01-1.82-.55-3.69-.12-5.55Z" style="fill: #e6a2ae; fill-rule: evenodd;"/>
  <path d="M55.83,99.89c1.06,1.54.73,3.12.16,4.71.58.95,1.02,1.96,1.47,2.97,5.65,8.79,1.75,17.79.62,26.71.3.71-1.89.45-.6,1.56.78.51,1.25,1.24,1.4,2.16.01.58-.1,1.15-.32,1.7-.43.75-1,1.37-1.76,1.78-.97.41-1.04-.72-.53.19.19.34.96.13,1.45.25.52.26.94.63,1.29,1.09.34.44.7.86,1.13,1.2,2.1-.38,3.71.07,4.28,2.39.41,1.33.77,2.67.88,4.07-.06.74-.33,1.37-.86,1.89-1.09.43-2.08.36-2.84-.66-2.06-1.78-4.58-2.5-7.14-3.24-1.68-.48-2.72-1.95-2.04-3.7,1.65-4.22.32-8.29-.51-12.32-.55-2.67-.57-5.27-.21-7.87.76-5.73,1.74-11.43,2.55-17.16.15-1.03-.09-2.11-.15-3.16.48-1.56-.08-3.52,1.74-4.58Z" style="fill: #ce8f9b; fill-rule: evenodd;"/>
  <path d="M69.91,89.88c-2.49-.26-3.06,2.44-4.89,3.18,1.56-6.16,1.54-12.45,1.56-18.74.23-.29.45-.58.68-.86.74.12,1.36.45,1.86,1.02,2.46,3.08.87,7.03,2.22,10.36.16,1.48.06,2.92-.65,4.27-.25.26-.51.52-.78.78Z" style="fill: #b47b80; fill-rule: evenodd;"/>
  <path d="M44.65,99.98c-.52.49-1.04.98-1.55,1.47-1.31,1.39-.69,3.72-2.19,4.88-1.24.95-2.72,4.15-4.31.2,1.13-3.94,4.44-6.4,6.57-9.67,1.44-.26,2.35-.03,1.63,1.73-.07.46-.11.92-.13,1.38Z" style="fill: #e1dddc; fill-rule: evenodd;"/>
  <path d="M44.78,98.6c-.54-.58-1.09-1.15-1.63-1.73.92-2.12,2.16-4.01,4.1-5.36.71-.49,1.39-.47,1.89.34-1.61,2.15-2.21,4.95-4.37,6.75Z" style="fill: #c7c3b9; fill-rule: evenodd;"/>
  <path d="M67.86,64.43c.42-.1.83-.18,1.26-.24.8.47,1.38,1.15,1.73,2.01.56,3.12,1.5,6.35-2.53,8.02l-.48-.36c-.74-.99-.72-1.99-.05-3,.01-1.07.03-2.14.04-3.21-.45-.48-.54-1-.2-1.58.08-.55.15-1.1.22-1.65Z" style="fill: #b47b80; fill-rule: evenodd;"/>
  <path d="M67.8,70.87c.01,1,.03,2,.05,3-.42.16-.84.3-1.27.45-.15-1.35,0-2.59,1.22-3.45Z" style="fill: #614e43; fill-rule: evenodd;"/>
  <path d="M67.64,66.08c.07.52.13,1.05.2,1.58-.85-.43-.98-.95-.2-1.58Z" style="fill: #614e43; fill-rule: evenodd;"/>
  <path d="M49.66,209.71c-1.32-.06-2.64-.06-3.96-.18-2.11-.19-3.67-1.36-3.57-3.5.22-4.64-2.12-8.7-2.6-13.2-.55-5.16-1.88-5.6-7.65-3.56-1.98-3.44.73-4.11,2.98-5.06,6.02-1.85,7.74,3.29,10.62,6.55,2.19.65-.83,6.05,3.98,4.32.65-.23,1.27-.19,1.9.07,1.01.91,1.66,2.04,2.15,3.29.28.93.34,1.88.18,2.83-.25,1.16-.61,2.3-.47,3.52.24,1.55,1.73,2.58,1.74,4.23-.22.7-.67,1.19-1.31,1.52-1.49.46-2.85.35-3.99-.83Z" style="fill: #a1abc4; fill-rule: evenodd;"/>
  <path d="M49.66,209.71c1.62-.03,3.23-.06,4.84-.1,4.32.1,6.53,1.37,3.17,5.72-.65.18-1.32.29-1.96.34-2.51,1.38-.14,2.57.18,3.83,1.1,4.75-1.45,4.12-4.36,2.96-1.33.19-2.55.46-3.01,2.03-.43,1.43.4,3.13-.93,4.37-1.78-1.56.55-5.05-2.79-5.85,0,0-.76.24-.75.25-.55.61-.85,1.38-1.39,1.99-.23.16-.46.31-.69.46-1.14-.75-1.58-1.86-1.63-3.16-.05-1.3-.48-2.42-1.57-3.21-.06-3.65-.13-7.3-.2-11.62,3.64,3.05,7,5.56,11.09,1.98Z" style="fill: #2f2e2e; fill-rule: evenodd;"/>
  <path d="M36.41,185.83q-3.99.63-4.53,3.44c-.19,1.08-.77,1.93-1.85,2.12-1.56.27-1.18-1.24-1.6-2-.24-.44-.39-.93-.62-1.36-.12-.21-.35-.36-.53-.54-2.38-8.22-3.84-16.57-3.85-25.15,2.49-1.22,4.82-.14,7.2.45.65.33,1.14.83,1.48,1.47.31,1.08.17,2.11-.41,3.07-1.42,5.81-1.92,11.22,5.7,13.12.78,2,.4,3.79-.98,5.39Z" style="fill: #d8dfea; fill-rule: evenodd;"/>
  <path d="M36.59,106.53c.96,1.08,1.85.66,2.59-.22,1.34-1.59,2.61-3.24,3.91-4.86.39,5.65-.55,11.35,1.68,16.93.89,2.24.65,5.25.06,7.7-.96,4.01,1.04,8.23-1.15,12.05-6.82-1.35-3.81-7.01-4.8-10.91.56-5.6-5.9-7.68-6.42-12.74.89-2.9,2.22-5.59,4.14-7.96Z" style="fill: #eeb0b9; fill-rule: evenodd;"/>
  <path d="M25.93,135.21c.6-3.52,1.13-7.05,1.82-10.54.55-2.8,1.58-5.4,4-7.18,3.2-1.05,2.89,1.48,2.63,3.01-.54,3.24.62,5.53,3.06,7.42,1.72,2.6,2.53,5.19-.09,7.74-.74.76-1.59,1.34-2.66,1.51-1.3-.78-1.93-.5-1.72,1.11-.5.51-1.11.81-1.82.9-1.36-.14-3.04-1.04-2.64-2.1,1.74-4.55-2.18-.7-2.58-1.87Z" style="fill: #eeb0b9; fill-rule: evenodd;"/>
  <path d="M25.93,135.21c.41-.27.89-.48,1.23-.83,1.11-1.15,2.02-1.64,2.11.59.09,2.1,1.03,3.26,3.2,3.3,3.41,6.83,3.33,6.99-4.73,9.53-.47.51-.99.95-1.52,1.38-.91.57-1.85.93-2.91.45-.15-2.13-.29-4.26-.44-6.39,1.02-2.67,2.04-5.35,3.07-8.02Z" style="fill: #f4c2cb; fill-rule: evenodd;"/>
  <path d="M37.12,128.68c-1.72-1.47-5.15-.67-5.65-3.14-.35-1.7,1.23-3.75,1.78-5.7.32-1.15-.55-1.85-1.49-2.36.23-1,.46-2,.7-2.99,1.18.63,2.23,1.49,2.6,2.77,1.33,4.62,1.72.6,2.56-.2.3-.29.99-.44,1.36-.29.38.14.91.81.84,1.11-.8,3.12.5,6.12.47,9.18-.18.25-.37.5-.55.76-.5.38-1.06.66-1.66.85-.31.01-.63.02-.94.03Z" style="fill: #f1c0c6; fill-rule: evenodd;"/>
  <path d="M122.9,25.08c.5.22,1,.44,1.5.66,2.14-.29,4.23-1.24,6.45-.56,2.15,1.14,1.7,3.13,1.4,4.9-.87,5.22-1.87,10.41-2.83,15.61h0c-2.08,2.57-5.16,2.4-7.98,2.96-4.09-.16-8.18-.32-12.23-.94-3.82-1.3-7.82-.64-11.73-1-.78-.07-1.54-.22-2.3-.41-1.84-.58-3.72-.98-5.6-1.43-.77-.23-1.47-.59-2.11-1.05-.88-1.56-2.9-3.04-.38-4.86,3.3-5.62,4.79-11.93,6.66-18.07.69-2.27,2.01-3.45,3.76-4.54,7.16-3.96,14.36-4.24,21.6-.25-.03.53.16.96.57,1.31,1.4,1.44.58,3.49,1.4,5.09-.11.53.06.95.5,1.25.3.58.73,1.03,1.32,1.34Z" style="fill: #fafbf5; fill-rule: evenodd;"/>
  <path d="M119.12,16.09c-7.2.08-14.4.17-21.6.25-2.97-.28-6.07.04-8.73-1.78-1.49-1.02-2.87-.3-4.27.27-.07-.78-.1-1.55-.2-2.33-.56-4.3.17-5.38,3.96-6.86,2.37-.93,5.34.37,7.27-2.04,1.29.13,2.99-.22,3.82.47,3.67,3.03,7.88,2.44,12.06,2.31,2.37,1.42,4.96,1.59,7.64,1.47,1.58-.06,3.18-.06,4.73.14,2.33.29,3.26,1.93,2.75,4.57-.2,1.02-.44,2.04-.66,3.06-.21.26-.41.53-.62.8-.28-.18-.56-.36-.84-.54-1.77.07-3.53.14-5.3.21Z" style="fill: #26211d; fill-rule: evenodd;"/>
  <path d="M73.61,52.13c.63-1.32,1.26-2.64,1.89-3.96,1.94,1.98,4.06.62,6.13.33,1.65.86,3.79-.56,5.27,1.14.46,3.16-2.1,3.65-4.08,4.67-.74.24-1.5.4-2.27.5-.78.1-1.55.12-2.33.1-1.93-.25-3.98-.34-4.61-2.77Z" style="fill: #f2e6e4; fill-rule: evenodd;"/>
  <path d="M86.53,50.28c-1.56-.79-3.57-.37-4.91-1.78,2.33-1.67,2.2-4.5,3.17-6.81.52-1.23.84-2.4,2.3-2.74-.86,1.88.19,3.09,1.49,4.21.2,2.14.97,4.3-.1,6.42-.53.56-1.18.79-1.94.69Z" style="fill: #55443d; fill-rule: evenodd;"/>
  <path d="M51.65,231.89c-.94-2.54-.36-5.08-.01-7.62,6.68-3.14,13.51-3.49,20.48-1.09,1.17.4,2.3.91,3.4,1.46.69.31,1.37.69,2.02,1.09,2.43,1.59,4.81,3.13,7.99,3.01,2.53-.09,4.05,1.16,3.12,4.03-3.09,9.55-6.08,19.14-10.22,28.32-.74,1.64-1.37,3.54-3.67,3.72-1.26-1.97-2.24-4.21-3.83-5.86-4.97-5.16-8.47-11.28-11.52-17.6-1.87-3.89-4.18-7.11-7.76-9.46Z" style="fill: #fffffb; fill-rule: evenodd;"/>
  <path d="M88.64,232.78c-.63-1.02-.68-3.02-2.39-2.5-4.11,1.26-7.01-.25-9.42-3.41,1-2.34,2.47-3.41,4.93-1.84h0c1.62,1.19,3.25,1,4.89.02.42-.05.85-.04,1.27.03.76.36,1.35.87,1.49,1.75.14,1.99.29,3.97.44,5.96-.4.06-.8.05-1.2-.03Z" style="fill: #84879b; fill-rule: evenodd;"/>
  <path d="M22.77,219.68c-.15-.36-.19-.73-.14-1.11-.17-.73-.36-1.45-.49-2.18-.03-.19.1-.58.2-.59.42-.07,1.11-.2,1.25,0,.86,1.21,1.59,2.51,2.37,3.78-1.07.04-2.13.08-3.19.11Z" style="fill: #857464; fill-rule: evenodd;"/>
  <path d="M26.31,147.97c.02-.79-.01-1.59.08-2.37.22-1.68,1.22-2.23,2.76-1.59.72.3,1.3.93,2.03,1.21,1.08.43,2.27-.43,2.13-1.51-.23-1.82-.56-3.62-.85-5.43.02-.51.03-1.02.05-1.53.33-.37.68-.51,1.05-.42.38.09.56.19.57.3.53-.49,1.05-.98,1.58-1.47.74-.44,1.93-.46,2.1.12,1.44,4.97,2.73,10-.33,14.86-.1.11-1.22-1.09-.41.39,1.52,1.08,3.94.9,4.4,3.33.05.69-.03,1.38-.22,2.05-.46,1.3-.81,2.67-2.06,3.5-3.1.51-5.01,3.17-7.73,4.36-2.8.24-5.54.14-8.02-1.41.04-3.58.29-7.17-.76-10.69-.17-.57.4-1.35.63-2.03,1-.55,2.01-1.1,3.01-1.65h0Z" style="fill: #f7d0d8; fill-rule: evenodd;"/>
  <path d="M81.76,225.04c-1.65.61-3.29,1.23-4.93,1.84-.47-.07-.91-.22-1.32-.45-.62-.36-1.25-.68-1.91-.99-7.22-2.31-14.61-1.65-21.98-1.17-.04-.6-.07-1.2-.11-1.81.47-.05.94-.09,1.41-.16q2.49-.41,1.39-3.06c.24-.33.47-.67.71-1.01,1.72-1.39,3.7-1.76,5.85-1.54,6.35.43,12.72-.51,19.07.18,1.67.55,3.56.89,3.33,3.34q-3.11,1.13-1.52,4.82Z" style="fill: #504e51; fill-rule: evenodd;"/>
  <path d="M37.33,240.12c1.08-3.37,1.73-6.88,3.59-10.01.73-1.24.72-2.91,1.05-4.39,0,0,.02-.04.02-.04,1.48-.33-.33-4.21,2.89-2.67h-.07c1.54,7.37-1.23,13.87-4.09,20.35-.57.45-1.1.95-1.59,1.49h0c-2.32-.92-1.32-3.1-1.78-4.73Z" style="fill: #dcdcd4; fill-rule: evenodd;"/>
  <path d="M39.12,244.85c.53-.5,1.06-.99,1.59-1.49-.22.83-.72,1.35-1.59,1.49Z" style="fill: #655949; fill-rule: evenodd;"/>
  <path d="M73.61,52.13c1.51,1.46,3.43.99,5.23,1.11,1.92,3.13,3.13,7.4,8.44,4.5.81-.44,2.24.97,3.35,1.6,7.7,3.14,4.01-3.24,4.85-5.81.28-.7.76-1.23,1.41-1.61,4.25-.29,8.69-2.02,12.39,1.69.86,3.31-2.14,7.44,2.1,10.05.76,2.2,1,4.65,3.03,6.22.42,2.18-.7,3.28-2.65,3.79-1.76-1.45-3.92,0-5.77-.75-.64-.15-.85-1.08-1.66-.96.42.09.83.2,1.03.66,1.8,1.47,4.01-.25,5.86.81,1.66,3.63,8.34,6.19,2.45,11.43-1.43-.92-3.08.36-4.54-.41-.71-.79-1.17-1.71-1.6-2.64-1.6-2.29-2.27-1.42-2.36.77-.14,3.33,1.89,6.46.91,9.88-.73,1.62-1.81,2.27-3.48,1.24-4.52-2.89-6.41-6.73-4.3-11.99.4-.98.06.39.43-.6.26-.7.43-1.4.46-2.14-.21.27-.1.58-.11.87-.02,1.06-.06-.33-.1.77-.78.95-1.08,2.27-2.3,2.77-1.68-.39-1.13.8-1.09,1.65-.28,3.74-1.32,7.13-4.21,9.7-2.22,1.96-1.71,5.17-3.38,7.39-.56.48-1.21.71-1.94.74-6.26-3.02-6.3-9.02-7.03-14.66.37-.72,1.47-.64,1.76-1.49-.45-.05-.9-.13-1.37-.22-.62-.17-1.16-.46-1.66-.85-.42-.51-.63-1.09-.64-1.74.97-1.51-.11-1.7-1.22-1.86-3.91-1.08-5.87-3.08-5.71-7.69.09-2.63,2.26-5.81-.61-8.33-.16-.61-.32-1.21-.48-1.82,1.82-3.9,1.96-8.42,4.48-12.06Z" style="fill: #e693a2; fill-rule: evenodd;"/>
  <path d="M128.66,82.52c-.98.63-1.45,1.54-.96,2.61.64,1.4,1.17,2.92,2.66,3.72.26.73.86,1.53.73,2.19-1.27,6.71-.05,13.47-.41,20.19-.35.33-.72.48-1.11.43-.41-.05-.61-.12-.57-.18-.69.32.14-2.14-1.26-.67-.07,1.48.18,2.92.08,4.37-.07,1.41-.25,2.8-.54,4.18-1.08,3.14-.9,6.99-4.79,8.55-.78.12-1.53,0-2.24-.31-.57-.54-.93-1.19-1.05-1.97.03-2.24.3-4.47.21-6.72.43-5.49,1.27-10.94,1.51-16.44-.16-5.59,1.58-11.08.78-16.7-.15-.71-.22-1.43-.24-2.16.11-1.87.45-3.71.91-5.53.38-1.18.96-2.19,2.24-2.6,4.5.52,5.4,3.14,4.07,7.04Z" style="fill: #4e3934; fill-rule: evenodd;"/>
  <path d="M134.45,136.5c.03,1-.11,2.05.13,3,.63,2.5,1.64,2.61,3.95.59.19-.16.42-.28.63-.42.11,4.23.22,8.47.33,12.71-3.19.97-3.5-4.79-7.04-3.02-1.17-1.06-1.85-2.38-2.28-3.87-.44-2.52-.78-5.08-.35-7.59.41-2.4,1.26-4.67,4.51-2.91.04.51.08,1.02.12,1.53Z" style="fill: #654e4a; fill-rule: evenodd;"/>
  <path d="M121.56,127.35c1.85-1.13,2.97-2.69,2.96-4.94,0-1.3.28-2.49,1.34-3.37,1.1,3.15,2.11-1.24,3.18-.04.06,1.04.56,2.32.12,3.06-1.99,3.42-.49,6.57.4,9.79,1.3,2.26,1.45,4.47-.29,6.6-4.05-.64-3.66-5.35-6.5-7.1-.93-1.18-2.01-2.32-1.23-4.02Z" style="fill: #835d5e; fill-rule: evenodd;"/>
  <path d="M128.04,138.27c2.11-1.76,1.15-4.24,1.53-6.41,1.64.96,3.67,1.32,4.76,3.12-2.13.16-3.43,1.38-2.94,3.43.65,2.74.3,5.42.23,8.14.22.8-.02,1.4-.8,1.75-.38-.01-.76-.02-1.14-.04-.34-.18-.67-.37-1.01-.56-.58-.52-1.06-1.12-1.45-1.8-.5-1.08-.74-2.22-.78-3.4.03-1.6.25-3.14,1.6-4.24Z" style="fill: #4c3936; fill-rule: evenodd;"/>
  <path d="M126.04,114.36c-.05-1.75-.25-3.54,1.28-4.87,1.02.15,1.36,1.16,2.1,1.67.42-.02.85,0,1.27.08,0,0,0,.71,0,.71v.71c-1.28,1.42-.27,3.38-1.13,4.9l-.55-.04c-2.9.76-1.59-2.48-2.98-3.14Z" style="fill: #835d5e; fill-rule: evenodd;"/>
  <path d="M126.04,114.36c1.7.38,1.65,2.41,2.98,3.14,0,0,.07.75.07.75l-.05.75c-.19.15-.4.28-.56.45q-1.72,1.95-2.62-.42c.06-1.56.12-3.12.18-4.68Z" style="fill: #ad8a91; fill-rule: evenodd;"/>
  <path d="M130.39,88.81c-.01-1.34.3-2.52,1.6-3.21.31-.37.63-.5.96-.39.34.11.5.22.5.34q.89,3.17-3.06,3.27Z" style="fill: #312522; fill-rule: evenodd;"/>
  <path d="M134.15,123.83c.02.77.1,1.54.04,2.3-.08.91.46,2.01-.67,2.62-.14.08-.51-.05-.64-.19-.83-1.02-1.59-2.13-.54-3.39.47-.56,1.2-.91,1.81-1.35h0Z" style="fill: #443834; fill-rule: evenodd;"/>
  <path d="M129.57,117.55c-.4-1.81-.53-3.57,1.14-4.9.09,1.74.34,3.52-1.14,4.9Z" style="fill: #4e3934; fill-rule: evenodd;"/>
  <path d="M134.12,122.23c-.23-.12-.66-.28-.64-.35.11-.54.36-.41.64.35h0Z" style="fill: #443834; fill-rule: evenodd;"/>
  <path d="M133.45,85.54c-.49.04-.98.06-1.47.06-.06-.51-.1-1.02-.11-1.52.53.49,1.05.98,1.58,1.47Z" style="fill: #514e47; fill-rule: evenodd;"/>
  <path d="M134.12,122.23c1.1.51,1.11,1.04.03,1.59h0c0-.53-.02-1.07-.03-1.6h0Z" style="fill: #443834; fill-rule: evenodd;"/>
  <path d="M133.56,15.67c-.28,1.86-1.05,3.3-2.9,4.11-2.44,1.06-3.13.77-5.03-2.51-.31-.58-.22-1.09.27-1.53v-.11c2.56-1.53,5.12-2.26,7.67.04Z" style="fill: #d1cdc6; fill-rule: evenodd;"/>
  <path d="M141.23,10.79c.36.28.95.51,1.05.87.29,1.06-1.65,2.43-2.71,1.88-.34-.17-.63-.86-.57-1.27.17-1.24,1.09-1.58,2.23-1.48Z" style="fill: #8c7e74; fill-rule: evenodd;"/>
  <path d="M133.36,149.45c.49-.61.94-1.27,1.49-1.83.66-.68,1.35-.48,1.93.16,1.21,1.34.58,3.78,2.71,4.59.02,4.75.05,9.49.07,14.24-.59.98-.94,2.15-2.15,2.64-6.87,1.11-6.3-5.48-8.98-8.7-.53,0-1.06,0-1.59,0-.92-.8-1.48-1.81-1.73-3.01-.32-1.97-.19-3.92.32-5.85.47-1.52,1.13-2.93,2.27-4.07.72-.46,1.41-.4,2.06.15h.02c1.21.69.99,2.37,2.14,3.05.36-.62.68-1.22,1.43-1.37Z" style="fill: #43332f; fill-rule: evenodd;"/>
  <path d="M128.43,160.55c2.3-.03,2.93,1.51,3.5,3.39.91,3,2.77,4.93,6.25,4.44.14,2.88-1.64,2.35-3.37,1.89-.43-.18-.86-.19-1.3-.05-.27,1.3-2.42-1.74-2.15.95.2,1.9.12,3.76-2.44,4.04-.17-4.89-.33-9.78-.49-14.66Z" style="fill: #604743; fill-rule: evenodd;"/>
  <path d="M128.92,175.21c1.83-1.91.68-4.51,1.58-6.69,1.43-.24,1.84,1.44,3.01,1.7.03,1.04.21,2.04,1.08,2.73,1.53,1.2.81,2.69-.35,2.9-3.25.6-3.72,2.88-4.05,5.44-1.73-1.75-1.04-4.01-1.28-6.08Z" style="fill: #cd97a8; fill-rule: evenodd;"/>
  <path d="M134.82,170.27c1.21-.47,2.91-.07,3.37-1.89.46-.59.92-1.18,1.38-1.77.17,4.86-.75,5.56-4.75,3.66Z" style="fill: #cd97a8; fill-rule: evenodd;"/>
  <path d="M130.85,25.18c-2.07,1.08-4.13,2.4-6.45.56.18-1.51.19-3.16,2.56-2.41,1.39.44,3.02.33,3.9,1.85Z" style="fill: #655347; fill-rule: evenodd;"/>
  <path d="M121.08,22.48c-1.65-1.37-1.35-3.27-1.4-5.08q2.69,1.86,1.4,5.08Z" style="fill: #655347; fill-rule: evenodd;"/>
  <path d="M122.9,25.08c-.94.04-1.38-.4-1.32-1.34.44.45.88.89,1.32,1.34Z" style="fill: #655347; fill-rule: evenodd;"/>
  <path d="M125.89,15.74c.04.53-.05,1.04-.27,1.53-.4-.46-.8-.93-1.2-1.39.48-.13.97-.18,1.47-.14Z" style="fill: #655347; fill-rule: evenodd;"/>
  <path d="M128.66,82.52c-.55-2.84-1.12-5.66-4.59-6.41-2.05-5.29-4.92-10.2-7.1-15.43.21-.67.53-1.29.92-1.87.93-1.05,2.13-1.68,3.41-2.19.64-.19,1.3-.23,1.96-.12.62.23,1.17.58,1.65,1.04.17.27.34.55.51.83.26.64.19,1.24-.2,1.81-1.45,2.56-1.37,3.85.63,3.95,3.18.17,4.48,1.55,3.81,4.41-.7,3.02.51,5.69,1.01,8.47.43,2.37-.22,4.08-2.02,5.5Z" style="fill: #3f2f2c; fill-rule: evenodd;"/>
  <path d="M121.34,47.43c2.31-2.38,5.37-1.26,8.09-1.75.02,2.87,1.34,5.97-1.51,8.32-1.01.84-1.98.64-2.94-.11-.87-2.34-2.12-4.48-3.64-6.46Z" style="fill: #50453b; fill-rule: evenodd;"/>
  <path d="M125.02,53.95c.96.02,1.93.03,2.89.05.24,1.7-.6,3.05-1.41,4.4-.24.52-.5.71-.79.56-.29-.15-.44-.31-.45-.48l.02.03c-.61-.41-.99-.97-1.09-1.71-.17-.7-.14-1.4.1-2.08.24-.26.48-.52.73-.78Z" style="fill: #c5d3cd; fill-rule: evenodd;"/>
  <path d="M125.27,58.49c.41-.05.82-.08,1.24-.08-.05.86-.52,1.42-1.27,1.78.01-.57.03-1.13.04-1.7Z" style="fill: #644741; fill-rule: evenodd;"/>
  <path d="M119.16,167.05c-1.41,4.15-2.34,8.36-1.37,12.77.39.54.38,1.07-.02,1.6-.18.43-.29.88-.32,1.35-.17.62-.59.87-1.22.81-1.5-.61-2.1,2.78-3.9.88-2.27-1.84.33-5.58-2.79-7.07-.68.05-1.3-.09-1.9-.41-.46-.54-.79-1.14-1.02-1.81-.2-.71-.31-1.42-.35-2.15-.05-1.12.04-2.23.24-3.33.94-2.77.66-6.11,3.61-7.97,3.86-.94,3.65-4.46,4.63-7.25.87-2.49.02-5.89,3.65-6.94,1.17.26,2.04.95,2.7,1.93,1.21,3.5,1.85,7.18,3.07,10.69-.55,1.88-2.55,1.24-3.68,2.12h0c-1.45,1.33-.22,3.38-1.32,4.79Z" style="fill: #9f6d72; fill-rule: evenodd;"/>
  <path d="M116.14,183.15c.44-.13.88-.25,1.31-.38.32,1.49.62,2.73,2.79,2.34,2.12-.38,2.16,1.36,2.13,2.88-1.02-.07-2.29-.42-2.7.88-1.02,3.25-2.1,6.47-2.33,9.94-.19,2.83-.93,5.6-2.38,8.1-3.32-3.15-3.63-7.49-4.58-11.58.17-.71.47-1.36.86-1.97,3.09-2.71,2.46-7.2,4.89-10.22Z" style="fill: #5c4947; fill-rule: evenodd;"/>
  <path d="M120.49,162.26c.58-1.44,1.88-1.45,3.12-1.55.32-.2.63-.4.95-.6.29.23.59.47.88.7-.05.51-.04,1.03-.15,1.52-.55,2.46-.56,2.45-2.84,1.09-.65-.39-1.31-.77-1.97-1.15Z" style="fill: #604743; fill-rule: evenodd;"/>
  <path d="M119.16,167.05c-.03-1.72-.41-3.54,1.32-4.78.02,1.72.35,3.52-1.32,4.78Z" style="fill: #604743; fill-rule: evenodd;"/>
  <path d="M126.6,157.19c.08,1.12.16,2.25.25,3.37-.48.02-.95.1-1.4.25,0,0-.2-.2-.2-.2-1.27-1.82-1-3.03,1.35-3.42Z" style="fill: #604743; fill-rule: evenodd;"/>
  <path d="M117.77,181.42c0-.53.01-1.06.02-1.6.85.54.82,1.08-.02,1.6Z" style="fill: #5c4947; fill-rule: evenodd;"/>
  <path d="M83.28,220.22c-.76-1.22-1.94-1.63-3.29-1.77-.6-.69-.96-1.49-1.07-2.4-.02-1.43.53-2.62,1.5-3.64,7.05-4.32,14.86-1.83,22.32-2.51,2.25.17,4.33.78,5.95,2.48.83,1.06,1.09,2.27.9,3.59-.37,1.24-1.15,2.14-2.32,2.69-.76.22-1.54.34-2.33.36-1.91-.11-3.87.47-5.72-.43-2.66-.9-5.32-.12-7.98-.01-.58.51-1.14,1.03-1.87,1.34-.95.17-1.9.34-2.85.52-1.13.59-2.22.65-3.24-.22h0Z" style="fill: #8e97a9; fill-rule: evenodd;"/>
  <path d="M99.22,218.59c2.11-.09,4.22-.18,6.34-.27.71.51.71,1.02,0,1.52l.02-.02c-2.15-.23-4.56.86-6.35-1.23Z" style="fill: #4e4c48; fill-rule: evenodd;"/>
  <path d="M102.47,224.51c-1.57.41-3.12,1.01-4.77.33q2.29-2.1,4.77-.33Z" style="fill: #4e4c48; fill-rule: evenodd;"/>
  <path d="M86.65,225.07c-2.47,1.98-2.49,1.98-4.89-.03,1.63,0,3.26.02,4.89.03Z" style="fill: #504e51; fill-rule: evenodd;"/>
  <path d="M83.28,220.22c1.08.07,2.16.15,3.24.22-1.19,1.48-2.26,1.34-3.24-.22Z" style="fill: #504e51; fill-rule: evenodd;"/>
  <path d="M89.41,226.84c-.5-.58-.99-1.17-1.49-1.75.96.19,1.46.77,1.49,1.75Z" style="fill: #504e51; fill-rule: evenodd;"/>
  <path d="M89.37,219.92c.37-.79.91-1.36,1.87-1.34-.38.78-.96,1.28-1.87,1.34Z" style="fill: #504e51; fill-rule: evenodd;"/>
  <path d="M105.55,219.85c0-.51,0-1.02,0-1.52.43-.18.88-.24,1.34-.2.73-.4,1.29-.98,1.7-1.7,0-.99.02-1.98.02-2.96-3.28-4.71-1.95-9.87-1.49-14.95.05-.78.21-1.54.44-2.28.86-1.38,1.83-2.51,3.69-1.64.11.76.12,1.55.36,2.25.27.76,2.59,8.06,2.72,8.7.1.49.41.93.62,1.39.01,3.95.02,7.9.05,11.86,0,1.15-.44,2-1.49,2.51-2.83.48-5.26-1.29-7.97-1.44Z" style="fill: #3b3736; fill-rule: evenodd;"/>
  <path d="M61.59,151.91c.91-.04,1.81-.08,2.72-.12,2.17-1.81,5.04-1.65,7.48-2.69,3.34-.51,5.25-4.56,9.15-3.7,2.81,3.6,7.23,6.52,5.24,12.18-.45.65-1.08.98-1.86,1.03-2.6-2.28-5.39-2.86-8.44-.84-1.04.39-2.12.62-3.22.75-2.23.18-4.43.46-6.55,1.24-.74.23-1.5.39-2.26.51-7.34-1.2-13.22,3.12-19.7,5.2-.89-1.06-1-2.16-.2-3.32.3-3.12-.2-6.32,1.32-9.32,1.45-2.86,2.17-3.18,5.53-2.73,3.62.49,6.97,2.59,10.79,1.81Z" style="fill: #473938; fill-rule: evenodd;"/>
  <path d="M35.89,149.4c1-.13,2.04-.23,2.13-1.57.02-.24-.07-.53-.22-.73-2.07-2.86-1.51-5.63-.02-8.57.94-1.86-.65-2.7-2.08-3.39,2.18-1.78,1.98-4.08,1.42-6.46h0c.85-.94,2.36-.61,3.17-1.65h0c.9.62,1.55,1.51,1.06,2.52-1.74,3.59-.34,6.24,2.34,8.59.03,1.81.68,3.9-.02,5.36-1.92,4-.79,8.17-1.33,12.21-.35.37-.69.49-1.03.35-.33-.13-.5-.26-.5-.39-.24-1.21-.37-2.89-1.98-2.62-3.46.56-2.79-1.78-2.92-3.66h0Z" style="fill: #f4c2cb; fill-rule: evenodd;"/>
  <path d="M40.79,155.69c.51-.03,1.03-.01,1.54.03.58,2.13-.83,4.77,1.63,6.43.17.89.34,1.77.52,2.65-.63,1.19-1.72,1.46-2.93,1.49-1.54-.11-3.06-.45-4.61-.55-1.97-.15-3.9-.44-5.35-1.98,0,0-.13,0-.13,0,.45-.93.85-1.88,1.34-2.78,1.49-2.67,3.69-3.33,6.48-2.19.97-.8.62-2.25,1.51-3.09h.02Z" style="fill: #c59fb6; fill-rule: evenodd;"/>
  <path d="M78.57,124.62c-.31-3.16-.71-6.31-.9-9.47-.12-1.99-.84-3.56-2.37-4.8-2.69-4.87-2.1-10.52-3.73-15.65l-.02-.07c-1.57-3.57.28-5.77,3.37-6.53,2.77-.68,4.87,1.89,5.05,4.01.5,5.84,5.06,9.88,6.1,15.37,1.27,5.35,3.48,10.62,1.38,16.25q-3.18-.05-6.12-4.29c2.45,4.59,3.89,9.47,3.71,14.61-.17,4.77-1.95,7.41-6.83,3.48-1.32-4.34.94-8.58.35-12.9Z" style="fill: #543f39; fill-rule: evenodd;"/>
  <path d="M67.09,112.27c1,.27,2.01.83,2.98.76,2.55-.19,2.99,1.43,3.41,3.34.87,3.93-.69,7.1-2.94,10.11.79,1.93.82,3.83-.17,5.72-1.78,1.42-3.59,3.58-6.03,2.11-2.09-1.26-1.64-3.85-.82-5.65,1.74-3.86-2.55-9.02,2.71-12,.76.04,1.19,1.1,2.1.69-.56.19-1,.04-1.36-.51-.81-.77-1.02-1.71-.94-2.75.21-.7.55-1.3,1.06-1.82Z" style="fill: #efb8c0; fill-rule: evenodd;"/>
  <path d="M70.52,131.39c-.85-1.64-.96-3.28.02-4.92.52,0,1.05,0,1.58.02.83.54,1.8.91,2.3,1.86.5.96.49,1.96.3,2.99-.21,1.02-.46,2.04-.68,3.07-2.89,5.22-.98,12.58-7.25,16.31-.7.35-1.39.32-2.06-.07-1.29-.72-1.8-1.85-1.78-3.28-1.27-7.12,1.92-12.13,7.57-15.97Z" style="fill: #eeb9c0; fill-rule: evenodd;"/>
  <path d="M84.44,107.17c-1.58-4.06-3.18-8.11-4.74-12.17-.37-.96-.4-2.1-.93-2.94-.81-1.28-1.78-2.81-3.47-2.77-1.76.04-2.5,1.67-3.16,3.08-.32.69-.4,1.5-.59,2.25-1.94-1.1-1.57-3-1.63-4.74l-.06.06c.71-.74.99-1.74,1.53-2.58,1.73-1.97,3.92-2.59,6.45-2.16.54-.07,1.08-.14,1.61-.21.79,1.07.92,2.13-.06,3.17.64,2.05,2.82,3.18,2.3,6.15-.54,3.04,2.79,5.23,4.17,7.92.32,1.87.3,3.65-1.42,4.93Z" style="fill: #b47b80; fill-rule: evenodd;"/>
  <path d="M73.76,131.24c.03-1.04.05-2.08.07-3.12.3-.49.61-.67.95-.54.35.13.52.28.52.44,1.64-.6,2.6-1.84,3.26-3.38,2.39,4.27,2.65,8.57.2,12.92.4,2.1-1.07,2.47-2.58,2.8-.73,0-1.42-.17-2.08-.48-2.44-2.03.43-4.64-.74-6.81-.22-.68-.11-1.29.4-1.82Z" style="fill: #ce9198; fill-rule: evenodd;"/>
  <path d="M67.09,112.27c0,.53.01,1.07.02,1.6-2.82,3.13-5.44,6.59-7.63-.68-.57-1.87-2.22-3.76-3.47-5.58,0-1,0-2,0-3.01,1.44.6,2.76.91,4.14-.33,1.06-.94,1.83-.25,1.98.97.18,1.5.14,3.05,1.75,3.89l-.02-.02c.09,2.08,1.17,3.13,3.24,3.16Z" style="fill: #f0b7bf; fill-rule: evenodd;"/>
  <path d="M71.57,94.7c2.52,3.8,2.37,8.33,3.41,12.53.25,1,.22,2.08.32,3.12-2.95-2.21-3.19-5.6-3.63-8.8-.3-2.25-.08-4.57-.1-6.86Z" style="fill: #b47b80; fill-rule: evenodd;"/>
  <path d="M63.86,109.13c.39-.92.53-2.17,1.22-2.68,1.33-.98,2.98-1.56,4.49-2.3.76.9.66,1.96.43,2.94-.52,2.27-1.09,2.57-3.86,2.31-.77-.07-1.53-.2-2.3-.3l.02.02Z" style="fill: #eeb9c2; fill-rule: evenodd;"/>
  <path d="M75.31,128.01c-.49.05-.98.09-1.47.1-.57-.53-1.15-1.07-1.72-1.61q2.67-1.01,3.2,1.51Z" style="fill: #efb8c0; fill-rule: evenodd;"/>
  <path d="M56,107.61c3.09,1.15,3.91,3.98,5.05,6.64.68,1.58,1.66,2.49,3.35.75.62-.65,1.79-.76,2.71-1.12.02,1.05.04,2.11.06,3.16h0c-1.73,1.7-3.29,3.45-1.28,5.96.99,1.23.33,2.46,0,3.69-.54,1.98-1.09,3.96-1.75,6.37,2.72,1.08,4.07-2.55,6.37-1.65-1.29,2.97-1.76,6.55-5.87,7.34-.6.12-1.17,1.16-.41,1.9,1.17,1.15,2.05,2.32,1.37,4.06-.5,1.28-1.51,2.06-2.67,2.68-.09-.49-.02-1.12-.3-1.45-.9-1.07-.96.02-1.31.56-1.2,1.88-1.22,1.86-3.07-.81,1.61-2.14-.35-4.13-.26-6.21-.09-1.31-.33-2.54-1.82-3.01l.05.05c.77-4.04,1.69-8.06.08-12.16-.35-.89-.26-2.61.75-2.68,5.19-.33,2-2.38,1.64-4.77-.49-3.32-3.4-5.79-2.71-9.29Z" style="fill: #e6a2ae; fill-rule: evenodd;"/>
  <path d="M64.72,150.64c.49,0,.97-.08,1.43-.24,1.5-.97,3.18-1.07,4.9-1.05.67.23,1.17.68,1.5,1.31-2.53,1.93-5.4,1.42-8.24,1.14.16-.38.3-.76.42-1.15Z" style="fill: #805e58; fill-rule: evenodd;"/>
  <path d="M58,139.45c2.12,2.9,2.13,3.19.26,6.21-.11-.98-.22-1.95-.34-2.93-.83-1.11-.75-2.2.08-3.27h0Z" style="fill: #f1c5d1; fill-rule: evenodd;"/>
  <path d="M57.99,139.46c-.02,1.09-.05,2.17-.07,3.27-.56-.04-1.11-.08-1.66-.12-.04-.34-.09-.69-.13-1.04.62-.7,1.24-1.41,1.86-2.11Z" style="fill: #e6a2ae; fill-rule: evenodd;"/>
  <path d="M56.13,141.57c.05.34.09.69.13,1.04-.46-.29-1.04-.57-.13-1.04Z" style="fill: #805e58; fill-rule: evenodd;"/>
  <path d="M56.18,136.44c-.1.18-.19.35-.28.53.11-.16.23-.32.34-.48l-.05-.05Z" style="fill: #805e58; fill-rule: evenodd;"/>
  <path d="M77.83,85.2c-1.55,2.16-4.56,1.46-6.32,3.21-1.22-.74-.56-2.43-1.63-3.24-.52-3.65-1.04-7.3-1.55-10.95,2.18-2.47.91-5.47,1.27-8.22.77-.13,1.55-.23,2.31-.4.75-.17,1.57-.46,2.01.41.38.74.32,1.87-.45,2.04-2.49.56-2.73,2.22-2.07,4.08.72,2.01,1.29,3.86.4,6-.34.81.65,1.35,1.37.81,1.84-1.38,2.69-.89,3.2,1.23.15.66.95,1.16,1.45,1.73l.44.64-.44.64c.01.67.02,1.34.03,2Z" style="fill: #dba2ad; fill-rule: evenodd;"/>
  <path d="M69.87,85.18c1.3.7,1.52,1.94,1.63,3.24-.55.51-1.1,1.02-1.65,1.53,0-1.59.01-3.18.02-4.77Z" style="fill: #e3a5b4; fill-rule: evenodd;"/>
  <path d="M40.97,165.17c1.17-.12,2.34-.24,3.5-.37,1.59-.31,3.04-1.04,3.88-2.36,2.28-3.56,5.63-4.16,9.44-3.94,2.32.14,4.65.08,6.97.11.29,1.36-.52,2.07-1.57,2.63-8.76.58-9.52,8.75-13.29,14.04-1.02,2.36,3,3.29,1.67,5.75-1.64,4.15-1.41,9.48-6.99,11.15-1.59-1.99-3.24-3.92-4.74-5.97-1.08-1.47-2.26-.53-3.42-.38,0-2.07,0-4.13,0-6.2.37-5.18.68-10.39,4.56-14.47Z" style="fill: #bfcbe1; fill-rule: evenodd;"/>
  <path d="M103.78,211.5c-3.92.74-7.87.8-11.83.52-4.01-.28-7.91.13-11.67,1.62-.29.05-.59.1-.88.16-.98.12-1.44,1.09-2.31,1.42-.64.24-1.29.39-1.97.5-2.13.23-4.26.28-6.4.37-3.02-.09-5.97.59-8.96.8-1.15-.16-2.35.05-3.45-.49-.61-.64-.65-1.33-.2-2.06,2.44-.94,2.65-1.29,1.34-2.56-.87-.84-1.95-1.45-2.94-2.16.12-.44.21-.88.28-1.34,4.69-2.95,10.36-2.6,15.35-4.54,6.63-1.44,13.24-3.71,20.01-.63,1.28,3.21,2.73,5.87,7.12,4.35,2.18-.75,4.64-.64,6.7.94.65,1.08.73,2.12-.19,3.11Z" style="fill: #444140; fill-rule: evenodd;"/>
  <path d="M70.23,205.76c-1.75,1.09-3.87.82-5.78,1.66-2.99,1.3-6.38,1.33-9.67.86-1.94-.35-3.57-1.03-3.57-3.41.6-.63,1.2-1.26,1.8-1.88.37-.34.68-.75.9-1.21-.02.02.69,0,.69,0,0,0,.23-.67.23-.66-.34.32-.67.64-.98.99-.54.23-.92.07-1.15-.47-.02-1.04-.05-2.08-.07-3.12-.92-.87-.59-2.38-1.64-3.19v.03c-.53-.44-.84-.99-.94-1.67.05-.65.25-1.25.65-1.79.63-.33,1.23-.28,1.78.13.33.36.69.71.98.97-.09-.07-.12-.17-.17-.23-.62-.56-1.05-1.13-1.14-1.94.83-1.92,2.14-2.49,4.19-1.97,2.72.69,1.65-1.58,1.92-2.77-.11-1.4-.44-2.83.59-4.06,3.54-2.1,3.63,3.41,6.46,2.91.68-.09,1.3,0,1.92.26,2.41,1.26,4.28,2.92,3.7,5.94-.61,3.24.89,5.91,2.01,8.72.5,2.61-1.35,4.15-2.71,5.9Z" style="fill: #bcc8dc; fill-rule: evenodd;"/>
  <path d="M52.55,192.09c-.54,0-1.08.02-1.62.02-1.49.5-.23,1,0,1.5.02.58.04,1.16.06,1.74-1.28.75-1.36,2.17-1.92,3.33-.39.82-1.3,1.01-1.98.48-1.83-1.43-2.61-3.79-2.51-6.98,2.11-2.71,4.59-5.21,4.06-9.18-.07-.57,1.37-1.33,2.11-2,3.25,1.43,5.96,4.01,9.63,4.57.1,1.82-.06,3.57-.93,5.26-.73,1.43-1.14,1.95-2.57.49-1.98-2.02-2.14-1.87-4.34.79h0Z" style="fill: #b0bfd9; fill-rule: evenodd;"/>
  <path d="M54.31,201.62c-.02,2.05-1.04,3.14-3.09,3.25-.03-1.32.22-2.51,1.48-3.23.53,0,1.07-.01,1.61-.02h0Z" style="fill: #b0bfd9; fill-rule: evenodd;"/>
  <path d="M50.98,195.33c1.34.65,1.63,1.85,1.64,3.19-1.27-.69-1.58-1.87-1.64-3.19Z" style="fill: #b0bfd9; fill-rule: evenodd;"/>
  <path d="M47.25,215.13c-1.16,1.29-1.97,2.33-2.93,3.21-.83.76-2.08.13-2.29-1.08-.23-1.31-.4-2.76.93-3.52,1.35-.77,2.45.33,4.29,1.38Z" style="fill: #423c39; fill-rule: evenodd;"/>
  <path d="M54.33,219.24c-2.99-1.47-3.12-3.24-.41-5.37.83-.66-.45.58.61.49.88.66.81,1.72,1.13,2.63-.04.67-.25,1.27-.63,1.82-.24.12-.47.27-.7.43Z" style="fill: #444140; fill-rule: evenodd;"/>
  <path d="M44.88,223.01c-.96.89-1.92,1.78-2.89,2.67.01-.79,0-1.59.05-2.38.06-.84.41-1.59,1.32-1.69.9-.09,1.33.58,1.52,1.4Z" style="fill: #423c39; fill-rule: evenodd;"/>
  <path d="M54.7,217.72c-.06-1.12-.12-2.24-.17-3.36.53-.03,1.05-.04,1.58-.03.02.55.04,1.1.05,1.64.52,1.43-.07,1.92-1.46,1.74Z" style="fill: #504e51; fill-rule: evenodd;"/>
  <path d="M40.97,165.17c-.03,1.8.11,3.63-1.14,5.17-.85,1.04-1.41,2.17-.78,3.53,1.37,2.96-1.5,3.97-2.64,5.77-1.16-.67-2.03,4.91-3.39.16-.06-.22-.44-.57-.52-.53-1.11.48-2.36,1.73-2.59-.8-.12-1.27-1.07-2.44-.51-3.81.93-2.28,0-4.04-1.48-5.72-.71-.81-1.18-1.95-.14-2.72.93-.69,1.98.09,2.94.48.24.1.49.19.74.28,2.04-1.31,5.12-.4,6.51-3.08,1.25-.18,2.35.03,3.02,1.26Z" style="fill: #cfd5e4; fill-rule: evenodd;"/>
  <path d="M37.95,163.91c.74,3.54.68,3.54-2.17,3.75-1.53.12-2.98.13-4.34-.68.05-1.08.09-2.16.14-3.23,2.13.05,4.25.1,6.38.15Z" style="fill: #bcbfd7; fill-rule: evenodd;"/>
  <path d="M34.13,136.62c-.54.04-1.08.08-1.62.12.45-1.14.99-1.15,1.62-.12Z" style="fill: #f4c2cb; fill-rule: evenodd;"/>
  <path d="M40.29,127.04c-.67,1.3-1.86,1.59-3.17,1.65.66-1.31,1.85-1.6,3.17-1.65Z" style="fill: #eeb0b9; fill-rule: evenodd;"/>
  <path d="M121.34,47.43c.75.07,1.51.05,2.23.22,2.59.62,3.01,1.17,2.54,3.52-.2.96-.71,1.85-1.08,2.78l.14.28c-1.56,1.27-3.86,1.34-5.11,3.12-.44.51-.9,1-1.36,1.48v-.02c-2.99,1.07-3.92-1.81-5.76-2.99-1.12-.95-2.62-.96-3.85-1.62-1.23-.34-2.7-1.29-3.65-.91-3.22,1.28-6.08-.68-9.12-.51-1.67.28-3.27.13-4.73-.77-.81-.68-1.3-1.84-2.64-1.76-.25-.11-.49-.22-.73-.33-.63-2.29-1.91-4.62.37-6.76.48-.19.88-.09,1.21.3,1.49,1.34,3.59.23,5.15,1.28.46-.25.87-.18,1.23.2.37.37.73.75,1.08,1.15.8-.51,1.68-.45,2.57-.44,3.09.24,6.25-.82,9.26.53,4.07.56,8.35-.89,12.27,1.25Z" style="fill: #3f322d; fill-rule: evenodd;"/>
  <path d="M109.07,46.18c-4.29.1-8.58.19-12.88.29h0c-.01-.51-.02-1.02-.03-1.54,3.64,0,7.29-.06,10.93.07.67.02,1.32.76,1.98,1.17Z" style="fill: #55443d; fill-rule: evenodd;"/>
  <path d="M94.94,44.74c-1.91.35-3.79.58-5.15-1.28,1.88-.21,3.65-.03,5.15,1.28Z" style="fill: #55443d; fill-rule: evenodd;"/>
  <path d="M91.51,51.17c1.51.84,3.52.14,4.8,1.61l-.17.52c-.33,3.89-.55,7.86-6.08,7.59-.88-.56-1.78-1.11-2.64-1.7-1.46-.99-2.5-.63-2.95,1.02-.26.96-.02,2.17-1.49,2.22-1.18.05-1.88-.73-2.52-1.62-1.63-2.3-1.72-4.91-1.64-7.57.51-.13,1.03-.16,1.55-.07.39.38.75.5,1.1.34.34-.16.51-.31.51-.45,1.52-.93,3.03-1.85,4.55-2.78.56-.12,1.12-.24,1.67-.36h0c.98.72,2.42.25,3.3,1.26Z" style="fill: #df8495; fill-rule: evenodd;"/>
  <path d="M81.99,53.05c-.46,1.07-.99,1.21-1.6.11.53-.04,1.07-.07,1.6-.11Z" style="fill: #e693a2; fill-rule: evenodd;"/>
  <path d="M73.62,225.44c.87-.13,1.52.18,1.91.99-.93.25-1.5-.21-1.91-.99Z" style="fill: #84879b; fill-rule: evenodd;"/>
  <path d="M35.89,149.4c-.37-.31-.84-.56-1.1-.94-.38-.54-.15-.99.49-1.08.12-.02.37.35.42.57.11.48.14.97.2,1.46h0Z" style="fill: #f4c2cb; fill-rule: evenodd;"/>
  <path d="M40.77,155.7c-.02,1.27-.21,2.45-1.51,3.09-.01-1.28.26-2.42,1.51-3.09Z" style="fill: #f4c2cb; fill-rule: evenodd;"/>
  <path d="M31.11,149.49c.12-.23.28-.65.35-.64.53.11.41.36-.35.63h0Z" style="fill: #f4c2cb; fill-rule: evenodd;"/>
  <path d="M31.11,149.48c-.12.23-.28.65-.34.64-.54-.11-.41-.36.34-.64h0Z" style="fill: #f4c2cb; fill-rule: evenodd;"/>
  <path d="M26.31,147.97c.22.12.65.28.64.35-.11.54-.36.42-.64-.34h0Z" style="fill: #f4c2cb; fill-rule: evenodd;"/>
  <path d="M69.3,214.33c2.51-.4,5.01-.77,7.54-.12,1.06.91,2.09,1.85,3.07,2.85.02.47.05.93.08,1.4-5.77.15-11.54.29-17.31.45-1.37.04-2.62-.12-3.29-1.54.28-.21.56-.42.83-.63,2.84-1.49,6.07-1.54,9.07-2.4Z" style="fill: #a4afbf; fill-rule: evenodd;"/>
  <path d="M54.7,217.72c.49-.58.97-1.16,1.46-1.74.94.04,1.89.08,2.83.12,1.14.25,1.25.72.32,1.43l.09-.16c-1.33.86-2.57,2.01-4.37,1.45-.09-.37-.2-.74-.33-1.09Z" style="fill: #a5a6bd; fill-rule: evenodd;"/>
  <path d="M84.44,107.17c.35-1.68-.23-3.63,1.42-4.93.58.03,1.17.08,1.75.11.26.15.52.31.78.45,1.19,1.09,2.64,1.21,4.15,1.14.98.02,1.91.22,2.78.67,1.18-.03.31,3.38,2.59,1.52.69-.1,1.36,0,2.02.23.61.41,1.07.94,1.4,1.58,1.59,4.68,6.28,7.26,7.99,11.91,1.69,4.6,4.98,9.34-2.31,12.17-2.77,1.08-2.15,3.95-3.18,5.96-3.9,3.84-3.39,11.23-10.2,12.75-1.85-.77-3.13-2.14-4.05-3.87,2.19-3.83,2.85-7.41-.98-10.83-1.72-1.53-2.4-3.9-3.13-6.11-.34-1.1-.45-2.22-.27-3.36.24-.74.63-1.38,1.18-1.93,1-6-1.41-11.61-1.94-17.44Z" style="fill: #f1afbd; fill-rule: evenodd;"/>
  <path d="M109.5,81.24c.03,1.07.06,2.14.09,3.21,1.09,1.03,2.17,1.14,3.21-.07,1.22-.82,3.02-1.39,1.33-3.38-1.88-2.22-2.5-4.98-3.14-7.72h0c1.44-.57,2.45-1.59,3.15-2.95.64-2.55,2.45-3.15,4.78-2.85,3.29.93,4.25,3.29,3.96,6.43-1.63,3.35-6.7,6.62-.26,10.19h-.04c.46,3.13-.71,5.67-3.26,7.33-3.1,2.02-4.2,5.11-5.22,8.34-.73,1.32-1.71,2.32-3.27,2.59-.8-.2-1.37-.62-1.43-1.46.03.05-.49,0-.5.05.31.34.49.7.55,1.17.48.7,1.14,1.25,1.34,2.12.06.68-.04,1.32-.3,1.95-.74.93-1.66,1.19-2.76.72-2.31-2.06-3.93-4.75-6.3-6.77-2.65-2.26-3.73-4.93-1.24-8.07,1.14-.52,2.19-.34,3.16.43.56,1.09,1.11,1.11,1.64-.02,2.94-3.16-1.6-9.34,4.53-11.22Z" style="fill: #e49daa; fill-rule: evenodd;"/>
  <path d="M103.33,92.48c-1.06.05-2.13.09-3.19.14-.42.48-.94.83-1.51,1.1-1.15.66-1.92,1.76-2.92,2.6-.98.54-2,.64-3.07.39-.67-.3-1.22-.74-1.66-1.34-.11-.34-.21-.69-.31-1.04.1-1.33.51-2.48,1.65-3.31,1.15-.85,1.72-2.18,1.08-3.38-1.31-2.44,1.26-3.04,1.85-4.55h0c1.06-.54,2.11-1.09,3.17-1.63l-.03-.02c.34.7.88,1.37,1,2.11.83,5.41.82,5.45,3.95,8.92Z" style="fill: #f1afbd; fill-rule: evenodd;"/>
  <path d="M109.5,81.24c-1.49,1.08-1.47,2.66-1.49,4.26-.02,2.74-.86,5.15-3.04,6.96.02-3.93-2.42-7.47-1.81-11.5.21-1.41-.58-3.16,1.92-3.43,2.98-.32,2.97-.46,4.36,2.93.09.23.05.52.07.78Z" style="fill: #ebacb6; fill-rule: evenodd;"/>
  <path d="M109.08,54.21c1.54-1.02,3.06-.61,4.59,0,1.95,2.57,1.28,5.11-.09,7.64-.7,1.02-1.62,1.71-2.88,1.88-4.37-.45-4.02-.45-4.03-4.15,0-2.4,1.89-3.48,2.41-5.37Z" style="fill: #e6a0a8; fill-rule: evenodd;"/>
  <path d="M90.07,60.9c.1-.49.03-1.24.33-1.44q3.95-2.69,5.11-5.76c.07-.18.42-.27.63-.39.37.97.74,1.94,1.1,2.92.63,1.69,1.7,4.13-.13,4.85-2.04.8-4.83,2.84-7.05-.18Z" style="fill: #e6a3ae; fill-rule: evenodd;"/>
  <path d="M94.11,65.15c2.31.69,4.29,1.96,6,3.56.44.41.65,1.61.37,2.09-.3.51-1.38.93-2.01.81-3.98-.78-4.83-2.1-4.36-6.46Z" style="fill: #eaa6b0; fill-rule: evenodd;"/>
  <path d="M110.7,63.73c.54-.57,1.08-1.15,1.63-1.72-.27,4.57,7.42,1.25,6.45,6.52-1.77.04-3.39.44-4.66,1.8-.51-.03-1.04.02-1.52-.1-2.82-.7-2.9-.83-2.43-3.51.17-1,.35-1.99.53-2.99Z" style="fill: #93635b; fill-rule: evenodd;"/>
  <path d="M98.41,81.47c-.46-1.49-1.03-2.96-1.36-4.48-.15-.68-.04-1.75.4-2.11.4-.32,1.43-.03,2.11.2,1.14.39,1.69,1.33,1.31,2.46-.5,1.48-1.03,3-2.48,3.91l.03.02Z" style="fill: #f1afbd; fill-rule: evenodd;"/>
  <path d="M104.59,71.81c2.2.17,4.69-.86,6.39,1.47h0c-1.42.54-2.79,1.27-4.26,1.58-2.15.46-2.55-.22-2.12-3.07h-.01Z" style="fill: #ebacb6; fill-rule: evenodd;"/>
  <path d="M87.62,102.35c.01-1.76-.03-3.52.05-5.27.08-1.85,1.37-2.51,3-2.74l-.02-.02c.48.54.74,1.17.82,1.88.1.71.06,1.41-.09,2.11-.89,1.69-.53,4.56-3.78,4.04h.01Z" style="fill: #f1afbd; fill-rule: evenodd;"/>
  <path d="M112.8,84.38c.2.48.4.95.58,1.42.42,1.12.1,2-1.02,2.42-.86.33-1.57-.2-1.9-.89-.42-.9-.59-1.92-.87-2.89,1.07-.15,2.1-1.79,3.21-.07Z" style="fill: #ebacb6; fill-rule: evenodd;"/>
  <path d="M79.39,88.17c.02-1.06.04-2.12.06-3.17.95.22,1.89.54,2.86.65.83.09,2.17-1.13,2.27.6.06.95-1.2,1.51-2.19,1.7-.98.19-1.99.16-2.99.23Z" style="fill: #eab0ba; fill-rule: evenodd;"/>
  <path d="M87.49,87.6c.57-.24,1.1-.09,1.2.5.19,1.15.88,2.45-.58,3.27-.11.06-.73-.62-.98-1.03-.56-.96-.83-1.95.36-2.73Z" style="fill: #f1afbd; fill-rule: evenodd;"/>
  <path d="M77.81,83.2c0-.42,0-.85,0-1.28.77.43.93.85,0,1.28Z" style="fill: #b47b80; fill-rule: evenodd;"/>
  <path d="M95.24,83.1c-.23-.12-.66-.28-.64-.35.12-.54.37-.41.64.36h0Z" style="fill: #f1afbd; fill-rule: evenodd;"/>
  <path d="M104.6,71.79c-.23-.11-.67-.27-.65-.34.11-.55.36-.42.64.35h.01Z" style="fill: #ebacb6; fill-rule: evenodd;"/>
  <path d="M113.05,100.31c-.02-2.07-.29-4.18.64-6.14.55-1.15.92-2.73,2.26-3.01,3.97-.81,4.94-4.24,6.62-7.08.85.68,1.32,1.56,1.29,2.65-.07,2.56.22,5.17-.78,7.63-1,2.46,1.56,5.04-.26,7.47-1.64,1.42-2.29,4.5-5.5,3.28-.58-.28-1.1-.66-1.57-1.1-.82-.92-1.59-1.88-2.33-2.87-.13-.27-.25-.55-.37-.83Z" style="fill: #cc8891; fill-rule: evenodd;"/>
  <path d="M118.44,147.88c-1.01.99-1.32,2.24-1.29,3.6.06,3.52-1.48,6.63-2.51,9.87-.73,2.28-2.23,1.67-3.75,1.08-1.26-1.18-1.44-2.67-1.23-4.27.36-1.84.97-3.62,1.45-5.42,1.08-5.62,2.43-11.17,3.97-16.67.15-.64.39-1.27.67-1.86.29-.54.68-1.04,1.1-1.49.56-.66,1.07-1.36,1.37-2.18.21-.83.4-1.67.72-2.47.27-.54.7-.89,1.28-1.05.45.12.9.23,1.35.33.51.99,1.02,1.98,1.54,2.98.05.35.09.71.14,1.07.1.72.12,1.44.07,2.17-.53,4-2.05,7.74-2.94,11.65-.35,1.09-.87,2.07-1.92,2.66Z" style="fill: #76554f; fill-rule: evenodd;"/>
  <path d="M118.78,68.53c-.69-1.58-2.19-2.45-3.59-2.4-3.41.12-2.48-2.36-2.86-4.11-.06-2.69,2.23-4.97,1.34-7.8,1.12.3,1.65,1.18,2.14,2.12.62,1.21,1.63,2,2.9,2.48.05,2.03-1.68,4.63,2.22,5.3,1.96.33,2.59,2.34,2.71,4.27.16,2.58.29,5.17.44,7.74-.13,1.18-.26,2.36-.39,3.54-3.17-.85-2.84-2.77-1.52-4.98.41-2.89-.88-4.85-3.38-6.15Z" style="fill: #644741; fill-rule: evenodd;"/>
  <path d="M116.49,103.62c1.35.47,2.64,1.05,3.92-.33.62-.66,1.6-.99,2.41-1.46-.35,3.79-.49,7.61-1.12,11.36-.34,2.04-.45,4.03-.4,6.06-.57.56-1.23.98-1.98,1.28-1.2.26-2.36.13-3.48-.39-3.22-5.63-2.38-11.12.64-16.52Z" style="fill: #a36e73; fill-rule: evenodd;"/>
  <path d="M122.16,74.68c.65,1.62-.09,3.66,1.52,4.98-.36,1.48-.72,2.95-1.08,4.42-1.63-.98-3.62.87-4.64-.03-.68-.59.11-2.84.22-4.36.02-.24-.19-.49-.2-.74q-.17-3.59,4.19-4.28Z" style="fill: #cc8891; fill-rule: evenodd;"/>
  <path d="M119.83,119.29c.49,0,.99-.03,1.48-.05-.05,2.29.56,4.71-1.27,6.65-.64-.39-1.09-.94-1.38-1.62-.33-1.07-.36-2.15-.09-3.24.29-.67.72-1.24,1.26-1.74Z" style="fill: #76554f; fill-rule: evenodd;"/>
  <path d="M129.42,111.16c-1.01-.17-1.64-.81-2.1-1.67.23-.67.24-1.57,1.17-1.65.19-.02.54.67.63,1.08.17.73.2,1.49.29,2.24Z" style="fill: #ad8389; fill-rule: evenodd;"/>
  <path d="M119.67,123.79c.12.7.24,1.4.36,2.1,0,.39.06.76.17,1.12,0,0-.64.46-.64.46-1.27,0-1.84-.74-2.01-1.91.23-1.15.83-1.86,2.11-1.77Z" style="fill: #7e5750; fill-rule: evenodd;"/>
  <path d="M133.36,149.45c-.19,1.4-.38,2.8-.57,4.2-3.73-1.18-1.96-3.72-1.47-5.94.1-.39.2-.78.3-1.16,1.31.53,1.38,1.81,1.74,2.91Z" style="fill: #9c786c; fill-rule: evenodd;"/>
  <path d="M118.93,144.92c.9-4.27,1.8-8.53,2.7-12.8.42-.64,1-1.14,1.44-1.76l.02-.04c1.6.07,2.72.78,3.59,2.21,1.11,1.81,1.18,3.76,1.36,5.73-.02,1.54-.03,3.09-.05,4.63-.66.88-.66,1.92-.75,2.95-.34.64-.86,1.06-1.54,1.31-2.6.33-4.83-.52-6.76-2.23Z" style="fill: #b48384; fill-rule: evenodd;"/>
  <path d="M131.31,147.71c.3,2.03-.69,4.38,1.47,5.94-.02.5.06,1.04-.09,1.5-.14.44-.44,1.03-.8,1.15-.76.25-1.58-.09-1.66-.93-.22-2.52-.3-5.06-.44-7.59.51,0,1.01-.03,1.52-.07Z" style="fill: #654e4a; fill-rule: evenodd;"/>
  <path d="M126.65,146.18c-.07-1.3.3-2.43,1.35-3.28.1,1.07.21,2.13.31,3.2-.27.22-.53.43-.8.65-.29-.19-.57-.38-.86-.57Z" style="fill: #654e4a; fill-rule: evenodd;"/>
  <path d="M129.78,147.77c-.53,0-1.07,0-1.61,0l-.53-.54.24-.73.43-.41c.5.56.99,1.11,1.48,1.67Z" style="fill: #654e4a; fill-rule: evenodd;"/>
  <path d="M126.6,157.19c-1.16.86-1.27,2.14-1.35,3.42-.54.04-1.09.07-1.63.11-4-2.83-3.34-7.08-3.39-11.11,2.1-2.04,3.49.73,5.28.77.66.05,1.17.36,1.53.9-.14,1.97-.29,3.94-.43,5.91Z" style="fill: #b48384; fill-rule: evenodd;"/>
  <path d="M127.87,146.51c.07.43.17.85.3,1.27-.38,1.17-.76,2.33-1.13,3.5l-.63-.4c-2.15-1.36-2.33-2.8-.19-4.35l.44-.35c.41.09.82.2,1.22.33Z" style="fill: #b48384; fill-rule: evenodd;"/>
  <path d="M118.94,56.92c1.03-3.3,3.64-2.97,6.22-2.7-.11,1.02-.21,2.04-.32,3.05-.29.29-.6.42-.93.36-.34-.05-.5-.12-.51-.21-.51-.11-1-.07-1.48.12-1.11.36-2.24.79-2.98-.63Z" style="fill: #8d8986; fill-rule: evenodd;"/>
  <path d="M118.94,56.92c1,.21,1.99.42,2.98.63-.83,1.05-2.02,1.21-3.23,1.28.09-.63.17-1.27.25-1.91Z" style="fill: #644741; fill-rule: evenodd;"/>
  <path d="M123.4,57.43c.47-.15.95-.2,1.44-.16.3.36.45.77.45,1.24-.63-.36-1.26-.72-1.89-1.08Z" style="fill: #644741; fill-rule: evenodd;"/>
  <path d="M107.8,175.34c.07.48.14.96.21,1.45,1.15,1,1.58,2.3,1.59,3.78-.01.69-.1,1.37-.24,2.05-.5,1.69-.21,3.37.07,5.06.04,2.05-.46,3.75-2.77,4.28-.81-.02-1.57-.22-2.28-.6-4.3-5.93-7.47-12.27-7.24-19.85.94-3.03,4.93-4.31,4.25-8.53-.35-2.16,2.11-3.22,4.49-2.84,1.09.39,1.9,1.1,2.48,2.09,1.04,2.82-1.85,5.42-.47,8.26,0,1.02-.02,2.05-.03,3.07-.47.59-.52,1.18-.05,1.79Z" style="fill: #f2bec9; fill-rule: evenodd;"/>
  <path d="M108,183.1c.21-.39.3-.8.28-1.24,1.04-1.49.08-3.43,1.11-4.92.23-.74.29-1.62.75-2.17.42-.5,1.25-.83,1.94-.91,1-.11,1.36.76,1.2,1.53-.64,3.09-.44,6.2-.29,9.3,2.88,3.59.76,6.47-1.31,9.37,0,0-.42.52-.42.52-1,.45-2,.9-2.99,1.36-1.96-1.02-3.2-2.28-1.52-4.52,1.46-1.4,1.92-3.07,1.38-5.01-.89-1.07-.88-2.18-.14-3.31Z" style="fill: #5c4947; fill-rule: evenodd;"/>
  <path d="M126.21,146.53c-.67,1.48-.46,2.93.19,4.35-.46.6-.9,1.22-1.38,1.79-.97,1.15-1.93.59-2.19-.42-.38-1.52-.39-3.07-2.61-2.65-.6-.57-1.19-1.15-1.79-1.72.17-.99.33-1.97.5-2.96,2.68-.6,4.87.99,7.28,1.61Z" style="fill: #d399a1; fill-rule: evenodd;"/>
  <path d="M111.68,194.06c.44-3.12.87-6.24,1.31-9.37.44-.59.92-1.15,1.32-1.77.36-.55.63-1.16.95-1.75.3.66.59,1.31.89,1.97.2,3.43.04,6.8-1.7,9.9-.65,1.15-1.75.92-2.76,1.02Z" style="fill: #c393a0; fill-rule: evenodd;"/>
  <path d="M107.88,170.47c-1.52-1.07-1.75-2.47-1.18-4.17.42-1.24.69-2.53,1.04-3.79-.8-.85-.83-1.88-.7-2.95.26-.67.64-1.26,1.14-1.78.3-.19.6-.38.9-.57.73-.15,1.38.03,1.96.5-.05,1.57-.1,3.14-.15,4.72-1.09.79-1.27,1.96-1.53,3.18-.35,1.65-.97,3.24-1.48,4.86Z" style="fill: #d3929b; fill-rule: evenodd;"/>
  <path d="M114.04,167.28c.41-.19,1.14-.6,1.2-.53.91,1.26.89,2.62.06,3.91-.05.07-.8-.3-1.23-.46-.75-.96-.78-1.94-.03-2.92Z" style="fill: #d3929b; fill-rule: evenodd;"/>
  <path d="M109.39,176.94c.11,1.75.42,3.54-1.11,4.92-.09-1.69-.18-3.38-.27-5.07.46.03.92.08,1.38.15Z" style="fill: #d3929b; fill-rule: evenodd;"/>
  <path d="M112.63,170.32c-.28.39-.48.89-.85,1.16-.52.38-.99.14-1.09-.49-.02-.12.34-.39.55-.43.48-.11.98-.11,1.46-.16l-.08-.07Z" style="fill: #5c4947; fill-rule: evenodd;"/>
  <path d="M114.04,167.28c.01.97.03,1.95.04,2.92-.48.09-.96.13-1.45.13l.08.07c-.02-1.08-.04-2.16-.06-3.25l-.06.07c.49-.03.97-.01,1.46.06Z" style="fill: #5c4947; fill-rule: evenodd;"/>
  <path d="M112.65,167.15c-.23-.2-.46-.4-.68-.61.14.04.33.03.39.12.12.15.16.36.23.55l.06-.06Z" style="fill: #5c4947; fill-rule: evenodd;"/>
  <path d="M107.8,175.34c-.95-.62-.93-1.22.05-1.79-.01.6-.03,1.2-.05,1.79Z" style="fill: #d3929b; fill-rule: evenodd;"/>
  <path d="M103.78,211.5c0-.92.03-1.84.04-2.76-.06-1.1.24-2.13.6-3.14,1.29-2.68-.69-6.83,3.64-8.15.29.4.89.85.83,1.19-.89,4.93,0,9.89-.26,14.83-1.61-.65-3.23-1.31-4.84-1.96Z" style="fill: #5c4947; fill-rule: evenodd;"/>
  <path d="M79.91,217.05c-1.94.04-2.96-.92-3.07-2.85.34-.31.75-.48,1.2-.51.71-.27,1.43-.29,2.15-.05,0,0,.08,0,.08,0-.12,1.13-.24,2.27-.36,3.41Z" style="fill: #abb4c8; fill-rule: evenodd;"/>
  <path d="M108.6,216.42c-.19.94-.74,1.52-1.7,1.7.57-.57,1.13-1.13,1.7-1.7Z" style="fill: #4e4c48; fill-rule: evenodd;"/>
  <path d="M108.06,197.44c-1.75,1.55-1.33,3.67-1.4,5.63-.05,1.51.2,3.04-1.31,4.05-4.74-1.35-9.89-.87-14.41-3.19-1.04.12-2.21.59-3.11.29-5.25-1.75-10.3.59-15.45.59-.72,0-1.43.63-2.14.96.55-1.98,1.1-3.97,1.65-5.95,2.05-2.59,5.24-1.66,7.84-2.56.67-.2,1.35-.33,2.04-.43,2.74.06,5.47-.29,8.22-.2,6.2,2.7,10.19-.86,14-4.93.32-.17.65-.33.97-.5.6.08,1.2.15,1.8.23.1,1.64.53,3.17,1.52,4.52-.14.49-.22.99-.21,1.5Z" style="fill: #a4acc2; fill-rule: evenodd;"/>
  <path d="M86.62,129.36c2.11,2.93,3.35,6.36,6.26,8.88,3.01,2.61,2.42,4.76-1.12,7.47-.4.3-.71.72-1.06,1.08,2.45,7.26,1.29,14.97,2.86,22.33-.04,1.37-.65,2.67-.59,4.05.15.58.26,1.18.4,1.76.23.85.47,1.69.78,2.52.24.54.42,1.1.57,1.67.11.59.12,1.18.07,1.78-.12.6-.31,1.16-.57,1.72-.38.85-.82,1.66-1.36,2.42-.45.47-1,.78-1.62.96-1.01.12-1.91-.11-2.69-.79-.38-.52-.66-1.09-.86-1.7-.38-1.51-.64-3.05-1.24-4.5-.34-.88-.61-1.78-.89-2.68-.34-.91-.68-1.82-1-2.74-.32-.98-.51-1.98-.63-3.01-.11-.71-.15-1.42-.18-2.13-.08-1.1-.12-2.2-.14-3.31.06-2.29-.23-4.66,1.48-6.57.45-2.94.46-5.58-2.28-7.75-1.6-1.27-2.32-3.43-2.57-5.57-3.11-.8-6.82-1.15-4.61-6.03,1.05-.56,2.1-1.11,3.15-1.67.79.09,1.59.12,2.36.3,1.27.3,2.09-.13,2.19-1.42.35-4.48-.64-8.83-2.2-12.92-.89-2.32-1.3-4.41-.9-6.81,1.7.66,2.49,2.29,3.97,3.21,1.31.81.08,3.69,2.17,4.71.05.55.1,1.09.15,1.64-1.11,1.07-1.07,2.11.1,3.11Z" style="fill: #40322d; fill-rule: evenodd;"/>
  <path d="M85.49,170.81c.15.91.3,1.82.45,2.72.24.71.41,1.43.51,2.18.14,2.42-.21,4.55-3.04,5.25-.75-.02-1.44-.26-2.06-.67-.55-.47-1-1.04-1.35-1.67-1.73-3.33-5.78-5.05-6.41-9.15-.18-.71,1.05-1.05.64-1.6-.33-.43-1,.63-1.66.2-2.5-1.47-5.29-2.32-7.77-3.78-1.55-.91-3.43-1.88-1.56-4.16.51-.51,1.02-1.02,1.53-1.53.37-.35.8-.45,1.28-.29,1.76-1.11,3.73-.57,5.61-.76,1.41-.19,3.07.47,4.07-1.16,1.54-.86,3.04-1.82,4.64-2.54,2.69-1.21,3.1-.9,3.71,2.52.09.49,0,1.01-.01,1.52,1.31,2.56-.22,5.57,1.25,8.11.56,1.06.62,2.15.21,3.27-.53.5-.54,1.02-.03,1.54Z" style="fill: #efefed; fill-rule: evenodd;"/>
  <path d="M75.62,139.21c0,3.18,3.04,4.04,4.61,6.03-1.86,2.81-4.45,4.56-7.68,5.41l-.02-.73c-2.06-3.91-1.05-7.42,1.38-10.74.57.01,1.14.02,1.71.03Z" style="fill: #b07d7d; fill-rule: evenodd;"/>
  <path d="M85.31,166c-2.18-2.43-1.39-5.33-1.25-8.11.34.22.68.45,1.02.68.08,2.48.15,4.96.23,7.44Z" style="fill: #d1d5dc; fill-rule: evenodd;"/>
  <path d="M72.66,158.34c-2.2,0-4.41-.01-6.61-.02,2.03-1.26,4.32-1.2,6.58-1.31.74.43.72.87.03,1.33Z" style="fill: #d1d5dc; fill-rule: evenodd;"/>
  <path d="M72.66,158.34c0-.44-.01-.89-.03-1.33,1.03-.2,2.06-.4,3.1-.61-.5,1.48-1.71,1.82-3.07,1.94Z" style="fill: #cad5e8; fill-rule: evenodd;"/>
  <path d="M67.16,117.03c.73-.12,1.49-.17,2.2-.38.97-.27,1.97-.72,2.34.72.11.41,0,1.02-.25,1.36-.56.76-1.37.43-1.97.06-.82-.51-1.54-1.17-2.3-1.77h0Z" style="fill: #e6a2ae; fill-rule: evenodd;"/>
  <path d="M73.91,139.18c-.46,3.58-.92,7.16-1.38,10.74-2.13.16-4.25.32-6.38.47.54-.55,1.44-1.03,1.56-1.67.52-2.66,2.33-4.79,2.05-7.91-.23-2.56,3.25-4.68,2.48-7.89.32-.45.66-.61,1.02-.5.37.12.55.25.55.39,1.36.86,1.35,1.98.8,3.35-.38.95-.48,2-.71,3.01Z" style="fill: #e6a2ae; fill-rule: evenodd;"/>
  <path d="M73.82,132.82c-.52.02-1.05.05-1.57.11.51-.57,1.01-1.13,1.51-1.69l.05.79v.79Z" style="fill: #efb8c0; fill-rule: evenodd;"/>
  <path d="M63.23,160.15c-.61,2.93,2.62,1.88,3.48,3.36.99,1.7,3.18-.21,4.24,1.18.97,1.28,1.9,2.54,3.45,3.14h0c-.01,2.84,3.42,3.71,3.72,6.41.02.19.87.47,1.27.39,2.95-.59,1.93,1.29,1.72,2.68-.07.5-.09,1.01-.14,1.52-1.14,2.83,1.5,4.47,2.12,6.75-.49,2.38-2.32,2.63-4.27,2.73-.75-.06-1.47-.26-2.16-.57-.62-.41-1.12-.95-1.51-1.6-.53-.95-.97-1.94-1.45-2.92-.35-.63-.63-1.29-.86-1.97-1.96-5.51-7.34-1.59-10.85-3.69-1.56-.93-4.77-1.38-7.27-1.85-.98.99-.87-3.71-2.3-.42-.94.98-1.97,1.64-3.36.93-.45-.93-.98-1.83-1.32-2.79-.35-.98-.46-2.42.71-2.56,2.12-.25,2.72-2.26,4.33-3.06,1.88-.93,1.39-2.07.23-3.63-.96-1.3.13-3.3,1.73-3.5,2.8-.35,5.64-.38,8.47-.55Z" style="fill: #cad5e8; fill-rule: evenodd;"/>
  <path d="M49.08,176.24c1.04-.56,2.07-1.11,3.11-1.67.96.7,1.85,1.49,2.93,2.04.52.34.98.75,1.42,1.19.85,1.5,3.29,2.26,2.2,4.66.55,1.03,1.1,2.07,1.65,3.11-2.55.11-5.18-.2-7.28,1.82-.58.56-1.51.63-1.83-.2-.23-.61-.15-1.81.25-2.1,2.78-2.02-.31-2.79-.77-4.09-.06-1.24-.38-2.33-1.53-3.05-.75-.47-.83-1.07-.15-1.71Z" style="fill: #c3cfe2; fill-rule: evenodd;"/>
  <path d="M90.94,203.92c.44-.24.93-.76,1.31-.69,2.75.52,5.43,1.32,8.3.82,2.44-.43,3.8,1.1,4.81,3.06-.51.54-1.02,1.08-1.53,1.62-2.81.12-5.69-.3-8.35,1.08-.23.12-.47.21-.72.27-2.96.69-4.02.34-5.39-1.58-1.64-2.31,1.28-2.98,1.58-4.58Z" style="fill: #443e40; fill-rule: evenodd;"/>
  <path d="M59.31,217.52c-.04-.49-.14-.97-.31-1.43,3.17-2.14,6.7-2.17,10.31-1.77-2.91,2.37-6.58,2.38-10,3.2Z" style="fill: #504e51; fill-rule: evenodd;"/>
  <path d="M80.19,213.64c-.72.02-1.43.03-2.15.05.69-1.02,1.4-1.39,2.15-.05Z" style="fill: #8e97a9; fill-rule: evenodd;"/>
  <path d="M77.95,186.91c1.73-.13,3.64.22,4.73-1.7,2.23-1.63,5.2-.13,4.8,1.25-1.23,4.29,3.59,7.24,1.82,11.3-2.65.93-5.31,1.01-8.01.22-.46-.46-.92-.94-1.39-1.39.45.47.93.92,1.41,1.37-.99,1.45-2.49,1.64-4.06,1.67-1.79.05-3.58.12-5.37.18-2.09-1.88-4.18-3.64-2.68-7.05.56-1.26.5-3.02.14-4.39-.24-.93-2.54-.29-2.52-2.12,0-.25-.04-.51-.06-.76,1.65-3.45,3.83-5.62,7.91-3.34h0c.93.87.62,2.36,1.62,3.18.01.52.03,1.05.05,1.57.36.4.71.54,1.07.41.36-.13.54-.27.53-.4Z" style="fill: #b0bfd9; fill-rule: evenodd;"/>
  <path d="M74.67,182.15c-2.09-.08-3.87.35-5.27,2.17-.51.67-1.74.8-2.63,1.17-.53,0-1.05.01-1.58.02-.99-1.71.48-5.02-3.56-4.8-2.35.13-4.22-1.8-6.2-3-.51,0-1.02.02-1.53.03-.92-1.07-.96-2.14-.02-3.22,1.05,0,2.25.35,3.11-.05,1.83-.87,3.71,4.14,5.39-.13.19-.5.82-.21,1.19.39,2.12,3.41,5,3.22,8.16,1.7.71-.34,1.43-.65,2.14-.98.79-.36,1.53-.27,1.91.53.2.42.26,1.1.05,1.49-.36.66-1.04,1.14-1.48,1.77-.71,1.02.03,1.95.33,2.9Z" style="fill: #becde3; fill-rule: evenodd;"/>
  <path d="M55.43,177.72c.5-.18.99-.47,1.5-.51,2.16-.14,3.21,2.38,5.64,2.16,1.62-.15,3.61.05,5.06,1.41-.39,1.81-2.82,2.56-2.44,4.74-.27.97-.44,1.97-.84,2.87-.15.34-.83.64-1.24.61-.35-.03-.88-.51-.95-.87-.24-1.24-.21-2.54-.48-3.77-.33-1.51-1.66-1.73-2.95-1.9-.94-1.7-3.49-2.26-3.3-4.74Z" style="fill: #b0bfd9; fill-rule: evenodd;"/>
  <path d="M62.21,198.3q-1.36-3.76,2.82-6.05c-.13,2.53-.54,4.73-1.33,5.76-.23.3-.98.2-1.49.29h0Z" style="fill: #b0bfd9; fill-rule: evenodd;"/>
  <path d="M54.17,193.66c.91.52,1.52,1.28,1.43,2.35-.03.39-.48.74-.73,1.11-.15-.18-.39-.35-.42-.55-.13-.97-.19-1.94-.28-2.91h0Z" style="fill: #b0bfd9; fill-rule: evenodd;"/>
  <path d="M50.92,193.61c-.38-.33-.81-.62-1.13-1-.13-.14-.12-.56,0-.72.35-.46.77-.36,1.14.22,0,.5,0,1,0,1.5Z" style="fill: #a1abc4; fill-rule: evenodd;"/>
  <path d="M55.9,201.58c.22.12.66.29.64.36-.11.54-.37.42-.65-.34v-.02Z" style="fill: #b0bfd9; fill-rule: evenodd;"/>
  <path d="M55.89,201.6c-.53,0-1.06.01-1.58.02h0c.51-1.11,1.04-1.11,1.6-.04v.02Z" style="fill: #b0bfd9; fill-rule: evenodd;"/>
  <path d="M54.17,193.66c-.54-.52-1.08-1.04-1.62-1.56h0c.54.52,1.08,1.05,1.62,1.57h0Z" style="fill: #b0bfd9; fill-rule: evenodd;"/>
  <path d="M62.21,198.3c-.12.22-.28.65-.34.64-.54-.11-.41-.36.34-.64h0Z" style="fill: #b0bfd9; fill-rule: evenodd;"/>
  <path d="M91.51,51.17c-1.31.14-2.55.07-3.3-1.26.56-.54,1.1-1.09,1.68-1.61.79-.7,1.3-.35,1.47.54.14.76.11,1.56.15,2.33Z" style="fill: #55443d; fill-rule: evenodd;"/>
  <path d="M96.2,46.47c-.12.23-.28.66-.35.65-.55-.11-.42-.37.35-.65h0Z" style="fill: #55443d; fill-rule: evenodd;"/>
  <path d="M111.04,157.72c-.6-.02-1.2-.04-1.81-.06-2.62-5.68-2.91-11.79-3.31-17.86-.41-.83-1.04-1.43-1.94-1.73-.6-.18-1.06-.55-1.4-1.06.01-.26.02-.53.04-.79.26-3.67,1.43-6.51,5.83-6.49.44,0,.88-.35,1.36-.55-.37-1.99-.86-3.93-.5-6.06.19-1.14-.73-2.94-2.11-2.95-3.73-.03-4.34-1.14-1.8-3.89.41-.45.5-.94-.05-1.29-.65-.43-1.39-.76-2.13-1-3.55-1.17-3.56-1.17-3.12-4.73.1-.78.21-1.56.31-2.34.14-.33.28-.67.41-1,2.64-3.56,4.92-3.11,6.22.91.98,3.02.94-.33,1.39-.1.51-.53,1.02-1.06,1.53-1.6,4.14,0,3.29,3.82,3.51,5.71.64,5.33,1.83,10.32,4.75,14.85.45.6.9,1.19,1.35,1.79.05.81.09,1.61.13,2.42-.19.62-.51,1.17-.95,1.64-.61.75-1.25,1.47-1.79,2.27v-.02c-4.21,5.73-3.14,12.71-4.52,19.1-.31,1.65.07,3.51-1.4,4.83Z" style="fill: #de97a3; fill-rule: evenodd;"/>
  <path d="M107.4,138.55c.61,2.69,1.36,5.39.78,8.17-.23,1.09-.47,2.29.36,2.96,3.11,2.49,1,5.29.69,7.98h.02c-.56.53-1.22.85-2,.92-1.11-.05-2.24.03-3.15-.79-.97-8.44-5.47-.4-7.97-1.69,2.34,3.63,5.25-5.95,7.49.32-.14,1.94,1.5,2.08,2.7,2.67.38.67.33,1.29-.23,1.84-3.87,1.33-4.07,1.41-2.83,4.24.69,1.58.37,2.48-.84,3.24-1.32.83-2.74,1.49-4.12,2.22-2.89.32-2.6-1.84-2.81-3.59,1.28-2.7-.81-4.07-2.29-5.7-1.68-3.8-2.56-7.59.06-11.35,1.06-.15,2.41-.3,2.64-1.4.98-4.61,4.32-7.8,6.69-11.57.51.03,1.03.06,1.55.09,1.31-.01,2.36.57,3.28,1.45Z" style="fill: #f8c1cc; fill-rule: evenodd;"/>
  <path d="M96.68,165.86c.07,1.75-.15,3.59,1.61,4.77.2,1.8.06,3.72.65,5.37,1.85,5.12,3.98,10.14,6.01,15.19,0,0-.03.15-.03.15-6.82,5.18-10.84,3.29-12.18-5.72.43-1.23-.02-2.72,1.11-3.74l-.02.03c.83-1.12.87-2.22-.09-3.29h0c-1-.99-.9-2.45-1.54-3.6.24-.42.17-.78-.21-1.07-.49-.5-.56-1.05-.2-1.65.1-.78.51-1.71.24-2.33-2.43-5.46-.82-11.49-2.53-17.07-.62-2.03.18-4.18,1.19-6.1,1.64.43,2.48,1.51,2.55,3.19-.23,4.38.3,8.64,1.9,12.74,1.02.79,2.55,1.34,1.52,3.13Z" style="fill: #f5f5f3; fill-rule: evenodd;"/>
  <path d="M95.42,95.76c.26-.96.35-2.01.81-2.86.52-.96,1.4-1.49,2.35-.31-.77,4.95,5.75,8.92,1.91,14.28,0,0-.09.04-.09.05-.53-.01-1.07-.02-1.6-.04-1.04-1.07-2.11-2.11-2.78-3.48-.7-2.5-1.9-4.97-.6-7.63Z" style="fill: #e49daa; fill-rule: evenodd;"/>
  <path d="M95.42,95.76c1.56,2.46,1.9,5.19,1.78,8.02.89,1.04,1.02,2.08.04,3.15q-1.38.81-1.62-1.56c-.7-.6-1.64-.91-2.13-1.76-.24-.86-.28-1.75-.4-2.62-.33-.79-.82-1.46-1.42-2.07-.2-.21-.38-.43-.57-.64-.13-.26-.26-.51-.39-.77,0-.53-.01-1.07-.02-1.59.35-.41.69-.55,1.05-.42.35.12.53.26.54.39,1.05-.04,2.09-.08,3.14-.12Z" style="fill: #f096a9; fill-rule: evenodd;"/>
  <path d="M87.6,102.34c2.07-.94,1.07-3.86,3.11-4.83h0c1.77,1.59,2.43,3.63,2.45,5.94.06.76-.16,1.42-.72,1.96-.71.11-1.47.12-2.13.37-2,.75-2.59-.23-2.63-2-.01-.48-.05-.96-.07-1.44Z" style="fill: #f096a9; fill-rule: evenodd;"/>
  <path d="M92.44,105.41c0-.52-.02-1.05-.02-1.56.35-.48.71-.65,1.07-.49.36.16.54.32.54.47.53.52,1.06,1.03,1.59,1.55-1.06.01-2.12.02-3.18.04Z" style="fill: #e49daa; fill-rule: evenodd;"/>
  <path d="M86.62,129.36c-1.82-.98-1.79-2.02-.1-3.11.03,1.03.06,2.07.1,3.11Z" style="fill: #543f39; fill-rule: evenodd;"/>
  <path d="M97.24,106.93c-.01-1.05-.03-2.1-.04-3.15,1.29.64,1.59,1.8,1.6,3.09-.52.04-1.04.06-1.56.05Z" style="fill: #e1869a; fill-rule: evenodd;"/>
  <path d="M98.2,127.19c.19.07.53.12.54.2.01.22-.11.45-.19.67-.19-.06-.54-.12-.54-.2,0-.22.12-.45.19-.67Z" style="fill: #de97a3; fill-rule: evenodd;"/>
  <path d="M118.22,125.69c-1.5-1.46-3.08-2.85-4.46-4.4-.67-.76-1.14-1.79-1.44-2.79-.65-2.17,2.34-4.75-.3-6.56-2.53-1.73-.58-3.82-1.06-5.66-.11-.44-.65-.77-1-1.15-.03-.53-.06-1.05-.09-1.58-.21-.27-.42-.55-.64-.82.22-.26.45-.53.67-.79,1.05-.54,2.09-1.09,3.14-1.63,1.49.61-.04,4.35,3.23,3.13,0,0,.21.18.21.18.33,5.26-1.4,10.54.11,15.79.76.96,2.24.43,2.98,1.44.03.98.06,1.97.09,2.95-.48.63-.97,1.26-1.45,1.9Z" style="fill: #cc8891; fill-rule: evenodd;"/>
  <path d="M100.49,106.87c-.28-2.01-.2-4.15-.9-5.99-1.04-2.74-.89-5.5-1.01-8.29.51,0,1.03,0,1.55.03.21,2.44-.65,5.42,3.03,6.16-.13,2.42,2.69,2.05,3.43,3.61.67,1.42,1.22,2.89,1.82,4.34-.07,1.51.22,3.1-.77,4.44-.28.38-.77.62-1.16.93-.24-.39-.7-.8-.67-1.16.11-1.23.88-2.3.38-3.69-.62-1.76-1.59-2.09-3.56-1.02-.65.35-1.43.44-2.16.66Z" style="fill: #e1869a; fill-rule: evenodd;"/>
  <path d="M108.25,98.79c-.71-.17-1.47-.25-2.11-.57-.26-.13-.28-.78-.41-1.19.4,0,.97-.19,1.18,0,.53.5.89,1.16,1.31,1.76l.02-.02Z" style="fill: #cc8891; fill-rule: evenodd;"/>
  <path d="M108.23,98.81c1.27.67,1.64,1.81,1.67,3.13l-.02.02c-.35.36-.7.48-1.04.35-.34-.13-.51-.25-.51-.38-.02-1.05-.05-2.1-.08-3.15l-.02.02Z" style="fill: #cc8891; fill-rule: evenodd;"/>
  <path d="M108.33,101.93c.52.02,1.03.03,1.55.03.01.53,0,1.06-.01,1.59-.51-.54-1.02-1.08-1.54-1.62Z" style="fill: #de97a3; fill-rule: evenodd;"/>
  <path d="M92.28,95.88c-.53.01-1.06.02-1.59.03-.01-.53-.03-1.07-.04-1.6.54.52,1.08,1.04,1.63,1.57Z" style="fill: #e49daa; fill-rule: evenodd;"/>
  <path d="M116.28,103.43c-3.34,1.61-3.34,0-3.23-3.13,2.07.02,3.2,1,3.23,3.13Z" style="fill: #de97a3; fill-rule: evenodd;"/>
  <path d="M112.44,152.89c-.19-4.42-.18-8.81.33-13.25.35-3.05,1.54-4.79,4.18-5.86-.04.77.02,1.55-.12,2.3-1.08,5.7-2.48,11.32-4.39,16.81Z" style="fill: #b48384; fill-rule: evenodd;"/>
  <path d="M118.52,130.57c.39-.22.79-.45,1.18-.67.22,1.46.17,2.84-1.25,3.76-1.06-1.05-1.03-2.09.07-3.09Z" style="fill: #7e5750; fill-rule: evenodd;"/>
  <path d="M118.52,130.57c-.02,1.03-.05,2.06-.07,3.09-.5.08-1,.13-1.5.14-.16-1.41.13-2.6,1.56-3.24Z" style="fill: #b48384; fill-rule: evenodd;"/>
  <path d="M123.07,130.37c-.48.58-.96,1.17-1.44,1.75.48-.58.96-1.17,1.44-1.75Z" style="fill: #835d5e; fill-rule: evenodd;"/>
  <path d="M119.58,120.84c-1.25.05-2.34-.23-2.98-1.44,1.08-.04,2.15-.08,3.23-.11.05.54-.04,1.06-.25,1.55Z" style="fill: #de97a3; fill-rule: evenodd;"/>
  <path d="M106.09,160.92c.08-.52.11-1.04.1-1.57.26-.21.52-.42.79-.63.26.21.53.42.79.62-.01,1.06-.02,2.11-.03,3.17-.55-.53-1.1-1.06-1.65-1.6Z" style="fill: #de97a3; fill-rule: evenodd;"/>
  <path d="M108,183.1c.05,1.1.09,2.21.14,3.31-1.54-1.04-1.83-2.14-.14-3.31Z" style="fill: #d3929b; fill-rule: evenodd;"/>
  <path d="M107.75,157.75c.5-.02,1-.05,1.5-.09-.5.56-.99,1.13-1.49,1.7,0,0-.07-.06-.07-.06-.74-.54-.69-1.06.06-1.55Z" style="fill: #de97a3; fill-rule: evenodd;"/>
  <path d="M93.62,184.65c.04.26.07.53.13.79,1.8,7.38,3.88,8.48,11.18,5.91,0,1.36-.28,2.63-1.35,3.55-1.57,1.35-3.67,2.07-4.75,4.03-.39.71-1.1,1.02-1.99.83-2.55-.52-5.26-.4-7.53-2-.13-2.32-1.56-3.61-3.36-4.88-1.68-1.18-2.56-2.72.35-3.91,1.31-.53.65-1.69-.06-2.46-.94-1.02-2.22-1.26-3.55-1.3-2.07.04-3.12-1.26-3.91-2.94-.83-1.77-.58-2.18,2.22-3.41h0c.47.63,1.1,1.06,1.73,1.49,2.05-.92,2.82-2.64,2.96-4.75l.79.03c.34,1.07.68,2.15,1.01,3.22,1.11,1.56.37,3.59,1.33,5.18-.09.49.1.85.54,1.07.98,1.25,1.97.68,2.95,0l-.02.04c.17-.44.43-.66.76-.66.38,0,.56.06.57.17Z" style="fill: #becde3; fill-rule: evenodd;"/>
  <path d="M88.81,184.03c-1.73-1.4-1.58-3.28-1.33-5.19,1.9,1.36,1.42,3.32,1.33,5.19Z" style="fill: #383937; fill-rule: evenodd;"/>
  <path d="M92.2,175.02c1.13.94,1.47,2.21,1.54,3.6-1.51-.77-1.65-2.14-1.54-3.6Z" style="fill: #383937; fill-rule: evenodd;"/>
  <path d="M93.62,184.65c-.45.16-.89.32-1.33.49-.07-1.37.18-2.58,1.57-3.26-.08.92-.16,1.85-.24,2.77Z" style="fill: #383937; fill-rule: evenodd;"/>
  <path d="M93.75,178.61c1.58,1.06,1.4,2.16.09,3.29-.03-1.1-.06-2.2-.09-3.29Z" style="fill: #383937; fill-rule: evenodd;"/>
  <path d="M92.31,185.1c-1.29,1.88-1.35,1.88-2.95,0,.98,0,1.97,0,2.95,0Z" style="fill: #383937; fill-rule: evenodd;"/>
  <path d="M91.8,172.29c.06.55.13,1.1.2,1.65-.87-.45-1.03-.99-.2-1.65Z" style="fill: #383937; fill-rule: evenodd;"/>
  <path d="M85.49,170.81c-.93-.53-.9-1.05.03-1.54-.01.52-.02,1.03-.03,1.54Z" style="fill: #d1d5dc; fill-rule: evenodd;"/>
  <path d="M86.47,175.62l-.79-.03c.09-.68.17-1.37.26-2.05.82.53,1.22,1.16.54,2.08Z" style="fill: #d1d5dc; fill-rule: evenodd;"/>
  <path d="M82.72,180.34c-.58-.5-1.15-.99-1.73-1.49.58.5,1.16.99,1.73,1.49Z" style="fill: #cad5e8; fill-rule: evenodd;"/>
  <path d="M74.41,167.84c.12-.23.28-.66.35-.64.54.12.42.37-.35.65h0Z" style="fill: #cad5e8; fill-rule: evenodd;"/>
  <path d="M62.99,165.57c1.39.06,1.62,1.15,1.71,2.16.18,2.07-.81,3.26-2.43,3.16-1.29-.09-1.81-.99-1.88-2.06-.11-1.74,1.12-3.18,2.6-3.26Z" style="fill: #b9c9e7; fill-rule: evenodd;"/>
  <path d="M53.88,174.53c0,1.07.01,2.14.02,3.22-1.34-.65-1.6-1.87-1.71-3.18.27-.69.54-1.39.81-2.08.29.68.59,1.36.88,2.05Z" style="fill: #b0bfd9; fill-rule: evenodd;"/>
  <path d="M76.3,185.33c-1.28-.68-1.58-1.86-1.62-3.17,1.29.67,1.59,1.86,1.62,3.17Z" style="fill: #becde3; fill-rule: evenodd;"/>
  <path d="M77.95,186.91c-.54,1.09-1.07,1.1-1.6,0,.53,0,1.07,0,1.6,0Z" style="fill: #becde3; fill-rule: evenodd;"/>
  <path d="M81.32,197.95c-1.9-.03-3.53-.6-4.29-2.49-.42-1.05.09-1.98,1.02-2.56.94-.59,1.34.24,1.75.85.86,1.28,1.48,2.65,1.5,4.23l.02-.02Z" style="fill: #a4acc2; fill-rule: evenodd;"/>
  <path d="M74.28,195.35c-.2-.07-.56-.13-.56-.2-.01-.23.12-.46.19-.69.2.07.56.13.57.2,0,.23-.12.46-.2.69Z" style="fill: #a4acc2; fill-rule: evenodd;"/>
  <path d="M107.4,138.55c-1.33.06-2.55-.15-3.28-1.45,2.12-1.69,2.43-1.55,3.28,1.45Z" style="fill: #f1afbd; fill-rule: evenodd;"/>
  <path d="M102.9,157.8c-.25-1.22-.24-2.87-2.2-1.49-.4.28-.58.87-.94,1.23-1.9,1.85-3.66,1.48-4.49-1.07-.3-.94-.23-2.05-.13-3.06.04-.45.62-.38,1.09,0,.5.41.45,2.6,1.72.7.55-.82.52-2.17,1.87-2.12,1.28.05,2.62.21,3.79.67.46.18.69,1.27.79,1.98.15,1.02.09,2.08.12,3.12-.35.41-.71.55-1.07.42-.36-.13-.54-.26-.54-.4Z" style="fill: #f6abbc; fill-rule: evenodd;"/>
  <path d="M96.68,165.86c-.51-1.04-1.02-2.09-1.53-3.13.9-.23,1.95-1.36,2.67-.12.73,1.27.11,2.47-1.14,3.25Z" style="fill: #f6abbc; fill-rule: evenodd;"/>
  <path d="M102.9,157.8c.54,0,1.08-.02,1.61-.02,1.08,0,2.16-.02,3.24-.02-.02.51-.04,1.03-.06,1.55-.5.05-1,.07-1.5.06-1.33-.03-2.56-.26-3.29-1.56Z" style="fill: #f2bec9; fill-rule: evenodd;"/>
  <path d="M94.03,103.83c-.54,0-1.07.01-1.61.02-1.15-1.96-2-3.99-1.71-6.34.52.01,1.05,0,1.57,0,.83,1.3,1.88,2.37,3.25,3.1-.5,1.08-1,2.16-1.5,3.23Z" style="fill: #f1afbd; fill-rule: evenodd;"/>
  <path d="M95.53,100.6c-2.07,0-3.11-1.07-3.25-3.1,1.54.55,2.62,1.59,3.25,3.1Z" style="fill: #e49daa; fill-rule: evenodd;"/>
</svg>