<?xml version="1.0" encoding="UTF-8"?>
<svg id="Layer_1" data-name="Layer 1" xmlns="http://www.w3.org/2000/svg" viewBox="0 0 1417.01 2864.43">
  <path d="M520.3,72c9.68,3.22,14.83,7.68,28,12-.27,8.11,4.03,12.36,12,12,.58.6,2.71-.49,4,0l.02,7.98,7.98.02c1.17,1.03,20.47,8.07,28,12,5.47,2.86,3.73,3.48,12,4,25.15,20.39,61.52,18.74,92,24,3.54,7.58,14.38,8.81,20,12,2.76,1.57,5.19,2.64,8,4,18.41,8.94,32.39,15.18,52,20,18.69,4.59,43.12,7.96,60,16,2.24,1.07,15.17,7.5,16,8,2.82,1.7,8.84,7.56,16,12,2.62,1.63,8.27,11.01,16,16,12.64,8.15,33.82,16.95,48,24,4.81,5.45,6.31,7.14,12,12,6.89,5.89,15.34,8.6,20,12,5.81,4.25,9.94,12.61,16,16l4,4c16.36,6.98,31.28,27.37,48,32,1.53,4.19,4.32,5.95,8,8,5.95,3.31,26.75,11,28,12,6.5,5.21,10.55,12.43,20,20,2.04,1.64,4.02,7.28,7.64,10.26,2.97,2.44,30.43,21.46,32.36,21.74,1.47,3.74,3.98,6.89,8,8,1.26.35,2.82-.39,4,0,14,23.5,37.29,33.37,56,52,22.48,22.39,60.61,66.36,80,92,3.27,4.32,9.63,12.39,12,16,3.43,5.22,13.55,22.71,16,28,1.26,2.72,2.91,5.49,4,8,4.41,10.2,5.14,32.16,12,40,.26,5.3-.38,10.72,0,16,1.54,21.31,5.87,42.71,8,64,.28,2.84-1.99,7.17,0,20,2.66,17.2,5.5,34.8,8,52,.37,2.55-.4,5.47,0,8,1.13,7.14,2.83,13.38,4,20,1.43,8.1,2.22,15.84,4,24,4.63,21.18,11.27,37.01,16,56,2.42,9.72,5.64,18.85,8,28,7.94,30.76,9.57,58.18,16,88,.01,6.67-.02,13.33,0,20,.04,18.27-4.43,49.43,19.34,44.55,1.78,1.08,12.9,35.24-3.34,31.45.65-7.88-.4-16.11.02-24.02-21.36,4.95-12.98-9.45-26.04-19.96-.46,6.37-2.02,18.3-1.98,23.98l-11.96-19.98c-.53,9.35-2.2,18.83-4.04,27.98l-19.98,3.98c.09-3.96-.26-8.01-.02-11.98,14.77-.29,12.94-17.45,18.39-27.79,1.46-2.76,8.65-3.13,9.67-7.04,12.78-49.04-28.03-139.72-38.87-192.36-23.26-112.95-4.98-215.87-81.28-310.72-24.33-30.25-60.94-55.43-81.83-90.17l-38.08-23.92-8.17-2.64c-2.37-9.3,6.41-22.05,3.36-28.5-1-2.11-30.41-31.34-32.99-33.06-12.08-8-15.31-4.26-18.2,8.2-20.87-13.34-50.63-26.19-69.99-40.01-56.36-40.23-121.46-101.91-187.29-128.71-22.15-9.02-45.72-9.66-67.57-16.43-43.43-13.46-77.66-31.91-126.35-45.65-7.69-2.17-28.95-15.31-32.22-12.49-1.6,1.38-.04,6.91-.59,7.3-1.55,1.1-16.03.72-20,12-11.2-8.29,3.62-20.2,12-20.07-32.69-32.03-82.57-62.34-128-71.93l11.16-4.81.84-11.19c17.83,3.77,34.39,6.14,52,12Z" style="fill: #655b54;"/>
  <path d="M60.3,152l-11.98,31.98c3.9-.26,8.14.52,11.98.02-.63,6.43.91,13.8,0,20-7.09,48.33-17.91,95.98-24.51,149.49-5.27,42.75-20.5,87.3-7.49,130.51-1.19,10.44-5.57,13.69-15.95,11.99-2.33-9.29-3.9-19.28-8.05-27.99-1.25-2.63.78-3.72-4-8,.65-6.41-.94-13.84,0-20,.5-3.3,2.93-9.36,4-16,6.29-38.9,13.77-77.04,20-116,.6-3.75-.61-8.25,0-12,3.25-20.1,8.87-40.02,12-60,.87-5.55,2.83-12.5,4-20,3.52-22.66-5.55-58.19,20-64Z" style="fill: #655b54;"/>
  <path d="M68.3,152c.92-16.38,16.65-17.06,25.95-24.05,33.71-25.35,128.92-116.64,146.03-35.97-15.82,2.23-28.06-6.29-44.04-2.2-20.81,5.33-47.74,29.3-63.94,42.22-16.26,12.96-32.21,33.37-52,40h-4c1.19-5.64-.73-13.83,0-20.03-2.64-.21-5.34.19-7.99.03Z" style="fill: #655b54;"/>
  <path d="M352.3,16c22.22,13.91-7.13,15.07-8,16.06-12.78,14.47,32.14,23.27,40,11.94,6.53,1.16,14.1,3.33,20,4l5.62,3.91,2.38-3.91c2.67,0,5.33-.02,8,0,14.46,6.38,32.28,8.67,48,12l-.84,11.19-11.16,4.81c-3.36-.71-8.14.3-12,0,2.01-16.28-8.63-4.23-12-4-11.81.81-24.12-.09-36,0l-4.8-2.7-3.2,2.7c-4.08-.43-14.56.97-16,0-.35-.24,1.59-6.89-2.6-8.04-11.97-3.28-20.99,3.93-25.4,4.04-5.33.14-10.68-.19-16,0-.53.02-4.02-4.13-9.69-4.24-7.26-.14-14.6,5.26-22.28,4.22l7.95-23.97c-2.34-2.63-26.55,8.53-31.93,10.04-7.79,2.19-13.73,6.16-12.04-6.06,2.72-2.61,5.1-5.3,8-8l47.77-12.31.23-7.69c6.07-1,13.75.86,20,0,4.11-.56,5.84-3.18,8-4s6.77.88,8,0Z" style="fill: #4a4338;"/>
  <path d="M352.3,16c.35-.25-.64-5.96,1.1-6.72,27.35-12.06,70.42-16.47,87.06,12.64l-6.16,10.08h-60c-2.98,0-11.72,6.5-17.98,4.04v3.92c11.07-3.58,20.7,2.74,27.98,4.04-7.86,11.33-52.78,2.53-40-11.94.87-.99,30.22-2.14,8-16.06Z" style="fill: #726761;"/>
  <path d="M260.3,48c-1.69,12.22,4.26,8.25,12.04,6.06,5.38-1.51,29.59-12.68,31.93-10.04l-7.95,23.97c7.68,1.03,15.03-4.37,22.28-4.22,5.67.11,9.17,4.26,9.69,4.24v4l-33.51,3.72c-7.67-2.27-6.54-13.46-6.51-19.71l-23.98,12h-4c-.97-2.06-8.07-2.02-8.32-14.05l.92-5.55c1.28-1.64,6.76.21,7.39-.4Z" style="fill: #655b54;"/>
  <path d="M420.3,48c34.75.31,53.4.29,88.5,13.7,5.94,2.27,12.74.93,11.5,10.3-17.61-5.86-34.17-8.23-52-12-15.72-3.33-33.54-5.62-48-12Z" style="fill: #726761;"/>
  <path d="M68.3,152c2.65.16,5.35-.24,7.99-.03-.72,6.2,1.2,14.39,0,20.03-.09.44-3.67,7.7-4,8-.47.42-11.14,3.89-12,4-3.84.5-8.08-.28-11.98-.02l11.98-31.98c1.98-.45,5.62-.15,8,0Z" style="fill: #40322a;"/>
  <path d="M316.3,20l-.23,7.69-47.77,12.31c.86-.8-.86-7.19,6.54-11.32,10.08-5.62,29.74-6.74,41.46-8.68Z" style="fill: #726761;"/>
  <path d="M560.3,96c-7.97.36-12.27-3.89-12-12,16.15,5.3,9.06,8.93,12,12Z" style="fill: #726761;"/>
  <path d="M344.3,16c-2.16.82-3.89,3.44-8,4l.02-7.97h5.94s2.04,3.97,2.04,3.97Z" style="fill: #726761;"/>
  <path d="M412.3,48l-2.38,3.91-5.62-3.91c.54.06,6.05,0,8,0Z" style="fill: #726761;"/>
  <path d="M564.3,96c14.87,5.63,4.59,4.99,8,8l-7.98-.02-.02-7.98Z" style="fill: #726761;"/>
  <path d="M32.3,512l8,4c2.29,15.03-.23,16.72,0,24l-7.99-.02c-.31,5.32.25,10.7,0,16.02-2.06,42.32-15,84.28-.48,125.68-6.67,12.34-15.57,3.93-23.52,2.32.36-18.84-1.21-37.26,0-56,1.48-22.85,5.12-45.33,8-68,1.87-14.68,6.03-28.82,4-44,.76-.05,10.34-3.27,12-4Z" style="fill: #655b54;"/>
  <path d="M1184.3,1668c3.91-.42,8.05.23,11.98.02l-7.98,19.98c-6.65,2.73-19.74,6.97-24,12-7.59-1.32-9.36.39-8,8,.6,5.06-.89,11.29,0,16-2.56.32-5.57-.47-8,0-21.58,4.16-14.81,21.58-20,36-1.23,3.42-5.37,8.37-8,16-.37,1.06-4.35,2.53-3.79,5.55l3.79,2.45c-.4,2.53.5,5.64,0,8l-7.98.03,3.98,7.97c-.71,3.47.46,8.17,0,12l-7.98.03c-1.68,4.53,3.91,7.5,3.98,7.97.34,2.35.16,5.54,0,8-16.17-.92-13.63,37.84-20.06,43.99l-11.94-7.99c8.54-21.61,7.5-28.29,12-48l7.99-.02-3.99-15.98c5.63-24.72,14.01-55.1,23.25-78.75,5.66-14.48,24.81-34.75,20.75-49.25,3.86.41,8.33-.62,12,0,18.05,3.05,17.25-2.4,32-4Z" style="fill: #4a4338;"/>
  <path d="M1380.3,1100c-.04-5.68,1.52-17.61,1.98-23.98,13.06,10.51,4.68,24.91,26.04,19.96-.42,7.91.63,16.14-.02,24.02-1.1,13.32-3.15,26.1-4,40h-7.99s0,12,0,12c-.88.8.79,5.89,0,8-5.47,14.64-3.57,20.78-4,36-.87,31.11-2.2,61.07-4,92-3.78.51-8.59-.76-12,0v-48c0-17.27-.48-34.75,0-52,.92-32.88,3.36-64,4-96,.08-3.99.03-8,0-12Z" style="fill: #4a4338;"/>
  <path d="M1388.3,1308c-.05.89,5,7.11,3.89,17.42-1.51,14-12.71,52.2-17.97,66.5-9.37,25.47-46.34,92.56-61.91,108.09v-7.99s-12,0-12,0c22.95-28.87,53.69-103.67,64-140,3.61-12.73,11.43-24.48,8-40,.09-3.02,1.38-3.42,4-4,3.41-.76,8.22.51,12,0Z" style="fill: #726761;"/>
  <path d="M1300.3,1492h12.01s-.01,8-.01,8c-37.64,37.51-65.01,71.1-88,120l-17.65,8.22-6.35-8.22c17.14-26.2,29.11-61.83,53.3-90.69,6.3-7.51,40.94-30.06,46.7-37.31Z" style="fill: #655b54;"/>
  <path d="M1156.3,1724c.08.44,2.98,5.67,4,8l-4,8c4.22,19.44-5.01,42.59-4,60-5.25,1.94-3.78,7.63-4,12-.26,5.29,0,10.69,0,16l-3.36,2.48,3.36,5.52c.52,10.2,3.81,20.56,4,28,.13,5.29.21,10.72,0,16-16.42-.58-9.03,13.03-8,20,.38,2.56-.58,5.84,0,8l-15.98,15.98c-2.06-12.35,6.07-24.26,7.27-35.3.65-5.97-3.32-8.22-3.29-8.68.3-3.96-.2-8.02,0-12,.98-19.24,1.73-22.76,0-44-.21-2.63.28-5.39,0-8,6.02-.56,6.02-11.44,0-12,.65-6,3.07-34.45,4-36,.22-.36,6.99,1.57,8.07-2.62,2.78-10.8-3.08-28.89,3.93-41.38,2.43-.47,5.44.32,8,0Z" style="fill: #56493f;"/>
  <path d="M1200.3,1620l6.35,8.22,17.65-8.22c-3.45,7.35-18.22,35.86-19.06,38.95-2.15,7.89.98,19.55-2.72,25.35-3.37,5.29-11.21,2.46-14.23,3.7l7.98-19.98c-3.93.21-8.07-.45-11.98-.02-4.82-26.04,4.14-29.87,16-48Z" style="fill: #726761;"/>
  <path d="M1396.3,1180c7.72,9.85,3,24.12,3.99,36.03l-7.99-.03c.43-15.22-1.47-21.36,4-36Z" style="fill: #726761;"/>
  <path d="M1404.3,1160c-1.23,20.19-4.22,8.54-8,12v-12.01s8,.01,8,.01Z" style="fill: #726761;"/>
  <path d="M1152.3,1800c.06,1.02,6.52,6.36,3.97,11.98l-7.97.02c.22-4.37-1.25-10.06,4-12Z" style="fill: #726761;"/>
  <path d="M1164.3,1700c-.75.88.64,5.69,0,7.99h-7.99c-1.36-7.61.41-9.31,8-7.99Z" style="fill: #726761;"/>
  <path d="M1160.3,1732c.44,1,6.17.79,3.97,7.98l-7.97.02,4-8Z" style="fill: #726761;"/>
  <path d="M1148.3,1836l-3.36-5.52,3.36-2.48c0,1.91-.03,7.47,0,8Z" style="fill: #726761;"/>
  <path d="M560.3,184c-16.03,7.37-12.53,57.46,2.06,67.97,8.34,3.71,3.65-14.59,14.05-6.08l23.89,38.11c-.09,14.9,16.81,51.7,20,76,1.9,14.46,4.23,5.16,8,8,2.07,1.56,2.96,15.88,4,20,11.63,46.08,20.76,84.66,16,132l-8.01.02c-.95,1.07,7.73,23.96-7.99,19.98-10.66-6.15-18.02-16.35-31.86-10.04-2.54,1.16-3.23,5.51-4.14,6.04-6.36,3.7-23.41,12.08-28,16-16.21-10.34-8.89-46.38-32-44-1.94-11.98-6.22-23.02-4.02-36.02l-13.51.49c-9.26,3.06-7.82,34.5-6.48,43.52l-28-4c4.76-9.54,7.85-20.35-2.06-27.98-3.05-.66-19.21,16.56-21.94,19.98-4.4.91-12.8-1.31-16,0-25.24-19.85-15.42-45.87-58.31-43.63-17.83.93-16.11,28.66-29.69,35.63-2.41-1.22-10.84,2.65-12.09-2.04-2.39-25.89,19.4-24.44,20.34-28.3,1.69-6.93-.42-17.29-10.06-17.6-12.34-.4-22.57,17.96-28.45,27.7-3.75,6.21-7.11,30.44-17.85,22.36-10.43-7.86-13.29-41.97-18.23-53.76-7.49-17.9-23.93-11.52-13.66-36.35,3.89-2.25,18.14-10.48,20-12,18.78,6.43,26.96-9.79,40-12-1.39,3.64,1.68,7.3-4.05,13.8-16.92,19.19-36.87-4.66-39.93,18.18,10.96-3.61,29.24,4.22,37.41,2.9,2.16-.35,36.86-19.49,38.51-20.93,17.16-15.03-23.23-15.43-31.95-13.95,6-15.76,8.78-32.65,16-48,4.81-1.48,21.87-10.33,23.98-7.98-.14,28.64-6.04,69,27.98,79.97,13.57-35.53-16.92-59.98,9.97-92.06,38.52-45.96,109.65,11.74,117.72-54.27,3.14-25.69-5.14-43.29-31.65-41.65,2.03-41.37,22.44-76.43,60-36Z" style="fill: #c7856f;"/>
  <path d="M512.3,516c1.08,7.27,17.67,55.89,21.71,60.29,11.13,12.11,20.72,6.33,34.29,7.71,6.5,4.62,13.07,8.15,20,12,1.02.57,2.98-.56,4,0-1.06,15.17,3.67,14.99,16,16,9.9.81,18.67-1.27,28-4,4.04-1.18,5.97-3.23,8-4,1.18-.45,2.88.47,4,0,19.19-2.48,18.81,25.45,26.47,39.53,15.32,28.19,30.22,38.58,61.53,44.47l-30.27,59.91c-7.21,2.27-28-17.89-33.73-23.91-2.41-2.53-2.58-13.75-12.06-17.94-10.28-4.54-21.43-1.01-31.94-2.06-2.62-.26-5.36.18-8,0v-7.99s-18.23,3.75-18.23,3.75l-1.76,20.27,7.99-.02c.03,2.6-.38,5.61,0,8,2.99,18.82,5.98,11.55,12,16,6.7,4.95,13.93,11.58,20,16,2.14,9.75-4.99,8.24-10.54,11.26-14.7,8-47.19,15.53-53.27,27.75-1.41,2.84.52,7.33-.2,8.99-20.61,47.26-23.56,104.77-20,156v4c-17.73,14.96-20.51,37.64-53.53,32.21-4.78-.87-1.7-7.26-2.47-8.21,5.26-.4,10.79.59,16,0,23.61-2.67,25.53-30.18,27.48-50.52,4.02-42.01-5-83.32-3.48-125.48.03-.77,3.66-3.38,3.84-6.49,1.65-29.1-17.71-27.39-19.84-49.51-3.98-41.34,37.5-41.11,49.9-68.06,9.87-21.47-4.12-18.11-5.9-19.94-.62-.63,1.12-5.85-.62-7.41l-47.35,23.39,7.96-27.96c-7.25.27-16.96-2.46-22.1,4.03-4.27,5.4,3.15,15.51-11.85,11.92-7.78-3.49-4.63-18.39-9.71-26.3-3.66-5.69-13.48-7.79-15.25-10.74-2.26-3.76-.47-10.51-3.1-14.76-4.12-6.65-24.02-13.12-31.94-12.21-9.22,14.72,18.4,15.84,17.85,33.78-27.14,24.8-35.48-2.82-59.51-10.14-7.41-11.31,30.63-21.86-1.54-36.6-3.73-1.71-6.91-4.47-10.92-1.33l-10.56,18.5c-35.23,2.49-19.85-7.88-22.6-21.51-2.59-12.82-12.02-26.15-6.52-44.16l-25.48-10.45-2.75-8.05v-4c18.78-4.59,17.44-19.7,40-8,7.12,3.69,13.47,18.51,21.88,20.06,18.32-4.37,75.41,7.32,86.07-2.2,3.57-3.19,3.48-9.38,4.05-9.86,4.9-4.15,14.08-4.13,20-16l28,4ZM420.28,592.02c-24.72-4.24-4.97,17.33,0,11.96v-11.96ZM488.28,612.02c-4.02-4.07-16.06,7.81-11.96,11.96,4.02,4.07,16.06-7.81,11.96-11.96Z" style="fill: #bcaba2;"/>
  <path d="M856.3,756c6.24.64,12.7,3.38,20,4,3.95.34,8.06-.36,12,0l16.04,10.04c-9.81,11.75-15.3,17.04-16.03,33.93,22.1-6.75,50.19,3.07,47.99,28.02l31.58-.43,4.44-39.58c43.34-4.24,3.38,46.24,8.29,61.48,4.46,13.86,27.58-1.22,27.86,12.6.28,13.64-4.65,19.51-16.16,25.94-.33-1.12-3.88-2.52-4-8-.01-.6,5.71-4.23,4.02-7.98-2.41-.66-6.63.75-8.02-.02-7.66-4.24-7.58-9.85-21.03-7.37-14.59,2.69-12.54,13.16-14.97,15.37-3.46,3.15-19.4,14.21-24,16-1.4-15.95,1.99-34.58,0-50.07-.7-5.5-3.02-12.58-7.99-5.95-5.75,41.32-14.43,82.7-20.02,124.02h-12.01s.02,16.01.02,16.01h7.99s0,19.99,0,19.99c-6.07-.7-10.69,2-16,4-2.28.86-8.14-2.36-8.22,2.29,2.68,11.05,2.69,22.68,4.22,33.71h-4c-20.74-9.66-43.65,10.33-66.32,11.8-4.87,6.52,4.65,17.67,2.02,25.7-1.7,5.18-9.68,4.37-11.61,9.53-2.46,6.59-1.33,20.93-4.09,28.97-4.72-.88-10.93.6-16,0-1.42-8.86-.66-26.37,0-36,.41-5.92,3.49-12.73,4-20,1.45-20.85,4.13-38.15,4-60,0-1.33.03-2.67,0-4h8c.47,10.61-.38,21.4.02,32.02l15.87-.08c7.84-47.68,3.41-96.05.11-143.94l7.68-.21.28-7.72c-6.54,1.61-10.96-7.7-11.96-8.08,11.78,3.04,10-2.71,14.57-7.37,5.84-5.94,43.19-47.06,37.41-52.61-23.08-5.31-23.79,21.86-40.99,28.95-10.18,4.2-23.19,1.36-26.99,3.03-1.08-1.42-2.39-3.3-4-4-2.72-8.76-7.99-15.53-12-24,10.32,0,28.13-1.78,28.07,11.93l7.88.07c2.56-21.24,26-21.11,27.83-46.38l36.21,2.36c-.17-21.72-36.15,1.1-27.98-27.98,5.24.53,10.76-.53,16,0ZM868.28,796.02h-11.96v7.96h11.96v-7.96ZM960.29,844.02c-17.41-2.28-26.23,6.78-23.96,23.96,4.09,4.7,28.65-19.78,23.96-23.96ZM896.28,872.02c-6.34-6.34-18.3,5.61-11.96,11.96s18.3-5.61,11.96-11.96Z" style="fill: #beb5ad;"/>
  <path d="M672.3,772c13.05,17.61-7.85,8.2-11.5,18.48-4.77,13.43.94,33.97,16.74,36.85,15.34-4.6,13.83-6.05,18.76-15.33,2.74-5.17,4.55-10.06,8-16h12c-1,2.5.7,8.46,0,12-3.88,19.67-4.82,33.23-4,54.18.3,7.69-4.11,16.05,8,13.82-.69,9.19.19,18.75,0,28l-12.06,2.05,4.07,37.98,7.99-.03c0,29.33-4.55,47.22,4,72,5.33,15.45-9.37,34.71,12,52l-.02,12c-10.51,1.52-18.88-4.37-27.98-8v-16.02c-2.65-.25-5.36.22-8,.02-1.54-14.85-2.77-29.28-1.61-44.21l-26.39-7.79c3.7-13.03-7.31-19.14-10.24-27.88-3.74-11.19,6.58-25.08-21.72-28.11l-4.05,35.99c-4.11-.36-10.57,5.73-15.94,2.22-3.12-2.04-4.59-9.16-8.32-12-5.83-4.44-17-6-19.29-12.92-3.23-9.78,4.36-19.14,3.61-27.27-.8-8.67-11.56-11.62-12.3-20.21-.98-11.3,26.91-37.69.23-33.82,2.99-21.34-.66-49.28,4-72,23.51-1.23,45.13-12.63,63.82-26.35,3.88-2.85,3.74-9.36,4.18-9.65,1.29-.85,12.11.21,16,0Z" style="fill: #beb5ad;"/>
  <path d="M876.3,1008c.28,7.9,5.06,12.96,12,16l-8,80h-4c-2.26-.51-3.01-2.17-4-4-2.6-4.81-5.3-10.78-8-16-1.38-2.67-2.53-5.28-4-8-1.66-3.05,3.98-10.09-5.96-8.02-4.21-.25-1.14,5.97-2.04,8.02-1.03,2.36-3.68,4.15-4,8-.21,2.59-.09,5.39,0,8l-11.98-3.98c.28,3.89-.55,8.16-.02,11.98-3.99-.11-8.01.17-12,0,.06-3.99,0-8.01-.02-11.98-7.47-1.26-13.22,4.48-11.96,11.96,3.96.18,8-.15,11.98.02-.13,8.51-3.94,14.57-4,16l-8.02,2.02.03,9.96,7.99.02c.11,11.87,3.38,23.27,4,36-10.67.01-13.31-3.54-11.6,9.55,1.86,14.26,1.24,39.19,3.42,47.95,1.14,4.59,7.83,2.01,8.18,2.5,16.62,23.01,3.91,95.72,0,124-13.62-3.53-8.91,20.77-12.3,23.68l-31.68-3.67,7.99,23.96h-27.99s7.73-17.5,7.73-17.5c-9.97-9.08-14-16.42-11.73-30.46l20.13,2.31c-1.29-20.1,23.92-24.58,27.26-37.25,2.03-7.71-3.75-30.27.57-41.02-44,5.44-4.12-52.15-8.01-56.04l-31.96,3.96c2.96-16.67,9.76-26.03,3.76-43.75l-23.8-2.25,6.31-13.65,13.69,3.66-.43-19.49c-29.89-.03-45.33-17.86-55.52-44.48l43.94,11.98c.38-12.54,4.22-26.12,20.04-24.01-.66,9.63-1.42,27.14,0,36,1.84,11.49,14.59,19.96,17.99,32.08l10.06-2.41c-.74-15.45,5.5-26.39-12.05-29.67,2.77-8.04,1.63-22.39,4.09-28.97,1.92-5.16,9.91-4.35,11.61-9.53,2.63-8.03-6.89-19.18-2.02-25.7,22.67-1.46,45.58-21.46,66.32-11.8l2.04,16.02,5.94-.04c3.28-6.83-3.61-13.34-3.98-15.98-1.53-11.03-1.54-22.66-4.22-33.71.08-4.65,5.94-1.43,8.22-2.29Z" style="fill: #c0b8b0;"/>
  <path d="M896.3,968c5.59-41.32,14.27-82.69,20.02-124.02,4.97-6.64,7.29.45,7.99,5.95,1.98,15.49-1.41,34.12,0,50.07-6.03,2.48-2.9,8.79-4,12-7.84,22.95-10.04,53.39-11.96,78.04-7.66,98.59-2.32,202.62-12.08,299.92-3.62,36.12-18.1,78.84-20.09,111.89-2.08,34.41,18.57,59.83,16.15,96.07-3.26,48.68-40.51,90.74-44.01,138.08-10.4,3.28-9.06,18.59-8,28,.43,3.83,5.6,10.23,4,16,2.45,28.59-20.86,2.9-24-12-1.36-6.48-.25-20.33,0-28,1.57-48.1,36.74-80.1,52-124,1-2.87-.84-8.59,0-12,6.43-26.07,8.76-26.49,0-56-2.59-8.74-6.31-16.86-12-24,2.2-3.15,5.6-61.07,8-76,.38-2.38,3.65-5.63,4-8,6.99-48,11.4-99.59,12-148,.07-5.33-.08-10.67,0-16,.24-16.55,3.12-37.83-4-52v-20l8-80,4-20v-20c3.48-4.94,3.24-10.38,4-16Z" style="fill: #655b54;"/>
  <path d="M500.3,220c26.5-1.64,34.79,15.96,31.65,41.65-8.07,66.01-79.2,8.31-117.72,54.27-26.88,32.08,3.6,56.53-9.97,92.06-34.02-10.96-28.13-51.32-27.98-79.97-2.11-2.35-19.17,6.5-23.98,7.98-31.26,9.65-63.82,15.46-94.2,28.03-36.41-22.38,37.72-53.27,58.27-61.96,23.03-9.75,59.55-22.34,83.75-28.25,32.87-8.04,51.15-4.38,82.25-5.75,8.69-.38,23.62,8.29,29.27-6.78,8.3-22.16-10.87-21.79-27.33-17.29,1.25-5.53-.87-13.87,0-20,6.49-1.95,6.48-3.41,16-4Z" style="fill: #56493f;"/>
  <path d="M872.3,1184c.76.48-1.97,12.34,12,8-.6,48.41-5.01,100-12,148l-15.98-3.98-.03,11.97,12.01.02c-2.4,14.93-5.8,72.85-8,76-.43.62-7.98.39-10.26,3.87-3.1,4.73,4.14,11.08-1.24,18.3-3.77,5.05-14.34,7.88-20.23,12.1-3.58,2.57-4.96,9.58-8.31,11.68-15.05,9.41-42.87.43-43.98-19.86,6.39-11.42,15.67-1.55,21.67-2.79,11.43-2.36,10.62-34.54,14.41-45.23,4.01-11.31,10.01-10.9,11.94-26.07,23.38,7.88,22.04-29.96,23.46-46.52,3.43-40.1-1.81-84.87-3.46-125.48l7.99.03c.42-6.63-.44-13.41,0-20.03,4.62,1.03,17.69-1.46,20,0ZM872.28,1236.02c-7.46-1.03-13.84-.01-15.98,7.94l15.98.02v-7.96ZM864.28,1312.02h-7.96v11.96h7.96v-11.96Z" style="fill: #c0b8b0;"/>
  <path d="M524.3,760c2.13,22.12,21.49,20.41,19.84,49.51-.18,3.11-3.81,5.72-3.84,6.49-9.66.86-13.61,4.85-15.77,14.23-8.19,35.55,4.9,73.19,4.04,107.79-.45,17.78-8.12,36.84-12.26,53.98-5.21.59-10.74-.4-16,0-2.62-3.26-11.15-15.41-12-16,6.97-21.98-2.4-48.26-4-72-1.79-26.67-7.34-88.96-4-112,12.56-.14,17-13.53,24-20,1.38-1.28,2.6-2.77,4-4,4.51-3.95,9.91-7.12,16-8Z" style="fill: #c7856f;"/>
  <path d="M716.3,808c4.1,14.97,36.86,37.43,39.41,46.89,2.92,10.83-5.42,18.68-6.13,27.61-1.73,21.58,9.52,73.98,14.52,95.69,3.6,15.63-9.62,30.16,16.2,25.81.13,21.85-2.55,39.15-4,60-16.6,8.73-18.13,21.7-40,4-21.37-17.29-6.67-36.55-12-52,12.74,2.23,7.06-6.41,7.87-13.95,2.48-22.84,17.79-144.03,4.08-154.03-18.04,1.01-15.03,15.56-15.96,27.98-12.11,2.23-7.7-6.13-8-13.82-.82-20.95.13-34.51,4-54.18Z" style="fill: #b87864;"/>
  <path d="M204.3,756c-.25,23.79-.89,126.29-14.06,140.11-3.44,3.61-5.77,3.17-9.94,3.89-1.89-3.39-4.33-8.18-4-12,.98-11.32,7.45-26.07,4-40,14.28-33.01,4.34-43.81,3.83-73.84-.84-50.66-3.16-101.93-4-152-.28-16.89-2.98-106.22,10.2-110.13,19.46-5.78,9.95,17.74,9.77,25.79-1.65,73.63,4.96,145.11,4.2,218.18Z" style="fill: #655b54;"/>
  <path d="M592.3,156c13.16,25.81,32.71,54.38,52,76l-4,20c-1.11-.74-6.6,1.35-8.78-.29-5.2-3.91-4.38-10.92-15.22-7.71-.45-1.42-7.03-2.92-7.62-6.7-.76-4.93,3.92-17.57-.42-25.3-10.74,6.8-11.76,22.34-27.96,20.05-2.92,13.45,9.35,5.78,17.43,8.5,15.32,5.15,2.62,36.21,2.57,43.45l-23.89-38.11c-10.41-8.51-5.71,9.8-14.05,6.08-14.59-10.51-18.08-60.6-2.06-67.97,2.15-.99,9.97,1.66,11.69-.23,2.19-2.4-.93-12.23.31-15.77,3.97-11.28,18.45-10.9,20-12Z" style="fill: #40322a;"/>
  <path d="M276.3,408c-10.27,24.83,6.17,18.46,13.66,36.35,4.94,11.79,7.8,45.9,18.23,53.76,10.74,8.09,14.1-16.15,17.85-22.36,5.88-9.74,16.11-28.1,28.45-27.7,9.63.32,11.75,10.68,10.06,17.6-.94,3.86-22.72,2.41-20.34,28.3,1.25,4.69,9.68.82,12.09,2.04.93.47,4.46,11.06,12,16-2.08,7.34-9.02,8.68-16,8-22.56-11.7-21.22,3.41-40,8-15.22-1.63-15.35-23.51-32-24-.35-1.24.36-2.77,0-4-8.32-28.84-1.71-21.85-21.69-44.5-2.33-2.64-1.35-9.37-2.93-10.9-4.54-4.4-19.74,7.29-15.38-12.6,1.08-1.24,3.98-7.21,8-12,6.99-5.25,23.78-9.56,28-12Z" style="fill: #532d1d;"/>
  <path d="M224.3,760c-4.68-65.68-16.8-145.98-16.13-209.79.12-11.88,6.33-45.33,18.19-50.17,12.99-.91,2.32,22.83,1.98,30-3.26,69.98,10.9,145.07,15.96,213.96,1.53,20.78,5.75,47.86-10.05,63.99-17.42-2.81-5.21-18.41-5.79-29.9-.33-6.5-3.77-12.61-4.16-18.08Z" style="fill: #655b54;"/>
  <path d="M584.3,880c26.68-3.87-1.21,22.52-.23,33.82.74,8.59,11.5,11.55,12.3,20.21.75,8.13-6.84,17.49-3.61,27.27,2.29,6.92,13.46,8.48,19.29,12.92,3.73,2.84,5.2,9.96,8.32,12,5.36,3.51,11.82-2.59,15.94-2.22,4.67.41,6.85,7.41,8,8-.68,6.98.66,13.92,8,16-.54,1.4,1.28,4.91-.86,7.01-10.43,10.21-38.93,2.43-51.12-2.99l3.71,21.48-15.23,5.95-28.43-29.45c15.63-12.09,16.85-18.91,15.93-38-.32-6.67-3.92-13.37-4-16-1.09-36.21,8.08-47.98,12-76Z" style="fill: #c0b8b0;"/>
  <path d="M836.3,1100c5.35,38.7,6.43,65.22,8,104,1.65,40.62,6.89,85.39,3.46,125.48-1.42,16.56-.08,54.4-23.46,46.52,1.12-8.78-1.2-19.31,0-28,3.91-28.28,16.62-100.99,0-124,3.8-21.75,1.02-38.93,0-60-.62-12.73-3.89-24.13-4-36-.04-3.98-.17-8.03,0-12,.06-1.43,3.87-7.49,4-16,3.99.17,8.01-.11,12,0Z" style="fill: #655b54;"/>
  <path d="M872.3,1516c-15.26,43.9-50.43,75.9-52,124-27.3,8.66-27.56-4.32-29.73-28.27l-22.23-9.68,38.21-22.05-5.71-27.5c24.88-8.99,42.25-48.77,71.47-36.51Z" style="fill: #c0b8b0;"/>
  <path d="M124.3,584c-.31-22.77-3.62-95.81,8.97-111,2.96-3.58,12.12-4.87,16.99-5.06,2.21,22.31-7.82,44.32-9.89,66.12-1.52,16,.57,33.6-.07,49.93-1.06,27.22.25,53.07,0,80-.04,4,.03,8,0,12-.25,35.31-.14,69.17,0,104l-7.4-.49c-3.81-8.23-2.59-19.84-4.6-27.51,5.58-3.69,0-13.78,0-18v-96c0-13.89-3.76-36.2-4-54Z" style="fill: #56493f;"/>
  <path d="M568.3,672c1.78,1.83,15.77-1.53,5.9,19.94-12.39,26.96-53.87,26.72-49.9,68.06-6.09.88-11.49,4.05-16,8-3.28-8.83-7.59-9.14-15.8-6.01-2.42.92-39.09,27.11-42.23,29.98-4.04,3.69-7.3,5.72-5.95,12.01l15.96.05c1.77,4.93-3.95,7.53-3.98,7.97-4.85-2.01-10.23,3.73-12,4-6.17.93-13.58-.61-19.99-.02-.79-7.52,1.47-13.96,6.23-19.74,29.81-36.12,87.31-80.77,123.17-116.89,4.57-4.6,2.82-10.42,14.58-7.36Z" style="fill: #56493f;"/>
  <path d="M112.3,584c3.61,38.75,6.28,77.08,8,116h-16c.13-10.64-.28-21.37,0-32,.41-15.35,4.08-14.42,0-36-2.52-13.34-5.65-26.55-8-40l3.98-7.97-7.98-.03c-3.68-21.3-10.26-57.75-12.27-77.7-1.34-13.29-2.14-30.22,10.33-38.28,11.49-2.44,16.55,48.03,17.88,58.04,2.39,17.97,2.36,39.61,4.06,57.94Z" style="fill: #4a4338;"/>
  <path d="M60.3,632c-.14,2.65.23,5.37,0,8l-8.08,2.53.12,17.45h3.91c-1.49-4.93,3.55-9.46,4.04-11.98l7.94,66.03c2.62,22.06-.6,44,.06,65.97.08,2.66-.07,5.34,0,8,.32,12.6,11.57,69.1-2.06,71.98l-9.72-6.18c1.01-5.09,3.83-10,3.4-15.38-5.45-68.89-12.16-137.33-15.62-206.43h16Z" style="fill: #655b54;"/>
  <path d="M508.3,768c-1.4,1.23-2.62,2.72-4,4-14.33-4.12-22.07,6.69-24,20-3.34,23.04,2.21,85.33,4,112-6.8-.5-13.54-1.92-20-4-.57-7.92.66-16.1,0-24-.86-10.27-3.19-19.18-4-28-1.01-10.97-4.8-26.9-4-36,.04-.44,5.75-3.04,3.98-7.97l-15.96-.05c-1.35-6.29,1.91-8.32,5.95-12.01,3.14-2.86,39.81-29.05,42.23-29.98,8.21-3.13,12.52-2.82,15.8,6.01Z" style="fill: #40322a;"/>
  <path d="M588.3,808c-4.66,22.72-1.01,50.66-4,72-3.92,28.02-13.09,39.79-12,76l-8,8h-8c-3.56-51.23-.61-108.74,20-156,3.99-.14,8.02.21,12,0Z" style="fill: #56493f;"/>
  <path d="M468.3,228c-.46.44-3.83,10.91-4,12l-19.39,3.61c-11.7-12.53-4.2-22.01-5.68-32.5-4.03-28.6-19.15-63.31,11.64-82.77,23.42,7.77,6.93,15.73,5.6,25.82-2.43,18.47,1.6,58.05,11.84,73.85Z" style="fill: #655b54;"/>
  <path d="M40.3,448c2.95-11.67,11.37-18.99,23.98-15.98-2.72,21.02-6.24,44.97-7.17,65.96-.35,7.86,3.34,19.04,3.19,30.02-.17,12.4-4.12,31.05-4,48l-12-4c-.27-8.1-4-15.18-4-16-.03-5.33.17-10.68,0-16-.23-7.28,2.29-8.97,0-24-.57-3.72-3.84-6.94-4-8-1-6.46-.29-16.96,0-24s2.64-30.6,4-36Z" style="fill: #4a4338;"/>
  <path d="M872.3,1448c8.76,29.51,6.43,29.93,0,56-18.09,2.36-37.51-3.1-44.09-21.97,15.59-10.16,24.61-29.24,44.09-34.03Z" style="fill: #c0b8b0;"/>
  <path d="M240.3,432c-4.36,19.89,10.85,8.2,15.38,12.6,1.58,1.53.6,8.26,2.93,10.9,19.98,22.65,13.37,15.67,21.69,44.5-13.72,1.17-10.94-19.64-16.53-29.62-.49-.87-12.67-14.41-13.66-14.53-19.72-2.39-15.84,28.2-25.64,34.32-22.11,13.8-13.86-26.53-9.1-37.1,6.66-14.82,21.59-17.21,24.93-21.07Z" style="fill: #655b54;"/>
  <path d="M248.3,420c7.31-8.72,14.19-24.11,23.88-34.12,7.01-7.24,43.24-38.93,52.1-29.86,4.63,21.46-12,18.64-22.28,27.85-4.61,4.13-5.18,11.71-5.7,12.13-1.86,1.52-16.11,9.75-20,12-4.22,2.44-21.01,6.75-28,12Z" style="fill: #655b54;"/>
  <path d="M484.3,904c1.6,23.74,10.97,50.02,4,72-14.38-9.93-7.59,6.5-20-20-.47-10.6.67-21.43,0-32-.58-9.08-3.48-16.79-4-24,6.46,2.08,13.2,3.5,20,4Z" style="fill: #56493f;"/>
  <path d="M700.3,1056c2.64.2,5.35-.27,7.99-.02v16.02c-1.68-.67-5.4.87-7.86-.07-.84-5.24.41-10.7-.13-15.93-21.92-1.64-36.33-19.99-36.41-42.04-.03-7.01,7.91-8.18,8.41-9.96l26.39,7.79c-1.16,14.93.07,29.36,1.61,44.21Z" style="fill: #c0b8b0;"/>
  <path d="M484.3,224c-.87,6.13,1.25,14.47,0,20-1.13,4.97-16.77,15.42-19.98,11.98.47-5.14-.79-11.05-.02-15.98.17-1.09,3.54-11.56,4-12,.87-.84,12.51-2.95,16-4Z" style="fill: #40322a;"/>
  <path d="M456.3,812c-.8,9.1,2.99,25.03,4,36-12.84,2.1-14.01-22.02-16-32,1.77-.27,7.15-6.01,12-4Z" style="fill: #c5bdb7;"/>
  <path d="M312.3,528v4c-2.63-.21-5.4.32-8,0-4.27-.52-8.3-1.81-12-4-2.85-7.99-7.9-9.44-12-24,16.65.49,16.78,22.37,32,24Z" style="fill: #655b54;"/>
  <path d="M344.3,68c4.41-.11,13.43-7.33,25.4-4.04,4.19,1.15,2.25,7.81,2.6,8.04v4c-9.23.6-18.83-.87-28,0v-8Z" style="fill: #655b54;"/>
  <path d="M104.3,668c-1.92-.44-3.72-2.12-4-4-1.23-8.33-2.11-26.52,4-32,4.08,21.58.41,20.65,0,36Z" style="fill: #655b54;"/>
  <path d="M468.3,924c.67,10.57-.47,21.4,0,32-2.67-5.7-14.95-28.67-11.98-31.98l11.98-.02Z" style="fill: #c5bdb7;"/>
  <path d="M464.3,876c.66,7.9-.57,16.08,0,24-2.42-.78-8.02,2.39-8.17-2.34l.18-21.69,7.99.03Z" style="fill: #c5bdb7;"/>
  <path d="M644.3,992c8.43,4.32,17.69-9.01,8,16-7.34-2.08-8.68-9.02-8-16Z" style="fill: #beb5ad;"/>
  <path d="M576.3,972l-11.21-.85-.79-7.15,8-8c.08,2.63,3.68,9.33,4,16Z" style="fill: #c5bdb7;"/>
  <path d="M304.3,532l-.02,7.99c-18.68,2.7-9.18-4.14-11.98-11.99,3.7,2.19,7.73,3.48,12,4Z" style="fill: #bcaba2;"/>
  <path d="M432.3,72c3.37-.23,14.01-12.28,12,4-4.34-.34-10.04,1.35-12-4Z" style="fill: #655b54;"/>
  <rect x="544.33" y="1004.02" width="7.96" height="7.96" style="fill: #c0b8b0;"/>
  <rect x="448.33" y="860.02" width="7.96" height="7.96" style="fill: #c5bdb7;"/>
  <path d="M92.3,584l7.98.03-3.98,7.97c-.08-.44-2.85-1.35-4-8Z" style="fill: #655b54;"/>
  <path d="M396.3,72c-2.23.02-1.83.66-8,0l3.2-2.7,4.8,2.7Z" style="fill: #655b54;"/>
  <path d="M434.3,820c2.6,1.33,2.6,2.67,0,4v-4Z" style="fill: #c5bdb7;"/>
  <path d="M556.3,968v-4h4c-1.28,1.38-2.56,2.78-4,4Z" style="fill: #c5bdb7;"/>
  <path d="M94.3,640c2.6,1.33,2.6,2.67,0,4v-4Z" style="fill: #c5bdb7;"/>
  <path d="M1132.3,448l38.08,23.92c20.89,34.74,57.49,59.92,81.83,90.17,76.3,94.85,58.02,197.77,81.28,310.72,10.84,52.64,51.64,143.32,38.87,192.36-1.02,3.91-8.21,4.28-9.67,7.04-5.45,10.34-3.62,27.5-18.39,27.79.87-14.42,2.92-29.32,4-44,.6-8.21,3.52-19.17,4-28,1.39-25.65-12.83-22.15-16,0-.35,2.45,0,5.41,0,8v8c-5.18,3.26-3.27,3.09-4,8-1.38,9.25.23,21.95,0,32,0,.33-2.65,1.57-2.7,4.8-.02,1.36,2.7,2.43,2.7,3.2l4,84c-1.99-.52-3.45.4-3.43,2.48.03,3.51,3.44,5.15,3.43,5.52-.16,19.74-5.13,36.95-8,56l-15.8-.19-4.2-15.81c5.63-56.68,21.56-191.93,7.18-241.18-1.97-6.74-11.95-11.31-14.34-21.64-2.24-9.67-.99-22.89-.84-33.18.01-.72,4.16-6.22,4.4-13.74.14-4.34-1.62-33.32-6.46-34.24-14.81-2.83-9.7,38.36-9.94,47.98-.55,21.48,4,44.58,4,62v64c0,26.92,3.89,57.69,4,86h-12c.18-21.86,3.61-47.59-.23-69.77-2.22-12.84-16.66-25.28-18.92-33.09-2.69-9.3.85-43.49-.83-45.17h-28.04s-.54,25.47-.54,25.47l-19.43,6.52c1.03-7.26,4.79-12.1,2.44-20.03-7.18-24.17-43.98-27.72-38.46.09l-11.98-.04-7.99-11.98c-.25,22.99-2.56,55.88-32.02,55.98,1.78-43.03,5.26-94.81,0-136-.45-3.56-3.93-7.14-4-8-.21-2.64.2-5.36,0-8-.3-3.96.18-8.02,0-12h12c.04,1.04,3.51,8.49,4,16,1.58,23.99,5.81,47.75,4.02,71.98,7.42,2.46,11.35-7.54,15.98-7.98.82-.08,10.97,3.43,16,4,8.85,1,16.44,4.78,20.11-9.86-13.87-13.12-4.47-48.49-28.11-46.14-1.57-17.97-1.86-36.12-4-52l8-108h4c4.97,13.16,7.23,6.79,8,8,4.88,7.64,8.41,20.48,16,28-2.44.1-14.56,4.27-16.12,6.81-1.53,2.49-8.09,45.85-8.11,51.4-.09,19.5,29.14,22.54,32.22,11.65l-7.98-25.82,23.42-10.56c5.21-10.94-2.57-22.55-3.43-29.48-.48-3.83,5.99-11.8-4.04-21.9,15.27-7.24,25.7-14.57,24.04-34.1,6.64-2.53,3.67-.32,8,0,4.11.31,9,8.3,16.28-1.65,16.67-22.8-14.8-37.18-22-50.63-9.58-17.88-15.99-55.55-26.28-79.72-1.23-2.88-3.4-6.26-4-8-.9-2.61,1.5-9.58-.31-11.65-1.44-1.64-6.92.4-7.69-.35-.46-.44-3.68-10.57-4-12-1.01-4.48.83-11.04,0-16.02l-7.99.02c-.23-2.62.32-5.4,0-8-1.84-15.01-5.76-5.32-8-8-2.56-3.06-15.88-34.49-20.56-41.44-4.24-6.3-27.26-37.69-31.44-38.56v-12ZM1260.29,763.97c5.25-4.88-10.45-17.08-15.96-11.96-5.25,4.88,10.45,17.08,15.96,11.96Z" style="fill: #bab1a9;"/>
  <path d="M1076.3,392c-.76,3.29,1.18,8.07-.3,11.76-3.39,1.55-9.56-.75-11.7.24-1.55-7.54-21.58-2.2-23.42.64l-.58,19.36c-2.17.03-6.27,4.86-12.92,3.25-8.77-2.12-17.26-14.71-26.16-18.16-7.07-2.74-62.61-11.42-64.92-9.11-2.42,10.92,2.12,21.34,3.04,31.04.42,4.4,3.54,12.27-4.96,8.94-11.74-4.61-9.19-22.62-10.3-23.7s-13.15.52-19.68-2.31c-7.53-3.27-14.17-17.47-20.51-23.51-5.91-5.64-22.89-13.24-23.57-14.44-1.65-2.91,2.59-16.27-6.06-19.98-34.84,28-70.67,5.18-101.94-16.02-1.34-3.67-4.1-14.67-4.81-15.32-2.71-2.46-8.13-.07-11.19-.68-1.54-.31-4.9-4.25-8-4-2.33-3.82-3.74-5.95-8-8-16.53-31.6-52.83-54.02-76-80-19.29-21.62-38.84-50.19-52-76,.54-.39-1.01-5.91.59-7.3,3.27-2.82,24.52,10.32,32.22,12.49,48.69,13.74,82.92,32.19,126.35,45.65,21.85,6.77,45.42,7.41,67.57,16.43,65.83,26.8,130.93,88.48,187.29,128.71,19.36,13.82,49.12,26.68,69.99,40.01Z" style="fill: #beb5ad;"/>
  <path d="M1348.3,1056c-1.08,14.68-3.13,29.58-4,44-.24,3.97.11,8.02.02,11.98l19.98-3.98c-.26,1.28.25,2.71,0,4-7.78,40.79-9.67,78.65-12,120-5.21,3.37-2.89,18.8-4,24-2.53,11.8-4.83,24.4-8,36-.15.55-6.5,3.11-8,8-5.41,17.67-.33,22.28-12,40h-8c-.79-7.63.3-16.14,0-24,9.07-9.39,5.83-25.21,8-36,2.86-14.23,5.69-24.63,8-40,2.87-19.05,7.84-36.26,8-56l3.53-2.53-3.53-5.47-4-84,3.98-5.96-3.98-2.04c.23-10.05-1.38-22.75,0-32l16,4Z" style="fill: #4a4338;"/>
  <path d="M1076.3,392c2.89-12.46,6.12-16.2,18.2-8.2,2.58,1.71,31.99,30.94,32.99,33.06,3.04,6.45-5.74,19.2-3.36,28.5l8.17,2.64v12c-6.29-1.31-14.38.77-20,4-.39-1.25-3.85-2.86-4-4-1.31-10.1,6.87-37.59-2.05-39.97-16.79-4.49-18.87,25.66-21.95,35.97-1.5-.73-6.1,1.27-8.99-.19-4.1-2.06-3.89-11.84-15.01-7.81-.27-5.32.31-10.71,0-16.02l-7.99.02c.09-1.33-.14-2.68,0-4,1.05-10.08,1.58-19.19,12-24,2.14-.99,8.32,1.32,11.7-.24,1.48-3.69-.47-8.47.3-11.76Z" style="fill: #4a4338;"/>
  <path d="M1380.3,1100c.03,4,.08,8.01,0,12h-16c.25-1.29-.26-2.72,0-4,1.84-9.15,3.51-18.63,4.04-27.98l11.96,19.98Z" style="fill: #bab1a9;"/>
  <path d="M120.3,700c1.17,26.55,1.85,28.54,8,52,2.01,7.67.78,19.28,4.6,27.51l7.4.49c.13,31.95-.05,64.05,0,96,.02,10.65-.04,21.35,0,32,.04,9.32-.17,18.68,0,28,.12,6.42-2.39,16.64,4,20-2.32,36.7,5.44,73.97,4,108-.04.88-3.42,8.87-4,16h-12c-3.07-10.56-4.05-11.86-4-24,.07-16.64,11.3-38.93-4-52,.89-5.41.17-14.01,0-20-.08-2.66.1-5.34,0-8-3.46-89.97-21.11-183.72-20-276h16Z" style="fill: #655b54;"/>
  <path d="M60.3,596c.29,11.82.63,24.22,0,36h-16c-.51-10.16.49-24.22,0-36h16Z" style="fill: #4a4338;"/>
  <path d="M56.3,576c.01,1.56,3.78,11.27,4,20h-16c-.39-9.46.2-17.86,0-24l12,4Z" style="fill: #655b54;"/>
  <path d="M140.3,876l7.99-.03.09,29.52-8.08,2.51c-.04-10.65.02-21.35,0-32Z" style="fill: #c2bab2;"/>
  <path d="M176.3,888c-.33,3.82,2.11,8.61,4,12-4.8.83-10.91-.45-16.02-.02v-11.97s12.02-.02,12.02-.02Z" style="fill: #c2bab2;"/>
  <path d="M40.3,540c.17,5.32-.03,10.67,0,16h-8c.26-5.32-.3-10.71,0-16.02l7.99.02Z" style="fill: #c2bab2;"/>
  <path d="M124.3,976c.1,2.66-.08,5.34,0,8h-8c1.1-1.27-2.93-10.92,8-8Z" style="fill: #c2bab2;"/>
  <path d="M40.3,516l-8-4c1.21-.53,2.47-3.1,4-4,.16,1.06,3.43,4.28,4,8Z" style="fill: #c2bab2;"/>
  <path d="M1096.3,1252c17.36,28.72-4.56,74.49,8.65,107.46l15.37.5v16.05s11.98-8.02,11.98-8.02c1.72,32.42,4.12,75.52,12,108-10.87-2.14-11.54,3.34-16.95,9.03-19.61,20.63-3.25,16.17-3.17,32.36.08,14.58-6.03,38.71-11.84,52.4l11.93,6.21c-3.36-18.09,19.47-36.65,23.08-50.94,2.85-11.31,6.74-24.42,8.94-33.06,4.63,10.99,13.62,8.33,24,8,1.63,6.32,13.9,12.83,4.37,25.55-4.03,5.39-55.2,7.38-16.01,37.02l-4.4,17.41c-12.9,2.2-14.91-11.98-26.09-4.32-21.55,14.75-8.14,38.72-9.83,40.32h-16.06c-.11,4,.05,8.01.03,12.02-.09,25.79,23,26.13,28,44,4.06,14.5-15.09,34.77-20.75,49.25-9.24,23.65-17.62,54.02-23.25,78.75-1.18,5.16-2.75,10.52-4,16-4.5,19.71-3.46,26.39-12,48-25.19,63.7-45.96,123.16-56,192l-14.06-31.98c-32.56,15.09-7.47,59.48-13.9,87.98,24.97-11.22-2.47-45.27,27.96-52-10.51,76.26-5.08,165.56-4,244-10.58-.8-11.19-4.32-12.25-13.76-2.75-24.51-2.55-66.19-2.95-92.24-.18-12.01,13.42-87.57-10.74-81.99-5.24,1.21-8,15.81-12.16,19.89-8.65,8.48-27.64,22.25-37.75,30.14-14.56,11.35-3.05,16.31-4.71,23.75-1.08,4.84-10.38,4.4-11.52,9.03-1.88,7.65-4.09,46.48-3.46,55.43.84,11.79,20.12,14.21,15.73,35.71l-11.76,2.26c-4.32,4.41,7.34,27.14-8.43,23.77-.91-9.57-2.96-18.57-4-28-1.91-17.24-3.4-34.4-6.72-51.49-1.39-7.12,1.62-14.87-9.28-12.51.58-9.45,10.04-9.56,11.18-23.06,1.25-14.88-2.24-32.39-2.74-47.35-.51-15.25,10.74-27.1-12.44-33.59,1.28-11.65-3.48-22.41-4.16-33.85-4.16-69.12,12.16-133.04,16.16-202.15,3.49-60.18-12.03-128.26-4-184,11.65-80.88,112.02-205.93,148-292,21.28-50.9,34.77-101.68,44-156ZM1128.28,1384.02h-7.96v15.96h7.96v-15.96ZM1164.28,1508.02h-7.96v7.96h7.96v-7.96ZM1004.28,1892.02c-15.72,0-15.93,15.87,0,15.96v-15.96ZM952.28,2143.98c1.02-9.89.31-21.05-11.96-19.96-1.02,9.89-.31,21.05,11.96,19.96Z" style="fill: #b7aea6;"/>
  <path d="M920.3,912l7.61.52.41,11.49,19.98-4.01c.37,10.68-1.83,21.77,1.82,32.2l26.18-.2c2.18,4.19,6.27,13.76,8,16-2.91,9.64,7.62,7.41,8,8,5.74,8.9-6.59,12.38-7.71,15.17-1.22,3.03.17,6.44-.29,8.83-15.49-.77-3.92,7.23-4,8-4.02,40.44,2.12,78.18,0,116-2.25,40.04-20.47,88.56-26.9,127.1-10.7,64.12-19.56,147.65-17.1,210.78.32,8.23,1.64,29.29,3.83,36.09,1.8,5.57-3.02,6.17,6.19,6.14,28.74-.1,7.58-32.85,5.77-45.89-15.36-110.26,34.33-227.9,40.21-334.21,1.48-26.71,2.32-53.57,4-80,11.44-.26,12.83-3.06,12.18,9.99-.67,13.52-7.39,24.17.02,37.89l19.24-4.56,8.55-15.33c2.97,7.63,13.11,13.23,16,32l-12.01.02-.02,9.96c1.13,4.11,8.45,1.54,12.02,2.02,5.07.68,10.81-.46,16,0,.2.28,5.89-.92,6.78,1.03,4.03,8.84,3.03,18.91,13.22,26.97-4.02,14.11-1.41,55.68-4.04,73.96-9.37,64.97-23.45,124.29-43.96,186.04-1.1,3.33-14.69,30.78-16,32-3.91,3.62-1.55-5.86-8,8-5.52,11.85-10.54,24.11-16,36-11.88-2.53-6.51,5.42-8,8-24.08,41.6-65.55,107.79-96,144-.58.69-7.87.08-11.68,6.17-5.84,9.33-9.82,32.03-18.04,42.36l-22.28-.53c1.6-5.77-3.57-12.17-4-16l7.86-.07c3.1-8.5-.23-22.95.14-27.93,3.5-47.34,40.75-89.4,44.01-138.08,2.43-36.25-18.22-61.66-16.15-96.07,1.99-33.05,16.47-75.77,20.09-111.89,9.76-97.3,4.42-201.33,12.08-299.92,1.92-24.65,4.12-55.09,11.96-78.04ZM935.52,948.93c-1.77-1.14-2.89-2.26-5.21-.94-13.45-1.42-2.19,21.26.81,27.04,4.38,8.44,14.8,2.57,5.2,24.95,16.98.25,16.78-19.11,39.98-11.99,2.64-23.43-18.54-16.43-30.3-23.68-5.84-3.6-8.52-14.11-10.48-15.37Z" style="fill: #beb5ad;"/>
  <path d="M1020.3,2304c.59,42.74,7.03,86.6,4.16,130.16-2.47,37.51-24.32,101.93-10.33,134.01,5.49,12.58,18.37,26.65,26.17,39.83-12.5,15.54,5.21,25.7,7.25,34.93,4.53,20.5-34.39,54.4-55.22,43.01l-36.03-37.94c-2.06-15.05-9.31-34.95-12-56-11.69-91.62-15.26-184.14-24-276,15.77,3.37,4.11-19.36,8.43-23.77l11.76-2.26c4.39-21.5-14.9-23.92-15.73-35.71-.63-8.95,1.58-47.78,3.46-55.43,1.14-4.63,10.45-4.18,11.52-9.03,1.65-7.45-9.86-12.4,4.71-23.75,10.11-7.88,29.1-21.65,37.75-30.14,4.17-4.09,6.92-18.68,12.16-19.89,24.16-5.58,10.56,69.98,10.74,81.99.39,26.06.2,67.74,2.95,92.24,1.06,9.44,1.67,12.96,12.25,13.76Z" style="fill: #b4aca4;"/>
  <path d="M1112.3,1828c-1.53,23.18-19.09,46.8-26,68-21.66,66.43-44.74,144.44-49.96,214.04-7.5,100.09,12.35,207.13,8.13,308.13-1.6,38.2-20.07,116.04-7.76,147.43,8.03,20.48,33.3,47.08,35.49,72.68.79,9.24-6.51,25.36-15.83,17.73-1.59-1.3-3.28-27.3-5.16-32.95-2.52-7.56-7.98-10.11-10.91-15.05-7.8-13.18-20.68-27.24-26.17-39.83-13.99-32.08,7.86-96.5,10.33-134.01,2.87-43.56-3.58-87.43-4.16-130.16-1.08-78.44-6.51-167.74,4-244,.18-1.31-.19-2.7,0-4,10.04-68.84,30.81-128.3,56-192l11.94,7.99c6.43-6.15,3.89-44.91,20.06-43.99Z" style="fill: #655b54;"/>
  <path d="M856.3,1816c-.57,29.79,7,48.69,12,76,1.6,8.73,2.15,18.25,4,28,2.41,12.67.6,29.44,10.02,39.98,6.34-9.3,4.54-21.86,5.98-31.98,2-14.09,5.55-23.6,4-40-.05-2.44,3.96-3.72,4-4h12c-4,69.11-20.32,133.03-16.16,202.15.69,11.44,5.45,22.2,4.16,33.85-3.2-.9-8.95,1.12-13.32-.53-7.99-3.01-10.57-35.42-10.85-45.26-.77-26.78,7.61-54.35,4.46-80.42-.44-3.66-16.64-21.79-19.18-28.91-13.7-38.37-7.62-106.78-9.1-148.88h8Z" style="fill: #56493f;"/>
  <path d="M1052.3,1408c-35.98,86.07-136.35,211.12-148,292h-12c0-.72-4.45-6.2-4.45-13.71,0-16.04,7.6-37.5,8.45-54.29,30.45-36.21,71.92-102.4,96-144,11.47,2.27,6.46-4.66,8-8,5.46-11.89,10.48-24.15,16-36,7.32,1.43,9.24-.75,8-8,1.31-1.22,14.9-28.67,16-32l12,4Z" style="fill: #56493f;"/>
  <path d="M1132.3,1880c-.04.46,3.93,2.71,3.29,8.68-1.19,11.04-9.33,22.95-7.27,35.3l15.98-15.98c.24.9,3.27,2.38,4,4-5.72,3.53-14.7,53.4-16,64-.32,2.6.28,5.39,0,8-.42,3.92.41,8.08,0,12-2.63,25.26-2.43,50.74-4,76-.49,7.92-3.31,20.42-4,32-.24,3.98.22,8.02,0,12-2,35.75-3.17,56.91-8,92h-16c13.66-83.93,9.1-169.28,16.04-253.96,1.95-23.81,6.18-52.28,15.96-74.04Z" style="fill: #726761;"/>
  <path d="M916.3,2288c1.04,9.43,3.09,18.43,4,28,8.74,91.86,12.31,184.38,24,276-6.64-1.4-8.92,3.01-12,8-10.03-103.78-17.58-207.73-24-312h8Z" style="fill: #655b54;"/>
  <path d="M1100.3,2632c-.25,10.64.36,21.37,0,32-1.01.75-5.68-.65-7.99,0-2.48,5.32,3.97,11.12,3.99,12,.1,4.45.16,26.56,0,28-.57,5.11-6.89,12.48-8,24-1.84,19.06-1.57,36.7-4,56-.9,7.12-3.12,13.57-4,20-1.69,12.37-2.16,52.99-8,60-16.3,1.17-9.89.62-11.87-9.92-10.72-56.8,21.78-162.58,31.87-222.08,2.56.31,5.57-.47,8,0Z" style="fill: #655b54;"/>
  <path d="M1096.3,2340c4.02,3.13,3.5,7.61,4,12,3.4,29.97-.68,68.58,0,100,.06,2.66-.07,5.34,0,8,.71,25.49.69,50.64,4,76,.65,5-1,11.55,0,16-8.2-.73-12.72,4.48-16.64-5.45-13.75-34.85.6-91.74,1.03-128.54.28-24.25-6.8-53.61-7.07-76.91-.04-3.12,2.67-4.79,2.67-5.1,2.77,2.86,10.3,2.68,12,4Z" style="fill: #726761;"/>
  <path d="M944.3,2592c2.69,21.05,9.94,40.95,12,56,2.92,21.36,5.67,45.63,7.81,66.21,1.77,17.05,11.75,66.16-9.79,69.83-9.14,1.56-5.56-3.98-6.02-9.97-3.32-42.5-7.33-83.9-12-126.08l3.36-2.48-3.36-5.52c-1.43-13.3-2.71-26.68-4-40,3.08-4.99,5.36-9.4,12-8Z" style="fill: #56493f;"/>
  <path d="M868.3,1892c13.04-18.78-1.98-45.23-2.62-62.57-.83-22.6,5.92-51.38,2.64-75.4l11.96-10,12.02,19.98c-.04,2.67.06,5.34,0,8-20.56-3.72-9.88,12.18-9.45,22.7.22,5.34-3.36,11.52-2.86,14.88.72,4.79,7.55,1.65,8.31,2.42,3.3,3.34,7.35,14.85,8,20-10.62.31-13.13-4.07-10.95,8.96,2.11,12.64,5.92,36.14,6.95,47.04,1.55,16.4-2,25.91-4,40l-16-8c-1.85-9.75-2.4-19.27-4-28Z" style="fill: #beb5ad;"/>
  <path d="M904.3,1700c-8.03,55.74,7.49,123.82,4,184h-12c1.58-11.79,1.5-40.12,0-52-.65-5.15-4.7-16.66-8-20,4.18-12.39,3.72-26.96,4-40,.06-2.66-.04-5.33,0-8,.32-21.27-.07-42.72,0-64h12Z" style="fill: #726761;"/>
  <path d="M1116.3,2208c-1.93,14.01-1.89,31.41-4,44-1.8,10.78-6.16,21.22-8,32-1.93,11.31-2.06,25.22-4,36-.83,4.59-7.45,11.91-4,20-1.7-1.32-9.23-1.14-12-4,.31-51.03,8.15-79.75,16-128h16Z" style="fill: #56493f;"/>
  <path d="M848.3,1816c-.68-19.2-3.33-41.35-3.8-62.18-.25-10.81-10.68-28.7,9.78-25.85,5.3.74,6.21,69.93,6.18,78.34-.02,5.13-4.15,9.15-4.16,9.68h-8Z" style="fill: #726761;"/>
  <path d="M1108.3,2560c.95,1.42,2.95,2.5,4,4-2.88,3.28-3.35,29.39-4,36-1.07,10.78-1.4,21.42-4,32-1.31-.15-2.73.24-4,0-2.43-.47-5.44.31-8,0,3.17-18.68,4-39.14,7.43-58.78,1.3-7.47-3.3-15.56,8.57-13.22Z" style="fill: #726761;"/>
  <path d="M900.3,2224c10.9-2.35,7.89,5.39,9.28,12.51,3.33,17.08,4.82,34.25,6.72,51.49h-8c-1.21-19.72-9.18-44.77-8-64Z" style="fill: #726761;"/>
  <path d="M1148.3,1724c-7.02,12.49-1.16,30.58-3.93,41.38-1.08,4.19-7.85,2.26-8.07,2.62v-7.99s-8,0-8,0c5.19-14.42-1.58-31.84,20-36Z" style="fill: #726761;"/>
  <path d="M1132.3,1868c-6.77-11.57-6.69-32.92,0-44,1.73,21.24.98,24.76,0,44Z" style="fill: #726761;"/>
  <path d="M1152.3,1880c-.27,6.9-2.17,13.43-4,20h-4c-1.03-6.97-8.42-20.58,8-20Z" style="fill: #726761;"/>
  <path d="M1132.3,1816c-.09-.88-3.82-2.87-3.74-6.02.08-3.36,3.66-5.21,3.74-5.98,6.02.56,6.02,11.44,0,12Z" style="fill: #726761;"/>
  <path d="M1120.3,1784l-3.79-2.45c-.56-3.02,3.43-4.49,3.79-5.55l3.51,2.48c.65,2.85-3.37,4.65-3.51,5.52Z" style="fill: #655b54;"/>
  <path d="M1120.3,1792c-1.31,6.19-3.91,7.56-4,8l-3.98-7.97,7.98-.03Z" style="fill: #655b54;"/>
  <path d="M1116.3,1812c-.4,3.37,0,6.88-4,8-.07-.47-5.66-3.44-3.98-7.97l7.98-.03Z" style="fill: #655b54;"/>
  <path d="M936.3,2648c-.05-.41-3.02-1.82-3.42-5.52-.35-3.24,3.44-2.27,3.42-2.48l3.36,5.52-3.36,2.48Z" style="fill: #655b54;"/>
  <path d="M1308.3,1224l4.2,15.81,15.8.19c-2.31,15.37-5.14,25.77-8,40l-7.89.05c1.98,9.08-3.87,19.12-3.93,26.72-.05,5.96,3.81,8.73,3.82,9.23.3,7.86-.79,16.37,0,24,2.47,23.99,6.84,1.77,8,0,11.67-17.72,6.59-22.33,12-40l24.12,33.87,7.88,18.13c-10.31,36.33-41.05,111.13-64,140-5.76,7.25-40.4,29.8-46.7,37.31-24.19,28.86-36.16,64.49-53.3,90.69-11.86,18.13-20.82,21.96-16,48-14.75,1.6-13.95,7.05-32,4-1.85-18.04-21.01-43.28-40-44,.01-4.01-.14-8.02-.03-12.01h16.06c1.69-1.61-11.72-25.59,9.83-40.33,11.19-7.65,13.19,6.52,26.09,4.32l4.4-17.41c-39.19-29.63,11.98-31.63,16.01-37.02,9.53-12.73-2.74-19.23-4.37-25.55-2.08-8.05-4.5-15.42-4-24,41.29-7.2,24.56-14.07,32.86-41.14,8.38-27.31,32.52,5.26,19.15,25.11l15.55-.44c.76-11.57,8.08-22.18,8.67-33.67.54-10.52-4.57-19.52-4.08-27.66.12-2.05,10.89-37.42,11.83-39.24,3.47-6.69,17.8-8.07,24.03-10.96,12.93-6.01,5.35-5.4,8-8,.63-.62,5.67,1.24,7.58-.61,2.7-4.19-3.54-6.81-3.58-7.39-1.46-21.07,1.88-46.61,4-68,1.52-15.39,6.89-28.81,8-40Z" style="fill: #beb5ad;"/>
  <path d="M1152.3,1672c-3.67-.62-8.14.41-12,0-5-17.87-28.09-18.21-28-44,18.99.72,38.15,25.96,40,44Z" style="fill: #655b54;"/>
  <path d="M1096.3,1800l3.99,15.98-7.99.02c1.25-5.48,2.82-10.84,4-16Z" style="fill: #655b54;"/>
  <path d="M1380.3,1112c-.64,32-3.08,63.12-4,96l-16.02-.02c-1.13,5.33,1.67,21.8.01,24.06-.7.94-6.57-.95-7.99-.03,2.33-41.35,4.22-79.21,12-120h16Z" style="fill: #beb5ad;"/>
  <path d="M1348.3,1256l17.67-4.1,4.94,8.06,5.39.05v48c-2.62.58-3.91.98-4,4-12.15-1.45-14.35-18.98-32-20,3.17-11.6,5.47-24.2,8-36Z" style="fill: #beb5ad;"/>
  <path d="M1376.3,1208c-.48,17.25,0,34.73,0,52l-5.39-.05-4.94-8.06-17.67,4.1c1.11-5.2-1.21-20.63,4-24,1.42-.92,7.3.98,7.99.03,1.66-2.25-1.15-18.73-.01-24.06l16.02.02Z" style="fill: #bab1a9;"/>
  <path d="M1340.3,1292c17.65,1.02,19.85,18.55,32,20,3.43,15.52-4.39,27.27-8,40l-7.88-18.13-24.12-33.87c1.5-4.89,7.85-7.45,8-8Z" style="fill: #bab1a9;"/>
  <path d="M600.3,284c.05-7.24,12.75-38.31-2.57-43.45-8.08-2.71-20.35,4.95-17.43-8.5,16.2,2.3,17.22-13.24,27.96-20.05,4.35,7.73-.34,20.37.42,25.3.59,3.78,7.17,5.28,7.62,6.7,16.01,50.52,32.17,100.55,48,152-11.54,7.3-4.98,15.02-4,24-19.88,2.93-16.24-17.84-20.57-31.53l-7.43-.47c-1.04-4.12-1.93-18.44-4-20l-.18-7.79-7.82-.21c-3.19-24.3-20.09-61.1-20-76Z" style="fill: #361c12;"/>
  <path d="M444.3,504c-2.19.9-6.07,13.63-18.11,15.91-17.5,3.32-43.09,1.79-57.89-7.91-7.54-4.94-11.07-15.53-12-16,13.58-6.97,11.86-34.7,29.69-35.63,42.89-2.24,33.07,23.78,58.31,43.63Z" style="fill: #bcaba2;"/>
  <path d="M512.3,516c-1.34-9.02-2.78-40.46,6.48-43.52l13.51-.49c-2.21,13,2.08,24.04,4.02,36.02,2.28,14.12,2.64,51.29,18.6,55.53,13.92,3.69,11.31-9.74,13.4-11.53,4.59-3.92,21.64-12.3,28-16l4.63,19.48,15.38.55v7.98c-6.83-2.54-16.5-4.3-23.89-7.94l-12.12,27.94c-3.27-.76-8.17.39-12,0-13.57-1.38-23.16,4.39-34.29-7.71-4.04-4.4-20.63-53.02-21.71-60.29Z" style="fill: #56493f;"/>
  <path d="M460.3,504c-.5.62.67,4.3-1.21,6.73-4.41,5.72-15.53,5.41-10.77,17.25l15.98.02c-.57.48-.48,6.67-4.05,9.86-10.66,9.52-67.74-2.17-86.07,2.2-8.41-1.56-14.77-16.37-21.88-20.06,6.98.68,13.92-.66,16-8,14.8,9.7,40.39,11.23,57.89,7.91,12.04-2.28,15.91-15.01,18.11-15.91,3.2-1.31,11.6.91,16,0Z" style="fill: #655b54;"/>
  <path d="M632.3,388l7.43.47c4.33,13.69.7,34.46,20.57,31.53,5.87,53.9-2.11,79.91-4,128-2.65-.14-5.36.21-8,0,.63-9.18-.91-18.91,0-28,4.76-47.34-4.37-85.92-16-132Z" style="fill: #56493f;"/>
  <path d="M632.3,540c5.15,2.97.96,6.78,16,8,2.64.21,5.35-.14,8,0-.38,9.69,2.95,15.8,4,24,.66,5.18-.45,10.76,0,16-4.91-.78-10.87.53-16,0-4.53-14.93-15.68-19.4-28-24v-7.98s-15.37-.55-15.37-.55l-4.63-19.48c.9-.53,1.6-4.88,4.14-6.04,13.84-6.31,21.2,3.89,31.86,10.04Z" style="fill: #361c12;"/>
  <path d="M336.3,384c8.72-1.48,49.11-1.08,31.95,13.95-1.65,1.44-36.35,20.59-38.51,20.93-8.17,1.32-26.45-6.51-37.41-2.9,3.07-22.84,23.02,1.01,39.93-18.18,5.73-6.5,2.66-10.16,4.05-13.8Z" style="fill: #b86347;"/>
  <path d="M484.3,512c-5.92,11.87-15.1,11.85-20,16l-15.98-.02c-4.76-11.84,6.36-11.53,10.77-17.25,1.88-2.43.71-6.11,1.21-6.73,2.73-3.42,18.89-20.63,21.94-19.98,9.91,7.63,6.82,18.44,2.06,27.98Z" style="fill: #40322a;"/>
  <path d="M568.3,552c-2.1,1.79.52,15.22-13.4,11.53-15.96-4.24-16.31-41.41-18.6-55.53,23.11-2.38,15.79,33.66,32,44Z" style="fill: #bcaba2;"/>
  <path d="M648.3,520c-.91,9.09.63,18.82,0,28-15.04-1.22-10.85-5.03-16-8,15.72,3.98,7.04-18.91,7.99-19.98l8.01-.02Z" style="fill: #b87864;"/>
  <path d="M620.3,360l7.82.21.18,7.79c-3.77-2.84-6.1,6.46-8-8Z" style="fill: #56493f;"/>
  <path d="M844.3,664c-1.29.93-2.38,2.85-4,4-1.74,1.24-7.08-2.43-8.02,2.04-2.1,9.9,4.95,4.31,8.02,5.96,5.19,2.78,7.67,5.03,12,8v7.99s8,0,8,0c1.75,3.5,3.35,11.22,4,12l.15,7.83,7.85.17c3.05,3.86,57.35,50.56,41.96,52.04-7.58,1.38-15.33-3.59-21.96-4.04l-2.02-16.02h-13.96s-.02,16.02-.02,16.02c-7.3-.62-13.76-3.36-20-4,1-6.56,1.26-15.23,4.2-21.05,2.14-4.25,10.8-1.47,7.79-8.91l-27.98-18.04c-2.31-5.23-5.24-6.55-8-16-.9-3.07.7-8.32-.02-12-15.75-3.47-10.42,6.47-11.98,8s-12.2-3.22-8.05,15.92l-16.92.99-31.03,15.08c-36.77,10.51-21.26,23.97-30.03,43.97-2.66,6.06-20.87,16.37-29.97,32.03-3.45,5.94-5.26,10.83-8,16l-19.98,3.98c-4.71-10.27,7.87-6.6,8.25-10.46.36-3.79-2.88-8.38-2.78-12.09.28-9.59,7.04-19.04-3.94-25.29-2.58-.71-5.02,3.84-5.55,3.87-3.89.21-14.71-.85-16,0-3.13-8.52-11.91-9.02-16-12-6.07-4.42-13.3-11.05-20-16,1.1-9.35-1.66-16.43-12-16-.38-2.39.03-5.4,0-8-.06-5.34-.06-10.7,0-16.02l12.01.02c2.64.18,5.38-.26,8,0-2.39,15.86,11.3,18.9,12,20,5.75,9.02-1.53,18.52,22.23,23.8,11.67,2.6-.23-17.54-2.23-19.8l12-4c5.72,6.02,26.51,26.18,33.73,23.91l30.27-59.91,4-4c12.74,2.53,22.39-7.82,34.04-8.3,21.89-.89,14.51,10.34,36.91-3.56,10.33-6.41,23.29-13.04,33.05-20.15v12ZM880.28,732.02h-7.96v7.96h7.96v-7.96Z" style="fill: #40322a;"/>
  <path d="M680.3,604c1.86.87,6.59-.9,8,0,1.16.74,11.16,10.23,20,16,4.03,2.63,7.98,5.37,12,8,7.39,4.83,1.09,9.08,20,12-1.24,5.86,1.22,7.94,4,12,1.42,2.07,2.97,7.44,4,8,1.44,9.49-1.93,17.01-8,24l-4,4c-31.31-5.89-46.21-16.28-61.53-44.47-7.66-14.09-7.28-42.01-26.47-39.53.74-.31,2.37-7.78,10.07-8.26,5.05-.31,16.31,5.63,21.93,8.26Z" style="fill: #c7856f;"/>
  <path d="M540.3,816c-1.52,42.16,7.5,83.48,3.48,125.48-1.95,20.34-3.87,47.85-27.48,50.52,4.15-17.14,11.82-36.2,12.26-53.98.87-34.6-12.23-72.24-4.04-107.79,2.16-9.38,6.12-13.37,15.77-14.23Z" style="fill: #532d1d;"/>
  <path d="M616.3,564c12.32,4.6,23.47,9.07,28,24-5.44,2.68-2.88,8.62-4,12-.67,2.04-4.08,4.77-4,8-9.33,2.73-18.1,4.81-28,4,2.08-8.19-9.14-12.22-16-16-1.02-.56-2.98.57-4,0,2.17-4.67-4.31-11.14-8-12l12.12-27.94c7.39,3.63,17.06,5.39,23.88,7.94Z" style="fill: #b87864;"/>
  <path d="M656.3,772c-.44.29-.3,6.8-4.18,9.65-18.69,13.72-40.31,25.12-63.82,26.35-3.98.21-8.01-.14-12,0,.72-1.66-1.21-6.14.2-8.99,6.08-12.22,38.57-19.76,53.27-27.75,5.54-3.02,12.68-1.51,10.54-11.26,4.09,2.98,12.87,3.48,16,12Z" style="fill: #4a4338;"/>
  <path d="M672.3,724l-12,4c-3.99-4.49-17.52-12.96-20-4-.7-1.1-14.39-4.14-12-20,10.51,1.05,21.66-2.48,31.94,2.06,9.48,4.19,9.65,15.4,12.06,17.94Z" style="fill: #56493f;"/>
  <path d="M660.3,588c7.84,1.25,21.45,6.35,20,16-5.62-2.63-16.87-8.58-21.93-8.26-7.71.48-9.33,7.95-10.07,8.26-1.12.47-2.82-.45-4,0l-4-4c1.12-3.38-1.44-9.32,4-12,5.13.53,11.09-.78,16,0Z" style="fill: #56493f;"/>
  <path d="M608.3,720l-7.99.02,1.76-20.27,18.22-3.75v7.99s-12-.02-12-.02c-.05,5.32-.05,10.68,0,16.02Z" style="fill: #56493f;"/>
  <path d="M592.3,596c6.86,3.78,18.08,7.81,16,16-12.33-1.01-17.06-.83-16-16Z" style="fill: #c7856f;"/>
  <path d="M620.3,744c-6.02-4.45-9.01,2.82-12-16,10.34-.43,13.1,6.65,12,16Z" style="fill: #56493f;"/>
  <path d="M420.28,592.02v11.96c-4.97,5.37-24.72-16.2,0-11.96Z" style="fill: #c2bab2;"/>
  <path d="M488.28,612.02c4.1,4.15-7.94,16.03-11.96,11.96-4.1-4.15,7.94-16.03,11.96-11.96Z" style="fill: #c2bab2;"/>
  <path d="M644.3,604c-2.03.77-3.96,2.82-8,4-.08-3.23,3.33-5.96,4-8l4,4Z" style="fill: #c7856f;"/>
  <path d="M580.3,584c3.69.86,10.17,7.33,8,12-6.93-3.85-13.5-7.38-20-12,3.83.39,8.73-.76,12,0Z" style="fill: #c7856f;"/>
  <path d="M860.3,376c.68,1.2,17.66,8.8,23.57,14.44,6.34,6.04,12.97,20.23,20.51,23.51,6.53,2.83,18.54,1.21,19.68,2.31s-1.43,19.09,10.3,23.7c8.5,3.34,5.38-4.54,4.96-8.94-.92-9.7-5.46-20.12-3.04-31.04,2.32-2.32,57.85,6.36,64.92,9.11,8.91,3.45,17.39,16.04,26.16,18.16,6.66,1.61,10.75-3.22,12.92-3.25s8.23,4.41,12,4c-.14,1.32.09,2.67,0,4-.8,11.88.52,24.12,0,36.03l7.99-.03c0,9.32,0,18.68,0,28v8c-1.28,0-2.78-.22-4,0-3.66.66-8.39-.96-12.12,1.86-4.09,2.55-3.09,6.54-3.88,10.14-.74,3.37.41,8.16,0,12-1.09,10.27.16,11.58,0,16-.09,2.66,0,5.34,0,8-.02,6.19-.87,6.08,0,16,1.71,19.52-12.64,16.89-28,16l3.98-51.98c-20.83-3.01-23.85,10.45-23.98,27.98-.03,3.99-.15,8.02,0,12l-3.99,76.03c2.65.1,5.32-.03,7.99-.03,14.87,0,17.73-6.1,20.05-19.99l5.92.02c3.04,1.04,4.36,6.66,6.02,7.97.92,4.19-1.32,13.31,0,16-7.26-1.78-10.28,7.12-12,8-3.76,1.91-14.47-4.56-11.94,5.91l23.94,34.09c1.29,4.01,2.77,8.04,4,12,2.44,7.87-.77,22.56,12,20,1.61,6.55,2.15,13.34,4,20,4.22,15.18,5.95,4.97,8,8,1.12,1.66,7.91,30.75,9.76,36.18,4.98,14.59,21.5,51.55,22.24,63.82.1,1.7-11.7,9.69,4,8-.13,2.65.19,5.36,0,8-.03.43-3.58,1.8-3.06,5.12,2.26,14.48,11.63,15.01,23.06,14.88,1.05,2.43,3.99,7.55,4,8,.08,2.65.04,5.34,0,8-1.33,88.29-4.32,148.92-28,232-10.19-8.06-9.19-18.12-13.22-26.97-.89-1.95-6.57-.75-6.78-1.03-.7-.98.17-8.84,0-12,23.78,5,7.87-28.96,8.41-38.22.42-7.21,11.38-15.45,7.56-25.77l-19.95,3.97c.36-17.98,4.38-22.57-16.02-19.98-1.05-2.75-2.89-5.26-4-8-1.53-3.77-2.28-4.88-4-8-1.36-2.47-.99-9.47-4-12v-8c3.26-.38,14.02-.74,16,0,.59.22,3.57,6.96,8.96,8.85,13.07,4.56,25.45,9.36,38.79,2.83l.27-11.66c-15.53,2.15-31.16-3.81-44.03-12.01-26.91-17.17-54.92-53.29-64-84,11.51-6.43,16.44-12.29,16.16-25.94-.28-13.82-23.39,1.26-27.86-12.6-4.91-15.24,35.05-65.72-8.29-61.48l-4.44,39.58-31.58.43c2.2-24.95-25.89-34.77-47.99-28.02.72-16.89,6.22-22.18,16.03-33.93l-16.04-10.04c1.32.12,2.67-.09,4,0,6.64.45,14.38,5.43,21.96,4.04,15.39-1.48-38.91-48.18-41.96-52.04-5.44-6.9-7.53-7.44-8-8-.65-.78-2.25-8.5-4-12-.59-1.18,1.3-5.17-.75-7.22-1.98-1.97-6.36-.17-7.25-.78-4.33-2.97-6.81-5.22-12-8v-8c1.62-1.15,2.71-3.07,4-4,4.02-2.89,6.22-6.7,8-8,5.59-4.09,29.54-20.79,33.9-20.03l18.16,69.49c21.24,10.49,24.11-46.88,45.97-9.46,27.27-8.64,4.25-24.11,3.86-39.65-.09-3.42,4.66-13.89,6.11-20.35,2.55-11.39-.09-11.29,0-12,2.61-20.11,5.69-39.76,8-60,.6-5.26-.06-7.52,0-8,.63-5.15-.68-10.88,0-16,.69-5.19,3.18-8.46,4-12,.22-.93,3.24-3.28,4-8,.97-5.98,2.4-13.83-6.02-12.06-12.87,2.71-30.79,10.81-33.98,24.06-.57,2.35.59,5.7,0,8-18.45-4.91-15.14,7.28-16,8-2.29,1.91-9.46-.29-12,8h-8c.53-21.14.55-42.86,0-64-.1-3.99.12-8.01-.02-11.98-12.17-1.39-18.14,4.4-19.98,15.98-2.22,14.03.04,36.54,0,52,0,.35-2.76,1.63-2.7,4.8.03,1.4,2.67,2.41,2.7,3.2.21,7.9-.69,16.21,0,24,.96,10.85,3.54,21.15,4,32-6.04,7.25,3.38,14.87-16,8,6.63-40.42-8.15-87.3-6.54-125.36.92-21.63,11.32-47.24,10.54-70.64-.09-2.66.11-5.34-.02-7.97l-5.99-.06-9.99,8.03c-.29,2.58.44,5.54,0,8l-7.99-.02v16.02c-.48.47-1.43,5.01-4.01,8l-16.02,1.99.04-18.01-23.8-.4-.24-11.59c-16.58,1.42-17.38,6.64-19.99,20.01h-16.02c1.34-11,.35-22.52.02-32-.09-2.62.33-5.46,0-8l12-24c21.2,10.23,70.2,19.91,80-8Z" style="fill: #b7aea6;"/>
  <path d="M832.3,692c2.76,9.45,5.69,10.77,8,16,1.76,3.98,9.54,18.58,7.98,19.98-19.03,3.06-58.83-10.89-60.13,17.93-.4,8.85.46,5.05,6.12,6.02,14.14,2.43,31.61,2.61,46.03,4.07-8.17,29.08,27.81,6.26,27.98,27.98l-36.21-2.36c-1.83,25.27-25.27,25.14-27.83,46.38l-7.88-.07c.06-13.71-17.75-11.92-28.07-11.93-7.41-15.63-6.05-31.88-32-32-9.88-.05-16.13,2.34-20,12h-12c9.11-15.66,27.32-25.97,29.97-32.03,8.77-20-6.74-33.47,30.03-43.97,16.56-4.73,38.74-3.83,56.02-3.98l-.02-28.02,12,4Z" style="fill: #b7aea6;"/>
  <path d="M984.3,876l4,8c.12,5.48,3.67,6.88,4,8,9.08,30.71,37.09,66.83,64,84l-4,12c-1.98-.74-12.74-.38-16,0-24.21,2.83-.85,7.29,0,8,3.01,2.53,2.64,9.53,4,12l-3.98,7.97,7.98.03c1.11,2.74,2.95,5.25,4,8,3.65,9.54,4.66,22.04,8,32l-20,4c-3.5-11.2-3.44-6.08-8-12,.11-12.82-6.18-33.97-20-36-1.37-3.92-2.7-8.05-4-12-2.22-6.75-2.02-15.91-4.13-21.04-1.97-4.8-7.48-2.51-7.87-2.96-3.94-4.55-7.57-7.44-8-8-1.73-2.24-5.82-11.81-8-16-.6-1.15,1.53-5.63-.64-7.25-3.3-2.46-13.64.74-17.69-4.6-2.95-3.71,9.42-37.11-9.67-36.15v-20c2.43-2.21.38-12.68,14.97-15.37,13.45-2.48,13.37,3.13,21.03,7.37Z" style="fill: #4a4338;"/>
  <path d="M736.3,784c5.46,26.8,18.74,45.07,44,56,1.61.7,2.92,2.58,4,4-2.25.99-6.92,19.36-8,24-8.25,35.27-1.8,64.59,0,100,.25,4.98,3.7,10.98,4,16,.31,5.29-.11,10.69,0,16,.03,1.33,0,2.67,0,4-25.81,4.34-12.6-10.18-16.2-25.81-5-21.71-16.26-74.11-14.52-95.69.72-8.93,9.06-16.77,6.13-27.61-2.55-9.46-35.32-31.91-39.41-46.89.7-3.54-1-9.5,0-12,3.87-9.66,10.12-12.05,20-12Z" style="fill: #40322a;"/>
  <path d="M776.3,968c11.64.26,12.69,3.07,12.16-9.99-.73-17.72-13.17-65.89,3.75-76.1,6.62-3.99,14.28-4.88,12.09,6.09,3.3,47.89,7.73,96.26-.11,143.94l-15.87.08c-.4-10.62.46-21.41-.02-32.02-.24-5.33.29-10.71,0-16.02l-7.99.02c-.3-5.02-3.75-11.02-4-16Z" style="fill: #655b54;"/>
  <path d="M840.3,708l27.98,18.04c3.02,7.43-5.64,4.66-7.79,8.91-2.94,5.82-3.2,14.49-4.2,21.05-5.24-.53-10.76.53-16,0-14.42-1.45-31.89-1.64-46.03-4.07-5.66-.97-6.52,2.83-6.12-6.02,1.3-28.82,41.1-14.87,60.13-17.93,1.56-1.4-6.22-16-7.98-19.98Z" style="fill: #4a4338;"/>
  <path d="M784.3,844c3.8-1.68,16.8,1.16,26.99-3.03,17.2-7.09,17.91-34.26,40.99-28.95,5.79,5.55-31.57,46.67-37.41,52.61-4.58,4.66-2.8,10.41-14.57,7.37-5.02-1.89-17.51-.1-24-4,1.08-4.64,5.75-23.01,8-24Z" style="fill: #655b54;"/>
  <path d="M800.3,872c1.01.38,5.42,9.68,11.96,8.08l-.28,7.72-7.68.21c2.18-10.97-5.48-10.09-12.09-6.09-16.92,10.21-4.48,58.38-3.75,76.1.54,13.06-.51,10.25-12.16,9.99-1.8-35.41-8.25-64.73,0-100,6.49,3.9,18.98,2.11,24,4Z" style="fill: #b7aea6;"/>
  <path d="M768.3,816c4.01,8.47,9.28,15.24,12,24-25.26-10.93-38.54-29.2-44-56,25.95.12,24.59,16.37,32,32Z" style="fill: #b87864;"/>
  <path d="M948.3,884v20c0,5.32-.19,10.69,0,16l-19.98,4.01-.41-11.49-7.61-.52c1.1-3.21-2.03-9.52,4-12,4.6-1.79,20.54-12.85,24-16Z" style="fill: #b7aea6;"/>
  <path d="M788.3,1120c17.55,3.29,11.31,14.22,12.05,29.67l-10.06,2.41c-3.4-12.12-16.15-20.59-17.99-32.08,5.07.6,11.28-.88,16,0Z" style="fill: #c2bab2;"/>
  <path d="M960.29,844.02c4.69,4.18-19.86,28.66-23.96,23.96-2.27-17.18,6.55-26.24,23.96-23.96Z" style="fill: #b7aea6;"/>
  <path d="M892.3,1004l-4,20c-6.94-3.04-11.72-8.1-12-16,5.31-2,9.93-4.7,16-4Z" style="fill: #b7aea6;"/>
  <path d="M876.3,760l.02-16.02h13.96s2.02,16.02,2.02,16.02c-1.33-.09-2.68.12-4,0-3.94-.36-8.05.34-12,0Z" style="fill: #4a4338;"/>
  <path d="M896.3,968c-.76,5.62-.52,11.06-4,16h-7.99s-.02-15.99-.02-15.99h12.01Z" style="fill: #b7aea6;"/>
  <path d="M896.28,872.02c6.34,6.34-5.61,18.3-11.96,11.96s5.61-18.3,11.96-11.96Z" style="fill: #b7aea6;"/>
  <path d="M872.3,1044c.37,2.64,7.26,9.15,3.98,15.98l-5.94.04-2.04-16.02h4Z" style="fill: #b7aea6;"/>
  <path d="M780.3,984l7.99-.02c.3,5.32-.23,10.7,0,16.02h-8c-.11-5.31.31-10.71,0-16Z" style="fill: #b7aea6;"/>
  <rect x="856.33" y="796.02" width="11.96" height="7.96" style="fill: #b7aea6;"/>
  <path d="M984.3,876c1.39.77,5.6-.64,8.02.02,1.7,3.75-4.03,7.38-4.02,7.98l-4-8Z" style="fill: #b7aea6;"/>
  <path d="M720.3,876c.93-12.42-2.08-26.97,15.96-27.98,13.7,10.01-1.6,131.2-4.08,154.03-.82,7.54,4.86,16.17-7.87,13.95-8.55-24.78-4-42.67-4-72,0-13.29-.28-26.72,0-40,.19-9.25-.69-18.81,0-28Z" style="fill: #4a4338;"/>
  <path d="M672.3,772c.52-.03,2.97-4.58,5.55-3.87,10.98,6.26,4.22,15.7,3.94,25.29-.11,3.71,3.14,8.3,2.78,12.09-.37,3.86-12.96.19-8.25,10.46l19.98-3.98c-4.93,9.28-3.41,10.73-18.76,15.33-15.81-2.88-21.52-23.43-16.74-36.85,3.65-10.27,24.55-.87,11.5-18.48Z" style="fill: #655b54;"/>
  <path d="M720.3,904c-.28,13.28,0,26.71,0,40l-7.99.03-4.07-37.98,12.06-2.05Z" style="fill: #b7aea6;"/>
  <path d="M848.3,1092c.23,6.67,3.95,11.22,4,12,.5,7.82-.87,16.44,0,24,.79,6.83,3.26,11.43,4,16,.38,2.37,0,5.42,0,8v8c-4.14,2.91-3.39,7.8-4,12-.54,3.72.26,8.08,0,12-.45,6.63.41,13.4,0,20.03l-7.99-.03c-1.57-38.78-2.65-65.3-8-104-.53-3.82.3-8.09.02-11.98l11.98,3.98Z" style="fill: #c2bab2;"/>
  <path d="M872.3,1100c.99,1.83,1.74,3.49,4,4v20c.1,11.44-10.7,10.78-12,12-1.74-5.74-6.16-7.94-12-8-.87-7.56.5-16.18,0-24l20-4Z" style="fill: #b7aea6;"/>
  <path d="M824.3,1164c1.02,21.07,3.8,38.25,0,60-.35-.49-7.04,2.09-8.18-2.5-2.18-8.76-1.56-33.69-3.42-47.95-1.71-13.09.93-9.54,11.6-9.55Z" style="fill: #c2bab2;"/>
  <path d="M864.3,1084c2.7,5.22,5.4,11.19,8,16l-20,4c-.05-.78-3.77-5.33-4-12-.09-2.61-.21-5.41,0-8h16Z" style="fill: #beb5ad;"/>
  <path d="M860.3,1076c1.47,2.72,2.62,5.33,4,8h-16c.32-3.85,2.97-5.64,4-8h8Z" style="fill: #b7aea6;"/>
  <path d="M824.3,1100c-3.98-.17-8.01.16-11.98-.02-1.26-7.47,4.48-13.22,11.96-11.96.03,3.97.08,7.99.02,11.98Z" style="fill: #c2bab2;"/>
  <path d="M820.3,1116c-.17,3.97-.04,8.02,0,12l-7.99-.02-.03-9.96,8.02-2.02Z" style="fill: #c2bab2;"/>
  <rect x="876.3" y="1104" width="4" height="20" style="fill: #c2bab2;"/>
  <path d="M852.3,1076c.9-2.05-2.17-8.28,2.04-8.02,9.94-2.06,4.3,4.97,5.96,8.02h-8Z" style="fill: #beb5ad;"/>
  <path d="M884.3,1176c-3.37-.71-9.7,1.04-12,0-3.86-1.75-5.42-12.88-20-4,.61-4.2-.14-9.09,4-12,1.11-.78,5.59.5,7.97-.02l.05-5.94-8.02-2.04c0-2.58.38-5.63,0-8,10.16,2.97,7.13-7.18,8-8,1.3-1.22,12.1-.56,12-12h4c7.12,14.17,4.24,35.45,4,52Z" style="fill: #c0b8b0;"/>
  <path d="M848.3,1636c-.37,4.98,2.96,19.43-.14,27.93l-7.86.07c-1.06-9.41-2.4-24.72,8-28Z" style="fill: #c0b8b0;"/>
  <path d="M884.3,1176c-.08,5.33.07,10.67,0,16-13.97,4.34-11.24-7.52-12-8v-8c2.3,1.04,8.63-.71,12,0Z" style="fill: #c2bab2;"/>
  <path d="M872.3,1340c-.35,2.37-3.62,5.62-4,8l-12.01-.02.03-11.97,15.98,3.98Z" style="fill: #beb5ad;"/>
  <path d="M872.3,1176v8c-2.31-1.46-15.38,1.03-20,0,.26-3.92-.54-8.28,0-12,14.58-8.88,16.14,2.25,20,4Z" style="fill: #b7aea6;"/>
  <path d="M872.28,1236.02v7.96s-15.98-.02-15.98-.02c2.14-7.95,8.52-8.97,15.98-7.94Z" style="fill: #b7aea6;"/>
  <rect x="856.33" y="1312.02" width="7.96" height="11.96" style="fill: #b7aea6;"/>
  <path d="M504.3,772c-7,6.47-11.44,19.86-24,20,1.93-13.31,9.67-24.12,24-20Z" style="fill: #56493f;"/>
  <path d="M616.3,244c10.84-3.21,10.02,3.8,15.22,7.71,2.18,1.64,7.67-.45,8.78.29.7.47,1.76,10.52,6.15,15.77,8.52,10.18,17.1,14.14,25.82,22.26,10.46,9.73,7.1,21.12,28.02,21.98,1.61,14.07,19.82,15.42,23.18,26.84,3.61,12.27-.48,31.45.82,45.16h-12c-2.22-14.91-4.03-34.02-23.98-31.98-3.34,21.43,8.82,42.79,11.66,62.3,4.23,29.06,8.91,76.67,8.32,105.68-9.53,2.61-11.88-13.96-13.86-20.12-11-34.28-19.54-69.43-30.14-103.88-15.83-51.45-31.99-101.48-48-152Z" style="fill: #bcaba2;"/>
  <path d="M720.3,312c-11-5.29-15.21.19-20,0-20.92-.85-17.56-12.24-28.02-21.98-8.73-8.12-17.3-12.08-25.82-22.26-4.39-5.25-5.45-15.3-6.15-15.77l4-20c23.17,25.98,59.47,48.4,76,80Z" style="fill: #655b54;"/>
  <path d="M60.3,640c-.23,2.62.46,5.66,0,8-.5,2.53-5.54,7.06-4.04,11.98h-3.91s-.12-17.44-.12-17.44l8.08-2.53Z" style="fill: #4a4338;"/>
  <path d="M1128.3,1048c29.46-.1,31.77-32.99,32.02-55.98l7.99,11.98,11.98.04c-5.52-27.81,31.28-24.26,38.46-.09,2.36,7.93-1.41,12.77-2.44,20.03l19.43-6.52.54-25.47h28.04c1.68,1.67-1.86,35.87.83,45.17,2.25,7.8,16.7,20.24,18.92,33.09,3.84,22.18.41,47.91.23,69.77-.1,11.96,4.39,27.37,4.07,33.7-.12,2.38-7.03,1.7-7.96,5.08-8.6,31.34-3.72,54.38-4.11,85.22-10.54,1.47-11.16-10.9-16.12-13.89-6.07-3.66-15.91-2-23.11-4.8-6.77-2.63-1.65-12.45-12.75-9.3-9.54,12.44,29.15,43.33,23.98,47.96-19.04,1.77-27.44,12.02-47.68,4.24-1.39,11.36-13.58,22.57-12.38,33.55.74,6.71,9.56,12.26,8.37,19.93-.52,3.34-9.85,3.08-11.77,8.74-3.43,10.12,2.57,24.44-3.45,36.72-3.37,6.88-12.78,8.3-13.39,11.58-1.11,5.98,3.87,13.28,3.52,19.27-1.09,18.61-6,39.17-7.23,57.99h-4c.25-14.39-6.94-34.9-7.95-50.05-5.15-77.4-5.67-156.08-8.07-233.96l-16.24,1.76-3.74,8.24,12.15,136.18c-.07,10.4-4.72,19.18-4.15,29.83l-11.98,8.02v-16.05s-15.37-.5-15.37-.5c-13.21-32.98,8.71-78.75-8.65-107.46,6.88-40.49,2.3-69.95,20-112l12.01-.02-.02-11.97-7.99-.02c1.33-2.59,1.53-5.46,4-8,.66-.67,9.94.61,11.71-6.49,1.33-5.34-4.01-12.86-3.62-19.33.54-9,21.4-33.93-4.09-30.17.27-5.31-.22-10.68,0-16Z" style="fill: #b4aca4;"/>
  <path d="M992.3,560l15.98-15.98-3.96,40c2.64.24,5.34-.18,7.98-.02,15.36.89,29.71,3.52,28-16h16c-.59,14.32-7.23,28.78-3.9,45.92,2.53,13.01,54.99,74.62,68.04,79.9,14.81,5.99,22.58-1.58,33.34-.63,21.03,1.86,40.53,39.23,42.51,58.81-.74.52,1.98,12.31-12,8-.77-1.21-3.03,5.16-8-8-4.86-12.87-7.62-7.33-8-8-14.31-24.79-5.29-38.12-43.7-19.59-2.21,3.05,11.16,41.76,0,49.89-13.42,9.76-43.52-23.39-48.27-18.28,3,25.93,24.08,50.99,27.98,75.98.13.84-5.15,9.2.03,15.97,11.81,2.56,8.37-14.62,19.97-11.97-1.11,14.62-.67,33.17,0,48,.18,3.98-.3,8.04,0,12-4,.03-8-.05-12,0-.71-1.64,1.3-6.85-.14-7.8-4.75-3.14-16.14,6.3-19.86-12.2.19-2.64-.13-5.35,0-8l-4-8c-.74-12.28-17.26-49.23-22.24-63.82-1.85-5.43-8.64-34.52-9.76-36.18v-7.99s-8,0-8,0c-1.85-6.66-2.39-13.45-4-20s-3.05-13.02-4.6-19.51l-7.4-.49c-1.23-3.96-2.71-7.99-4-12-4.24-13.19-9.89-26.22-12-40,1.72-.88,4.74-9.78,12-8,.19.38,5.18-.9,7.97,2.91,15.03,20.59,45.41,76.26,61.79,89.34,3.69,2.95,11.35,7.16,14.3,1.7-2.4-15.11-9.59-33.31-18.31-45.69-10.11-14.35-50.75-52.5-65.74-64.26-1.66-1.3-2.98-6.93-6.02-7.97l-5.92-.02c-2.32,13.89-5.18,19.99-20.05,19.99-.5-22.03.63-44.22.17-66.29-.18-8.71-4.14-9.19-4.17-9.71-.15-3.98-.03-8.01,0-12Z" style="fill: #4a4338;"/>
  <path d="M1128.3,912c5.26,41.19,1.78,92.97,0,136-.22,5.32.27,10.69,0,16-.13,2.45-3.83,8.04-4.16,13.91-.76,13.83,3.61,27.81.16,42.09-2.47,2.54-2.67,5.41-4,8-1.34,2.62-2.32,8.01-4,12-17.7,42.05-13.12,71.51-20,112-9.23,54.32-22.72,105.1-44,156l-12-4c20.51-61.75,34.59-121.07,43.96-186.04,2.64-18.27.02-59.84,4.04-73.96,23.68-83.08,26.67-143.71,28-232h12Z" style="fill: #655b54;"/>
  <path d="M1132.3,460c4.18.87,27.2,32.27,31.44,38.56,4.68,6.95,18,38.38,20.56,41.44v7.99s8,.01,8,.01c.32,2.6-.23,5.38,0,8,.45,5.28-.43,10.73,0,16.02l7.99-.02c.32,1.43,3.54,11.56,4,12v12.01s8-.01,8-.01c.6,1.74,2.77,5.12,4,8-7.54,3.46-1.93,12.91-.17,18.14,4.7,13.94,10.08,27.54,14.31,41.72,4.06,13.63.11,27.46,13.49,38.57l.22,5.36-11.7,6.63c-2.76,7.49,2.67,10.08,3.84,13.57.67,1.99-.45,5.52,0,8-1.58.76-3.12,5.45-4.53,7.34-14.62,2.09-10.23-12.6-11.61-21.39-1.14-7.3,5.15-16.22-7.87-13.96.13-2.65,0-5.34,0-8-.01-9.83,4.84-11.22-1.23-28.81-1.57-4.53-10.97-29.15-18.77-27.19-.91-4.64.58-10.92,0-16-.3-2.59.37-5.37,0-7.99h-7.99c-4.83-14.8-11.69-33.29-24-44.01.5-8.42-9.84-13.18-11.36-18.86-1.7-6.39,3.46-12.57,3.36-17.14-.62-26.81-9.69-24.17-12-32-1.19-4.03.9-11.22.02-16.03-4.06-.92-13.9,1.33-16.02.03-2.31-1.42-10.59-23.52-12-28,5.62-3.23,13.71-5.31,20-4Z" style="fill: #361c12;"/>
  <path d="M1300.3,928c-.16,10.3-1.4,23.51.84,33.18,2.39,10.33,12.37,14.9,14.34,21.64,14.38,49.25-1.54,184.5-7.18,241.18-1.11,11.19-6.48,24.61-8,40h-12c1.34-24.8,3.63-51.56,4-76,6.4-3.37,3.86-13.58,4-20,.2-9.31.04-18.69,0-28-.11-28.31-4-59.08-4-86v-64c0-17.42-4.55-40.52-4-62h12Z" style="fill: #40322a;"/>
  <path d="M1104.3,832c-3.9-24.99-24.98-50.05-27.98-75.98,4.75-5.11,34.85,28.04,48.27,18.28,11.17-8.12-2.2-46.84,0-49.89,38.42-18.53,29.39-5.2,43.7,19.59-11.39-2.19-6.46,4.32-8,8-10.48,25-15.55,71.21-20,100-1.76,11.41-4.63,17.26-4,32h-12c-.67-14.83-1.11-33.38,0-48,.39-5.07,8.16-18.07,3.98-28.02l-12.34,2.35-11.65,21.67Z" style="fill: #b4aca4;"/>
  <path d="M1220.3,792c.86,6.94,8.64,18.54,3.43,29.48l-23.42,10.56,7.98,25.82c-3.08,10.89-32.31,7.85-32.22-11.65.03-5.56,6.59-48.91,8.11-51.4,1.56-2.54,13.68-6.71,16.12-6.81,5.33-.22,13.57,4.85,20,4Z" style="fill: #b4aca4;"/>
  <path d="M1164.3,860c2.14,15.88,2.43,34.03,4,52,1.65,18.92,2.57,37.68,8,56-5.03-.57-15.18-4.08-16-4-2.98-18.74,4.11-60.49-20-64-.49-7.51-3.96-14.96-4-16-.63-14.74,2.24-20.59,4-32l24,8Z" style="fill: #655b54;"/>
  <path d="M1172.3,752l-8,108-24-8c4.45-28.79,9.52-75,20-100h12Z" style="fill: #40322a;"/>
  <path d="M1212.3,708c13.02-2.26,6.72,6.65,7.87,13.96,1.38,8.79-3.01,23.47,11.61,21.39,1.41-1.89,2.95-6.59,4.53-7.34,1.04-.5,2.79.46,4,0,1.66,19.53-8.76,26.85-24.04,34.1,10.03,10.1,3.56,18.08,4.04,21.9-6.43.85-14.67-4.22-20-4-7.59-7.52-11.12-20.36-16-28,13.98,4.31,11.26-7.48,12-8,1.24-.87,8.47.78,11.97-1.87,7.4-5.6,3.49-31.43,4.03-42.13Z" style="fill: #56493f;"/>
  <path d="M1248.3,736l-.02-15.98c-8.72-2.09-7.74,2.15-11.98,7.98-1.17-3.49-6.6-6.09-3.84-13.57l11.7-6.63-.22-5.36c-13.38-11.12-9.44-24.94-13.49-38.57-4.22-14.18-9.6-27.79-14.31-41.72-1.76-5.23-7.37-14.68.17-18.14,10.29,24.17,16.7,61.83,26.28,79.72,7.2,13.44,38.67,27.83,22,50.63-7.28,9.95-12.17,1.96-16.28,1.65Z" style="fill: #56493f;"/>
  <path d="M1160.3,964c-4.63.44-8.56,10.44-15.98,7.98,1.79-24.23-2.44-47.99-4.02-71.98,24.11,3.51,17.02,45.26,20,64Z" style="fill: #b4aca4;"/>
  <path d="M1176.3,968c-5.43-18.32-6.35-37.08-8-56,23.64-2.34,14.25,33.02,28.11,46.14-3.67,14.64-11.26,10.86-20.11,9.86Z" style="fill: #b4aca4;"/>
  <path d="M1300.3,928h-12c.24-9.62-4.87-50.81,9.94-47.98,4.84.92,6.6,29.9,6.46,34.24-.24,7.52-4.39,13.02-4.4,13.74Z" style="fill: #655b54;"/>
  <path d="M1296.3,1140c.04,9.31.2,18.69,0,28-13.38,7.33-3.96,17.29-4,20-.37,24.44-2.66,51.2-4,76-1.12,20.64-4.44,37.65-4,60-6.64,1.4-8.92-3.01-12-8,2.79-5.34,3.88-42.93,4-52,.39-30.84-4.49-53.88,4.11-85.22.93-3.38,7.84-2.7,7.96-5.08.32-6.33-4.17-21.74-4.07-33.7h12Z" style="fill: #beb5ad;"/>
  <path d="M1352.3,1028c-.48,8.83-3.4,19.79-4,28l-16-4c.73-4.91-1.18-4.74,4-8,1.62-1.02,8.34,2.25,8.03-2.04l-.05-5.94-7.97-.02c0-2.59-.35-5.55,0-8h16Z" style="fill: #655b54;"/>
  <path d="M1336.3,1028c3.17-22.15,17.39-25.65,16,0h-16Z" style="fill: #4a4338;"/>
  <path d="M1260.29,763.97c-5.51,5.12-21.21-7.08-15.96-11.96,5.51-5.12,21.21,7.08,15.96,11.96Z" style="fill: #b4aca4;"/>
  <path d="M1236.3,728c4.24-5.83,3.26-10.07,11.98-7.98l.02,15.98c-4.33-.32-1.36-2.53-8,0-1.21.46-2.96-.5-4,0-.45-2.48.67-6.01,0-8Z" style="fill: #b4aca4;"/>
  <path d="M1192.3,556l7.99-.02c.84,4.99-1.01,11.54,0,16.02l-7.99.02c-.44-5.29.45-10.75,0-16.02Z" style="fill: #56493f;"/>
  <path d="M1168.3,744c.38.67,3.14-4.87,8,8h-16c1.54-3.68-3.39-10.19,8-8Z" style="fill: #56493f;"/>
  <path d="M1204.3,584c.78.75,6.26-1.29,7.69.35,1.81,2.07-.59,9.04.31,11.65h-7.99s0-12,0-12Z" style="fill: #56493f;"/>
  <path d="M1092.3,876c3.72,18.5,15.11,9.05,19.86,12.2,1.45.96-.57,6.16.14,7.8,4-.05,8,.03,12,0,.2,2.64-.21,5.36,0,8h-8c-.01-.45-2.95-5.57-4-8-11.43.13-20.8-.41-23.06-14.88-.52-3.32,3.03-4.69,3.06-5.12Z" style="fill: #655b54;"/>
  <path d="M1124.3,904c.07.86,3.55,4.44,4,8h-12c.04-2.66.08-5.35,0-8h8Z" style="fill: #4a4338;"/>
  <path d="M1336.3,1036l7.97.02.05,5.94c.32,4.29-6.41,1.02-8.03,2.04v-8Z" style="fill: #4a4338;"/>
  <path d="M1332.3,1092c0-.77-2.72-1.83-2.7-3.2.04-3.23,2.69-4.48,2.7-4.8l3.98,2.04-3.98,5.96Z" style="fill: #655b54;"/>
  <path d="M1184.3,540c2.24,2.68,6.16-7.01,8,8h-7.99s0-8,0-8Z" style="fill: #56493f;"/>
  <path d="M1336.3,1184c0-.37-3.4-2.01-3.43-5.52-.02-2.09,1.45-3,3.43-2.48l3.53,5.47-3.53,2.53Z" style="fill: #655b54;"/>
  <path d="M720.3,312c4.26,2.05,5.67,4.18,8,8,.78,1.28-.57,5.58.02,7.98l7.98-3.98c3.06.62,8.47-1.78,11.19.68.71.64,3.48,11.64,4.81,15.32.66,1.82-1.08,5.92.21,8.97,3.26,7.7,24.29,13.38,19.79,27.03-5.04-2.84-24.87-15.14-27.98-11.98v35.96s23.97-7.95,23.97-7.95c-4.64,8.01-.5,12.08.01,15.97.33,2.54-.09,5.38,0,8-9.1,2.78-7.84,10.3-8.21,17.76-2.36,47.12,6.42,98.8,8.21,146.24.15,3.99-.1,8.01,0,12-13.74,1.83-24.5,13.94-24,28l-24,8c-4.02-2.63-7.97-5.37-12-8l-8.13-18,8.13-2h16l.02,7.97,15.96.05c5.03-75.4-8.91-149.54-15.98-224.02-1.3-13.71,2.79-32.9-.82-45.16-3.36-11.42-21.57-12.76-23.18-26.84,4.79.19,9-5.29,20,0Z" style="fill: #40322a;"/>
  <path d="M860.3,376c-9.8,27.91-58.8,18.23-80,8-2.53-1.22-5.29-6.47-8-8,4.49-13.65-16.54-19.33-19.79-27.03-1.29-3.06.46-7.15-.21-8.97,31.27,21.21,67.1,44.02,101.94,16.02,8.65,3.71,4.41,17.07,6.06,19.98Z" style="fill: #655b54;"/>
  <path d="M1064.3,404c-10.42,4.81-10.95,13.92-12,24-3.77.41-9.81-4.03-12-4l.58-19.36c1.84-2.84,21.87-8.18,23.42-.64Z" style="fill: #655b54;"/>
  <path d="M736.3,324l-7.98,3.98c-.59-2.4.76-6.71-.02-7.98,3.1-.25,6.46,3.69,8,4Z" style="fill: #655b54;"/>
  <path d="M1320.3,1280c-2.17,10.79,1.07,26.61-8,36-.02-.5-3.88-3.27-3.82-9.23.07-7.6,5.92-17.64,3.93-26.72l7.89-.05Z" style="fill: #bab1a9;"/>
  <path d="M1320.3,1340c-1.16,1.77-5.53,23.99-8,0h8Z" style="fill: #bab1a9;"/>
  <path d="M1060.3,448c11.11-4.03,10.91,5.76,15.01,7.81,2.9,1.46,7.5-.55,8.99.19,4.15,2.03,8.23,9.26,16,8-2.03,8.08,1.15,22.44,0,32-.25,2.09-7.28,8.48-7.2,14.65.08,6.88,14.09,16.87,3.2,21.35-1.2-.73-7.21,1.47-10.57-1.37-9.32-7.87-12.79-15.9-17.43-26.63-.68-1.57.9-5.41-.14-7.84l-7.86-.16c0-9.32,0-18.68,0-28,0-6.63.34-13.39,0-20Z" style="fill: #361c12;"/>
  <path d="M1108.3,460c-3.79-.37-6.86-.56-8,4-7.77,1.26-11.85-5.97-16-8,3.08-10.32,5.16-40.47,21.95-35.97,8.92,2.39.74,29.87,2.05,39.97Z" style="fill: #726761;"/>
  <path d="M1108.3,460c.15,1.14,3.61,2.75,4,4,1.41,4.48,9.69,26.58,12,28l-4,12h-12c-.65-2.05-6.23-5.61-8-8,1.15-9.56-2.03-23.92,0-32,1.14-4.56,4.21-4.37,8-4Z" style="fill: #afa7a0;"/>
  <path d="M1052.3,432l7.99-.02c.32,5.31-.26,10.7,0,16.02.34,6.61,0,13.37,0,20l-7.99.03c.51-11.91-.81-24.16,0-36.03Z" style="fill: #655b54;"/>
  <path d="M144.3,1080c-.32,3.96.33,8.04-.02,12.01l-9.96.02c-4.4-1.16-1.1-8.86-2.02-12.03h12Z" style="fill: #c5bdb7;"/>
  <path d="M1132.3,1368c-.56-10.65,4.09-19.42,4.15-29.83l-12.15-136.18,3.74-8.24,16.24-1.76c2.4,77.88,2.92,156.56,8.07,233.96,1.01,15.15,8.2,35.67,7.95,50.05-.03,1.77-3.23,5.48-4,8l-11.98-.04c-.63-2.56.51-5.76-.02-7.96-7.88-32.48-10.28-75.58-12-108Z" style="fill: #726761;"/>
  <path d="M1144.3,1476c.53,2.19-.61,5.4.02,7.96l11.98.04c-.66,2.15.6,5.66,0,8-2.2,8.64-6.09,21.75-8.94,33.06-3.6,14.29-26.44,32.84-23.08,50.94l-11.93-6.21c5.8-13.7,11.91-37.83,11.84-52.4-.08-16.19-16.44-11.73,3.17-32.36,5.41-5.69,6.08-11.17,16.95-9.03Z" style="fill: #b4aca4;"/>
  <path d="M1024.3,2060c-30.43,6.73-2.99,40.78-27.96,52,6.43-28.5-18.66-72.89,13.9-87.98l14.06,31.98c-.19,1.3.18,2.69,0,4Z" style="fill: #b4aca4;"/>
  <path d="M1272.3,1316c3.08,4.99,5.36,9.4,12,8,.16,7.99-.11,16.01,0,24-6.23,2.89-20.56,4.28-24.03,10.96-.94,1.82-11.71,37.19-11.83,39.24-.49,8.15,4.62,17.15,4.08,27.66-.59,11.49-7.91,22.1-8.67,33.67l-15.55.44c13.37-19.86-10.77-52.42-19.15-25.11-8.3,27.07,8.43,33.95-32.86,41.14-.5,8.58,1.92,15.95,4,24-10.38.33-19.37,2.99-24-8,.6-2.34-.66-5.85,0-8,.77-2.52,3.97-6.23,4-8h4c3.85-.43,8.35.64,12,0,.75-12.92,7.5-7.23,12.27-13.6,10.34-13.77-.14-37.03-.58-52.39-.91-31.76,28.46-24.53,32.04-56.29l32.43-3.57c4.58-3.07,9.13-24.32,12.02-31.18,1.78-4.25,7.62-2.61,7.82-2.99Z" style="fill: #bab1a9;"/>
  <path d="M952.28,2143.98c-12.27,1.09-12.98-10.07-11.96-19.96,12.27-1.09,12.98,10.07,11.96,19.96Z" style="fill: #b4aca4;"/>
  <path d="M1004.28,1892.02v15.96c-15.93-.09-15.72-15.97,0-15.96Z" style="fill: #b4aca4;"/>
  <rect x="1120.33" y="1384.02" width="7.96" height="15.96" style="fill: #b4aca4;"/>
  <rect x="1156.33" y="1508.02" width="7.96" height="7.96" style="fill: #bab1a9;"/>
  <path d="M992.3,1124c-5.88,106.3-55.57,223.95-40.21,334.21,1.82,13.04,22.98,45.79-5.77,45.89-9.21.03-4.4-.57-6.19-6.14-2.19-6.79-3.51-27.85-3.83-36.09-2.47-63.13,6.4-146.65,17.1-210.78,6.43-38.53,24.66-87.05,26.9-127.1h12Z" style="fill: #726761;"/>
  <path d="M984.3,968c.43.56,4.06,3.45,8,8,.39.45,5.9-1.84,7.87,2.96,2.11,5.13,1.92,14.3,4.13,21.04h-7.99c-.36,3.96.29,8.03,0,12-.39,5.28.46,10.74,0,16-.46,5.26.34,10.71,0,16-1.68,26.43-2.52,53.29-4,80h-12c2.12-37.82-4.02-75.56,0-116,3.84-1.54,3.38-4.75,4-8,.46-2.39-.92-5.8.29-8.83,1.12-2.79,13.44-6.27,7.71-15.17-.38-.59-10.91,1.64-8-8Z" style="fill: #56493f;"/>
  <path d="M1012.3,1028c4.23,9.2,11.04,13.56,16,20,4.56,5.92,4.5.8,8,12,.98,3.14-1.06,9.28,0,12l-8.55,15.33-19.24,4.56c-7.41-13.72-.7-24.38-.02-37.89.65-13.05-.73-10.25-12.18-9.99.34-5.29-.46-10.74,0-16h16Z" style="fill: #b7aea6;"/>
  <path d="M935.52,948.93c1.96,1.27,4.64,11.78,10.48,15.37,11.76,7.24,32.93.25,30.3,23.68-23.2-7.12-23,12.25-39.98,11.99,9.6-22.38-.82-16.51-5.2-24.95-3-5.78-14.26-28.46-.81-27.04,2.32-1.32,3.44-.21,5.21.94Z" style="fill: #b7aea6;"/>
  <path d="M1068.3,1104c.17,3.16-.7,11.02,0,12-5.19-.46-10.93.68-16,0-.39-3.88.58-8.25,0-12-2.89-18.77-13.03-24.37-16-32-1.06-2.72.98-8.86,0-12l20-4c7.53,22.44,10.32,16.69,12,48Z" style="fill: #56493f;"/>
  <path d="M948.3,904c19.09-.96,6.72,32.44,9.67,36.15,4.05,5.34,14.39,2.14,17.69,4.6,2.17,1.62.04,6.1.64,7.25l-26.18.2c-3.65-10.42-1.45-21.51-1.82-32.2-.19-5.31,0-10.68,0-16Z" style="fill: #56493f;"/>
  <path d="M1052.3,1104c.58,3.75-.39,8.12,0,12-3.57-.48-10.89,2.09-12.02-2.02l.02-9.96,12.01-.02Z" style="fill: #b7aea6;"/>
  <path d="M984.3,1000c-.62,3.25-.16,6.46-4,8,.08-.77-11.49-8.77,4-8Z" style="fill: #726761;"/>
  <path d="M1000.3,1480c-1.54,3.34,3.47,10.27-8,8,1.49-2.58-3.88-10.53,8-8Z" style="fill: #655b54;"/>
  <path d="M1024.3,1436c1.24,7.25-.68,9.43-8,8,6.45-13.86,4.09-4.38,8-8Z" style="fill: #655b54;"/>
  <path d="M896.3,1832c1.5,11.88,1.58,40.21,0,52-.04.28-4.05,1.56-4,4-1.03-10.89-4.84-34.4-6.95-47.04-2.18-13.03.33-8.65,10.95-8.96Z" style="fill: #c0b8b0;"/>
  <path d="M872.3,1920l16,8c-1.43,10.12.36,22.68-5.98,31.98-9.42-10.54-7.61-27.31-10.02-39.98Z" style="fill: #c0b8b0;"/>
  <path d="M1100.3,2664c-.15,4.39,1.2,10.07-4,12-.02-.88-6.47-6.67-3.99-12,2.31-.65,6.98.75,7.99,0Z" style="fill: #726761;"/>
  <path d="M892.3,1772c-.28,13.04.18,27.61-4,40-.76-.77-7.59,2.37-8.31-2.42-.51-3.35,3.07-9.53,2.86-14.88-.42-10.53-11.11-26.42,9.45-22.7Z" style="fill: #c0b8b0;"/>
  <path d="M1300.3,1264c-2.12,21.39-5.46,46.93-4,68l-4,8c-2.65,2.6,4.93,1.99-8,8-.11-7.99.16-16.01,0-24-.44-22.35,2.88-39.36,4-60h12Z" style="fill: #726761;"/>
  <path d="M1296.3,1332c.04.58,6.28,3.2,3.58,7.39-1.91,1.85-6.95-.02-7.58.61l4-8Z" style="fill: #bab1a9;"/>
  <path d="M664.3,396c10.6,34.45,19.14,69.6,30.14,103.88,1.98,6.16,4.33,22.73,13.86,20.12-.34,16.79-15.01,53.56,8,48l8,32h-16l-.03-7.92-23.97-12.08c-7.07-3.56-11.89-11.34-24-8-1.05-8.2-4.38-14.31-4-24,1.89-48.09,9.87-74.1,4-128-.98-8.98-7.54-16.7,4-24Z" style="fill: #b87864;"/>
  <path d="M684.3,580l.53,7.6,11.61,2.38-.15,14.02h-7.99c-1.41-.9-6.14.87-8,0,1.45-9.65-12.16-14.75-20-16-.45-5.24.66-10.82,0-16,12.11-3.34,16.93,4.44,24,8Z" style="fill: #40322a;"/>
  <path d="M800.3,520c.25,3.38.11,6.93,4,8-1.77,25.72,2.54,51.81-3.71,77.48l9.65,6.5c10.32-5.23-.14-23.16,14-19.96l4.07,28.02c15.26,1.34,11.57.21,11.99-12.03h12c.06.87,3.86,4.36,4,8,.52,13.79-1.5,16.99-4,28-4.37.76-6.09,6.61-8,8-9.76,7.1-22.72,13.74-33.05,20.15-22.4,13.9-15.02,2.67-36.91,3.56-11.65.47-21.3,10.83-34.04,8.3,6.07-6.99,9.44-14.51,8-24,17.08,9.21,45.95,3.76,43.98-19.98-13.29,3.44-23.41.85-35.98-.02,2.15-18.57-6-9.97-8-12-.31-.32-3.98-7.55-4-8-.5-14.06,10.26-26.17,24-28,3.13-.42,10.09,4.48,13.66,3.49,15.12-4.22,8.91-59.16,10.72-73.11,1.26-9.68,6.43-14.1,7.63-18.38.26,5.3-.39,10.72,0,16Z" style="fill: #bcaba2;"/>
  <path d="M820.3,688c1.56-1.54-3.77-11.47,11.98-8,.72,3.69-.88,8.94.02,12l-12-4,.02,28.02c-17.28.15-39.46-.75-56.02,3.98l31.03-15.08,16.92-.99c-4.15-19.15,6.54-14.42,8.05-15.92Z" style="fill: #4a4338;"/>
  <path d="M660.3,728c2.01,2.26,13.9,22.4,2.23,19.8-23.76-5.29-16.48-14.78-22.23-23.8,2.48-8.96,16.01-.49,20,4Z" style="fill: #726761;"/>
  <path d="M852.3,656c-1.78,1.3-3.98,5.11-8,8v-12c1.91-1.39,3.63-7.24,8-8-.77,3.39.52,8.23,0,12Z" style="fill: #4a4338;"/>
  <rect x="872.33" y="732.02" width="7.96" height="7.96" style="fill: #4a4338;"/>
  <path d="M864.3,704c.47.56,2.56,1.1,8,8l-7.85-.17-.15-7.83Z" style="fill: #4a4338;"/>
  <path d="M852.3,684c.89.61,5.27-1.19,7.25.78,2.05,2.04.16,6.04.75,7.22h-7.99s0-8,0-8Z" style="fill: #4a4338;"/>
  <path d="M840.3,668v8c-3.08-1.65-10.12,3.94-8.02-5.96.95-4.47,6.29-.8,8.02-2.04Z" style="fill: #4a4338;"/>
  <path d="M748.3,628c2,2.03,10.15-6.57,8,12,12.57.87,22.69,3.46,35.98.02,1.97,23.74-26.9,29.19-43.98,19.98-1.03-.56-2.58-5.93-4-8,9.41-5.93,10.72-.94,12-12-2.62-.18-5.45.35-8,0v-12Z" style="fill: #655b54;"/>
  <path d="M744.3,620c.02.45,3.69,7.68,4,8v12c-2.56-.35-5.46.39-8,0-18.91-2.92-12.61-7.17-20-12l24-8Z" style="fill: #56493f;"/>
  <path d="M684.3,580l23.97,12.08.03,7.92-8.13,2,8.13,18c-8.84-5.77-18.84-15.26-20-16h7.99s.15-14.02.15-14.02l-11.61-2.38-.53-7.6Z" style="fill: #56493f;"/>
  <path d="M748.3,640c2.55.35,5.38-.18,8,0-1.28,11.06-2.59,6.07-12,12-2.78-4.06-5.24-6.14-4-12,2.54.39,5.44-.35,8,0Z" style="fill: #40322a;"/>
  <path d="M1068.3,504c4.64,10.73,8.11,18.76,17.43,26.63,3.36,2.84,9.37.64,10.57,1.37.36.22-.87,5.91,2.76,8.05,21.13,12.48,41,18.33,61.24,35.95,12.31,10.71,19.17,29.21,24,44,1.63,4.99-4.15,9.88,8,8,.58,5.08-.91,11.36,0,16,3.58,18.32,13.96,38.01,20,56,0,2.66.13,5.35,0,8-.54,10.7,3.37,36.52-4.03,42.13-3.5,2.65-10.73,1-11.97,1.87-1.98-19.58-21.47-56.95-42.51-58.81-10.77-.95-18.54,6.63-33.34.63-13.05-5.28-65.52-66.89-68.04-79.9-3.33-17.15,3.31-31.6,3.9-45.92.18-4.29-.38-9.2-4-12,1.52-9.36,2.88-18.56,4-28,.81-6.82,4.8-13.37,0-24,1.22-.22,2.72,0,4,0,2.67,0,5.33,0,8,0Z" style="fill: #afa7a0;"/>
  <path d="M900.3,492c.55,21.14.53,42.86,0,64-.01.45-4.36,2.45-3.67,5.42,14.8,16.67,9.4,2,11.67-5.42,2.54-8.29,9.71-6.09,12-8,1.56.79,3.03,3.73,4,4-15.15,37.54-16.57,81.37-5.96,120.03,8.91,3.53,5.72-9.26,5.96-13.99,1.78-36.1,1.7-69.91,8-106.04.23-1.32,2.92-7.82,4-12,.59-2.3-.57-5.65,0-8l19.98-7.98v16.02s12.02-.04,12.02-.04c-.68,5.12.63,10.85,0,16l-3.98,5.96,3.98,2.04c-2.31,20.24-5.39,39.89-8,60-4.33,2.96-6.23,10.62,0,12-1.45,6.46-6.2,16.94-6.11,20.35.39,15.54,23.41,31.01-3.86,39.65-21.87-37.42-24.73,19.94-45.97,9.46l-18.16-69.49c-4.36-.76-28.31,15.94-33.9,20.03.52-3.77-.77-8.61,0-12,2.5-11.01,4.52-14.21,4-28,4.46.04,8.05,2.6,12,4,19.38,6.87,9.96-.75,16-8,.39-.47,6.89,1.87,8.09-2.61,2.69-10.07,1.65-31.19-12.09-29.39-.69-7.79.21-16.1,0-24l3.98-5.96-3.98-2.04c.04-15.46-2.22-37.97,0-52l20-4ZM948.28,655.98c1.13-16.29-1.51-33.92,0-50.01,1.36-14.61,20.13-42.93-3.94-45.96-2.77,28.53-13.03,58.88-5.18,87.33,1.95,7.07-1.26,10.38,9.13,8.64Z" style="fill: #40322a;"/>
  <path d="M872.3,424c.78,23.39-9.62,49-10.54,70.64-1.61,38.06,13.17,84.95,6.54,125.36-3.95-1.4-7.54-3.96-12-4-.14-3.64-3.94-7.13-4-8-2.05-30.56-4.75-61.31-4.02-92.02l-11.98.02v58c0,7.31,4.45,20.7,4,34-.42,12.24,3.28,13.37-11.99,12.03l-4.07-28.02c-14.14-3.2-3.68,14.73-14,19.96l-9.65-6.5c6.25-25.66,1.94-51.76,3.71-77.48.03-.44,5.58-3.77,3.98-7.97l-7.98-.03c-.39-5.28.26-10.7,0-16,5.15-18.34,13.36-36.75,12.01-56.03l11.98.07-3.98,23.94c2.69,2.86,17.92-4.79,21.23-7.83,4.01-3.7,2.37-7.7,2.75-8.15,2.58-2.99,3.52-7.53,4-8,.91-.89,7.27.97,7.99.02,1.19-1.54-.73-11.9,0-16.02.44-2.46-.29-5.42,0-8h16Z" style="fill: #4a4338;"/>
  <path d="M784.3,448c2.61-13.37,3.41-18.59,19.99-20.01l.24,11.59,23.8.4-.04,18.01,16.02-1.99c-.39.45,1.26,4.45-2.75,8.15-3.3,3.04-18.54,10.69-21.23,7.83l3.98-23.94-11.98-.07c1.35,19.28-6.87,37.69-12.01,56.03-1.2,4.28-6.37,8.69-7.63,18.38-1.81,13.95,4.41,68.89-10.72,73.11-3.57,1-10.53-3.9-13.66-3.49-.1-3.99.15-8.01,0-12,12.08,2.23,7.74-6.12,8-13.82,1.37-41.03,0-77.19,8-118.18Z" style="fill: #655b54;"/>
  <path d="M768.3,416c.34,9.48,1.33,21-.02,32.01h16.02c-7.99,40.98-6.63,77.14-8,118.17-.26,7.7,4.08,16.05-8,13.82-1.8-47.44-10.57-99.11-8.21-146.24.37-7.47-.88-14.98,8.21-17.76Z" style="fill: #b5a199;"/>
  <path d="M1028.3,636c14.99,11.76,55.64,49.9,65.74,64.26,8.72,12.38,15.91,30.58,18.31,45.69-2.95,5.46-10.61,1.24-14.3-1.7-16.38-13.08-46.76-68.75-61.79-89.34-2.78-3.81-7.78-2.53-7.97-2.91-1.32-2.69.92-11.81,0-16Z" style="fill: #b5a199;"/>
  <path d="M1048.3,1024c20.41-2.59,16.39,2,16.02,19.98l19.95-3.97c3.83,10.32-7.14,18.55-7.56,25.77-.54,9.26,15.36,43.22-8.41,38.22-1.68-31.31-4.47-25.56-12-48-3.34-9.96-4.35-22.46-8-32Z" style="fill: #beb5ad;"/>
  <path d="M772.3,376c2.71,1.53,5.47,6.78,8,8l-12,24c-.51-3.9-4.65-7.97-.01-15.97l-23.97,7.95v-35.96c3.11-3.16,22.94,9.14,27.98,11.98Z" style="fill: #b5a199;"/>
  <path d="M1056.3,976c12.87,8.21,28.49,14.17,44.03,12.01l-.27,11.66c-13.35,6.53-25.73,1.73-38.79-2.83-5.39-1.88-8.37-8.63-8.96-8.85l4-12Z" style="fill: #56493f;"/>
  <path d="M992.3,560c.13-17.53,3.14-31,23.98-27.98l-3.98,51.98c-2.65-.15-5.34.26-7.98.02l3.96-40-15.98,15.98Z" style="fill: #655b54;"/>
  <path d="M996.3,648c-2.67,0-5.34.12-7.99.03l3.99-76.03c.02.53,3.98,1.01,4.17,9.71.46,22.07-.67,44.26-.17,66.29Z" style="fill: #655b54;"/>
  <path d="M936.3,532c3.19-13.25,21.11-21.36,33.98-24.06,8.42-1.77,6.99,6.08,6.02,12.06l-11.98.02v7.96s7.98.02,7.98.02c-.82,3.54-3.31,6.81-4,12l-12.01.04v-16.02s-19.99,7.98-19.99,7.98Z" style="fill: #655b54;"/>
  <path d="M1040.3,516l11.19.84,4.81,11.16c-1.12,9.44-2.48,18.64-4,28-1.72-1.33-9.22-1.13-12-4,0-2.66-.09-5.34,0-8,6.23-1.66,5.98-14.71,0-16,.41-3.84-.74-8.63,0-12Z" style="fill: #4a4338;"/>
  <path d="M1016.3,660c2.11,13.78,7.76,26.81,12,40l-23.94-34.09c-2.53-10.47,8.18-4,11.94-5.91Z" style="fill: #b5a199;"/>
  <path d="M880.3,580c13.73-1.8,14.77,19.32,12.09,29.39-1.19,4.48-7.69,2.14-8.09,2.61-.46-10.85-3.04-21.15-4-32Z" style="fill: #655b54;"/>
  <path d="M1052.3,556c3.62,2.8,4.18,7.71,4,12h-16c-.87-9.92-.02-9.81,0-16,2.78,2.87,10.28,2.67,12,4Z" style="fill: #655b54;"/>
  <path d="M1056.3,504c4.8,10.63.81,17.18,0,24l-4.81-11.16-11.19-.84c.79-3.6-.21-7.59,3.88-10.14,3.73-2.82,8.45-1.2,12.12-1.86Z" style="fill: #655b54;"/>
  <path d="M880.3,496c1.84-11.58,7.81-17.37,19.98-15.98.14,3.97-.08,7.99.02,11.98l-20,4Z" style="fill: #655b54;"/>
  <path d="M936.3,540c-1.08,4.18-3.77,10.68-4,12-2.52-.41-5.86.6-8,0-.97-.27-2.44-3.21-4-4,.86-.72-2.45-12.91,16-8Z" style="fill: #655b54;"/>
  <path d="M1032.3,712l7.4.49c1.55,6.49,3,13.02,4.6,19.51-12.77,2.56-9.56-12.13-12-20Z" style="fill: #b5a199;"/>
  <path d="M1040.3,544c.16-4.42-1.09-5.73,0-16,5.98,1.29,6.23,14.34,0,16Z" style="fill: #655b54;"/>
  <path d="M856.3,432c-.73,4.13,1.18,14.48,0,16.02-.73.94-7.08-.92-7.99-.02v-16.02s8,.02,8,.02Z" style="fill: #655b54;"/>
  <path d="M908.3,556c-2.27,7.41,3.13,22.09-11.67,5.42-.69-2.96,3.66-4.97,3.67-5.42h8Z" style="fill: #655b54;"/>
  <path d="M856.3,424l9.99-8.03,5.99.06c.13,2.64-.07,5.31.02,7.97h-16Z" style="fill: #655b54;"/>
  <path d="M960.3,636c-6.23-1.38-4.33-9.04,0-12-.09.71,2.55.61,0,12Z" style="fill: #56493f;"/>
  <path d="M976.3,520c-.76,4.72-3.78,7.07-4,8l-7.97-.02v-7.96s11.97-.02,11.97-.02Z" style="fill: #40322a;"/>
  <path d="M1036.3,988v8c-.85-.71-24.21-5.17,0-8Z" style="fill: #56493f;"/>
  <path d="M1044.3,1016l-7.98-.03,3.98-7.97c1.72,3.12,2.47,4.23,4,8Z" style="fill: #56493f;"/>
  <path d="M1092.3,868c-15.7,1.69-3.9-6.3-4-8l4,8Z" style="fill: #655b54;"/>
  <path d="M1048.3,752h7.99s0,8,0,8c-2.05-3.03-3.78,7.18-8-8Z" style="fill: #b5a199;"/>
  <path d="M968.3,564l-3.98-2.04,3.98-5.96c-.06.48.6,2.74,0,8Z" style="fill: #655b54;"/>
  <path d="M880.3,556c-.02-.79-2.67-1.8-2.7-3.2-.06-3.18,2.69-4.45,2.7-4.8l3.98,2.04-3.98,5.96Z" style="fill: #655b54;"/>
  <path d="M1060.3,496l7.86.16c1.03,2.43-.54,6.27.14,7.84-2.67,0-5.33,0-8,0v-8Z" style="fill: #655b54;"/>
  <path d="M1028.3,1048c-4.96-6.44-11.77-10.8-16-20-3.07-6.69-2.41-11.43-4-16,13.82,2.03,20.11,23.18,20,36Z" style="fill: #56493f;"/>
  <path d="M1004.3,1000c1.3,3.95,2.63,8.08,4,12-3.77-.55-8.11.37-12,0,.3-3.97-.35-8.04,0-12.01h7.99Z" style="fill: #b7aea6;"/>
  <path d="M864.3,1136c-.87.82,2.16,10.97-8,8-.74-4.57-3.21-9.17-4-16,5.84.06,10.26,2.26,12,8Z" style="fill: #beb5ad;"/>
  <path d="M856.3,1152l8.02,2.04-.05,5.94c-2.38.52-6.86-.76-7.97.02v-8Z" style="fill: #beb5ad;"/>
  <path d="M724.3,384c7.08,74.48,21.01,148.62,15.98,224.02l-15.96-.05-.02-7.97-8-32c-1.32-11.65,3.54-22.41,4.16-33.85,2.6-47.19-1.2-103.39-8.16-150.15h12Z" style="fill: #b5a199;"/>
  <path d="M712.3,384c6.97,46.76,10.76,102.96,8.16,150.15-.63,11.44-5.48,22.2-4.16,33.85-23.01,5.56-8.34-31.21-8-48,.59-29.01-4.08-76.62-8.32-105.68-2.84-19.51-15.01-40.87-11.66-62.3,19.95-2.04,21.76,17.07,23.98,31.98Z" style="fill: #56493f;"/>
  <path d="M1164.3,1476c1.23-18.82,6.14-39.38,7.23-57.99.35-6-4.63-13.29-3.52-19.27.61-3.28,10.02-4.71,13.39-11.58,6.02-12.28.02-26.6,3.45-36.72,1.92-5.66,11.25-5.4,11.77-8.74,1.18-7.67-7.63-13.22-8.37-19.93-1.21-10.98,10.98-22.19,12.38-33.55,20.24,7.78,28.64-2.48,47.68-4.24,5.18-4.63-33.52-35.52-23.98-47.96,11.1-3.15,5.98,6.66,12.75,9.3,7.2,2.8,17.04,1.14,23.11,4.8,4.96,2.98,5.58,15.36,16.12,13.89-.12,9.07-1.21,46.66-4,52-.19.37-6.03-1.26-7.82,2.99-2.88,6.86-7.43,28.11-12.02,31.18l-32.43,3.57c-3.58,31.76-32.95,24.53-32.04,56.29.44,15.36,10.91,38.62.58,52.39-4.77,6.36-11.52.67-12.27,13.6-3.65.64-8.15-.43-12,0Z" style="fill: #b7aea6;"/>
  <path d="M1128.3,1064c25.49-3.76,4.63,21.17,4.09,30.17-.39,6.48,4.95,14,3.62,19.33-1.77,7.1-11.05,5.82-11.71,6.49,3.45-14.28-.92-28.26-.16-42.09.32-5.87,4.03-11.45,4.16-13.91Z" style="fill: #bab1a9;"/>
  <path d="M1120.3,1128l7.99.02.02,11.97-12.01.02c1.68-3.99,2.66-9.38,4-12Z" style="fill: #bab1a9;"/>
  <path d="M1104.3,832l11.65-21.67,12.34-2.35c4.17,9.96-3.6,22.95-3.98,28.02-11.6-2.64-8.16,14.54-19.97,11.97-5.18-6.77.1-15.13-.03-15.97Z" style="fill: #655b54;"/>
  <path d="M1108.3,504c1.86,5.83-2.46,13.5,5.76,20.51,5.99,6.07,14.08-1.65,19.63-.1,6.73,1.88,7.46,17.33,18.61,15.59.1,4.56-5.06,10.75-3.36,17.14,1.51,5.69,11.86,10.45,11.36,18.86-20.23-17.61-40.11-23.47-61.24-35.95-3.63-2.14-2.4-7.83-2.76-8.05,10.89-4.48-3.12-14.47-3.2-21.35-.08-6.16,6.95-12.55,7.2-14.65,1.77,2.39,7.35,5.95,8,8Z" style="fill: #655b54;"/>
  <path d="M1120.3,504l2.33,8.15,17.67-4.15c2.31,7.83,11.38,5.19,12,32-11.14,1.74-11.87-13.71-18.61-15.59-5.56-1.55-13.65,6.18-19.63.1-8.23-7.01-3.9-14.68-5.76-20.51h12Z" style="fill: #726761;"/>
  <path d="M1192.3,644c7.8-1.96,17.21,22.66,18.77,27.19,6.07,17.59,1.22,18.98,1.23,28.81-6.04-17.99-16.42-37.68-20-56Z" style="fill: #56493f;"/>
  <path d="M1124.3,492c2.12,1.3,11.96-.95,16.02-.03.88,4.8-1.21,12-.02,16.03l-17.67,4.15-2.33-8.15,4-12Z" style="fill: #4a4338;"/>
  <path d="M1184.3,620h7.99c.38,2.63-.29,5.41,0,8-12.15,1.88-6.37-3.01-8-8Z" style="fill: #56493f;"/>
  <path d="M1292.3,1188c.04-2.71-9.38-12.67,4-20-.14,6.42,2.4,16.63-4,20Z" style="fill: #726761;"/>
  <path d="M1008.3,1012c1.59,4.57.93,9.31,4,16h-16c.46-5.26-.39-10.72,0-16,3.89.37,8.23-.55,12,0Z" style="fill: #beb5ad;"/>
  <path d="M840.3,608c.45-13.3-4-26.69-4-34v-58l11.98-.02c-.74,30.72,1.96,61.46,4.02,92.02h-12Z" style="fill: #726761;"/>
  <path d="M800.3,520l7.98.03c1.61,4.2-3.95,7.53-3.98,7.97-3.89-1.07-3.75-4.62-4-8Z" style="fill: #655b54;"/>
  <path d="M932.3,552c-6.31,36.13-6.22,69.93-8,106.04-.23,4.73,2.95,17.52-5.96,13.99-10.61-38.65-9.19-82.49,5.96-120.03,2.14.6,5.48-.41,8,0Z" style="fill: #726761;"/>
  <path d="M948.28,655.98c-10.39,1.74-7.17-1.57-9.13-8.64-7.86-28.45,2.4-58.8,5.18-87.33,24.07,3.03,5.31,31.35,3.94,45.96-1.5,16.09,1.14,33.72,0,50.01Z" style="fill: #56493f;"/>
</svg>