<?xml version="1.0" encoding="UTF-8"?>
<svg id="Layer_1" data-name="Layer 1" xmlns="http://www.w3.org/2000/svg" viewBox="0 0 129.57 345.81">
  <path d="M54.64,300.67c.22-.54.07-.94-.47-1.18-1.13-1.17-2.25-1.24-3.36.03-.55.06-.76.36-.63.9-.06.87-.51,1.45-1.31,1.78-2.5-1.77-5.5,3.72-7.84-.53l-.03-.06c-.76-1.38-1.24-3.24-3.51-2.03h-.04c-2.4,1.93-5.89-1.21-8.06,1.76-.43.53-.85,1.06-1.28,1.59-1.68,1.45-2.23-.02-2.94-1.12-.88-4.07,1.6-6.83,3.79-9.7.64-.58,1.37-1.03,2.17-1.36,1.76-.72,3.9-.51,5.29-2.13.23-.7.44-1.39.57-2.11.27-2.28.16-4.61,1.15-6.76.96-1.75,2.4-3.12,3.62-4.66.77-.94,1.64-1.75,2.68-2.37.74-.32,1.51-.54,2.29-.72,3.91-.86,5.27-4.87,8.34-6.78.77-.44,1.59-.72,2.47-.86,4.51-.13,4.98,2.8,4.64,6.24-.41,4.12.41,8.02,2,11.8.94,1.39-5.31,3.8.79,4.68,1.99.29,3.21,2.57,2.9,5-6.7,9.34,2.53,16.53,3.05,24.9,1.26-8.6,4.37-17.35-2.09-25.19,3.8-7.27,10.69-5.83,16.83-5.49,2.58.14,4.03,2.76,2.49,5.73-4.77,1.27-5.6,4.52-5.58,9.12.05,11.71-.91,23.39-3.12,34.9-.73,3.78-.72,9.49-5.21,9.76-5.54.33-5.16-5.72-6.27-9.69.37-.48.3-.88-.2-1.22-1.26-3.76-2.39-7.57-3.64-11.33h0c-2.43-2.12-2.99-5.13-3.77-8.04.33-.48.24-.86-.26-1.14-1.7-1.5-.17-4.09-1.86-5.6l-.02-.07c-1.14-1.01-.88-2.68-1.79-3.8l.02.04c-1.35-1.11-1.2-2.85-1.78-4.28Z" style="fill: #35302a; fill-rule: evenodd;"/>
  <path d="M5.11,260.11c-1.32-5.44-1.47-10.8.56-16.17.62-1.65.9-3.66.61-5.39-.63-3.75-.6-7.4,1.04-10.8,1.59-3.3-.21-6.63.59-9.97.78-3.27,2.93-6.11,2.77-9.65-.11-2.43-.02-4.87-.02-7.31-.85-3.05,4.89,2.16,3.35-2.94-2.1-6.98,4.82-10.66,7.44-15.96.54-.72,1.09-1.43,1.63-2.15,3.9-.82,4.8,1.47,4.37,4.56-.37,2.62-1.41,5.14-1.91,7.76-.33,1.54-.97,2.97-1.73,4.33-.35.78-.79,1.56-.45,2.47.59.28,1.15.32,1.77.05,4.13,1.25,4.35,2.33,1.4,6.47-.7.44-1.45.81-2.21,1.15-7.48,5.12,2.26,8.18,1.51,12.49.53,3.34.47,6.69.48,10.05-.33,2.94-.03,6.18-3.68,7.46-4.55-3.2-2.29-8.37-3.59-12.45-1.82-1.77-2.25.31-3.1,1.18-5.16,14.65-5.15,29.8-4.75,45.01.12,4.57,1.42,9.46-3.2,12.87-.84.37-1.71.38-2.58.11-1.34-5.69-.64-11.83-3.69-17.16.11-1.16.22-2.32.32-3.48.16-1.84,1.3-2.42,2.96-2.37.35.33.6.72.75,1.18l.62.32-.52-.46c-.14-.46-.38-.85-.75-1.17Z" style="fill: #4b4244; fill-rule: evenodd;"/>
  <path d="M25.51,204.33c1.16-.64,1.72-1.63,1.69-2.94,0-.28-.09-.59-.24-.83-.34-.53-.81-.46-1.37.08-.64.62-1.32,1.2-1.98,1.8-3.17-3.09,1.21-6.17,0-9.26-.03-3.03-.27-5.98,1.81-8.71,2.02-2.64-.48-3.65-2.33-4.71-.61-4.36,2.37-7.98,2.53-12.18.49-.18.95-.41,1.38-.72,1.25.29,2.03,1.1,2.53,2.22.17.76.1,1.52-.17,2.24-1.35,1.45,1.07,1.42.96,2.35,2.71,3.52,2.55-.77,3.03-1.42,1.99-2.66,3.66-5.57,5.43-8.4,3.37-5.2,3.33-12.38,9.29-16.08,5.17.4,3.1,5.87,5.68,8.11.34.77.51,1.57.51,2.41-.57,4-3.28,6.82-5.42,9.97-6.62,11.35-15.17,21.74-17.33,35.28-.49,2.89-1.18,5.76-1.38,8.71-.28.86-.81,1.53-1.55,2.06-.88.28-1.77.31-2.67.06-.8-.52-1.38-1.22-1.78-2.08-.92-2.89-.75-5.6,1.38-7.97Z" style="fill: #565155; fill-rule: evenodd;"/>
  <path d="M26.17,301.79c.65.38,1.3.76,1.96,1.13-.92,1.92-1.65,3.98-2.82,5.74-3.21,4.89-4.57,4.74-8-.68-.48-.76-.82-1.69-1.92-1.36-.53.16-.97.7-1.39,1.13-.21.21-.32.53-.41.82-.87,2.93-1.54,7.16-4.93,6.83-3.52-.34-6.38-3.46-6.78-7.69-.52-1.68-1.74-3.48,1.27-4.2,2.64-.64,5.22-1.54,3.71-5.23q3.58-8.57,13.48-3.52c1.82,1.46,3.03,3.45,4.43,5.28.49.57.95,1.16,1.39,1.76Z" style="fill: #a4b9df; fill-rule: evenodd;"/>
  <path d="M.4,304.39c-.16-7.09-1.23-14.17.92-21.24,1.27-4.17.69-8.62-.45-12.86-.44-1.62-.52-3.01.84-4.2,6.66,4.29,6.32,10.26,4.02,16.7,2.32,4.84,2.38,9.95,1.86,15.13.7,1.78,2.08,2.91,3.66,3.87.8.49,1.4,1.3.98,2.2-.46,1.01-1.66,1.06-2.3.43-2.67-2.61-3.93-1.01-4.98,1.5-2.24-1.52-3.12-.67-3.08,1.77-.51-1.1-1.45-2.2-1.47-3.31" style="fill: #afbcdd; fill-rule: evenodd;"/>
  <path d="M21.46,181.92c.34,3.1-2.59,4.82-3.18,7.59-.32,1.51-2.02,7.05-2.05,9.11-.05,2.71-1.54,2.96-3.7,2.28-.57-.18-1.23-.06-1.86-.08-.21-8.47,4.16-14.33,10.79-18.9Z" style="fill: #9e94a3; fill-rule: evenodd;"/>
  <path d="M41.04,301.66c1.53.15,3.08,1.3,4.46-.72.75-1.09,2,.05,3.01.4.73.49.84,1.11.35,1.84l-.1.26c-2.27,1.27,1.01,8.33-5.46,5.25-2.38-1.82-2.59-4.34-2.25-7.03Z" style="fill: #5d544b; fill-rule: evenodd;"/>
  <path d="M29.41,301.33c-.2-2.6,2.55-2.93,3.64-4.57.53-.8,1.56-.08,1.67,1.1.16,1.74,1.78,1.24,2.75,1.73-2.3,2.34-5.27,1.6-8.06,1.75Z" style="fill: #5d544b; fill-rule: evenodd;"/>
  <path d="M43.29,308.69c3.68.18,3.4-3.75,5.46-5.25.14,2.37.02,4.82,2.94,6.22-3.23,1.75-5.91.96-8.48,1.13.03-.7.06-1.4.08-2.1Z" style="fill: #edeee9; fill-rule: evenodd;"/>
  <path d="M37.5,299.56c2.93-1.91,3.06-1.83,3.51,2.04-1.17-.68-2.34-1.36-3.51-2.04Z" style="fill: #5d544b; fill-rule: evenodd;"/>
  <path d="M37.46,82.34c-.05-.88-.11-1.77-.16-2.65-.1-1.2-.75-1.97-1.85-2.4l.04.16c-.7-1.64-2.55-1.18-3.68-2.03l.02.02c-.58-.38-.78-.91-.58-1.57-.49-.86-1.8-.49-2.21-1.48-.77-2.95-.26-5.32,2.86-6.55.62.04,1.23.08,1.85.11.48.53,1.03.68,1.53.3.8-.62.92-1.35.17-2.12-3.13-1.89-6.27-3.78-9.4-5.68-3.06-1.84-3.67-6.18-.75-8.25,3.94-2.78,6.34-6.6,8.61-10.62.82-.41,1.65-.48,2.51-.15,3.53,2.52,7.54,3.8,11.64,5.13,8.45,2.73,11.2,7.11,10.53,15.4-2.13,1.6-4.17.32-6.19-.28-2.41-.72-3.5.18-3.59,2.58-.28,2.73.12,4.84,3.65,4.36.86-.02,1.69.11,2.51.32,1.66.59,3.19,1.37,4.31,2.78,3.22,5.32,2.36,9.32-3.8,11.57-.88-.07-1.68-.38-2.39-.91-1.88-.93-2.84-3.88-5.7-2.58-.36.5-.72,1-1.01,1.54-.38.83-.52,1.7-.37,2.62.18.62.27,1.24.35,1.89.03.68-.06,1.33-.26,1.98-.29.63-.71,1.15-1.23,1.59-1.07.8-2.19,1.53-3.05,2.57-.83,1.19-.89,2.46-.37,3.8.47,1.11.8,2.24.67,3.47-1.1,2.99-2.26,5.92-6.01,6.42-.81-.61-1.18-1.42-1.12-2.43.28-3.79-.79-7.66.63-11.39-.21-.56-.11-1.07.29-1.51,1.51-1.74.25-4.19,1.51-6Z" style="fill: #3d312a; fill-rule: evenodd;"/>
  <path d="M105.68,132.45c1.26,1.02,1.44,2.35,1.13,3.83-2.82,1.94-.09,6.63-4,8.04-5.2-3.1-5.16-8.9-6.89-13.72-1.37-3.83-2.66-7.65-4.69-11.17-.48-.71-.94-1.45-1.4-2.16-1.8-2.42-3.74-2.47-4.53.49-2.32,8.72-9.66,16.13-6.9,26.18-.91,1.72-2.35,2.71-4.24,3.07-2.53,0-4.15-1.31-5.11-3.56.19-2.89-2.62-3.9-3.76-5.95-.18-.75-.15-1.5.07-2.23,1.02-.97,0-1.92-.07-2.9-.02-.78.18-1.49.54-2.17,1.67-2.24,4.26-3.16,6.5-4.59.93-.69,1.78-1.47,2.5-2.38,1.37-2.03,2.69-4.07,3.92-7.53-2.58,1.72-4.24,4.23-6.92,2.8-.65-.59-1.01-1.32-1.14-2.18.27-7.68,5.16-12.4,10.7-16.72,6.34-2,10.97,2.65,16,4.78,2.69-3.12.9-7.41,4.2-9.56,6.59,2.58,3.08,9.12,5.28,13.42.8,2.78.8,5.97-.4,8.17-2.6,4.81-1.44,9.56-1.21,14.39-.58.73-.44,1.26.42,1.62Z" style="fill: #393c47; fill-rule: evenodd;"/>
  <path d="M108.59,295.59q-3.9-1.76-7.39,1.78c-.4-.13-.81-.25-1.21-.38-.68-.53-1.16-1.2-1.44-2.02-.06-1.83.95-3.15,2.08-4.41,3.62-5.71-2.1-3.65-3.99-4.74-.86-.17-1.68-.43-2.5-.73-1.89-1.37-5.83-1.14-4.17-5.3,1.11-.86,2.39-1.29,3.77-1.49,2.66-.33,5.34-.21,8.01-.32,3.51.17,6.44-1.52,9.44-2.97,3.92-1.4,7.68-3.14,11.21-5.36,2.55-1.64,4.8-1.52,6.6,1.15.64,3.32.76,6.62.19,9.99-.37,2.22-2.02,2.83-3.71,3.51-3.92-.25-8.37-2.38-7.97,5.24.26,4.88-3.32,7.87-8.92,6.06Z" style="fill: #343237; fill-rule: evenodd;"/>
  <path d="M23.97,32.49c-4.59-.49-5.84-4.2-7.05-7.69-1.03-2.97.59-5.38,2.41-7.61,2.52-3.09,4.86-6.27,6.11-10.16.78-2.46,2.53-4.34,5.04-5.15,5.94-1.92,11.92-3.08,17.85.1-2.83,3.55-8.48,2.52-10.86,6.75-.44.66-.91,1.29-1.38,1.91-.65.98-1.27,1.99-1.72,3.08-1.19,3.89-1.11,8.19-3.8,11.57-2.43,2.19-2.97,6.11-6.59,7.2Z" style="fill: #c5d4ed; fill-rule: evenodd;"/>
  <path d="M63.3,9.48c3.07,1.83,6.11,3.69,9.21,5.47,2.37,1.35,4.51,2.91,5.97,5.28,2.18,3.13,7.9,4.17,5.82,9.82-3.69,1.61-7.23.37-10.79-.53-.81-.37-1.55-.86-2.23-1.43-3.19-3.11-7.16-4.51-11.43-5.54-3.42-.83-7.57-.95-8.73-5.53.48-1.44.84-2.88-.45-4.1-.52-.45-1.11-.77-1.81-.86-1.37.36-2.75.77-4.17.19-.65-.47-1.1-1.08-1.38-1.83-.18-.83-.21-1.64-.09-2.47,3.18-5.9,7.52-3.88,11.77-1.61,2.65,1.42,4.71,4.26,8.3,3.15Z" style="fill: #748ac5; fill-rule: evenodd;"/>
  <path d="M103.36,144.33c.12-2.33.27-4.61-.27-6.95-.57-2.49-.37-2.54,2.93-1.48.27.09.52.25.79.38,2.16,9.32,4.33,18.63,6.5,27.95,1.68,7.22,3.41,14.43,5,21.67.46,2.1.54,4.28.8,6.43-1.18,1.12-2.56,1.27-4.06.82-1.32-.71-2.29-1.77-3.01-3.07-3.03-7.93-3.62-16.48-6.25-24.51-.24-.89-.4-1.8-.54-2.71-.29-4.14-1.95-7.93-3.11-11.85-.47-2.39-.65-4.72,1.23-6.67Z" style="fill: #443d38; fill-rule: evenodd;"/>
  <path d="M106.86,108.28c-1.71-1.26-1.67-3.13-1.78-4.97-.17-3.18-1.18-5.98-3.77-8.02-1.14-.18-1.94-.83-2.51-1.8-.22-.7-.32-1.41-.3-2.14-.07-1.61-1.08-2.83-1.78-4.2-5.17-8.87-5.59-18.94-7.41-28.67.73-3.69-1.2-9.45,6.17-8.01,3.28,5.81,3.26,12.48,4.74,18.74,2.25,9.57,3.84,19.3,5.81,28.94.68,3.36,1.22,6.69.84,10.12Z" style="fill: #44444c; fill-rule: evenodd;"/>
  <path d="M95.47,50.47c-2.55.14-3.77,1.47-3.74,4.03.02,1.8-.06,3.6-.09,5.4-.87.26-1.67.12-2.36-.48-2.94-9.4-7.53-17.78-15.14-24.28-.57-.64-1.08-1.33-1.58-2.04-2.58-4.3-2.57-4.44.58-5.18,3.72-.24,7.32.37,10.79,1.72,4.76-.62,5.43,3.65,7.49,6.26,1.33,4.86,3.66,9.44,4.05,14.57Z" style="fill: #55576c; fill-rule: evenodd;"/>
  <path d="M108.59,295.59c6.87-1.97,7.61-2.91,7.04-9.19-.11-1.19-.76-2.41-.58-3.52.32-1.91,1.76-3.23,3.56-3.79,1.23-.38,2.23.42,3.01,1.51,1.04,1.46,1.94,3.14,3.86,3.7-.06,3-.13,6-.19,8.99-2.74,6.09-7.76,6.47-13.35,5.28-1.59-.34-2.72-1.43-3.35-2.97Z" style="fill: #a7c1e4; fill-rule: evenodd;"/>
  <path d="M122.65,212.86c.13.62.27,1.24.4,1.85.46,10.07,2.52,19.94,3.87,29.9.08,2.27.17,4.54.25,6.81,1.52,3.83-.32,8.07,1.43,11.87.03,1.26.06,2.51.08,3.77-7.92.89-4.88-5.77-6.41-9.27-.17-.86-.21-1.74-.11-2.61.9-1.24,1.32-2.47-.17-3.62-1.02-2.24-.89-4.67-1.18-7.03-.21-1.13-.46-2.24-.72-3.36-.24-1.11-.25-2.22.11-3.3-.37-.91,2.12-.25.89-1.63-.24-.26-.47-.52-.71-.77-.34-.61-.59-1.26-.75-1.94-.21-1.01-.33-2.03-.51-3.05-.27-1-.57-1.99-.8-3.01-.1-.72-.1-1.43-.06-2.15.03-1.53-.38-2.98-.77-4.45-.32-1.26-.5-2.52-.56-3.82-.08-1.49-.05-2.97.35-4.39.49-1.68.98-3.77,3.24-3.36,1.54.28,1.23,2.46,2.13,3.56Z" style="fill: #46474c; fill-rule: evenodd;"/>
  <path d="M32.49,148.17c.07-1.21-.16-2.53.26-3.61,2.11-5.46,2.21-11.27,3.2-16.92.69-.69,1.51-1.16,2.45-1.41,2.69-.27,4.67.86,6.14,3.04.43.87.67,1.8.76,2.77-.82,7.08-1.32,14.32-8.19,18.77-2.31.48-3.52-.97-4.62-2.63Z" style="fill: #4d4446; fill-rule: evenodd;"/>
  <path d="M63.3,9.48c-.27.84-.39,2.31-.82,2.41-1.4.3-3.06.48-4.34-.02-.94-.37-1.39-1.9-2.15-2.85-2.38-2.97-5.54-3.54-9.05-2.77-1.82.4-2.17,1.9-2.4,3.45-2.27.89-4.78.17-7.07,1-.84-.04-1.57-.34-2.2-.9.36-5.34,4.39-6.69,8.58-7.69,1.42-.34,2.98-.11,4.48-.14,5.49,1.48,10.64,3.68,14.97,7.49Z" style="fill: #6179ba; fill-rule: evenodd;"/>
  <path d="M122.65,212.86c-.46-.38-.95-.73-1.39-1.15-1.08-1.02-2.01-1.3-2.12.62-.13,2.1-.06,4.22-.08,6.33-1.09.49-2,.25-2.72-.7-2.65-6.92-1.48-14.37-3-21.46.14-1.64.62-3.12,2.01-4.16,1.25-.01,2.5-.03,3.74-.04,2.41,6.63,3.9,13.43,3.56,20.54Z" style="fill: #58504d; fill-rule: evenodd;"/>
  <path d="M34.29,116.4c-1.75.57-3.46,1.23-5.24,1.67-1.42.36-3.02,1.1-4.21-.48-1.3-1.71-.94-5.24.78-6.61,2.64-2.12,5.39-4.1,8.09-6.14.39.23.78.46,1.18.68,1.97,3.15,3.56,6.37,1.81,10.18-.66.7-1.46.93-2.4.7Z" style="fill: #57493d; fill-rule: evenodd;"/>
  <path d="M32.49,148.17c1.38.64,2.77,1.28,4.15,1.92,1.28,1.2,1.29,2.73,1.1,4.3-.22,1.1-.66,2.13-1.14,3.13-.27.65-.61,1.29-.95,1.91-.49.92-.98,1.84-1.42,2.78-.24.65-.52,1.29-.78,1.94-.46,1.36-.71,2.78-1.08,4.17-.59,1.45-1.22,2.85-3.22,2.46-.71-1.3-1.43-2.61-2.15-3.92.13-.64.27-1.28.4-1.92.79-1.37.8-2.97,1.29-4.43l-.23-.62.45-.48c1.76-1.47.22-3.99,1.76-5.52l.06-.21c1.24-1.24,1.09-2.97,1.57-4.49l-.21-.58.41-.46Z" style="fill: #4b4244; fill-rule: evenodd;"/>
  <path d="M126.92,244.61c-.43-.44-1.17-.82-1.25-1.31-1.51-8.82-2.97-17.64-4.28-26.5-.09-.6,1.08-1.39,1.66-2.09,2.23,5.47,2.07,11.37,3.06,17.06.73,4.2.57,8.55.81,12.84Z" style="fill: #58504d; fill-rule: evenodd;"/>
  <path d="M91.42,35.9c-2.5-2.08-4.99-4.17-7.49-6.26-.53-1.07-.82-2.43-1.65-3.17-1.96-1.72-3.1-3.81-3.79-6.25,4.76.32,8.13,2.73,9.88,7.1,1.12,2.81,3.19,5.31,3.06,8.57Z" style="fill: #8ea4d4; fill-rule: evenodd;"/>
  <path d="M23.97,32.49c.7-1.7,1.55-3.36,2.08-5.11.53-1.76,1.77-2.37,3.34-2.72,1.66,2.31,1.97,5.19,3.26,7.66.24,1.28.03,2.44-.88,3.42-2.46-1.43-5.68-1.04-7.81-3.26Z" style="fill: #a8c0e4; fill-rule: evenodd;"/>
  <path d="M31.91,73.35c-.03.69-.05,1.39-.08,2.08-4.89-2.13-5.98-3.77-5.14-7.65.5-2.31,1.89-2.83,5.2-1.95-.66,2.54-3.5,5.11.09,7.6l-.08-.08Z" style="fill: #756154; fill-rule: evenodd;"/>
  <path d="M34.29,116.4c.63-.07,1.26-.13,1.89-.2.39.06.78.12,1.17.16,2.28.67,4.9.88,5.37,3.99-.07,3.35-1.89,5.55-4.68,7.1-.69.06-1.38.12-2.08.18-.56-3.74-1.11-7.49-1.67-11.23Z" style="fill: #57566e; fill-rule: evenodd;"/>
  <path d="M123.47,255.83c2.29,2.22,1.46,5.13,1.7,7.79.19,2.23,1.46,3.2,3.52,3.44.11,1.24.22,2.49.32,3.74-1.89-.95-3.76-1.23-5.57.17-2.29-1.75-2.37-4.33-2.58-6.86-.08-1.52.01-3.04.27-4.54.33-1.52.95-2.87,2.34-3.74Z" style="fill: #57575c; fill-rule: evenodd;"/>
  <path d="M31.78,35.75c-.09-1.12-.18-2.24-.26-3.36-1.51-2.92-.46-4.42,2.64-4.79,2.24.49,2.63,2.28,2.94,4.14.05.9-.04,1.79-.25,2.66-.29.84-.8,1.56-1.46,2.16-.86.37-1.66.24-2.41-.32-.47,0-.87-.17-1.2-.5Z" style="fill: #4f66ae; fill-rule: evenodd;"/>
  <path d="M35.65,89.85c.11,4.47.21,8.94.32,13.4-.31.4-.63.54-.96.42-.34-.12-.5-.24-.5-.37-.05-4.52-1.58-9.16,1.14-13.45Z" style="fill: #5b4d42; fill-rule: evenodd;"/>
  <path d="M128.6,263.3c-2.97-3.66-1.43-7.86-1.43-11.87,1.87,3.79,1.72,7.82,1.43,11.87Z" style="fill: #57575c; fill-rule: evenodd;"/>
  <path d="M35.46,64.13c.75.33,1.58.57,2.23,1.04.4.29.84,1.29.73,1.4-.53.5-1.24,1.08-1.91,1.11-1.18.05-2.13-.67-2.75-1.72.57-.61,1.14-1.22,1.7-1.83Z" style="fill: #90877b; fill-rule: evenodd;"/>
  <path d="M30.66,153.9c.07,2.05.41,4.18-1.76,5.52-.04-2.04.32-3.96,1.76-5.52Z" style="fill: #4d4446; fill-rule: evenodd;"/>
  <path d="M37.46,82.34c.46,2.24.63,4.41-1.51,6-.61-2.28-.18-4.29,1.51-6Z" style="fill: #5b4d42; fill-rule: evenodd;"/>
  <path d="M32.3,149.21c.18,1.75.24,3.45-1.57,4.49-.19-1.74.16-3.3,1.57-4.49Z" style="fill: #4d4446; fill-rule: evenodd;"/>
  <path d="M31.82,75.42c1.83-.43,3.05.28,3.68,2.03-1.6,0-3-.37-3.68-2.03Z" style="fill: #756154; fill-rule: evenodd;"/>
  <path d="M32.98,36.26c.76-.11,1.51-.21,2.27-.32,1.11,1.18,1.13,2.42.19,3.71-.51.08-1.02.06-1.51-.06-.32-1.11-.63-2.22-.95-3.32Z" style="fill: #515873; fill-rule: evenodd;"/>
  <path d="M28.68,160.52c.18,1.65.27,3.28-1.29,4.43-.19-1.66.4-3.09,1.29-4.43Z" style="fill: #4d4446; fill-rule: evenodd;"/>
  <path d="M34.51,103.3c.49,0,.98-.02,1.46-.05l.21-.05c.38,1.45-.35,2.08-1.67,2.28-.27-.21-.54-.43-.81-.65-.01-.66.26-1.18.81-1.54Z" style="fill: #57493d; fill-rule: evenodd;"/>
  <path d="M105.68,132.45c-1.13-.29-1.53-.76-.42-1.62l.48.74-.06.87Z" style="fill: #443d38; fill-rule: evenodd;"/>
  <path d="M35.46,77.29c1.3.27,1.89,1.09,1.84,2.4-.61-.8-1.23-1.6-1.84-2.4Z" style="fill: #5b4d42; fill-rule: evenodd;"/>
  <path d="M64.11,323.55c1.87,3.56,4.47,6.9,3.64,11.33-.29-.02-.61.02-.88-.09-.52-.21-1.47-.66-1.44-.73,1.32-3.74-4.23-6.61-1.33-10.51Z" style="fill: #f9fbf7; fill-rule: evenodd;"/>
  <path d="M60.34,315.51c2.15,2.26,3.44,4.93,3.77,8.05-4.1-1.35-4.17-4.59-3.77-8.05Z" style="fill: #f9fbf7; fill-rule: evenodd;"/>
  <path d="M58.21,308.78c1.9,1.44,2.17,3.42,1.86,5.6-2.21-1.34-2.03-3.47-1.86-5.6Z" style="fill: #edeee9; fill-rule: evenodd;"/>
  <path d="M50.81,299.51c1.71-2.3,2.02-2.3,3.36-.03-1.12.01-2.24.02-3.36.03Z" style="fill: #edeee9; fill-rule: evenodd;"/>
  <path d="M54.64,300.67c1.51,1.05,1.63,2.67,1.78,4.28-1.93-.87-2.12-2.47-1.78-4.28Z" style="fill: #edeee9; fill-rule: evenodd;"/>
  <path d="M56.4,304.91c1.77.72,1.89,2.21,1.79,3.8-1.61-.79-1.95-2.18-1.79-3.8Z" style="fill: #edeee9; fill-rule: evenodd;"/>
  <path d="M48.85,303.18c-.12-.61-.23-1.23-.35-1.84.56-.31,1.12-.62,1.68-.93.15,1.21-.3,2.13-1.34,2.77Z" style="fill: #edeee9; fill-rule: evenodd;"/>
  <path d="M110.85,328.94c-.5-.22-.67-.6-.49-1.12-.06-1.14-.76-1.88-1.59-2.54l-.05-.1c-.45-1.31-.4-2.9-1.94-3.63-2.4-2.09-4.14-4.68-5.64-7.45-.33-2.13-.24-4.22.53-6.26.38-.79.98-1.36,1.8-1.68,3.26,1.37,3.47,4.99,5.39,7.35.32.99.95,1.72,1.82,2.25h0c.64,1.23.24,2.88,1.57,3.83l.48.53-.02.72c.19,1.04.86,1.75,1.61,2.43l.05.11c1.11.94.69,2.78,2.11,3.52l-.08-.09c.33.86,1.07,1.39,1.64,2.06l.06.11c1.42,1.83,1.16,3.74.22,5.66l.02-.02c-1.33.84-2.65.93-3.96-.03l-.03-.07c-.99-1.03-.62-2.79-1.96-3.63l.04.03c-.51-.68-1.03-1.34-1.6-1.98Z" style="fill: #37312c; fill-rule: evenodd;"/>
  <path d="M112.25,319.59q-2.88-.68-1.57-3.83c1.54.86,1.72,2.28,1.57,3.83Z" style="fill: #444039; fill-rule: evenodd;"/>
  <path d="M101.2,297.37c.02,1.78.03,3.57.04,5.35-.46.12-.93.23-1.39.35-2.01-1.19-2.19-2.97-1.61-5,.29-.39.59-.77.87-1.15.48-.02.96-.04,1.45-.05l.64.5Z" style="fill: #37312c; fill-rule: evenodd;"/>
  <path d="M118.33,334.65c-.07-1.89-.14-3.78-.22-5.66.46.06.92.11,1.38.15.46,2.02,2.24,4.31-1.16,5.52Z" style="fill: #444039; fill-rule: evenodd;"/>
  <path d="M101.24,302.72c1.5.66,2.05,1.93,2.23,3.44l-.7.56c-2.6-.23-2.78-1.71-1.92-3.73l.4-.27Z" style="fill: #37312c; fill-rule: evenodd;"/>
  <path d="M116.48,326.89c-1.72-.56-2.18-1.89-2.11-3.52,1.22.87,2,2,2.11,3.52Z" style="fill: #444039; fill-rule: evenodd;"/>
  <path d="M114.32,323.26c-1.02-.49-1.57-1.29-1.61-2.43,1.11.43,1.69,1.21,1.61,2.43Z" style="fill: #444039; fill-rule: evenodd;"/>
  <path d="M110.68,315.76c-1.06-.38-1.68-1.12-1.82-2.25,1.23.25,1.84,1,1.82,2.25Z" style="fill: #444039; fill-rule: evenodd;"/>
  <path d="M118.05,328.87c-.94-.37-1.51-1.04-1.64-2.06,1.11.24,1.66.92,1.64,2.06Z" style="fill: #444039; fill-rule: evenodd;"/>
  <path d="M100.84,302.99c.21,1.46.68,2.8,1.92,3.73.13,2.61,1.1,5.4-1.62,7.38l.02.02c-2.22-7.35-3.71,3.64-5.76.23v-.02c-.77-1.24-.54-2.91-1.69-3.98-1.93-6.21-3.86-12.42-5.79-18.64-1.87-3.84-3.44-5.36-5.53-4.33-3.34,1.65-6.82,1.81-10.34,2.28-1.02.14-1.89,1.37-2.83,2.1-.39.37-.8.51-1.22.43-.43-.08-.65-.18-.65-.29-.73-1.72-2.09-2.74-3.65-3.73-3.15-1.99-3.08-2.09-.17-5.63-1-2.19.64-2.48,2.08-2.92.75.04,1.44.29,2.05.73.8,1.62.74-.2.78-.28.63-1.07-.12.41.47-.7,1.43-1.85,3.3-3.28,4.75-5.1,1.75-2.36,2.1-6.7,5.58-6.55,3.48.15,2.68,4.14,3.33,6.6.09.61.45.92,1.11.79,1.85-4.78,3.93-5.78,6.42-.49.35.77.59,1.57.76,2.4.14,1.32-.17,2.5-1.16,3.45,1.09,2.41,4.48,1.35,5.6,3.7l.02.02c2.11.02,4.22-.02,6.33.06,1.58.06,3.08.62,3.6,2.22.51,1.55-.31,3.02-1.41,4.01-.84.75-2.12,1.01-3.2,1.49,0,0-.41-.63-.41-.63-.09-.5-.1-1-.1-1.51-.11.56-.38,1-.84,1.33-.7.55-1.3,1.16-1.55,2.06-.18,1.38.55,2.49,1.07,3.66.39,2.13.03,4.5,2,6.11Z" style="fill: #292526; fill-rule: evenodd;"/>
  <path d="M67.36,291.91c.62-.05,1.25-.1,1.87-.14,5.09.51,5.17.51,5.44,4.04.68,8.62-.03,17.19-1.31,25.72-.14.95-.77,1.71-1.77,1.65-.48-.03-1.18-.57-1.35-1.04-2.83-7.83-5.65-15.65-8.33-23.53-1.01-2.98-.42-3.77,2.98-5.41.83-.4,1.64-.85,2.46-1.28Z" style="fill: #edeeea; fill-rule: evenodd;"/>
  <path d="M46.56,273.13c-.63.25-1.26.49-1.89.73-.94.29-1.75.06-2.45-.59-1.21-6.21-2.9-12.58,5.02-15.93,2.24.22,4.05,1.33,5.68,2.8,1.19,1.11,2.44,2.19,3.43,3.51.35.84.11,1.49-.64,1.97l.11-.05c-3.88,1.54-4.36,7.27-9.26,7.55Z" style="fill: #889ed1; fill-rule: evenodd;"/>
  <path d="M24.48,301.5c-2.74-.8-3.51-3-3.88-5.48-1.72-1.7-4.76-2.45-4.12-5.82,2.59-2.51,3.01-5.55,2.14-8.91-.11-1.32-.03-2.61.28-3.9.27-.86.72-1.61,1.33-2.27.43-.11.85-.22,1.28-.34.88.22,1.57.72,2.07,1.48,2.13,4.95,1.89,11.36,8.4,13.61.53.84.37,1.56-.4,2.17-.55-.07-1.1-.04-1.64.09-3.82,1.95-4.68,5.63-5.46,9.36Z" style="fill: #727b9b; fill-rule: evenodd;"/>
  <path d="M31.58,292.05c.24-.57.31-1.17.22-1.78-.55-5.41-.98-10.75,6.48-11.75.4.25.8.51,1.19.76-.08,3.07-.15,6.13-.23,9.2-.63.62-.64,1.23.05,1.82-2.06,2.8-5.04,1.61-7.71,1.76Z" style="fill: #363339; fill-rule: evenodd;"/>
  <path d="M55.71,265.62c.06-.51.16-1.02.31-1.53.93-1.27,2.25-1.74,3.75-1.84,1.44.03,2.74.45,3.85,1.39,3.23,5.12-.53,11.86,3.83,16.74-1.53.32-3.07.62-3.91,2.17-2.47-1.14-3.81-3.05-3.79-5.79.02-2.46.1-4.91.22-7.36.14-2.99.17-2.98-4.27-3.77Z" style="fill: #363339; fill-rule: evenodd;"/>
  <path d="M24.48,301.5c-.08-.59-.1-1.2-.26-1.78q-1.89-7.06,5.71-7.58c-.04,1.83-.62,3.45-1.88,4.8-1.27,1.36-1.69,3.05-1.89,4.84-.61.22-1.17.12-1.69-.28Z" style="fill: #484647; fill-rule: evenodd;"/>
  <path d="M46.56,273.13c1.22-1.71,3.49-2.47,4.1-4.77.7-2.67,3.04-2.59,5.16-2.78-1.51,2.32-2.79,4.85-4.61,6.89-1.02,1.14-2.77,2.87-4.65.66Z" style="fill: #363339; fill-rule: evenodd;"/>
  <path d="M43.19,275.47c-.27,2.22-1.57,3.43-3.72,3.81l-.28-.29c-.57-.73-.7-1.52-.33-2.38.81-1.11,1.88-1.78,3.26-1.89.35.25.71.5,1.07.75Z" style="fill: #363339; fill-rule: evenodd;"/>
  <path d="M46.77,287.17c.23-.5.46-1,.7-1.51.37.3.82.54,1.06.92.42.65.17,1.28-.59,1.34-.37.03-.78-.49-1.17-.76Z" style="fill: #abb1a9; fill-rule: evenodd;"/>
  <path d="M39.28,290.3c-.46-.17-1.25-.25-1.34-.54-.3-1.02.54-1.16,1.29-1.27l.09.91-.04.91Z" style="fill: #afb2a5; fill-rule: evenodd;"/>
  <path d="M43.17,273.54c.51.08,1.02.18,1.51.32-.5.54-1,1.08-1.49,1.61l-.23-.2c-.58-.66-.54-1.24.22-1.73Z" style="fill: #363339; fill-rule: evenodd;"/>
  <path d="M7.43,282.88c1.23-2.19,1.91-4.48,1.88-7.06-.05-4.89-.27-9.84-.62-14.64-.39-5.35.04-10.34,1.19-15.43.34-1.49.88-3.01.85-4.5-.14-7.82.45-11.02,3.71-18.1,3.53,2.92,1.37,7.33,2.82,10.78.02,1.52-.57,2.9-1.06,4.28.41.69-1.88.54-.5,1.54.32-.53.57-1.07.76-1.64.29-.92.65-1.81.84-2.76.19-1.37-.21-2.72-.18-4.08.19-1.03.53-2.02.78-3.04.08-.7.19-1.4.28-2.1.04-.73.14-1.44.28-2.15.27-1.11.72-2.08,1.76-2.67,1.66,1.3,1.66,3.17,1.71,5.03.09,3.38.21,6.76.32,10.15,1.91,1.81,1.77,4.07,1.38,6.38-3.25,7.4-3.16,15.13-2.24,22.94.42,1.24.49,2.5.29,3.79-.38,2.1-1.3,3.99-2.27,5.87-1.74,3.18.7,7.75-3.36,10.16-.78.26-1.58.35-2.4.3-1.18-.2-2.32-.57-3.44-.98-.75-.25-1.44-.63-2.09-1.08-.23-.32-.45-.64-.68-.97Z" style="fill: #3c383e; fill-rule: evenodd;"/>
  <path d="M22.15,243.64c.03-2.39.06-4.78.09-7.17,2.84-2.11.82-5.28,1.71-7.81.48-.43.96-.59,1.46-.48.51.11.76.23.76.35,2.02,2.83,1.67,6.27,2.45,9.42.13.76.21,1.53.33,2.28,5.33,2.29,8.92,4.92,1.83,9.55-1.13,1.08-3.67-.03-3.85,2.54.07.76.08,1.48.06,2.22.74,7.56.74,14.92-4.81,21.01-.54-.03-1.07-.11-1.6-.21-1.48-1.79-1.33-3.64-.22-5.54.03-1.24.06-2.49.09-3.73,1.08-7.44-.78-15.09,1.69-22.42Z" style="fill: #8ea2d0; fill-rule: evenodd;"/>
  <path d="M16.7,290.62c.97,2.05,3.44,3,3.9,5.41-1.14-.28-2.32-.46-3.42-.87-1.92-.71-3.84-2.28-5.67-2.16-2.02.14-.59,3.94-3.1,4.58-.29.07-.55.22-.82.34-2.25-4.84-3.58-9.8-1.86-15.13.56.18,1.12.21,1.69.09,0,0-.07.31-.07.31,2.81,2.86,6.69,4.37,9.34,7.43Z" style="fill: #919ec5; fill-rule: evenodd;"/>
  <path d="M18.33,230.6c-.03,1.84-.05,3.69-.08,5.53-.3.25-.59.5-.89.75-.31-.23-.62-.46-.94-.69-1.35-4.25-2.27-8.56-1.99-13.05.63-.94,1.4-1.83,1.86-2.85.51-1.12,1.07-2.47,2.34-1.9.8.36,1.07,1.9,1.57,2.91-.05,1.21-.09,2.42-.14,3.63-.66.64-.69,1.27,0,1.9,0,.6,0,1.21,0,1.81-.65.59-1.15,1.31-1.74,1.95Z" style="fill: #595053; fill-rule: evenodd;"/>
  <path d="M23.85,217.54c-.96-1.11-1.86-2.27-2.89-3.32-3.55-3.64-2.53-7.38,2.71-9.86.89,2.9-.86,6.28,1.61,8.9l.43.53c1.19,2.15,1.05,3.64-1.86,3.76Z" style="fill: #565155; fill-rule: evenodd;"/>
  <path d="M23.85,217.54c1.4-.87,1.77-2.25,1.86-3.76.83-.11,1.67-.21,2.51-.32.86-.48,1.44-.25,1.76.67.22,2.08-.67,3.91-1.36,5.78-.51,1.47-.81,2.98-.97,4.53-.07.8-.24,1.57-.48,2.34-.3.76-.8,1.37-1.45,1.87-.59,0-1.18,0-1.77.02-.03-3.71-.06-7.42-.1-11.13Z" style="fill: #8d9bc5; fill-rule: evenodd;"/>
  <path d="M25.28,213.25q-4.03-3.23-1.61-8.9c.62,0,1.23,0,1.84-.02-.08,2.97-.16,5.95-.23,8.92Z" style="fill: #463d3d; fill-rule: evenodd;"/>
  <path d="M23.6,193.18c1.56,1.02,1.46,2.29.92,3.93-.56,1.69-.63,3.55-.91,5.33-.65-.6-1.29-1.19-1.94-1.79-.97-1.27-1-2.53.03-3.79.64-1.23,1.27-2.46,1.9-3.69Z" style="fill: #676067; fill-rule: evenodd;"/>
  <path d="M21.7,196.87c0,1.26-.02,2.53-.03,3.79-1.82-1.28-1.86-2.54.03-3.79Z" style="fill: #565155; fill-rule: evenodd;"/>
  <path d="M5.11,260.11c.88.68,1.93,1.34.33,2.37l-.03-.03c-.13-.73-.26-1.47-.39-2.21,0,0,.1-.13.1-.13Z" style="fill: #3c383e; fill-rule: evenodd;"/>
  <path d="M5.44,262.48c-.14.25-.32.74-.41.72-.62-.11-.48-.41.38-.76l.03.03Z" style="fill: #3c383e; fill-rule: evenodd;"/>
  <path d="M53.11,155.49c-3.71.77-4.02.69-3.22-2.41.51-1.98.26-3.5-.62-5.12-.06-.43-.13-.85-.2-1.27-.15-3.85-.32-7.7.77-11.47,2.04-3.49,1.63-6.77-.72-9.98-1.74-2.36-4.08-4.56-2.73-7.98.43-.69,1.03-1.2,1.77-1.53,1.16-.13,2.25.19,3.29.62.62.26,1.23.59,1.8.96.51.33,1.03.7,1.53,1.03,0-.04.81.36.81.31.96.04,1.7-.45,2.45-1,.61-.4,1.26-.63,1.97-.74,1.23,0,2.27.41,3.08,1.33.43.7.74,1.45.93,2.25,1.26,5.22-3.54,10.02-1.08,15.33-.31,2.18-2.37,4.02-1.22,6.48,1.26,2.16,3.11,3.87,4.43,5.95,1.59,2.5,2.32,5.16.26,7.72-2.39,2.97-4.91,1.48-7.34-.05-1.55-.92-3.14-1.64-4.96-.67-.34.08-.67.16-1.02.23Z" style="fill: #35343f; fill-rule: evenodd;"/>
  <path d="M58.81,153.46c.76.49,1.54.95,2.27,1.47,1.23.86,2.5,1.99,3.93.58,1.42-1.39,1.85-3.26.69-4.92-1.18-1.71-2.79-3.12-4.19-4.68-.99-1.09-1.94-2.21-2.91-3.33,1.18-1.32,2.33-2.67,4.21-2.99,2.67.18,5.27.53,6.95,3.01.86,1.53,2.04,2.73,3.61,3.52,6.44,2.91,8.98,9.07,12.21,14.66,1.15,5.64,5.38,11.91-3.1,15.62-3.01-1.62-.43-6.6-4.56-7.57-3.42-2.34-4.3-6.41-6.53-9.45-1.6,1.24.64,2.05.33,3.12.56,2.7.68,5.31-1.05,7.67-6.41-3.41-11.12-9.12-17.36-12.77-.07-.64-.13-1.28-.21-1.92l.08-.06c1.45-1.88,2.94-3.66,5.63-1.96Z" style="fill: #70789b; fill-rule: evenodd;"/>
  <path d="M29.56,204.22c.86-7.49,2.13-8.74,5.68-17.05,3.21-7.53,8.47-13.52,12.46-20.42,1.04-1.01,2.24-1.2,3.57-.66,3.24,5.57-2.2,9.33-2.92,14.08-.21,1.23-.45,2.45-.68,3.68-.83,6.37-2.64,12.31-7.41,16.95-.87.87-1.83,1.64-2.87,2.29-1.05.58-2.18.94-3.34,1.22-1.49.3-3.01.86-4.48-.09Z" style="fill: #9198b8; fill-rule: evenodd;"/>
  <path d="M34.27,159.45c.38-.39.52-.86.42-1.39.36-.76.73-1.52,1.11-2.27.27-1.89.55-3.79.83-5.69,4.46-5.44,5.69-12.09,7.06-18.69,3.34-.73,3.98,1.97,5.14,4.03-.15,4.2,2.13,8.32.42,12.58v-.05c-2.06,4.15-5.39,7.62-6.3,12.45-.31,1.62-1.86,2.99-2.85,4.48-3.51,2.36-5.11.27-6.31-2.72-.19-.97-.03-1.87.48-2.71Z" style="fill: #8796c8; fill-rule: evenodd;"/>
  <path d="M51.4,166.72c-1.24.01-2.47.03-3.71.04,1.88-3.12,3.75-6.24,5.62-9.35,5.81-.37,9.5,3.9,13.84,6.57,1.99,1.22.28,5.07,3.28,6.16,2.59-1.47,4.6-.05,4.63,2.16.07,5.36,4.25,9.29,4.45,14.49-.14,1.97-.68,3.71-2.72,4.54-1.48.03-2.66-.65-3.74-1.56-5.15-3.12-2.55-10.25-7.09-13.71-4.25-2.09-7.44-5.37-10.4-8.91-1.39-.1-2.89.67-4.17-.43Z" style="fill: #7c85ac; fill-rule: evenodd;"/>
  <path d="M34.14,160.93c1.13,2.61,3.1,3.95,5.96,3.96-2.51,5.5-5.8,10.54-9.37,15.41-.1.14-.58.02-.99.03-1.45-2.45-.4-5.25-.86-7.86-.5-.67-.38-1.26.25-1.77,0,0,0,.1,0,.1,1.51-.78,1.73-2.2,1.81-3.68.91-1.13.68-2.67,1.42-3.87.11-.64.22-1.27.33-1.91.36-.56.84-.7,1.44-.4Z" style="fill: #7f8097; fill-rule: evenodd;"/>
  <path d="M28.21,213.46c-.07-.35.02-.66.27-.92.91-4.4,1.9-8.72,8.11-6.24,4.55,3.94,4.91,8.3,1.24,13.04-.76.45-1.6.62-2.48.54-2.7-1.38-4.66-3.51-6.03-6.21-.36-.15-.73-.22-1.12-.2Z" style="fill: #9daed9; fill-rule: evenodd;"/>
  <path d="M36.8,207.98c-4.87-2.32-6.32,1.59-8.31,4.55-2.27-3.11.7-5.54,1.07-8.3,1.18-.59,2.36-1.18,3.55-1.77,1.28,1.25,2.48.94,3.64-.18.59-.6,1.18-1.2,1.77-1.8.69.58,1.14,1.32,1.38,2.2.28,2.53-.81,4.28-3.1,5.31Z" style="fill: #8d9bc5; fill-rule: evenodd;"/>
  <path d="M26.47,175.79c.08.27.16.54.24.81-.23.07-.63.25-.68.19-.52-.71-.35-1.06.44-1Z" style="fill: #4b4244; fill-rule: evenodd;"/>
  <path d="M29.14,170.69c0,.6-.09,1.19-.25,1.77-1.12-.76-.8-1.32.25-1.77Z" style="fill: #4b4244; fill-rule: evenodd;"/>
  <path d="M34.51,105.48c.56-.76,1.11-1.51,1.67-2.27,1.77-2.4,3.54-4.8,5.3-7.19.02-1.07-.08-2.14.06-3.21.15-1.08.43-2.12.87-3.12.71-1.29,1.74-2.31,2.78-3.32l-.04.05c1.07-1.06,1.96-2.3,3.11-3.27,1.83-1.24,3.22-3.57,6.01-2.45.76-.43,1.6-.77,2.27-1.32,2.45-2.02,4.07-4.27,1.97-7.57-.44-.69-.36-1.71-.52-2.57-.57-.61-.95-1.32-1.16-2.13-.02-2.4-.86-4.95,1.18-7-1.56-9.53-3.67-11.83-13.04-14-4.04-.93-7.78-2.22-9.55-6.47-.06-1.23-.13-2.47-.19-3.71,0,0,.13-.11.13-.11,5.91-.73,10.17,4.45,15.87,4.42.74.4,1.38.94,1.95,1.56,1.3,2.13,3.36,3.42,5.37,4.78.59.6,1.09,1.27,1.52,1.99,1.21,2.15,1.34,4.83,2.73,6.76,4.19,5.82,5.37,11.91,2.7,18.65-.68,4.21-3.73,7.28-5.31,11.06-.37.74-.81,1.43-1.29,2.1-.46.68-.99,1.3-1.54,1.92-.26.31-.54.61-.8.92-.51.64-1.06,1.25-1.59,1.87-2.76,4.04-5.48,8.14-9.84,10.7-1.57,2.06-1.34,4.64-2,6.97-1.42,3.14-2,7.14-6.88,6.68l-.08-.03c.32-3.71-2.78-6.88-1.67-10.71Z" style="fill: #2d2e37; fill-rule: evenodd;"/>
  <path d="M58.03,60.1c-.23,2.42,1.66,4.83,0,7.25-1.17,1.47-2.37,1.31-3.56.03l.05.02c-3.32-.7-6-2.31-7.63-5.39.04-1.2-.29-2.58.2-3.55.81-1.63,2.8-1.42,4.13-1.08,2.35.6,4.55,1.79,6.82,2.73Z" style="fill: #dfdfdb; fill-rule: evenodd;"/>
  <path d="M46.88,62.01c2.84,1.38,5.66,2.79,7.63,5.39-.55.29-1.1.58-1.65.87-1.99,1.07-4.25,1.89-6.18.57-2.54-1.74.33-3.91.08-5.92-.04-.3.07-.62.11-.92Z" style="fill: #574b40; fill-rule: evenodd;"/>
  <path d="M54.28,80.7c-1.82,1.4-3.64,2.81-5.45,4.21-2.07.52-2.71-1.08-3.53-2.4h0c-1.23-1.21-1.5-2.34.3-3.26l-.11.13c2.88-2.86,5.82-2.33,8.79-.16l-.09.74.09.74Z" style="fill: #ecede9; fill-rule: evenodd;"/>
  <path d="M54.28,79.22c-2.93.05-5.86.11-8.79.16.21-1.51.38-3.02.63-4.53.2-1.26,1.31-1.51,1.97-.88,1.97,1.85,5.15,2.31,6.19,5.25Z" style="fill: #5b4d42; fill-rule: evenodd;"/>
  <path d="M39.27,94.27q-1.59-3.24,1.92-6.28c.33.3.67.6,1,.9.29,1.91-.2,3.56-1.68,4.86-.42.17-.83.35-1.25.52Z" style="fill: #5b4d42; fill-rule: evenodd;"/>
  <path d="M45.3,82.51c1.18.8,2.35,1.6,3.53,2.4-.87,1.37-2.25,1.48-3.67,1.51.05-1.3.1-2.61.14-3.91Z" style="fill: #5b4d42; fill-rule: evenodd;"/>
  <path d="M45.2,86.36c-.07,1.49-.35,2.9-1.65,3.87-1.26.1-1.22-1.24-1.93-1.74,0,0-.43-.5-.43-.5,1.03-1.3,2.48-1.56,4.01-1.62Z" style="fill: #5b4d42; fill-rule: evenodd;"/>
  <path d="M38.23,48.39c0-.22-.06-.49.04-.64.49-.71,2.36-.4,2.24.36-.03.23-.43.58-.67.58-.54,0-1.08-.19-1.61-.3Z" style="fill: #ada998; fill-rule: evenodd;"/>
  <path d="M43.02,93.38c0,1.18-.62,1.99-1.54,2.63-.73-.58-1.47-1.17-2.21-1.75,0,0,.56-.55.56-.55.99-.81,2.05-.91,3.19-.34Z" style="fill: #5b4d42; fill-rule: evenodd;"/>
  <path d="M45.6,79.24c-.1,1.09-.2,2.17-.3,3.26-2.05-1.86-2.05-1.9.3-3.26Z" style="fill: #5b4d42; fill-rule: evenodd;"/>
  <path d="M54.46,67.38c1.19-.01,2.37-.02,3.56-.03,0,.63-.02,1.26-.02,1.89-1.56.1-2.92-.18-3.54-1.86Z" style="fill: #574b40; fill-rule: evenodd;"/>
  <path d="M31.99,73.43c.13-.27.32-.78.37-.76.63.16.46.42-.45.68,0,0,.08.08.08.08Z" style="fill: #756154; fill-rule: evenodd;"/>
  <path d="M91.84,116.15c.34.42.52.89.56,1.43.43,4,.08,8.08,1.27,11.99.24,1.23.28,2.47.14,3.71-.09.8-.25,1.59-.44,2.37.02,2.45-1.72,5.02.51,7.33.59.5.99,1.11,1.24,1.83.46,2.69,1.16,5.37.07,8.07-.47.7-1.11,1.16-1.93,1.4-4.52.06-5.65-4.38-8.57-6.44-1.26-1.07-2.65-1.96-3.99-2.93-.65-.57-1.16-1.23-1.56-2,.07-5.04-5.38-11.66,4.56-13.88,2.31-.52-.3-3.85-.28-5.95.04-5.92,1.02-10.15,8.4-6.93Z" style="fill: #92a9d7; fill-rule: evenodd;"/>
  <path d="M91.84,116.15c-1.7.67-3.28,1.65-5.3,1.13-1.16-.3-1.6.76-1.59,1.7.05,4.62.73,9.06,4.36,12.5-2.44,1.73-4.11-.79-6.22-.54-2.27.27-3.63,1.03-2.93,3.3,1,3.26-1.66,6.76.97,9.74-1.17.98-2.28,1.01-3.34-.17-.48-1.76-.55-3.82-1.54-5.22-2.73-3.85-1.4-6.97,1.32-9.81,3.32-3.48,4.95-7.44,5.3-12.28.34-4.68,3.81-5.8,7.71-2.75.65.51.85,1.58,1.26,2.4Z" style="fill: #7283ad; fill-rule: evenodd;"/>
  <path d="M92.27,130.85c-2.67-4.45-2.61-8.88.13-13.28,3.1,3.17,4.56,7.08,5.56,11.34,1.24,5.3,2.61,10.62,5.4,15.41.08,2.34.17,4.68.26,7.03-.94.97-2.06,1.13-3.31.81-.71-.38-1.28-.91-1.73-1.57-1.3-2.31-2.63-4.6-4.41-6.6h0c-1.75-4.22,1.77-9.19-1.89-13.14Z" style="fill: #7283ad; fill-rule: evenodd;"/>
  <path d="M71.47,117.89c3.34-.08,5.25-1.31,4.48-5.1-.19-.93.67-1.66,1.72-1.54.56.06,1.22.34,1.61.74,1.91,2.02,2.19,4.52.94,6.8-1.3,2.37-3.19,4.42-4.82,6.62-.57.68-1.32,1.17-1.86,1.89-2.47,1.29-4.93,2.58-7.4,3.87-2.05-4.44,2.15-7.74,2.13-11.81.79-1.1,1.69-1.92,3.2-1.45Z" style="fill: #31323f; fill-rule: evenodd;"/>
  <path d="M69.61,119.4c-.22.91-.94,2.14-.59,2.65,1.58,2.32.67,3.55-1.34,4.88-1.35.9-1.55,2.61-1.55,4.21v1.78c.54.64.56,1.27,0,1.9v.02c-1.48,1.14-.43,4.34-3.45,4.21-.7-.57-.83-1.26-.46-2.07-.56-.73-1.02-1.59-1.71-2.15-1.72-1.38-2.4-3.29-1.04-4.85,2.72-3.12,2.88-6.74,2.95-10.48.69-.54,1.46-.94,2.29-1.2,1.78-.29,3.49-.22,4.91,1.11Z" style="fill: #3a3434; fill-rule: evenodd;"/>
  <path d="M77.79,143.81c1.11.06,2.23.11,3.34.17,0,0,.08.06.08.06,1.36,1.01,2.6,2.13,3.42,3.64,1.49,3.24,3.37,6.42,3.02,10.16-.23,2.45-.72,5.09-4.3,3-3.33-4.91-6.65-9.81-9.98-14.72,1.47-.77,2.95-1.54,4.42-2.32Z" style="fill: #35343f; fill-rule: evenodd;"/>
  <path d="M99.55,93.29c.59.67,1.17,1.34,1.76,2-.08,3.08-.07,6.17-.26,9.24-.12,1.96-2.34,3.27-4.04,2.47-1.38-.65-2.8-1.35-3.99-2.3-3.59-2.85-7.6-3.98-12.12-3.44-.56-.76-.64-1.57-.28-2.43,5.28-.66,9.54-9.85,16.09-1.85.61.74.99-3.07,2.84-3.69Z" style="fill: #6876a3; fill-rule: evenodd;"/>
  <path d="M80.76,99.19c.05.69.09,1.38.13,2.08-.86,1.62-3.87,2.23-2.37,4.99.11.2.02.73-.15.83-1.62.94-4.22.4-4.59,3.25-.22,1.72.15,3.65-1.37,5.03-.22.2-.44.4-.67.6-.81-.54-1.39-1.28-1.73-2.2-.71-2.37-.56-4.71.29-7.02,2.51-3.86,4.3-8.75,10.46-7.56Z" style="fill: #7283ad; fill-rule: evenodd;"/>
  <path d="M62.69,138.59c1.14-1.25,2.29-2.5,3.43-3.75.2,1.43.34,3.07,2.05,3.38,3.23.59,2.41,2.45,1.58,4.39-2.62-.04-4.98-.91-7.16-2.29-.55-.61-.55-1.18.1-1.72Z" style="fill: #35343f; fill-rule: evenodd;"/>
  <path d="M71.5,114.09c.08.63.17,1.25.24,1.88-.09.64-.19,1.28-.28,1.92-.62.51-1.24,1.01-1.86,1.51-1.79-.02-3.58-.03-5.36-.05.31-4.67,2.24-7.1,7.26-5.27Z" style="fill: #dbe0e7; fill-rule: evenodd;"/>
  <path d="M73.53,127.29c.62-.63,1.24-1.26,1.86-1.89-.62.63-1.24,1.26-1.86,1.89Z" style="fill: #35343f; fill-rule: evenodd;"/>
  <path d="M66.13,134.82c0-.63,0-1.27.02-1.9,1.23.64,1.25,1.27-.02,1.9Z" style="fill: #35343f; fill-rule: evenodd;"/>
  <path d="M112.08,276.44c-2.7,2.29-5.09,5.39-9.36,3.69-12.75-1.82-15.98-8.74-8.73-19.91,1.71-2.64,1.29-3.99-.17-5.95-.25-1.3-.1-2.53.56-3.67.93-1.74,5.57-.22,3.72-4.71-.83-2-.43-4.99,2.69-6,1.31-.24,2.53-.04,3.62.73,1.12,1.92-.42,4.16.81,6.12.06-1.37-.65-2.7-.02-4.03.14-.87.56-1.58,1.23-2.15.42-.06.84-.13,1.26-.21.4.12.81.25,1.23.37,4.44,4.14,6.07,9.71,7.78,15.25-2.17,5.5,4.97,8.16,4.09,13.28-1.8,3.72-6.04,4.47-8.68,7.17Z" style="fill: #a2bae1; fill-rule: evenodd;"/>
  <path d="M95.06,254.23c.65,1.56,3.59,2.07,1.3,5.02-1.21,1.56-.32,4.74-3.49,5.46-.39.09-.96.89-.89,1.26.62,3.29,1.2,6.6,2.14,9.8.43,1.49,1.93,2.32,3.57,2.59,1.79.29,3.75.06,5.03,1.79-3.07,1.04-6.22.14-9.32.33-1.4-1.11-2.94-2.08-3.48-3.96l.06.1c-1.96-5.58-3.58-11.32-7.18-16.18-.98-1.42-2.09-2.75-2.85-4.32-.47-1.94.45-3.38,1.67-4.72,5.54-4.1,8.97,1.85,13.44,2.84Z" style="fill: #93afdb; fill-rule: evenodd;"/>
  <path d="M112.08,276.44c.88-4.12,4.66-5.29,7.52-7.41,2.16-1.27-1.16-6,3.57-5.66.09,2.53.18,5.07.27,7.6-3.17,3.11-7.14,4.53-11.36,5.47Z" style="fill: #808fb7; fill-rule: evenodd;"/>
  <path d="M98.84,296.88c-2.94-.46-3.99-2.18-3.36-5.03,1.77-1.49,3.52-1.78,5.23.08l-.04.04c-.36,1.16-.71,2.33-1.07,3.49.28.76.04,1.28-.73,1.56l-.04-.14Z" style="fill: #a2aba5; fill-rule: evenodd;"/>
  <path d="M89.92,276.51c1.16,1.32,2.32,2.64,3.48,3.96-1.22,0-2.44,0-3.66,0,.06-1.32.12-2.64.18-3.96Z" style="fill: #3e3d47; fill-rule: evenodd;"/>
  <path d="M98.88,297.03c.02-.62.27-1.14.73-1.56.64.27.96.73.95,1.4-.55.18-1.11.23-1.68.16Z" style="fill: #292526; fill-rule: evenodd;"/>
  <path d="M35.32,28.5c-2.57.03-3.63,1.54-3.8,3.9-2.76-2.02-3.07-4.7-2.12-7.73.97-3.26,2.51-6.38,2.35-9.92-.06-1.33.71-2.34,1.78-3.09.54-.64,1.09-1.27,1.66-1.89l.1.05c.58-.03,1.17-.05,1.75-.06,4.83,5.62.62,10.99-.44,16.45-.22.88-.64,1.65-1.27,2.3Z" style="fill: #6d80bf; fill-rule: evenodd;"/>
  <path d="M35.18,9.76c-.55.63-1.11,1.26-1.66,1.89.56-.63,1.11-1.26,1.66-1.89Z" style="fill: #7486c2; fill-rule: evenodd;"/>
  <path d="M51.78,41.89c-.91-.13-1.81-.39-2.71-.35-3.73.18-7.25.12-9.8-3.42-.81-1.12-2.57-1.55-3.9-2.3.03-.65.06-1.3.1-1.96,8.01-11.3,19.96-14.46,32.95-8.88,1.32.57,3.04.24,4.21,1.43.11.52.29,1.02.51,1.5-.83.57-1.51,1.13-.41,2.12.67.61,1.22,1.34,1.83,2.02-4.06,4.87-8.96,2.35-13.73,1.71-3.94-.53-8.76-2.7-10.04,3.84.72.82,1.49,1.58,1.94,2.59.11.8-.21,1.37-.94,1.7Z" style="fill: #515873; fill-rule: evenodd;"/>
  <path d="M72.63,26.43c-2.73-.12-5.31-.1-7.76-2.1-3.43-2.8-7.83-2.7-11.21-.32-5.72,4.03-12.91,5.17-18.19,9.86-.05-1.8-.1-3.59-.16-5.38,0-.64,0-1.28-.02-1.92-1.1-3,1.48-5.29,2.9-6.16,3.54-2.19,1.9-7.68,6.34-8.81h0c2.2,1.81,6.4-.43,7.48,3.67.26,1.18.3,2.61,1.59,3.07,2.55.9,5.16,2.15,7.78,2.21,4.17.1,6.82,3.27,10.45,4.31.38.11.53,1.03.79,1.57Z" style="fill: #6b76a7; fill-rule: evenodd;"/>
  <path d="M44.54,11.61c-1.14.45-2.77,1.35-2.39,2.26.87,2.14.52,3.1-1.23,4.74-2.32,2.18-3.79,5.27-5.62,7.97-.45-.73-1.42-1.92-1.25-2.13,3.73-4.38,3.1-9.59,2.97-14.7.66-.61,1.41-1.15,1.96-1.84,1.23-1.56,2.34-1.61,3.61-.05.56.69,1.29,1.24,1.95,1.85,0,.63,0,1.26,0,1.9Z" style="fill: #7486c2; fill-rule: evenodd;"/>
  <path d="M52.03,15.27c-2.21-1.8-5.64-1.13-7.48-3.67,1.57-.07,2.98-.45,3.78-1.99,2.1-1.1,2.63.9,3.69,1.86.16,1.27,2.15,2.53.01,3.8Z" style="fill: #7486c2; fill-rule: evenodd;"/>
  <path d="M52.02,11.47c-1.23-.62-2.46-1.24-3.69-1.86,2.57-1.91,2.94-1.73,3.69,1.86Z" style="fill: #99a4d2; fill-rule: evenodd;"/>
  <path d="M107.16,162.52c.05.63.11,1.26.16,1.89-.85,3.19,1.35,6.82-1.38,9.74-1.63,1.34-1.91,3.14-1.69,5.14-.49.7-1.11,1.22-1.87,1.6-6.81,1.04-6.79,1.04-6.58-4.42,0-.1-2.57.62-3.72-.56-1.1-1.51-1.2-3.19-.89-4.95.81-5.93-1.38-12.41,3.13-17.69l-.03.04c1.58-1.5,3.04-3.3,5.61-1.94l.02.02c2.37,3.74,3.53,8.27,7.25,11.13Z" style="fill: #8ba7d6; fill-rule: evenodd;"/>
  <path d="M103.86,173.79c1.72-1.13,1.77-2.88,1.77-4.66,0-1.77.04-3.53,1.69-4.72,2.4,2.43,1.88,5.76,2.64,8.68,1.47,5.64,3.29,11.2,3.76,17.06-.32.3-.63.6-.94.9-7.04-.56-8.32-4.96-7.29-10.89,1.02-2.51-3.02-3.75-1.63-6.37Z" style="fill: #a3bee3; fill-rule: evenodd;"/>
  <path d="M107.16,162.52c-1.12-.34-2.27-1.04-3.35-.95-2.4.19-3.33-1.25-3.6-3.05-.35-2.34-.22-4.74-.3-7.12,1.24-.02,2.48-.03,3.72-.04,1.62,3.58,3.91,6.95,3.53,11.17Z" style="fill: #778bbd; fill-rule: evenodd;"/>
  <path d="M115.35,192.36c-.06,1.36-.12,2.73-.18,4.1-3.79-.91-3.59-3.2-2.06-5.95,0,0,.61-.35.61-.35.54.73,1.08,1.47,1.63,2.2Z" style="fill: #b4bfc5; fill-rule: evenodd;"/>
  <path d="M80.76,99.19c-4.37.93-5.76,5.55-9.28,7.53-7.86,6.61-8.24,6.53-10.43-2.32-.22-.9-.25-2.08-.94-2.53-10.07-6.71-1.94-11.72,1.52-17.18,5.36-3.2,9.51-8.08,15.17-10.88,6.29.98,7.89,5.72,9.05,11.15,1.43-8.12,3.36-16.06,3.12-24.3.31-.3.63-.6.94-.91.57.05,1.14.1,1.72.15.5,1.43,1.51,2.9,1.42,4.3-.61,9.21,4.05,17.05,6.38,25.48.56.53.67,1.13.26,1.8-.11.6-.16,1.2-.14,1.81-.16,3.03-.29,6.06-.55,9.08-.03.41-.72,1-1.18,1.09-.46.09-1.32-.21-1.48-.57-1.1-2.48-2.06-5.03-3.31-8.14-3.5,3.55-7.61,4.91-12.28,4.45Z" style="fill: #7e94cb; fill-rule: evenodd;"/>
  <path d="M99.69,91.48c-.09-.6-.17-1.2-.26-1.8.96.48,1.21,1.05.26,1.8Z" style="fill: #393c47; fill-rule: evenodd;"/>
  <path d="M74.6,33.78c6.73,3.93,10.49,10.31,14.1,16.85,1.62,2.93.99,6.06,1.22,9.12,0,0-.25.14-.25.14-4.72-.04-3.72-7.93-9.27-6.77-.48-.17-.99-.28-1.53-.34.1.59.76.91.75,1.57-.62,3.7-2.29,6.82-4.94,9.43-5.59-.03-6.49-5.09-9.03-8.4-.55-1.11-.96-2.29-1.3-3.48-3.34-11.79-1.7-14.69,10.26-18.13Z" style="fill: #7e97cd; fill-rule: evenodd;"/>
  <path d="M74.6,33.78c-.64,1.02-1.46,1.97-1.89,3.08-.82,2.08-1.96,2.1-3.48.83-.71-.59-1.36-1.28-2.73-.86-1.07,2.21.24,5.23-1.59,7.57-.83,1.07-.42,2.37.46,3.39,1.77,2.06.62,4.82,1.72,7.03-5.28,1.9-5.13-3.61-7.59-5.55-.61-1.13-.65-2.41-.88-3.63-1.38-3.85-3.43-6.83-8.19-6.31-1.2.01-2.4.02-3.68.03,1.61-5.62,1.73-5.84,4.05-7.33,2.43-1.57,5.04-2.07,7.85-1.32,1.46.4,2.91.85,4.37,1.26,3.83,1.08,7.68,1.13,11.53.09l.09.86-.04.86Z" style="fill: #6d81c0; fill-rule: evenodd;"/>
  <path d="M115.69,255.97c-.42-.82-.8-1.65-1.27-2.44-1.64-2.72-4.44-4.79-3.94-8.68.14-1.14-1.54-2.52-2.38-3.79.21-2.25,2.18-4.5-.06-6.74-.44-.73-.59-1.51-.42-2.35.22-.58.44-1.17.85-1.61,2.35-2.49,2.81-7.8,7.46-6.81,3.94.84,1.98,5.86,3.93,8.44.3,1.19.35,2.48,1.14,3.51l-.05-.06c.73.5.8,1.09.23,1.76.17,1.27.34,2.54.51,3.81.11.35.23.7.34,1.05-.24.65-.66,1.15-1.23,1.46-1.27,1.7,1.99.84,1.3,2.24.26,4.84-.34,9.58-.73,14.35-3.84,1.28-5.2-.83-5.68-4.14Z" style="fill: #93afdb; fill-rule: evenodd;"/>
  <path d="M119.53,233.86c-.64-1.38-1.27-2.76-1.9-4.15-.78-1.69.64-4.92-2.82-4.7-2.49.16-1.56,2.82-2.37,4.2-1.01,1.73-2.91,2.93-4.43,4.36-8.02,1.47-9.32.07-8.98-9.61,1.25-2.9,3.67-4.59,6.34-6,1.71-1.5,4.42,1.88,5.32-.42,3.88-9.89,5.1-1.66,7.17.91.42-.02.82.06,1.21.22.15,1.24.31,2.48.46,3.72.62,1.15.6,2.32.13,3.52.09.73.17,1.45.25,2.18.3.77.63,1.53.98,2.28,0,.85,0,1.7,0,2.54-.17.72-.63,1.04-1.36.96Z" style="fill: #83a2d4; fill-rule: evenodd;"/>
  <path d="M121.37,259.66c-.81-1.92-1.99-3.71-.9-6.01,1.37-2.89.62-5.95.26-8.95-.51-.58-.54-1.2-.15-1.86.3-.11.61-.16.93-.12.7-.31,1.14-.08,1.36.63.2,2.93.39,5.85.59,8.78.36.63.36,1.27.05,1.92l-.11.88s.08.89.09.89c-.12,1.29-.24,2.58-.36,3.87-.4.43-.79.57-1.17.41-.38-.16-.57-.3-.57-.46Z" style="fill: #808fb7; fill-rule: evenodd;"/>
  <path d="M119.66,225.9c-.04-1.17-.09-2.34-.13-3.52,1.61,1.11,1.67,2.28.13,3.52Z" style="fill: #58504d; fill-rule: evenodd;"/>
  <path d="M123.5,254.06c-.02-.64-.03-1.28-.05-1.92.85.62.89,1.26.05,1.92Z" style="fill: #57575c; fill-rule: evenodd;"/>
  <path d="M121.18,237.21c-.32-.56-.4-1.14-.23-1.76,1.37.42,1.54,1,.23,1.76Z" style="fill: #58504d; fill-rule: evenodd;"/>
  <path d="M122.87,243.36c-.4-.32-.85-.53-1.36-.63-.06-.58,0-1.15.18-1.7.39.78.79,1.56,1.18,2.34Z" style="fill: #58504d; fill-rule: evenodd;"/>
  <path d="M120.89,230.36c-.33-.76-.65-1.52-.98-2.28.32.76.65,1.52.98,2.28Z" style="fill: #58504d; fill-rule: evenodd;"/>
  <path d="M119.53,233.86c.5-.25.95-.57,1.36-.95.04.87.08,1.74.11,2.61-.49-.56-.99-1.11-1.48-1.66Z" style="fill: #58504d; fill-rule: evenodd;"/>
  <path d="M38.04,127.45c1.22-2.48,2.45-4.95,3.68-7.42,4.93-.22,5.72,3.24,6.22,6.97-.87,1.92-2.57,2.35-4.45,2.45-1.82-.67-3.63-1.34-5.45-2Z" style="fill: #565155; fill-rule: evenodd;"/>
  <path d="M43.48,129.45c.85-1.48,2.24-1.92,3.83-1.92,1.19.95,1.64,2.25,1.73,3.71-.05,1.48-.49,2.78-1.67,3.74-1.22-1.19-2.44-2.39-3.67-3.58-.08-.65-.15-1.3-.22-1.95Z" style="fill: #57566e; fill-rule: evenodd;"/>
  <path d="M117.86,218.44c-2.23-.31-2.06-2.72-3.64-4.07-.83,2.26-1.64,4.4-2.39,6.55-.29.81-.15,2.05-1.37,1.96-1.51-.12-1.57-1.41-1.7-2.63-.17-1.62-1.54-1.5-2.7-1.6-.52-.72-.74-1.52-.64-2.41,6.2-8.45-3.2-6.84-6.09-9.42-.75-.49-1.22-1.17-1.43-2.04.75-3.42,3.5-5.41,5.64-7.83-7-4.78-6.98-6.41.28-17.55l.03-.04c1.23-1.14,2.47-1.07,3.71-.03q-1.03,7.26,5.55,11.18c.29,2.12.02,4.43,2.06,5.95,2.58,7.13,2.02,14.63,2.69,21.99Z" style="fill: #8faedb; fill-rule: evenodd;"/>
  <path d="M32.37,163.24c.33,1.59-.13,2.88-1.42,3.87-.1-1.5.05-2.91,1.42-3.87Z" style="fill: #4d4446; fill-rule: evenodd;"/>
  <path d="M34.14,160.93c-.48.12-.96.25-1.44.4.53-.63,1.05-1.26,1.57-1.88l.03.75-.16.73Z" style="fill: #4d4446; fill-rule: evenodd;"/>
  <path d="M35.81,155.78c-.37.76-.75,1.51-1.12,2.27.37-.75.75-1.51,1.12-2.27Z" style="fill: #4d4446; fill-rule: evenodd;"/>
  <path d="M47.46,131.14c-.05-1.21-.1-2.41-.15-3.61-1.46-2.8-2.29-6.07-5.6-7.5-.68-1.17-1.7-1.64-3.01-1.3-2.29.58-2.38-.95-2.45-2.51,3.37-1.37,3.82-4.87,5.44-7.5.65-.58,1.4-.86,2.27-.84,1.29.28,2.31.99,3.26,1.87,1.62,1.86,3.99,3.5,1.96,6.47-1.72,1.28-2.45,3.1-.89,4.64,2.22,2.2,3.8,4.71,5.12,7.48.67,1.4,1.49,2.83.49,4.26-.66.95-1.8,1.57-2.72,2.34-3.72,1.16-2.14-2.87-3.72-3.8Z" style="fill: #3d3d48; fill-rule: evenodd;"/>
  <path d="M121.37,259.66c.58,0,1.16,0,1.74.04.02,1.22.03,2.45.05,3.67-2.3,1.19-1.26,4.48-3.57,5.66-.06-2.57-2.23-3.45-3.76-4.95-2.56-2.5-3.03-5.36-.14-8.11,1.99,1.08,2.73,4.09,5.68,3.69Z" style="fill: #87a1d3; fill-rule: evenodd;"/>
  <path d="M95.4,314.34c.92-1.14,1.77-2.36,2.81-3.39.54-.54,1.43-.73,2.16-1.08.27.82.6,1.62.78,2.46.13.57.02,1.19.02,1.78-1.01.5-1.98,1.14-3.04,1.46-1.15.35-2.24.12-2.72-1.24Z" style="fill: #37312c; fill-rule: evenodd;"/>
  <path d="M106.78,321.55q3.13.44,1.94,3.63c-1.37-.82-1.97-2.06-1.94-3.63Z" style="fill: #444039; fill-rule: evenodd;"/>
  <path d="M112.41,330.89c1.72.64,2.12,1.98,1.96,3.63-1.27-.87-1.68-2.22-1.96-3.63Z" style="fill: #444039; fill-rule: evenodd;"/>
  <path d="M114.4,334.59c1.32.01,2.64.02,3.96.03-1.92,2.66-2.5,2.65-3.96-.03Z" style="fill: #444039; fill-rule: evenodd;"/>
  <path d="M93.71,310.35c1.54.91,1.87,2.34,1.69,3.98-2.06-.7-2.03-2.27-1.69-3.98Z" style="fill: #37312c; fill-rule: evenodd;"/>
  <path d="M110.85,328.94c.53.66,1.07,1.32,1.6,1.98-1.1-.21-1.72-.79-1.6-1.98Z" style="fill: #444039; fill-rule: evenodd;"/>
  <path d="M108.76,325.28c1.05.52,1.59,1.36,1.59,2.54-1.15-.46-1.67-1.31-1.59-2.54Z" style="fill: #444039; fill-rule: evenodd;"/>
  <path d="M67.46,280.38c-1.02-.6-2.01-1.3-3.08-1.79-2.96-1.38-3.47-1.94-2.74-4.58.89-3.23,2.1-6.38,1.47-9.83.26-.34.53-.68.79-1.03,5.57,1.29,6.77-4.98,10.85-6.29,1.83-.59,3.64-.65,5.43.11.96.16,1.73.64,2.33,1.4-2.24,6.31-7.73,11.24-7.79,18.47-1.42,1.84-3.58,2.5-5.54,3.48-.37.63-.76.85-1.18.68-.43-.18-.64-.37-.64-.57l.09-.05Z" style="fill: #8292b9; fill-rule: evenodd;"/>
  <path d="M74.73,276.84c0-.3-.02-.6-.02-.9q-.03-10.78,7.67-17.64c.38-.56.7-.72.98-.48.25.21.38.43.38.65,5.28,4.95,7.05,11.09,6.23,18.13-2.23-.22-1.52-3.29-3.76-3.75-.16,1.87.02,3.82-.54,5.51-.64,1.95-2.12,1.88-3.48.41.47-.68.95-1.35,1.43-2.03-.55.62-1.05,1.28-1.49,1.97-3.31-2.48-.86-6.37-2.31-9.43-3.98,1.01-2.03,6-5.09,7.56Z" style="fill: #3e3d47; fill-rule: evenodd;"/>
  <path d="M100.72,291.93c-1.75-.03-3.49-.05-5.23-.08,1.17-2.48,3.45-2.02,5.53-2.1h-.02c-.1.72-.19,1.45-.28,2.18Z" style="fill: #343237; fill-rule: evenodd;"/>
  <path d="M95.36,284.19c-.08.61-.1,1.25-.27,1.84-.22.76-.8.97-1.49.59-.26-.14-.51-.38-.65-.64-.39-.69-.2-1.26.56-1.5.58-.18,1.22-.21,1.83-.3l.02.02Z" style="fill: #343237; fill-rule: evenodd;"/>
  <path d="M101.01,289.75c.06-.57.07-1.16.19-1.72.06-.26.34-.69.47-.68.75.09,1.03.62.6,1.26-.3.46-.84.76-1.27,1.13h.02Z" style="fill: #343237; fill-rule: evenodd;"/>
  <path d="M67.37,280.43c.6-.13,1.21-.16,1.82-.11-.52,1.34-1.11,1.81-1.82.11Z" style="fill: #35302a; fill-rule: evenodd;"/>
  <path d="M35.01,219.19c.6-.01,1.21-.02,1.82-.03,1.98.22,3.66-.87,5.48-1.34,1.18-.24,2.36-.19,3.54.07,1.86.69,4.18.14,5.62,2.02,3.3,4.73,2.01,9.34-.32,13.94-2.24,3-5.59,4.63-7.95,6.36,5.12,4.16,11.56-.92,17.26,2.09.66,1.1,1.08,2.3,1.45,3.52,1.7,3.85,2.94,7.8,2.24,12.11-.27.83-.68,1.57-1.23,2.25-.61.62-1.32,1.12-2.1,1.51-2.83.39-5.62,2.68-8.52.2-1.3-1.17-2.6-2.33-3.9-3.5,0,0,.19-.84.19-.84-.81-.77-1.78.13-2.64-.25-2.49-1.37-1.61-2.74-.09-4.04.14-.43.49-.59.95-.35-.05.07-.4-.38-.45-.36-.51.91-1.4,1.18-2.27,1.56-6.13.34-12.33,2.34-18.16-1.16,0-.62-.01-1.24,0-1.87.89-1.29,2.78-.67,3.69-1.92,1.06-1.09,2.19-2.13,3.14-3.31.32-.4.41-1.29.18-1.75-.56-1.17-1.32-.6-1.96.04-1.26,1.26-2.78,1.62-4.04.34-1.67-1.7-.86-3.32.77-4.65l-.04.04c-2.26-3.46-1.7-7.4-1.94-11.21.08-.57.14-1.13.17-1.7.51-.74.52-1.48.03-2.24,0-1.95-.5-4.06,1.57-5.41,2.51-.06,5.01-.52,7.52-.1Z" style="fill: #aabfe3; fill-rule: evenodd;"/>
  <path d="M25.93,252.94c6.84-.34,13.7-.38,20.55-.18l.02.03q-1.09,3.16,1.93,3.78c.46.6.46,1.21-.02,1.81h0c-2.51,0-4.07,1.54-4.34,3.72-.48,3.79-1.8,7.55-.88,11.45-.09.57-.16,1.15-.22,1.72-1.2.68-2.39,1.36-3.58,2.04-.51.37-1.21.51-1.59.92-6.54,6.86-11.29,3.56-15.54-2.69l-.05.02c.09-1.55-.38-3.47.36-4.59,3.33-5.01,3.25-10.27,2.02-15.79-.21-.97.49-1.73,1.36-2.22Z" style="fill: #a3b8df; fill-rule: evenodd;"/>
  <path d="M52.3,261.88c3.34.84,6.05-1.62,9.21-1.71.85,1.91-.36,2.67-1.83,3.28-1.22.21-2.45.42-3.67.63-1.55-.21-3.07-.48-3.72-2.21Z" style="fill: #92a6d1; fill-rule: evenodd;"/>
  <path d="M22.23,275.53c4.38-.24,6.16,3.38,8.77,6.51,1.82-3.91,4.54-5.47,8.37-4.74.06.58,0,1.14-.18,1.69-3.61,1.09-5.88,3.16-5.61,7.28.11,1.58-.31,3.06-1.78,3.99-1.22-.03-2.43-.06-3.64-.1-1.61-.05-3.12-.43-3.44-2.24-.72-4.16-2.95-8.01-2.49-12.4Z" style="fill: #94a7d0; fill-rule: evenodd;"/>
  <path d="M16.7,290.62c-5.01-.09-8.27-2.39-9.34-7.43,1.21-.03,2.43-.06,3.64-.09.76.5,1.45,1.09,2.02,1.8l-.03.03c5.72,4.66,3.47-5.14,7.26-3.99.21.85.4,1.71.65,2.55,1.5,4.96,1.39,5.15-4.21,7.14Z" style="fill: #5b5f6e; fill-rule: evenodd;"/>
  <path d="M20.26,280.93c-1.16,1.08-1.53,2.47-1.63,3.99-.09,1.56-.56,2.99-2.35,3.23-2.37.32-2.99-1.34-3.28-3.23,2.32-.29,3.71-1.41,3.74-3.93.02-2.02-.17-4.14,1.72-5.59,1.22.15,1.31,1.23,1.7,2.06.03,1.16.06,2.31.1,3.47Z" style="fill: #454045; fill-rule: evenodd;"/>
  <path d="M20.16,277.47c-.57-.68-1.13-1.37-1.7-2.06.26-2-.3-4.28,1.9-5.61.07,1.85.15,3.69.22,5.54-.14.71-.29,1.42-.43,2.13Z" style="fill: #5b5f6e; fill-rule: evenodd;"/>
  <path d="M59.69,263.46c.6-1.1,1.22-2.19,1.83-3.29,0,0,.02,0,.02,0,3.26-.54,2.73,1.4,2.2,3.35,0,0-.62.65-.62.65-1.14-.24-2.28-.48-3.42-.72Z" style="fill: #8292b9; fill-rule: evenodd;"/>
  <path d="M22.15,243.64c.18,7.53.83,15.09-1.69,22.42-1.45-.58-2.67-1.47-3.3-2.92-.47-1.1-.82-2.9.35-3.16,2.66-.59,2.55-1.88,1.86-3.88-.37-1.08.05-2.62-.57-3.4-1.56-1.96-.74-3.07.67-4.56,1.18-1.24.75-3.59,2.69-4.49Z" style="fill: #4b4244; fill-rule: evenodd;"/>
  <path d="M14.66,239.88c.02-1.5.27-2.89,1.76-3.69h.01c1.16,1.24,1.04,2.48.02,3.74h0c-.4.38-.81.49-1.19.36-.39-.14-.59-.27-.59-.4Z" style="fill: #595053; fill-rule: evenodd;"/>
  <path d="M16.45,239.92c0-1.24,0-2.49-.02-3.74.6,0,1.21-.02,1.82-.06.03,1.56-.25,2.98-1.8,3.79Z" style="fill: #4b4244; fill-rule: evenodd;"/>
  <path d="M13.03,284.9c-.67-.6-1.35-1.2-2.02-1.8.68.6,1.35,1.2,2.02,1.8Z" style="fill: #454045; fill-rule: evenodd;"/>
  <path d="M14.66,239.88c.6.03,1.19.05,1.79.05-.63,1.29-1.22,1.32-1.79-.05Z" style="fill: #4b4244; fill-rule: evenodd;"/>
  <path d="M18.33,230.6c.58-.65,1.16-1.3,1.74-1.95-.58.65-1.16,1.3-1.74,1.95Z" style="fill: #4b4244; fill-rule: evenodd;"/>
  <path d="M20.07,226.84c-1.24-.64-1.26-1.27,0-1.9,0,.63,0,1.27,0,1.9Z" style="fill: #4b4244; fill-rule: evenodd;"/>
  <path d="M29.61,249.16c-.77,1.53-2.15,1.87-3.69,1.92-.76-.78-.7-1.5.38-1.72,1.07-.22,2.2-.14,3.31-.2Z" style="fill: #a3b8df; fill-rule: evenodd;"/>
  <path d="M35.01,219.19c-.25.8-.5,1.6-.76,2.4-1.28-.41-2.54-.91-3.85-1.19-.92-.2-1.36,2.34-2.63.59-.3-.41-.21-1.12-.29-1.7.62-1.88,1.23-3.76,1.84-5.64,2.43,1.3,5.54,1.9,5.68,5.54Z" style="fill: #b0c1e3; fill-rule: evenodd;"/>
  <path d="M25.92,224.71c1.03.76,1.03,1.51-.03,2.24.01-.75.02-1.49.03-2.24Z" style="fill: #8ea2d0; fill-rule: evenodd;"/>
  <path d="M63.75,86.16c-3.73,2.15-4.53,6.7-7.71,9.37-.97.81.16,1.3,1.16,1.56,4.18,1.07,6.74,4.23,6.47,8.06-.1,1.42-1.51,2.72-.38,4.27,1.93,1.13,2.42-1.32,3.84-1.56,1.48-.24,2.9-.76,4.35-1.15,0,2.46.01,4.91.02,7.37-3.81-.16-5.53,2.56-7.26,5.27-.6.19-1.22.24-1.84.14-.05-.5-.15-.98-.31-1.45-4.36-5.49-5-12.94-9.87-18.26-2.07-2.27-.65-5.17,1.11-7.48,1.26-1.08,2.05-2.56,3.19-3.75l.27-.37c.3-.7.78-1.23,1.42-1.62l.29-.28c1.7-1.6,3.44-1.53,5.23-.14Z" style="fill: #6b80bf; fill-rule: evenodd;"/>
  <path d="M54.64,91.84c-1.85,3.18-2.46,6.25.68,9.07,5.1,4.58,5.55,11.01,6.78,17.13-1.18,0-2.35.02-3.52.03-6.8.32-6.3-6.07-8.89-9.62-1.27-2.68-3.48-4.48-5.78-6.2-.23-.34-.45-.7-.67-1.04.75-3.08,4.31-2.08,5.76-3.91,1.51-1.93,2.52-4.25,3.85-6.33.3-.47,1-.69,1.53-1.03.87.53.95,1.16.27,1.9Z" style="fill: #50556c; fill-rule: evenodd;"/>
  <path d="M50.89,106.92c1.88,1.05,1.77,3.16,2.58,4.78,1.25,2.48,2.14,5.27,5.11,6.38-.03.59-.09,1.18-.19,1.76-1.17,1.21-2.38,1.12-3.62.11h0c-.61-.64-1.24-1.26-1.88-1.85l-.19.09c-.81-1.32-2.62-.86-3.54-1.98h.02c.49-3.02-2.89-3.44-3.74-5.57,1.45-1.78,3.29-2.99,5.46-3.72Z" style="fill: #606783; fill-rule: evenodd;"/>
  <path d="M47.46,131.14c1.24,1.26,2.48,2.53,3.71,3.8.02,3.06.04,6.12.04,9.18,0,1.61-.54,2.97-1.95,3.89-1.24-4.25-2.04-8.57-1.89-13.03.03-1.28.06-2.56.09-3.84Z" style="fill: #565155; fill-rule: evenodd;"/>
  <path d="M62.69,138.59l-.13.86.04.87c-1.08,1.2-1.96,2.75-4,2.27-.73-5.1-.53-5.41,3.62-5.61-.12.62.04,1.16.48,1.61Z" style="fill: #dcdfe0; fill-rule: evenodd;"/>
  <path d="M58.81,153.46c-1.88.65-3.75,1.31-5.63,1.96,1.45-4.15,1.88-4.3,5.63-1.96Z" style="fill: #565155; fill-rule: evenodd;"/>
  <path d="M49.15,116.21c1.5.09,2.96.24,3.54,1.98-1.47-.14-2.83-.48-3.54-1.98Z" style="fill: #3d3d48; fill-rule: evenodd;"/>
  <path d="M54.77,119.96c1.21-.04,2.42-.07,3.62-.11-1.14,2.19-2.36,1.87-3.62.11Z" style="fill: #50556c; fill-rule: evenodd;"/>
  <path d="M52.89,118.1c.63.62,1.26,1.23,1.88,1.85-1-.23-1.6-.88-1.88-1.85Z" style="fill: #50556c; fill-rule: evenodd;"/>
  <path d="M92.8,170.15c-.54,1.94-.42,3.8.74,5.52-1.09,5.26,3.68,9.26,3.11,14.41-.28,3.11-1.29,5.78-4.34,7.22-7.44,1.88-8.84-4.88-12.34-8.64-.5-.72-.9-1.5-1.17-2.33,1.7-5.04-7.23-8.39-2.24-13.97.7-.49,1.47-.8,2.32-.9.84.18,1.55.6,2.15,1.22.17.38.35.76.51,1.15.97,1.78,2.4,2.11,3.04.11,1-3.15.94-6.49-.03-9.73-.34-1.14-.8-2.25-1.2-3.38.8-.34,2.28-.64,2.3-1.02.13-2.07.68-4.17-.54-6.23-1.08-1.81-2.16-3.74-2-6.02.93-.55,1.8-.46,2.6.26,7.13,5.92,5.28,14.69,7.08,22.31Z" style="fill: #363542; fill-rule: evenodd;"/>
  <path d="M79.61,172.02c-1.37.67-2.66,1.47-3.16,3-.54,1.67.36,3.04,1.57,3.88,3.21,2.23,1.95,5.21,1.63,8.06-.43.53-.83.68-1.22.49-.38-.19-.58-.38-.58-.57-.5-1.42-.66-3.14-1.57-4.2-2.29-2.66-3.55-5.29-2.62-8.96.54-2.1-1.23-3.2-3.23-3.58-.23-3-.47-5.99-.71-8.98.25-1.51.67-2.92,2.13-3.74,3.61,2.97,4.38,7.81,7.36,11.21,1.33.99,1.21,2.15.4,3.39Z" style="fill: #3a3843; fill-rule: evenodd;"/>
  <path d="M71.85,157.43c0,1.64-.55,2.98-2.12,3.74-.65-.59-1.49-1.06-1.93-1.78-1.13-1.83-.47-3.83,1.13-4.53,1.49-.65,2.29,1.26,2.92,2.58Z" style="fill: #35343f; fill-rule: evenodd;"/>
  <path d="M79.61,172.02c-.13-1.13-.27-2.26-.4-3.39.87-1.19,1.93-1.37,2.86-.22,1.56,1.93,1.51,3.81-.54,5.43l-.59.17c-.35-.75-.81-1.43-1.4-2.02l.07.02Z" style="fill: #7d8cb9; fill-rule: evenodd;"/>
  <path d="M55.1,164.79c.84-1.12,2.07-1.7,3.05-.62,2.06,2.27,2.86,5.2,2.83,8.74,3.26-3.62,4.19-3.65,5.18-.67.19.57.19,1.21.26,1.83.06.61.09,1.23.13,1.84,4.72,3.23,1.54,7.58,1.63,11.47-2.72,5.35-6.8,7.4-12.62,5.2-2.91-1.72-3.33-5.18-5.3-7.54-.75-.66-1.6-.97-2.61-.69-.7.11-1.23-.15-1.64-.7-.03-1.27-.05-2.54-.08-3.8,6.91-2.67,5.77-10.24,9.17-15.05Z" style="fill: #95a8d6; fill-rule: evenodd;"/>
  <path d="M49.57,183.49c1.65-.4,3.72-1.65,3.8,1.56.05,2.24,1.12,4.06,2.01,5.98.87,2.29-.84,2.64-2.34,3.14-.62-.17-1.23-.1-1.78.2.45.43,1.25.39,1.5,1.11.34.76.54,1.54.65,2.36.17,2.69-.84,4.95-2.44,7-3.14,4.23-.91,10.27-4.77,14.26-1.24.01-2.47.03-3.71.04-4.86-2.29-2.04-6.21-1.81-9.42.2-2.82,2.37-5.88-1.99-7.37-.05-.63-.11-1.26-.16-1.88,1.46-1.89,2.83-3.85,4.4-5.63,1.24-1.4-2.24-3.93,1.68-4.98,2.04-.54-.59-4.38,1.4-6.21.6-.03,1.2-.06,1.8-.08.37-.45.75-.61,1.15-.48.41.13.61.26.61.4Z" style="fill: #a6b7de; fill-rule: evenodd;"/>
  <path d="M55.1,164.79c.77.63,1.02,1.47.67,2.35-.98,2.5-2.21,4.83-2.52,7.63-.5,4.52-.73,4.5-5.52,5.05-.59.07-1.2.02-1.8.02,1.08-4.69,4.98-8.2,5.47-13.13,1.24-.64,2.47-1.29,3.7-1.93Z" style="fill: #a5add1; fill-rule: evenodd;"/>
  <path d="M36.76,202.28c-1.13,1.95-2.34,2.18-3.65.18,1.22-.06,2.43-.12,3.65-.18Z" style="fill: #a6b7de; fill-rule: evenodd;"/>
  <path d="M77.85,186.88c.6.06,1.2.08,1.8.08,0,0,.06.06.06.06,1.86,2.34,3.73,4.66,4.88,7.46,1.37,3.31,3.71,3.45,6.53,1.95,2.53-1.08,2.99-3.44,3.56-5.73,3.96-.29,3.12,2.96,3.47,5.03.54,3.24-.85,6.6.29,9.87v.02c1.07,2.74-1,3.98-2.58,5.47-7.81,8.68-9.95,8.37-15.84-2.23-2.1-3.78-3.24-7.94-4.66-11.99-.3-.81-.49-1.64-.63-2.49-.1-1.34.16-2.56,1.24-3.48,1.47-.95,1.7-2.47,1.88-4.02Z" style="fill: #6d77a1; fill-rule: evenodd;"/>
  <path d="M66.54,187.17c.14-1.49-.14-3.19.5-4.42,1.31-2.52.54-4.63-.49-6.84.9-.7,1.8-1.4,3.13-2.43.41,3.26.46,6.21,1.23,8.97.62,2.29,2.07,4.34,3.16,6.51-.3.25-.61.49-.91.74-2.94,1.1-3.59-3.82-6.61-2.53Z" style="fill: #788cc0; fill-rule: evenodd;"/>
  <path d="M75.98,190.91c-.02,1.22-.03,2.45-.05,3.67-1.47.92-3.06,1.13-3.79-.66-.81-1.96.62-3.47,1.83-4.88,0,0,.09-.08.1-.08.64.65,1.28,1.3,1.92,1.95Z" style="fill: #788cc0; fill-rule: evenodd;"/>
  <path d="M38.68,202.36c1.08-.53,2.12-1.21,3.26-1.54,2.03-.58,3.27.34,2.8,2.01-.97,3.48-1.84,7.01-3.19,10.35-.96,2.37.1,4.07.93,5.97-.26.16-.55.27-.76.47q-2.68,2.62-4.89-.46c2.57-3.74,1.56-7.46-.03-11.18.63-1.87,1.25-3.75,1.88-5.62Z" style="fill: #b0c1e3; fill-rule: evenodd;"/>
  <path d="M59.95,48.75c1.22,1.23,2.56,2.36,3.61,3.71.95,1.23,2.1,1.96,3.53,2.36,2.67,2.9,4.22,6.74,7.5,9.14.34.24.68.48,1.02.73.39.75.61,1.54.65,2.39-.11,1.3-.57,2.41-1.66,3.19-2.09,1.17-4.57,1.66-6.25,3.57-1.34,1.01-2.67,2.03-4.5,1.3-.27-2.08-.92-4.2-.75-6.25.59-7,.91-7.13-1.62-10.85-1.94-2.88-1.63-6.44-3.47-9.25.41-.61.84-.82,1.27-.64.44.19.66.38.66.58Z" style="fill: #3d3f4c; fill-rule: evenodd;"/>
  <path d="M74.88,69.27c.05-1.26.1-2.52.15-3.79,1.09-.5,1.97-.27,2.67.7,1.49,3.07,1.62,6.01-.84,8.7-.75.53-1.82.89-2.2,1.62-2.15,4.05-5.01,6.92-9.89,7.29-.4.03-.68,1.54-1.02,2.36-1.74.05-3.48.1-5.23.15-.35-4.74,3.39-7.51,5.33-11.15,1.19-.72,2.39-1.43,3.58-2.15,2.14-1.94,5.82-.78,7.45-3.73Z" style="fill: #6976a8; fill-rule: evenodd;"/>
  <path d="M57.77,47.08c-2.61-.06-5.3-.01-5.53-3.67.21-.3.42-.6.63-.9.37-.02.73-.03,1.1-.06,1.09.24,2.09.7,3.05,1.26.63.4,1.14.93,1.53,1.57.17.79-.07,1.4-.78,1.8Z" style="fill: #3d3f4c; fill-rule: evenodd;"/>
  <path d="M43.61,108.68c-.64.02-1.28.03-1.92.05.03-2.6-.89-5.4,1.55-7.51,0,0,.49.45.49.45,1.82,2.37,1.88,4.71-.11,7.01Z" style="fill: #50556c; fill-rule: evenodd;"/>
  <path d="M43.02,93.38c-1.06.11-2.12.22-3.19.34.6-1.75,1.19-3.49,1.79-5.23,1.14.03,1.53.89,1.93,1.74-.18,1.05-.35,2.1-.53,3.15Z" style="fill: #bdbeb5; fill-rule: evenodd;"/>
  <path d="M54.64,91.84c-.09-.63-.18-1.27-.27-1.9.72-.46,1.44-.92,2.16-1.38-.11,1.4-.54,2.61-1.89,3.28Z" style="fill: #6976a8; fill-rule: evenodd;"/>
  <path d="M57.77,47.08c.07-.59.1-1.18.08-1.77.38-.4.77-.54,1.17-.44.41.11.61.22.62.35.1,1.18.21,2.36.31,3.53-.64.02-1.29.03-1.93.05-.05-.58-.14-1.16-.25-1.73Z" style="fill: #515873; fill-rule: evenodd;"/>
  <path d="M58.23,86.58c-.48.54-.95,1.08-1.42,1.62.04-.92.44-1.53,1.42-1.62Z" style="fill: #6976a8; fill-rule: evenodd;"/>
  <path d="M54.31,43.06c-.69.11-1.38.23-2.07.34-.07-.53-.22-1.03-.45-1.51,0,0,.6-.57.6-.57,1.48-.35,2.02.33,1.93,1.73Z" style="fill: #515873; fill-rule: evenodd;"/>
  <path d="M92.8,170.15c-.65-1.73-1.79-3.44-1.85-5.18-.24-6.44-2.71-12-6-17.32-.76-.68-.78-1.32.09-1.93,2.27,1.45,4.15,3.3,5.54,5.61.86,1.43,2.23,1.8,3.73,1.94.7,1.89,2.26,3.69.03,5.69-2.45,2.21-2.32,4.72-.25,7.11,1.88,2.17.3,3.09-1.3,4.07Z" style="fill: #778bbd; fill-rule: evenodd;"/>
  <path d="M92.27,130.85c2.03.24,3.45,1.12,3.66,3.37.31,3.43.09,6.75-1.78,9.78-2.96-.32-2.7-.34-3.02-3.61-.21-2.17-1.24-4.25,1.16-5.79l-.04.04c0-1.26,0-2.52.01-3.78Z" style="fill: #778bbd; fill-rule: evenodd;"/>
  <path d="M99.89,151.37c-1.81.81-3.48,2.03-5.61,1.94-.12-1.44.08-3.01-.44-4.29-.76-1.84-.28-3.39.32-5.03q5.15,1.4,5.73,7.38Z" style="fill: #778bbd; fill-rule: evenodd;"/>
  <path d="M85.04,145.72c-.03.64-.06,1.28-.09,1.93-.61-.08-1.22-.1-1.84-.06-.63-1.18-1.26-2.36-1.89-3.53,1.58-.15,2.9.32,3.82,1.67Z" style="fill: #7283ad; fill-rule: evenodd;"/>
  <path d="M100.47,222.43c.02,1.51-.06,3.03.06,4.53.45,5.3.9,5.67,7.48,6.61l.04.04c.1,5.03-6.66,3.32-7.39,7.52-2.17,1.68.04,3.87-.73,5.93-1.07,2.85-.6,3.02-4.81,3.46-4.03,2.88-7.58-2.22-11.52-.71-.9-.09-1.69-.43-2.38-1.01-2.37-5.93-4.18-11.69,4.48-14.15.75-.38,1.52-.71,2.29-1.06,2.59-2.34,7.81-.85,8.49-5.93.35-2.11.53-4.31,2.73-5.49.43.08.85.17,1.28.25Z" style="fill: #93afdb; fill-rule: evenodd;"/>
  <path d="M100.66,241.13c-.24-.54-.48-1.08-.74-1.61-.94-1.95-.73-3.4,1.7-3.86,2.24-.41,4.85.39,6.43-2.06.91.03,1.86-.1,2.71.12,2.43.64,3.01,2.07,1.43,3.83-1.19,1.32-2.72,2.34-4.1,3.5h0c-.42-.47-.84-.63-1.26-.46-.42.16-.63.33-.62.49h0c-.41.65-.82.87-1.24.65-.41-.21-.63-.42-.63-.64-1.24.01-2.47.02-3.71.03Z" style="fill: #a0bde3; fill-rule: evenodd;"/>
  <path d="M102.27,266.2c.59.08,1.24.04,1.76.27.54.23,1.13.65,1.39,1.14.94,1.78,3.02,3.43,1.06,5.72-.36.41-1.05.83-1.55.79-2.48-.21-3.15-2.63-4.58-4.1-.65-.67.93-3.55,1.93-3.82Z" style="fill: #90abd8; fill-rule: evenodd;"/>
  <path d="M81.97,248.76c4.52-.45,8.85.49,13.14,1.77-.02,1.23-.03,2.47-.05,3.7-2.59-.35-5.52-.26-7.45-2.01-2.29-2.1-3.78-.25-5.59.3-.25-.27-.5-.53-.75-.8-.35-1.12-.21-2.13.7-2.96Z" style="fill: #87a1d3; fill-rule: evenodd;"/>
  <path d="M104.36,241.1c.62,0,1.24,0,1.86-.02-.21,2.53.6,4.82,1.53,7.12.48,1.2.24,2.45-.49,3.5-.31.45-.92.72-1.45.98-.15.08-.65-.15-.68-.3-.71-3.73-3.59-7.32-.77-11.28Z" style="fill: #93afdb; fill-rule: evenodd;"/>
  <path d="M106.22,241.09c.62-1.31,1.24-1.33,1.88-.02-.62,0-1.25.01-1.88.02Z" style="fill: #93afdb; fill-rule: evenodd;"/>
  <path d="M82.02,252.51c-.6,1.23-1.2,2.47-1.81,3.7-.43.16-.86.32-1.29.49-1.97-.76-5.04-.22-4.55-3.88,2.42-2.67,4.98-2.39,7.61-.34l.04.04Z" style="fill: #87a1d3; fill-rule: evenodd;"/>
  <path d="M83.75,258.47c-.46-.03-.91-.08-1.37-.16-.67-.11-1.33-.22-2-.33-1-.45-1.12-1.01-.23-1.71l.06-.06c1.59.11,3.03.46,3.53,2.26Z" style="fill: #87a1d3; fill-rule: evenodd;"/>
  <path d="M54.31,43.06c-.64-.57-1.29-1.16-1.93-1.73-.65-.67-1.29-1.33-1.94-2,0-.6-.11-1.23.02-1.8.22-.94.03-2.84,1.87-1.46,2.62,1.95,5.04,4.12,8.2,5.27,2.54.92,2.46,1.12-.89,3.88-.6-.03-1.19,0-1.79.09,0,0-.1-.09-.1-.09-.78-1.32-2.68-.79-3.46-2.1l.02-.05Z" style="fill: #7f92c9; fill-rule: evenodd;"/>
  <path d="M98.45,205.61c-2.93-2.21-3.98-4.89-2.51-8.49.93-2.27,1.08-4.64-1.25-6.4-.57-5-2.91-9.86-1.16-15.03.58-.19,1.2-.31,1.73-.6.76-.43,1.96-1.53,2.11-1.39,1.1.99.57,2.15-.18,3.13-.68.9-2.05,1.4-1.61,2.64,2.82-.02,5.53-.04,8.24-.06-1.36,3.84.52,8.69-3.76,11.66-1,.69-.25,1.87.53,2.24,1.92.92,3.97,1.56,5.94,2.37.83.34,1.94.66,1.76,1.77-.26,1.53-1.43,1.7-2.75,1.31-.89-.27-2.26-.43-2.29.54-.08,3.37-4.41,3.33-4.79,6.32Z" style="fill: #83a2d4; fill-rule: evenodd;"/>
  <path d="M107.56,179.33c-1.24.01-2.47.02-3.71.03-.15-.25-.27-.55-.48-.75q-2.62-2.64.49-4.82c1.02,1.99,4.08,2.62,3.7,5.54Z" style="fill: #83a2d4; fill-rule: evenodd;"/>
  <path d="M76.87,74.88c-.03-3.11-.06-6.22-.09-9.33-.79-.48-1.27-1.37-2.17-1.7,0,0-.01.11-.01.12.24-2.67.63-5.22,2.49-7.43.87-1.04.99-2.7,1.45-4.08h.02c.77-.49,1.54-1,2.32-1.46,2.56-1.51,3.78-1.29,5.32.72.97,1.26,1.65,2.56,1.71,4.15.05,1.59.45,3.01,1.77,4.04.66,3.92,1.38,7.84,1.95,11.77.26,1.81.5,3.67-2.18,4.26-1.48.32-1.54,1.94-.94,3.03,1.61,2.91.42,5.98.8,8.98-2.08,1.41-4.08-.11-6.07-.32-2.17-.24-3.21-2.34-1.72-4.07,1.95-2.24,1.67-3.64-.31-5.26-1.42-1.16-2.89-2.27-4.34-3.41Z" style="fill: #8aa1d3; fill-rule: evenodd;"/>
  <path d="M78.53,52.45c-.26-.14-.76-.34-.75-.42.14-.63.43-.48.76.41h-.02Z" style="fill: #8aa1d3; fill-rule: evenodd;"/>
  <path d="M120.58,242.85c.05.62.11,1.24.16,1.86-.49.36-.99.73-1.47,1.09-.92.68-1.96,2.03-2.99,1.02-.65-.64-.64-2.31-.4-3.41.35-1.67,1.75-1.11,2.9-.86.59.13,1.2.2,1.8.3Z" style="fill: #adc4e6; fill-rule: evenodd;"/>
  <path d="M106.03,216.78c0,.62,0,1.25.02,1.87-1.03,2.49-2.88,3.76-5.58,3.78-4.76-1.22-7.59-4.53-4.2-8.49,3.76-4.39,6.76.75,9.77,2.83Z" style="fill: #93afdb; fill-rule: evenodd;"/>
  <path d="M106.06,225.61c.8.61,1.21,1.42.8,2.37-.45,1.03-.59,2.49-2.13,2.47-.43,0-1.24-.76-1.2-1.09.16-1.15.53-2.3.96-3.39.28-.71.92-.78,1.57-.36Z" style="fill: #93afdb; fill-rule: evenodd;"/>
  <path d="M106.03,216.78c-2.67,1.63-4.5.72-5.91-1.83-.46-.82-1.43-1.38-2.24-.66-.58.51-.88,1.49-1.04,2.31-.57,3.02,2.45,3.86,3.63,5.83-2.19,1.36-1.77,3.57-1.84,5.62-.7.64-1.52,1.02-2.47,1.12-.46-.08-.92-.16-1.38-.23-.41-.21-.82-.44-1.23-.65-6.74-6.75.41-12.53,1.33-18.74,1.61-.93,2.85-2.19,3.58-3.92,1.85.11,3.72.03,5.52.37,1.74.33,2.37,2.9,4.66,2.5,1.4-.24,2.23-2.3,4.63-.92-2.47,3.13-4.86,6.16-7.25,9.19Z" style="fill: #83a2d4; fill-rule: evenodd;"/>
  <path d="M43.61,108.68c.04-2.34.07-4.68.11-7.01,4.62-1.28,5.62,2.36,7.17,5.26q-1.03,3.53-5.46,3.72c-.6-.66-1.21-1.31-1.82-1.97Z" style="fill: #67779d; fill-rule: evenodd;"/>
  <path d="M63.73,263.52c-.35-1.37-.8-2.67-2.2-3.35.59-.66,1.18-1.32,1.77-1.97,2.15-2.4,5.29-1.91,7.99-2.73.41-.06.83-.11,1.24-.17.85.02,1.64.27,2.38.69.45.81.31,1.54-.33,2.19-.61.64-1.45,1.17-1.8,1.93-1.92,4.15-4.96,5.12-9.05,3.42Z" style="fill: #92a6d1; fill-rule: evenodd;"/>
  <path d="M74.58,258.17c-.06-.64-.11-1.29-.17-1.93-.55-.64-.47-1.23.15-1.77,2.12-.2,3.79.98,5.58,1.79.03.58.1,1.15.23,1.72-1.93.06-3.87.13-5.8.19Z" style="fill: #7c8ebd; fill-rule: evenodd;"/>
  <path d="M82.13,278.71c.02-.9-.04-1.82.1-2.7.08-.52.64-1.44.73-1.41,1.08.35,1.2,1.36.87,2.18-.31.76-1.07,1.34-1.63,1.99l-.06-.06Z" style="fill: #5e6788; fill-rule: evenodd;"/>
  <path d="M59.54,243.39c-.49-.85-1.39-1.83-2.15-1.27-4.45,3.31-8.78,3.2-13.42.35-1.48-.91-3.46-1.01-6.39-1.8,3.88-1.11,6.22-2.9,8.32-5.04,1.15-1.17,2.68-1.46,4.25-1.57,3.82-4.56,3.08-9.43.97-14.4-.4-3.66-3.13-7.71,1.8-10.45,3.28.65,4.83,3.43,6.92,5.56,2.14,2.82-.73,9.17,6.14,8.64.84.21,1.6.58,2.31,1.06,2.07,1.84,4.41,3.39,6.24,5.47,1.56,1.77,1.91,5.66.83,5.77-7.5.75-4.03,9.27-8.79,11.66-.41.16-.82.31-1.23.48-.44.03-.89.05-1.33.08-.43-.13-.85-.26-1.27-.39-1.57-.99-2.02-2.85-3.2-4.15Z" style="fill: #9fb5de; fill-rule: evenodd;"/>
  <path d="M74.56,254.48c0,.59-.06,1.18-.14,1.77-.58.03-1.16.05-1.73.06-.19-.4-.29-.59-.29-.59-.58.49-.49.69.29.6-2.63,3.1-6.21,1.5-9.39,1.89-.47-1.08-1.56-2.36-1.29-3.2,1.1-3.36-1.11-5.5-2.4-8.02,1.23-1.03,2.46-1.02,3.66.05l-.03-.02c.42.45.84.59,1.26.44.42-.15.62-.3.62-.45h-.02c2.48-.51,5.77.13,5.25-4.27-.2-1.63,1.02-2.94,2.66-3.18,1.91-.28,2.66,1.35,3.06,2.78.91,3.17,2.77,5.34,5.88,6.43h-.01c0,1.22,0,2.47.01,3.7-2.58.29-5.55-.87-7.42,2Z" style="fill: #9bb1db; fill-rule: evenodd;"/>
  <path d="M53.6,209.7c-2.08,1.36-1.92,3.42-1.63,5.46.19,1.35,1.31,2.69-.17,3.96-.38.63-.76.84-1.16.64-.4-.2-.59-.4-.59-.61-1.29.09-2.59,2.05-3.85-.04-.7-4.76,1.21-9.28,1.4-13.97.01-.36,1.45-.67,2.22-1,6.52.89,6.75,1.23,3.79,5.55Z" style="fill: #b0c1e3; fill-rule: evenodd;"/>
  <path d="M50.05,219.15c.58-.03,1.17-.04,1.75-.03,1.19,2.18,2.03,4.43,1.97,7-.05,2.74-.24,5.53,1.08,8.13.41.81.43,1.89-.43,2.42-1.55.94-2.04-.68-2.87-1.43-.45-.41-.94-.78-1.4-1.17,0-.91-.31-1.96.04-2.7,1.96-4.12,1.05-8.15-.14-12.2Z" style="fill: #8aa1d3; fill-rule: evenodd;"/>
  <path d="M63.28,247.04c-1.22-.02-2.44-.03-3.66-.05-.03-1.2-.06-2.4-.08-3.6,1.83.62,3,1.92,3.75,3.65Z" style="fill: #87a1d3; fill-rule: evenodd;"/>
  <path d="M50.24,250.9c-.81,1.5-2.21,1.83-3.75,1.89l-.02-.03c.79-1.49,2.17-1.84,3.7-1.92l.07.06Z" style="fill: #a3b8df; fill-rule: evenodd;"/>
  <path d="M50.17,250.84c.07-.57.1-1.16.23-1.72.06-.26.36-.68.49-.66.74.11,1.01.63.59,1.28-.3.46-.82.78-1.24,1.16l-.07-.06Z" style="fill: #a3b8df; fill-rule: evenodd;"/>
  <path d="M27.66,239.86c.27.13.76.32.75.4-.14.62-.41.46-.71-.44l-.04.04Z" style="fill: #8ea2d0; fill-rule: evenodd;"/>
  <path d="M48.41,258.38c0-.6,0-1.21.02-1.81,1.09.62,1.03,1.22-.02,1.81Z" style="fill: #889ed1; fill-rule: evenodd;"/>
  <path d="M91.13,196.44c-1.01,1.72-2.85,2.15-4.5,2.86-.96.41-2.23.15-2.31-.63-.42-4.36-4.18-7.33-4.61-11.64,3.1.07,4.06,2.55,5.1,4.75,1.3,2.75,3.13,4.58,6.31,4.66Z" style="fill: #3a3843; fill-rule: evenodd;"/>
  <path d="M79.55,172c.86.4,1.43,1.01,1.4,2.02-.47-.67-.94-1.35-1.4-2.02Z" style="fill: #3a3843; fill-rule: evenodd;"/>
  <path d="M81.98,248.77c-5.48,1.88-6.57,1.36-7.47-3.69-.21-1.18-.19-2.41-.46-3.58-.05-.24-.91-.37-1.41-.4-.21-.02-.65.38-.63.57.06,1.18.2,2.35.36,3.52.31,2.23-1.03,3.31-2.8,4.12-1.97.91-2.54-1-3.67-1.8-.25-.18-.52-.32-.78-.48.95-1.7,2.91-2.58,2.44-5.38-.4-2.41.21-5.3,2.7-7.26,1.51-1.19,1.94-.83,2.41.67.09.29.25.67.48.76.81.32,1.16-.02,1.14-.88-.05-1.84.1-3.92-2.17-4.51-3.15-.81-4.05-3.46-5.31-5.87.77-1,1.45-2.02.29-3.2.84,1.15.51,2.2-.26,3.21-1.48.43-2.94.86-4.42,1.3-1.02.3-1.43-.08-2.11-.99-2.29-3.07-.86-6.39-1.06-9.59-2.22-2.45-2.28-5.04-.16-7.5,1.69-1.96,4.04-1.38,6.09-.85,2.83.74,1.47,2.88,1.81,3.82-3.8-5.9-10.35-9.26-15.32-14.16-.03-.6-.05-1.21-.07-1.82-.59-.62-.54-1.22.05-1.81,1.54-.09,2.92-.47,3.72-1.95,4.61,1.29,8.58.72,11.16-3.86,1.59-.6,3.04-1.32,4.42.66.51.74,1.98.82,3.01,1.21-.1.83-.03,1.73-.34,2.48-.94,2.37.29,2.97,2.29,3.07h0c1.97,2.79-.04,4.7-1.62,6.51-2.49,2.85-1.74,5.71.97,7.07,6.95,3.47,6.71,9.66,6.97,15.81.47.84-1.06,1.66-.03,2.53-.14-.64.08-1.15.7-1.55,5.07-3.11,8.09,1.6,11.95,3.13l.11.06c.41.45.81.59,1.19.42.38-.17.57-.34.57-.49.62,0,1.24,0,1.86-.02-.15,1.48-.12,3.02-.51,4.44-.2.72-1.64,1.8-1.7,1.75-3.55-3.05-5.83,1.94-8.92,1.37h-.02c-.7.56-1.37,1.54-2.11,1.59-2.83.22-4.99.56-2.34,3.93-2.14,2.3-1.47,4.98-1.04,7.63Z" style="fill: #87a1d3; fill-rule: evenodd;"/>
  <path d="M49.57,183.49c-.59.05-1.17.08-1.76.08.41-.26.81-.55,1.26-.75.06-.02.33.43.5.67Z" style="fill: #9198b8; fill-rule: evenodd;"/>
  <path d="M51.67,196.62c6.06-.95,6.75-.61,7.98,4.91.41,1.85,1.65,2.35,3.02,3.1,1.53.84,2.68-2.44,3.97-.36,1.45,2.35,3.16,4.7,3.23,7.6.01.68-.95,1.86-1.62,1.99-1.12.22-2.39-.16-3.57-.38-2.15-.39-2.69-1.18-.6-2.6.78-.53,1.63-1.38.99-2.26-.39-.54-1.58-.73-2.39-.7-1.67.08-3.03.84-3.22,2.71-.16,1.54-.14,3.1-.21,4.66-3.67-.06-4.25-3.25-5.65-5.6,1.07-2.14,1.07-3.69-1.89-4.04-.68-.08-1.26-.99-1.89-1.51,1.32-2.34,2.12-4.8,1.86-7.53Z" style="fill: #95a8d6; fill-rule: evenodd;"/>
  <path d="M51.65,192.98c-.02.6-.03,1.21-.05,1.81-1.23-.64-1.33-1.24.05-1.81Z" style="fill: #95a8d6; fill-rule: evenodd;"/>
  <path d="M94.88,228.08c-1.52-.17-3.5.21-4.46-.62-2.77-2.35-5.64-1.68-8.62-1.15h0c-1.05-1.51-2.14-3.01-3.12-4.58-.69-1.11-.53-2.27-.09-3.52,1.43-4.09,1.46-5.15-1.59-6.07-4.6-1.4-6.11-4.72-7.27-8.54,1.47-3.54,5.92-4.84,6.21-9.02,2.61,2.13,2.85,5.41,3.72,8.28,1.48,4.9,4.77,8.6,7.56,12.64.94,1.35,3.24.65,3.11-1.16-.27-3.65,2.44-3.8,4.55-4.81-.3,3.26.69,6.8-1.35,9.68-2.51,3.55-.65,6.15,1.35,8.86Z" style="fill: #788cc0; fill-rule: evenodd;"/>
  <path d="M74.88,69.27q-1.18,4.8-5.68,4c-.59-.1-1.18-.18-1.77-.27.22-2.42,1.58-3.58,3.98-3.62,1.16-.02,2.31-.07,3.47-.11Z" style="fill: #4f5467; fill-rule: evenodd;"/>
  <path d="M74.6,63.85c1.04.16,1.75.75,2.17,1.7-.58-.05-1.16-.06-1.74-.06-.28-.51-.43-1.06-.43-1.64Z" style="fill: #7e97cd; fill-rule: evenodd;"/>
  <path d="M54.29,43.11c1.55.04,2.8.59,3.46,2.1-1.54-.06-2.87-.48-3.46-2.1Z" style="fill: #515873; fill-rule: evenodd;"/>
  <path d="M92.26,134.63c.27.14.78.33.76.4-.15.63-.43.48-.73-.45l-.04.04Z" style="fill: #92a9d7; fill-rule: evenodd;"/>
  <path d="M96.76,228.07c-.22.73-.66,1.04-1.25.77-.23-.11-.35-.46-.52-.7.59-.04,1.18-.07,1.77-.08Z" style="fill: #93afdb; fill-rule: evenodd;"/>
  <path d="M65.14,247.01c-.62,1.32-1.25,1.31-1.89.01.63,0,1.26,0,1.89-.01Z" style="fill: #87a1d3; fill-rule: evenodd;"/>
  <path d="M72.69,256.31c-1.52-.04-3.06,0-4.57-.16-1.34-.13-2.35-.81-1.76-2.34.37-.95,1.41-1.07,2.34-.92,2.02.31,3.14,1.71,3.99,3.41h0Z" style="fill: #92a6d1; fill-rule: evenodd;"/>
  <path d="M66.84,224.58c-.44-1.07-.65-2.37-1.39-3.17-.96-1.05-2.69-1.4-2.95-3.09-.02-.12,1.09-.69,1.45-.53,2.11.94,4.85,1.47,4.39,4.7-.1.75-.99,1.39-1.51,2.08l.02.02Z" style="fill: #9fb5de; fill-rule: evenodd;"/>
  <path d="M69.04,198.61c-.38.72-.45,1-.62,1.14-.22.16-.53.29-.81.3-2.43.08-3.84-1.49-5.11-3.25-.16-.22-.28-.58-.21-.82.07-.26.37-.65.57-.65,2.8-.05,3.68,2.93,6.18,3.29Z" style="fill: #9fb4dd; fill-rule: evenodd;"/>
  <path d="M87.47,235.63c-.88-.46-1.61-1.11-1.3-2.16.13-.44.86-.98,1.32-.99.77,0,.97.65.65,1.4-.24.57-.44,1.16-.66,1.73h-.02Z" style="fill: #93afdb; fill-rule: evenodd;"/>
  <path d="M81.8,226.32c-.14.26-.34.77-.42.75-.63-.14-.48-.43.42-.74h0Z" style="fill: #788cc0; fill-rule: evenodd;"/>
</svg>