<?xml version="1.0" encoding="UTF-8"?>
<svg id="Layer_1" data-name="Layer 1" xmlns="http://www.w3.org/2000/svg" viewBox="0 0 2075.11 2921.33">
  <path d="M1847.98,2512h-7.96v7.96h7.96v-7.96Z" style="fill: #beb5ad;"/>
  <path d="M119.98,344h-7.96v7.96h7.96v-7.96Z" style="fill: #c4bdb7;"/>
  <path d="M983.98,2616h-15.96v7.96h15.96v-7.96Z" style="fill: #bcaba2;"/>
  <path d="M556,2363.98c.79-.72,13.7-9.2,15.86-7.83.57.36,7.66,10.43,7.93,11.05,4.04,9.29-6.63,11.04,8.21,12.78,1.32.16,2.76-.26,4,0-.47,8.09,4.06,11.82,12,12,4.44,4.47,7.71,5.15,12,8v7.99s8,0,8,0c3.98.15,8.02-.23,12,0l.03,7.98c4.58,1.69,7.45-3.89,7.97-3.98,2.3-.38,5.49-.09,8,0l.02,12.01,11.97-.02.02-7.99c2.59.3,5.46-.38,8,0l-4,24c-15.41-3.56-51.23-9.43-60-20-.81-.98,1.13-6.94-.03-7.92-4.01-3.38-10.75,3.72-11.97,3.92-4.86.81-12.87-2.81-16.45,2.37-7.92,11.46-13.2,50.06-19.55,65.63-8.34,20.47-29.01,49.35-35.13,70.87s-2.57,50.89-8.84,73.12c29.47-11.65,16.22,15.31,20.91,33.08,8.3,31.47,27.33,69.84,35.07,102.93,4.82,20.62,5.16,50.52,10.16,72.36-1.78,15.42-11.19,14.28-22.16,19.64-3.86,1.89-12.25,11.33-15.98,7.98-8.57-7.7,12.34-6.84,7.95-13.92-2.94-5.78-9.98-4.6-11.97-6.06-3.17-2.31-5.23-2.61-8-4-2.23-1.12-5.85-12.08-15.98-7.97l-.02,7.97c-11.82-.77-30.09,2.27-40,0l4-16c5.15-.17,7.55-3.99,8-4,10.62-.34,21.4.53,32,0,2.41-.12,5.9.39,12,0,4.65-.3,10.65-3.17,16-4,.32-.05,2.5,2.93,5.37,2.68,14.47-1.23,16.22-15.17,2.63-14.68-5.15-23.68-11.13-54.93-21.73-76.4-4.17-8.43-3.74-9.09-14.27-7.6-1.32-9.53-8.32-13.28-10.2-19.81-11.25-39.06-21.23-88.37-9.8-128.19,3.43-11.95,14.87-43.02,20-56,.34-.86,8.48-6.89,11.51-14.44,9.95-24.81,23.08-50.12,20.51-77.58-5.17-.56-10.99.77-16.02.02-15.09-2.24-19.57-1.01-32,0-3.9.32-8.3-.57-12,0-10.99-4.63-8.33-13.62-8-24,1.58-.95,2.98-3.67,4-4,14.95-4.82,24.34-4.46,40-4,.57.02,3.99,6.55,8.14,2.37,3.94-3.22,2.78-8.92,3.86-10.37,3.8-5.14,12.03-16.37,16-20Z" style="fill: #361c12;"/>
  <path d="M863.98,1672h-7.96v7.96h7.96v-7.96ZM879.98,1696c-4.15-4.1-16.03,7.94-11.96,11.96s16.03-7.94,11.96-11.96ZM851.98,1748h-11.96v7.96h11.96v-7.96ZM619.98,2292c-24.72-4.24-4.97,17.33,0,11.96v-11.96ZM651.98,2312h-15.97s0,11.96,0,11.96c7.37.93,11.73.24,15.94-6.04l.02-5.92Z" style="fill: #bab1a9;"/>
  <path d="M508,2515.98c-6.38,17.97-13.74,33.05-20,52-14.77,44.74-31.25,94.95-44,140-.99,3.49-3.16,4.58-4,12-1.3,11.45,1.11,24.42,0,36-.07.77-4.11,2.73-3.41,5.52l3.41,2.48c-1.27,5.69-2.68,10.59-4,16l-16.06,1.94c7.83-24.12,4.27-49.76,4.06-73.94-.04-5.15-.56-11.06,0-16h7.99s0-8,0-8c.45-3.84-.67-8.43,0-12l7.83-.19.17-7.81c2.14-1.66,6.47-29.98,8-36,10.93,2.46,9.37-8.08,12-16,4.69-14.12,8.03-29.6,12-44l7.42-.48c3.23-14.75,8.28-29.07,12.58-43.52,2.23-7.5,2.54-15.47,4-20l12-4c-1.35,3.69,1.34,12.24,0,16Z" style="fill: #532d1d;"/>
  <path d="M432,2803.98c-.53,4.32-2.84,7.91-4.04,11.94,16.93,10.5,22.52.2,30.01.07,5.6-.1,10.79,8.36,22.04,7.99l-4,16c-7.11-1.62-10.63-13.92-19.98-11.98-4.13,33.61,31.85,19.06,47.98,19.98l7.98,15.98c-5.06,4.23-28.42-13.35-27.98,8.02-2.66-.08-5.34.06-8,0s-5.34.06-8,0c-20.62-5.07-28.28-23.53-48-24-.26-1.28.25-2.71,0-4-.8-4.17-4.14-18.99-4-20,.21-1.44,9.4-7.67,8-20,2.65.14,5.36-.21,8,0Z" style="fill: #40322a;"/>
  <path d="M424,2707.98c.21,24.18,3.77,49.82-4.06,73.94l16.06-1.94c-2.16,8.85-2.92,15.11-4,24,19.23,1.5,37.4,7.81,56,12v4c-.45.01-2.85,3.83-8,4-11.24.37-16.43-8.09-22.04-7.99-7.49.13-13.07,10.44-30.01-.07,1.21-4.04,3.52-7.62,4.04-11.94-2.64-.21-5.35.14-8,0-1.23-10.82-11.57-11.18-12-12-1.04-2.01.85-8.67-.02-12.01l-15.98,4.01c1.94-6.74,6.12-11.94,7.55-18.4,3.86-17.41-.59-52.91,20.45-57.6Z" style="fill: #56493f;"/>
  <path d="M1692,2455.98c3.7.59,8.13-.4,12,0,3.94,4.92,9,8.44,11.03,15.1,1.81,5.92.77,11.16.97,16.9.04,1.32.06,2.68,0,4h-24c-1.17-1.54-11.19-11.75-12-12l-1.74-20.22-25.76-4.45-.5-7.33c8.71,2.37,30.27,6.44,40,8Z" style="fill: #4a4338;"/>
  <path d="M536,2423.98c.12,19.04-9.77,39.25-16.41,57.58-2.42,6.67-9.48,12.63-11.59,18.42l-12,4c5.69-17.69,26.86-59.37,24.19-73.83l-16.19-6.17c12.43-1.01,16.91-2.24,32,0Z" style="fill: #655b54;"/>
  <path d="M540,2843.98c1.99,1.45,9.03.27,11.97,6.06,4.39,7.08-16.52,6.22-7.95,13.92,3.72,3.35,12.12-6.09,15.98-7.98.7,14.2-6.25,20.3-20,20-2.65-.06-9.17-3.87-16-4-2.66-.05-5.33.04-8,0-10.64-.16-21.37.33-32,0-.44-21.37,22.92-3.79,27.98-8.02l-7.98-15.98c9.52.54,19.94,6.55,29.68,7.55l6.32-11.55Z" style="fill: #56493f;"/>
  <path d="M412,2791.98c.43.82,10.77,1.18,12,12,1.4,12.33-7.79,18.56-8,20h-12c-2.33-6.29-2.48-11.18-4-16,10.44,2.45,9.88-7.81,12-16Z" style="fill: #532d1d;"/>
  <path d="M396,2783.98l15.98-4.01c.87,3.33-1.02,10,.02,12.01-2.12,8.19-1.56,18.45-12,16-2.34-7.43-11.04.46-4-24Z" style="fill: #40322a;"/>
  <path d="M420,2847.98c19.72.47,27.38,18.93,48,24-.45,0-3.68,4.37-8,4-11.7-1-37.66-16.62-40-28Z" style="fill: #56493f;"/>
  <path d="M484,2871.98c10.63.33,21.36-.16,32,0,.32,4.07-3.74,9.18-4,12h-4c-7.94-8.06-20.87,2.91-32,0l-3.48-3.35,7.45-2.62-3.97-6.03c2.66.06,5.34-.08,8,0Z" style="fill: #bcaba2;"/>
  <path d="M492,2523.98c-4.3,14.45-9.35,28.77-12.58,43.52l-7.42.48c4.41-15.99,1.09-42,20-44Z" style="fill: #56493f;"/>
  <path d="M476,2871.98l3.97,6.03-7.45,2.62,3.48,3.35-1.87,12.08-10.11,3.9-4.02-23.98c4.32.37,7.55-4.01,8-4,2.66.06,5.34-.06,8,0Z" style="fill: #bab1a9;"/>
  <path d="M484,2399.98c-.33,10.38-2.99,19.37,8,24-.97.15-4.31,5.69-9.43,3.87l-5.91-6.51-.16-21.06c2.27-1.5,6.4.37,7.51-.3Z" style="fill: #655b54;"/>
  <path d="M416,2823.98c-.14,1.01,3.2,15.83,4,20-16.41-.84-12.77-11.27-16-20h12Z" style="fill: #56493f;"/>
  <path d="M1716,2491.98c-.19,3.99.22,8.03.03,12.01-4.79,1.12-17.58-1.52-20.03,0-.81-3.95-1.56-8.77-4-12h24Z" style="fill: #c4b9af;"/>
  <path d="M460,2611.98c-2.63,7.92-1.07,18.46-12,16,2-7.87-1.97-16.19,12-16Z" style="fill: #56493f;"/>
  <path d="M512,2883.98c-.04.41,5.55,3.41,2.25,7.92l-8.21,4.12,1.96-12.04h4Z" style="fill: #bab1a9;"/>
  <path d="M1728,2475.98c-.8,3.16,1.02,8.15-.15,11.85l-7.85.15v-12.01s8,.01,8,.01Z" style="fill: #c4b9af;"/>
  <path d="M432,2683.98v7.99s-8,0-8,0c.29-2.6-.37-5.37,0-7.99h7.99Z" style="fill: #56493f;"/>
  <path d="M440,2663.98l-.17,7.81-7.83.19c2.73-14.61,4.11-5,8-8Z" style="fill: #56493f;"/>
  <rect x="1840.02" y="2512" width="7.96" height="7.96" style="fill: #c4b9af;"/>
  <path d="M692,703.98c-.02,5.06-1.05,10.54,3.94,14,1.36.94,28.93,12.41,30.56,12.74,18.86,3.83,55.52-6.45,71.46-14.77l-21.96,16.04c-5.72-1.74-16.87,8.53-24.01,8.12,1.98,3.77,2.69,7.9,4.01,11.88.6,1.82,3.03,3.64,3.27,6.05l-3.27,1.95c-4.61-2.04-11.06-5.52-16-8-21.1-10.59-56.61-49.54-72-52-2.49-.4-5.39.23-8,0-3.7-6.93-10.38-5.98-16-8-2.64-.95-7.6,1.3-12.06-1.93-3.91-2.83-3.13-9.25-3.94-10.07-1.55-6.53-4.13-13.16-4-20,.05-2.6-.44-5.75,0-8,.56-2.87,7.24-10.11,8-16,25.39,4.3-2.97,27.25,13.81,44.21,11.65,11.78-.75,2.44,7.38,4.46,9.49,2.36,14.39,19.71,38.81,19.33ZM747.98,736h-7.96s.02,11.98.02,11.98l7.92-6.06.02-5.92Z" style="fill: #c5bdb7;"/>
  <path d="M44,59.98c14.4.74,17.96,20.05,24.6,29.58s16.7,13.52,22.06,29.19c.94,2.74-3,8.66-2.6,9.04.57.54,9.17.33,14.09,3.94,13.85,10.17,24.96,47.12,18.1,63.87,11.29,8.17,29.85,5.92,39.67,10.43,9.83,4.51,9.89,20.91,29.38,9.12,8.01-4.84,5.85-15.92,22.67-11.19l.11,25.46-8.06,6.53,31.97,8.03c-3.9-.36-8.06,0-12,0h-8c0-1.29.2-2.75,0-4-.5-3.11-18.22-8.17-22.04-8.04-6.53-1.98,12.24,6.69,10.04,8.04-2.63,1.61-1.82,3.56-8,4s-14.07-2.31-20-4c0-2.57-19.26-5.15-20.4-7.62-1.65-1.67-6.25.29-7.6-.38-2.04-1.01-7.44-3.18-8-4-.92-1.36.98-7.29.03-7.99-1.94-1.45-28.78.69-36.03,0-8.84-.85-15.29-1.34-24-4-5.11-21.03,15.8-6.51,22.33-15.73,7.26-25.98-11.82-26.42-30.33-32.27-1.35-.43-2.84-3.71-4-4l-32-64c-.01-1.33-.03-2.67,0-4,.17-7.27,5-17.11,4.34-21.65s-7.28-1.52-8.34-2.35c-1.49-1.17-2.46-5.96-4-8,4.57-4.87,10-4.31,16-4ZM67.93,108.01l-7.98,2.03c-2.66,7.97,17.14,40.99,24.04,33.92-3.59-4.67-.26-18.55-.82-19.33-2.04-2.87-16.74-4.96-15.24-16.61Z" style="fill: #56493f;"/>
  <path d="M44,23.98c5.54.18,29.51,5.54,36,8,2.02.77,5.27,2.75,8,4,4.11,1.88,12.72,14.01,24,12,1.18,2.06,2.81,2.73,4,4,3.03,3.25,5.9,2.71,8,4,1.45.89,2.74,3.58,4,4l.04,16c4.08-1.38,7.56-3.3,11.96-4,2.53-.4,5.5.44,8,0,6.63-1.16,7.55-3.97,8-4,17.02-1.2,31.51,2.29,48,4-13.12,13.91-3.72,16.54-4,24-.17,4.49-7.98,12.05-2.25,20.18,6.99,9.9,16.42-.14,18.25-.18,18.12-.4,34.92,6.68,39.98,23.98-5.27-.22-10.72.43-15.98.02-13.51-1.04-33.9-7.41-46.9,1.1-7.05,4.61-14.41,38.17-30.99,34.9-18.09-3.57,4.11-41.62,16.96-44.74l-.83-11.51c-7.61-6.35-21.53-5.23-28.5-11.49-5.36-4.81-4.95-13.15-9.85-18.15-21.46-21.92-66.21-36.93-95.89-42.11-3.87-.68-9.31,1.33-13.25.06-4.55-1.46-.11-11.89-10.72-8.04.26,3.9-.52,8.14-.02,11.98-2.48.45-6.01-.66-8,0v-4l-2.34-16.17c.77-.95,20.39-7.62,22.34-7.83,3.77-.4,8.15-.13,12,0Z" style="fill: #4a4338;"/>
  <path d="M224,63.98c.58.25,1.87,6.01,6.63,7.2,12.02,3.01,24.84,0,37.37,8.8-.09,1.31,0,2.68,0,4,.04,5.71,4.77,13.37,4,20,.11,7.5,1.02,17.24,4,24-21.58,1.2-6.4,22.09-24,28-.49-1.01-14.18-1.48-12-16,5.26.41,10.71-.24,15.98-.02-5.06-17.3-21.86-24.38-39.98-23.98v-12l8.04-9.96c-3.58-6.76-7.53,1.87-8.04,1.96-4.79.84-10.9-.57-16,0,.28-7.46-9.12-10.09,4-24,1.51-1.6,10.57-7.67,12-8s7.1-.4,8,0Z" style="fill: #726761;"/>
  <path d="M68,163.98c-14.74-3.74-29.55-7.89-32,12-1.67-.75-5.59.5-8,0,.2-4.16-4.84-6.25-8-8v-8c-3.27-15.65,11.16-14.99,16-20l7.98-.03-3.98-7.97c.79-6.82-4.15-16.16-4-24,.05-2.66.03-5.34,0-8l32,64Z" style="fill: #726761;"/>
  <path d="M72,167.98c18.51,5.84,37.58,6.29,30.33,32.27-6.53,9.22-27.44-5.3-22.33,15.73-12.39-3.78-18-9.81-28-16v-12c9.38,4.77,14.67,11.21,27.98,7.98l-7.98-27.98Z" style="fill: #726761;"/>
  <path d="M32,23.98c-1.96.21-21.57,6.88-22.34,7.83l2.34,16.17c-6.64,1.4-8.92-3.01-12-8,1.16-1.78.3-18.88,4.35-23.67l27.65,7.67Z" style="fill: #726761;"/>
  <path d="M20,51.98c-.5-3.84.28-8.08.02-11.98,10.62-3.85,6.18,6.58,10.72,8.04,3.94,1.27,9.39-.74,13.25-.06v12c-6-.31-11.43-.87-16,4h-4c-.53-5.07-3.64-9.27-4-12Z" style="fill: #726761;"/>
  <path d="M104,219.98c7.25.7,34.09-1.44,36.03,0,.94.7-.95,6.64-.03,7.99-3.86.41-8.32-.6-12,0-3.29.54-9.8,2.05-12,4l-12-4c-.47-2.43.32-5.44,0-8Z" style="fill: #726761;"/>
  <path d="M32,71.98c1.05.83,7.65-2.32,8.34,2.35s-4.17,14.38-4.34,21.65h-8c.76-4.97-.69-10.95,0-16,.18-1.28,4.32-4.98,4-8Z" style="fill: #726761;"/>
  <path d="M140,63.98v8c-4.4.7-7.89,2.62-11.96,4l-.04-16c2.43.82,11.37,4.08,12,4Z" style="fill: #726761;"/>
  <rect x="556.02" y="148" width="7.96" height="7.96" style="fill: #c5bdb7;"/>
  <path d="M1452,1143.98c-.27,2.21-3.2,5.44-4,8-1.6.34-4.89,4.23-8,4,3.5-9.77-7.99-12.23,12-12Z" style="fill: #c0b8b0;"/>
  <path d="M2036,2107.98c-.6,3.22,1.48,6.69-1.01,10.99-.36.62-8.89,7.29-10.99,9.01-.73.6-5.37-1.18-7.29.7-1.83,2.25-.49,4.89-.71,7.3-.11,1.16-.24,2.89,0,4-27.82,11.22-49.68,15.73-80.03,9.7-11.97,35.5-40.25,67.23-80.93,61.25-17.33-2.55-26.95-14.31-43.04-14.94-.01-10.8,15.68-10.35,12-24,16.81,5.46,43.43,25.73,60.82,15.93,4.51-2.54,6.78-9.67,10.97-14.22,8.85-9.62,13.23-2.37,14.86-24.58.34-4.66-2.69-8.16-2.65-9.13.92-20.11,16.24-31.76,36-24,21.49,8.45,51.45,26.29,64-8,9.61-3.99,18.39-3.99,28,0Z" style="fill: #532d1d;"/>
  <path d="M2024,2127.98v8c-2.23-.56-5.46.38-8,0,.22-2.41-1.12-5.05.71-7.3,1.92-1.88,6.56-.1,7.29-.7Z" style="fill: #655b54;"/>
  <path d="M420,527.98c-13.53-5.21-16.91,13.13-15.22,21.07.7,3.26,27.14,52.23,31.22,58.93-5.86,17.52-47.19-4.87-55.66-10.35-10.36-6.71-17-19.73-28.34-25.65-1.47-4.77-5.28-9.91-8-20-1.66-6.14,1.99-13.22-8-16-2.15-.6-5.48.4-8,0,.24-1.4-.4-3,0-4,1.1-2.8,8.72-.88,8.19-13.6-15.36-64.05,2.6-130.3-12.19-194.4l11.62-22.4,4.38-53.6c56.88,87.76,33.99,148.78,65.81,240.19,2.79,8,11.37,12.3,13.36,18.69,1.99,6.39-.25,19.34.83,21.11Z" style="fill: #c7856f;"/>
  <path d="M344,1039.98c-2.27,13.49,5.08,94.3,9.11,108.89,6.3,22.85,50.57,93.1,73.71,98.29,8.65,1.94,18.35-.74,26.4,1.6,5.92,1.72,9.42,9.59,15.21,12.79,38.49,21.32,63.41,25.62,107.55,18.41-7.78-18.12-18.6-28.91-23.98-47.98h12c1.24,5.15,18.78,40.52,27.98,31.98l-3.98-35.98c.6.72,9.66-2.07,10.28,12.17l21.7-.16.02-8.01c.6,1.08,11.99-2.31,12.2,18.12.43,41.46-48.13,45.62-76.2,57.88-2.55,1.11-6.15.62-8,4-5.27-.41-10.7.24-16,0s-10.95.63-16,0c-3.84-.48-8.24.58-12,0-17.9-2.76-39.96-21.85-56-12-4.16-1.78-9.85,3.68-16-4-15.75-19.67-30.41-26.31-48-44-2.42-2.44-.48-15.87-16-12-.77-3.53.87-8.72,0-12-3.02-11.42-8.55-13.78-12-28-3.73-15.38-5.04-4.83-8-8-.93-.99-6.92-16.65-8-20s-3.71-6.75-4-8c-1.44-6.28.64-16.62,0-24-.25-2.92-2.1-5.8-4-8,1.19-8.87.4-22.55,0-32-.18-4.38,1.23-10.06-4-12,1.89-7.7,2.55-16.16,4-24,.41-2.23,3.53-4.81,4-12,.26-3.97-.33-8.05,0-12h8Z" style="fill: #4a4338;"/>
  <path d="M564,651.98l27.99-.03.1,17.63c.41,4.22-25.17,2.27-28.09,2.4.32,7.07-.37,13.78,4,20-1.45.36,14.28,7.37,5.75,8.05-15.17,1.19-24.76-12.46-42.53-3.85-4.81,2.33-5.24,8.52-9.7,11.14-36.91,21.68-103.76,21.33-145.49,16.68-2.45,10.21,9.04,9.49,12.21,14.74,8.46,14.05-4.1,93.23-.44,119.44,1.39,9.98,7.12,15.1,8.49,27.51,1.4,12.71,4.62,68.41-20.28,54.28,1.44-8.23-.93-19.26,0-28.03l-7.99.03c-5.01-12.57.3-26.72,0-36-.17-5.31.34-10.71,0-16-.66-10.23-3.05-20.87-4-32-.7-8.19-3.94-11.37-4-12-1.88-19.55-1.58-40.28-4-60-1.12-9.1-2.95-16.55-4-24-1.43-10.15,17.95-22.14,16-32l-12-8c46.38,10.56,86.89,18.95,132.78-1.22,14.82-6.51,21.34-18.95,39.15-21.21,11.6-1.47,23.11,2.97,36.07,2.42-.29-6.29-.55-13.83,0-20Z" style="fill: #56493f;"/>
  <path d="M304,283.98c7.55,53.18,7.63,105.38,0,160-.46-.51-5.69,1.35-7.23-.62-4.33-5.53,2.55-35.53-16.73-35.46l.37-7.64c12.34,4.21,1.3-28.41-1.57-37.11-4.28-12.95,2.1-25.59,4.95-42.95-5.14-.26-10.65-.72-15.78-.22l4-8c17.75,8,9.9-1.88,12-4,.62-.62,7.72,1.75,8.07-2.33.25-2.92-3.74-7.93-3.45-11.87.36-4.98,3.15-7.95,3.38-9.8h12Z" style="fill: #c7856f;"/>
  <path d="M312,283.98c.92,4.63,3.15,8.39,4,12,2.48,10.57,6.49,21.45,8,28,14.79,64.1-3.17,130.35,12.19,194.4.53,12.72-7.09,10.8-8.19,13.6l-8.14-2.67c-.55-5.76.42-11.58.14-17.33-.17-3.38-.16-6.95-4-8,.38-2.3.09-5.49,0-8-.2-5.86-.64-7.3-4-12,.52-13.07,1.63-20.4-4-32-1.16-2.39-2.56-6.41-4-8,7.63-54.62,7.55-106.82,0-160h8Z" style="fill: #726761;"/>
  <path d="M336,535.98v16.02s8-.02,8-.02c2.72,10.09,6.53,15.23,8,20,6.04,19.6,9.04,49.28,20,68l-20,4c-1.29-3.16-3.01-8.57-4-12s-3.49-6.28-4-8c-.94-3.19.92-8.77,0-12-.64-2.23.6-5.7,0-8-3.66-13.94-13.47-29.23-16-44-.42-2.42.19-5.38,0-8-.33-4.51-.72-11.92,0-16,2.52.4,5.85-.6,8,0Z" style="fill: #56493f;"/>
  <path d="M256,267.98c.32.42,5.52-1.75,8.05,2.75,4.56,8.13,4.78,30.8,7.95,41.25l-4,8c-9.98.98-8.24,4.61-24,0v-7.99s-8,0-8,0h-4c5.86-12.15,8.54-18.43,4-32,8.78.63,13.09-8.65,20-12Z" style="fill: #726761;"/>
  <path d="M392,959.98c.64,2.4,6.44,6.27,4,11.97-24.99,2.1-48.44,46.9-52,68.03h-8c.37-4.4-3.17-16.82,0-28,.87-3.07,11.5-11.02,8-20,10.52-5.91,14.14-15.66,20-20,7.01-5.2,19.29-9.87,28-12Z" style="fill: #726761;"/>
  <path d="M372,639.98c7.58,12.95,24.96,14.44,19.51,29.45-4.71,12.99-20.65,4.77-27.51-1.45s-8.78-16.11-12-24l20-4Z" style="fill: #726761;"/>
  <path d="M236,243.98c1.71.16,7.7-.45,8,0,.88,1.34-1.93,8.01.89,11.15,1.7,1.9,6.76.37,7.11.85,1.39,1.89,1.32,8.54,4,12-6.91,3.35-11.22,12.63-20,12-1.9-.14-10.01-7.21-16-4,.25-1.29-.26-2.72,0-4,.94-4.67-.74-11.03,0-16,.27-1.77,6.01-7.16,4-12,3.94,0,8.1-.36,12,0Z" style="fill: #361c12;"/>
  <path d="M236,279.98c4.54,13.57,1.86,19.85-4,32-2.37-.38-5.42,0-8,0h-12c-.86-17.1,5.34-22.18,8-36,5.99-3.21,14.1,3.86,16,4Z" style="fill: #4a4338;"/>
  <path d="M312,483.98c-.98-1.37-6.06-2.43-8-4,.62-6.49-.27-13.41,0-20,.11-2.66-.07-5.34,0-8h4c5.63,11.6,4.52,18.93,4,32Z" style="fill: #c7856f;"/>
  <path d="M336,1051.98c-.47,7.19-3.59,9.77-4,12h-4c.9-1.59-1.61-8.39.53-11.32l7.47-.68Z" style="fill: #726761;"/>
  <path d="M224,311.98c0,2.67.01,5.33,0,8l-12-.02c-.29-2.64.13-5.33,0-7.98h12Z" style="fill: #726761;"/>
  <path d="M224,243.98c2.01,4.84-3.73,10.23-4,12h-4c0-4,0-8,0-12h8Z" style="fill: #726761;"/>
  <path d="M320,511.98l-7.98-.03c-1.68-4.58,3.89-7.45,3.98-7.97,3.84,1.05,3.83,4.62,4,8Z" style="fill: #c7856f;"/>
  <path d="M336,1139.98c-2.67,0-5.33-.01-8,0-1.57-4.05,3.94-7.56,4-8,1.9,2.2,3.75,5.08,4,8Z" style="fill: #726761;"/>
  <path d="M348,1191.98c2.96,3.17,4.27-7.38,8,8h-8c.59-2.18-.4-5.47,0-8Z" style="fill: #726761;"/>
  <path d="M640,1363.98l15.97-3.98c-3.4,7.91.2,19.94.03,23.98-.4,9.26-2,16.6-4.28,25.46.67,4.08,8.02,2.19,8.28,2.54.98,1.32-1.54,10.07,3.86,14.01,4.86,3.55,21.7,3.45,23.7,6.41,4.76,7.04-3.54,17.64-3.55,19.58l-108-48c-1.33-.01-2.67.02-4,0l-20-8c.49-6.93.84-17.36,0-24,3.77-.3,7.43-7.81,8-8,1.58-.53,5.66-.09,8,0,8.55.32,16.5,4.47,24,8,9.73,4.58,16.24,14.15,28,16,2.86.45,14.99.61,15.79-.19.51-8.06,1.62-16.14,4.21-23.81Z" style="fill: #40322a;"/>
  <path d="M572,1403.98c-2.65-.03-14.1,7.71-24.01-.04-1.78-3.88,3.96-7.26,4.01-7.96l20,8Z" style="fill: #c4bdb7;"/>
  <path d="M560,1355.98v8c-.57.19-4.23,7.7-8,8-.2-1.6-6.04-7.24-4-12,3.65-.89,7.5-2.99,12-4Z" style="fill: #c4bdb7;"/>
  <path d="M1380,47.98c6.13,2.66,16.35,6.27,20,8,6.25,2.97,7.67,13.18,16,12,1.85,6.4,5.88,13.38,8,20s1.63,16.41,4.6,23.51l7.4.49c1.38,6.37,6.96,11.14,8,24,.24,3.02-4.14,8.61-2.96,13.33,1.34,5.37,8.97,7.43,6.97,14.65-14.61-1.1-10.18-.52-12.01,8.01-5.67,26.45-19.1,141.4-16,164,.18,1.31-.23,2.71,0,4h-12c-.21-4.62-6.14-27.18-10.08-28.01-9.6-.45-12.98,8.19-17.92,12.01-2.11,1.63-6.81,2.57-8,4l-.84-11.17c-3.85.09-9.33-4.54-11.16-4.83v-24c3.91.26,8.07.12,12,0,5.26-.17,13.21,2.03,16-4,.17,2.29,6.81,9.95,4.02,16.02l15.36-4.66c2.81-16.38-1.47-35.29.62-51.36,2.07-15.95,10.79-37.71,11.96-58.04,1.33-23.17-5.54-51.94-3.96-69.96.04-.49,5.57-3.83,3.98-7.97l-7.98-.03h-4c1.2-26.98-7.46-22.18-24-32-2.89-1.72-5.62-2.66-8-4-1.43-.81-2.56-2.96-4-4v-7.99s-8,0-8,0c-.85-2.08-3.94-3.68-4-8,3.98.36,9.37-3.85,12-4,2.19-.13,6.81-.51,8,0Z" style="fill: #4a4338;"/>
  <path d="M1288,1015.98c-2.47-.74-4.39,2.18-4,4-27.79,3.03-44.97-24.41-68.42-37.58-18.63-10.46-59.13-27.44-79.58-34.42v-28c50.55,13.36,97.94,38.27,136.08,73.91,7,6.54,10.32,16.13,15.92,22.09Z" style="fill: #4a4338;"/>
  <path d="M1332,1059.98c2.89,17.37,12.5,34.65,20,52-8.15-3.33-15.82-3.34-24,0-.29-20.14-33.86-56.03-47.41-70.66l-.78-7.27c13.92-4.55,5.98-5.85,4.2-14.08-.39-1.82,1.53-4.74,4-4,.77.82,8.22,1.19,12.19,5.63,11.17,12.47,16.63,29.88,31.81,38.37ZM1294,1035.98v4c2.6-1.33,2.6-2.67,0-4Z" style="fill: #726761;"/>
  <path d="M1120,903.98c1.23.93,1.73,16.2,16,12v32c-2.97-1.01-8.9.98-12,0-1.75-.56-4.36-2.92-8-4-9.4-2.8-25.03-10.23-32-12l4-20c9.05,3.79,15.05-7.67,16-8,1.04-.36,2.6.2,4,0,2.3-.33,11.52-.36,12,0Z" style="fill: #361c12;"/>
  <path d="M1444,135.98c11.75-4.24,20.28,12.25,20.4,22.15.07,5.61-4.17,8.5-4.4,9.85-2.58.82-5.72,3.67-8,4-5.02.73-10.83-.5-16,0,1.83-8.53-2.6-9.11,12.01-8.01,2-7.22-5.63-9.28-6.97-14.65-1.18-4.72,3.21-10.31,2.96-13.33Z" style="fill: #56493f;"/>
  <path d="M1432,87.98c.41,9.42,2.11,15.27,4,24l-7.4-.49c-2.97-7.1-2.43-16.75-4.6-23.51h8Z" style="fill: #56493f;"/>
  <path d="M1436,59.98c-.8,3.49-3.94,7.42-4,8l-11.98-.02v-7.96s15.98-.02,15.98-.02Z" style="fill: #c0b8b0;"/>
  <path d="M1460,167.98c-.82,4.84.65,10.88-.02,16.01l-7.96-.04-.02-11.98c2.28-.33,5.42-3.18,8-4Z" style="fill: #c0b8b0;"/>
  <rect x="1216.02" y="932" width="7.96" height="7.96" style="fill: #c0b8b0;"/>
  <path d="M820,2551.98c13.93,2.66,18.9,18.89,24.07,21.92,2.23,1.3,43.34,16.88,47.93,18.08-12.13,8.5-28.48,6.78-42.23,11.77-52.09,18.9-80.14,114.15-131.68,120.32-19.28,2.31-42.29-1.83-62.09-.09-.13-13.87-6.86-38.72-7.96-54.03-.72-9.96.26-20.06-.06-29.99,7.96.27,16.07-.39,24.02.02,8.77.45,10.69,6.96,22.13.32,9.76-5.66,29.74-40.87,37.87-52.32,14.37-4.65,21.99-5.37,36-8,2.39-.45,5.41.45,7.99,0,.34-3.97-.29-8.04,0-12.01s-.5-7.99.04-11.93c14.37,1.32,29.86-6.77,43.96-4.07Z" style="fill: #b87864;"/>
  <path d="M1136,2599.98c52.41,1.49,100.04.11,152,0,9.13-.02,14.32,1.62,28,0,2.6-.31,5.37.21,8,0-1.48,2.38,1.04,15.36,0,20-2.63.24-5.37-.22-8,0-10.64.89-23.74,3.54-32,4-14.55.8-29.43-.67-44,0-2.63-6.31-17.37-6.31-20,0-13.28.42-26.71-.29-40,0l-12,4c-77.65,12.64-152.16-21.05-222.24-31.76-17.45-2.67-34.37.82-53.76-4.24-4.59-1.2-45.7-16.77-47.93-18.08-5.17-3.03-10.14-19.26-24.07-21.92,9.11-3.61,12.39-6.89,16-16,20.28,14.01,62.81,16.92,82.61,39.62,9.84,1.42,5.9-17.54,27-15.59,17.13,1.59,32.97,23.72,58.25,30.1,49.25,12.43,85.46,8.53,132.14,9.86Z" style="fill: #532d1d;"/>
  <path d="M620,2695.98c1.62,1.54,10.79.92,14.06,7.88,6.42,13.7,5.19,44.78-1.19,59-3.77,8.4-25.41,24.32-4.86,25.11-6.91,43.25,6.96,113.74-47.82,130.16-38.71,11.61-40.17-9.84-40.18-42.16,13.75.3,20.7-5.8,20-20,10.97-5.36,20.37-4.21,22.16-19.64-5-21.84-5.34-51.75-10.16-72.36,35.12,12.29,26.57-16.96,48.04-30.83l-.04-37.17Z" style="fill: #c7856f;"/>
  <path d="M1468,2379.98c1.37,1,12.58,6.3,16,8,24.23,12.06,50.9,15.47,76,24,14.28,4.86,42.88,32.59,44.28.21l11.7-.24.58,23.47c11.84,2.86,24.14,9.47,35.44,12.55l.5,7.33,25.76,4.45,1.74,20.22c-5.97-1.87-27.23,0-36,0-10.44,0-49.45-.05-56,4-9.42,1.11-15.88,1.33-20-8,.79-1.56-.64-5.64,0-8,.92-3.4,2.92-7.48,2.82-10.76-.11-3.47-2.45-4.22-2.82-5.24-.55-1.49,1.5-5.42-.71-7.17-25.79-4.41-56.75-23.06-83.29-20.83-2.02-13.6-21.61-10.63-27.15-26.85-3.8-11.14-3.59-20.5,11.15-17.15Z" style="fill: #361c12;"/>
  <path d="M696,2587.98v7.99s12,0,12,0c-9.83,6.5-24.69,34.84-36,44-7.95-.41-16.07.24-24.02-.02.33,9.93-.66,20.04.06,29.99,1.11,15.31,7.83,40.15,7.96,54.03.15,15.4-9.37,61.54-28,64-20.54-.79,1.1-16.71,4.86-25.11,6.38-14.23,7.62-45.3,1.19-59-3.27-6.97-12.43-6.34-14.06-7.88-.55-.52-1.17-8.91-8-10.36,18.57-21.9-15.41-63.97-11.72-75.16,3.74-11.33,39.97-3.42,51.72-2.48,2.69.22,6.62,5.24,13.08,3.42,5.76-1.62,15.46-14.46,20.93-19.56,3.23-3.01,8.9-2.92,9.98-3.86Z" style="fill: #40322a;"/>
  <path d="M1448,2487.98c11.09,1,38.36,3.23,36,16-4.92,2.13-10.34,10.68-20,8.04.03,3.62,3.6,6.21,6.85,7.1,29.91,8.24,71.09-11.47,102.61-3.2l2.54,20.05c-3.96.29-8.04-.32-12,0-3.96.32-8.04-.37-12.01,0v7.99c-40.37,3.51-71.77,10.04-111.99,8v-16c7.98-.21,23.97-.47,23.98-7.96-5.07,1.37-8.97-3.22-11.98-4.04l-6.55-19.46-21.43-.56,14.81-15.9c3.04-.65,6.11-.35,9.17-.08Z" style="fill: #40322a;"/>
  <path d="M1412,2471.98c5.31-.15,10.21,1.58,20,0,6.73,5.4,17.11,5.29,16,16-3.06-.28-6.13-.57-9.17.08l-14.81,15.9,21.43.56,6.55,19.46c-4.83-1.32-34.69-5.25-35.98-3.98-2.51,18.25,10.31,16.33,23.98,15.98v16c-19.25-.98-41.01-.87-60-4-1.04-.17-2.58-3.51-4-4,.07-5.33-.1-10.67,0-16,.03-1.32-.14-2.7,0-4,11.62,3.17,10.03-14.55,12-24,.74-3.56-.83-8.64,0-12,18.1-.82.2-15.33,24-16Z" style="fill: #361c12;"/>
  <path d="M1644,2479.98c-6.25,23.74-35.85,41.81-60.01,40v16.04c-2.64.23-5.35-.23-7.99-.04l-2.54-20.05c-31.52-8.27-72.69,11.43-102.61,3.2-3.25-.9-6.83-3.48-6.85-7.1,9.66,2.63,15.08-5.91,20-8.04,38.03-16.48,37.08,5.04,65.78-.23,3.21-.59,30.9-10.15,35.3-11.92s2.57-7.63,2.93-7.85c6.55-4.05,45.56-3.99,56-4Z" style="fill: #b87864;"/>
  <path d="M1376,2543.98c1.42.49,2.96,3.83,4,4,1.05,9.89-20.57,47.26-20.02,49.91,2.58,12.34,27.28-6.78,28,12.03-1.34,6.45-52.83,9.04-63.98,10.06,1.04-4.64-1.48-17.62,0-20,.36-.57,7.51.07,12.13-5.76,7.55-9.52,26.39-39.35,31.87-50.24,2.47.45,6.04-.68,8,0Z" style="fill: #4a4338;"/>
  <path d="M1316,2619.98c2.34,17.95,8.49,48.13-14.96,55.36-10.74,3.31-14.92-3.26-17.04-3.36,1.08-11.04-4.67-19.3-16-20,.29-.15-.65-4.67,1.47-6.41,7.88-6.47,14.23-9.6,14.53-21.59,8.26-.46,21.36-3.11,32-4Z" style="fill: #c7856f;"/>
  <path d="M1180,2623.98c-1.42,22.4,33.26,31.91,50.22,32.12,4.26.05,36.08-3.28,37.78-4.12,11.33.7,17.08,8.96,16,20-9.28-.44-18.7.32-28,0,1.66-15.67-6.65-5.07-12-4-3.36.67-8.14-.21-12,0h-8c-6.3-.25-14.39,1.02-20,0l-4-4c-1.31-.33-2.87.39-4,0l-12-4c-11.19-8.29-8.74-14.95-12-24l3.99-3.95-7.99-.05v-4l12-4Z" style="fill: #bb5c3a;"/>
  <rect x="968.02" y="2616" width="15.96" height="7.96" style="fill: #bab1a9;"/>
  <path d="M1564,2535.98v7.99c-3.95.39-8.05-.34-12,0v-7.99c3.96-.38,8.04.32,12,0Z" style="fill: #b87864;"/>
  <path d="M1244,2667.98c5.35-1.07,13.66-11.67,12,4-4.39-.15-10.07,1.2-12-4Z" style="fill: #c7856f;"/>
  <path d="M1196,2663.98c-4.11-1.44-5.21,1.03-12-4l12,4Z" style="fill: #c7856f;"/>
  <path d="M1168,2631.98l7.99.05-3.99,3.95c-.22-.6-3.73-1.86-4-4Z" style="fill: #c7856f;"/>
  <path d="M1232,2667.98c-4.6.25-3.75.17-8,0h8Z" style="fill: #c7856f;"/>
  <path d="M1204,2667.98c-3.16-.57-3.73-3.93-4-4l4,4Z" style="fill: #c7856f;"/>
  <path d="M1824,2167.98v4c3.68,13.65-12.01,13.2-12,24-32.32-1.26-91.67,12.45-118.05,31.95-10.19,7.54-33.07,36.99-37.95,40.05-9.57,5.99-78.2,29.22-92,32-29.29,5.9-32.81.6-60,16-21.49,12.17-25.67,17.88-52,24-6.98-35.18,34.8-42.06,56-64,20.3,1.55,36.65-.27,56-4,19.5-3.76,85.74-28.31,96.2-41.98l3.8-10.02c12.24-1.71,31.14-19.35,40-28,4.13-4.03,7.96-7.97,12-12,35.74-6.42,71.93-8.36,108-12Z" style="fill: #361c12;"/>
  <path d="M1656,2267.98c8.65,25.71,9.87,35.08,0,60-25.12,16.95-98.72,11.23-92-28,13.8-2.78,82.43-26.01,92-32Z" style="fill: #b86347;"/>
  <path d="M1692,2455.98l.02-7.99,10-.08c4.06.57,1.08,6.94,1.99,8.07-3.87-.4-8.3.59-12,0Z" style="fill: #c4b9af;"/>
  <path d="M652,2607.98c-11.76-.94-47.99-8.85-51.72,2.48-3.69,11.18,30.29,53.25,11.72,75.16,6.83,1.46,7.45,9.84,8,10.36l.04,37.17c-21.47,13.87-12.92,43.12-48.04,30.83-7.73-33.1-26.76-71.46-35.07-102.93-4.69-17.77,8.56-44.72-20.91-33.08,6.27-22.23,2.8-51.85,8.84-73.12s26.78-50.4,35.13-70.87c44.87-6.14,55.02,21.62,69.99,56.01,8.35,19.18,16.81,47.32,22.01,67.99Z" style="fill: #b87864;"/>
  <path d="M500,2571.98c-11.43,39.82-1.45,89.13,9.8,128.19,1.88,6.53,8.88,10.28,10.2,19.81,1.88,13.61-8.42,38.88-11.52,54.48-3.73,18.78,6.43,33.41-20.48,41.52-18.6-4.19-36.77-10.5-56-12,1.08-8.89,1.84-15.15,4-24,1.32-5.41,2.73-10.31,4-16,.21-.96,4.12-2.61,3.33-5.5l-3.33-2.5c1.11-11.58-1.3-24.55,0-36l7.97-.02v-9.96s-3.97-2.02-3.97-2.02c12.75-45.05,29.23-95.26,44-140l12,4Z" style="fill: #b87864;"/>
  <path d="M520,2719.98c10.53-1.49,10.11-.83,14.27,7.6,10.6,21.47,16.58,52.72,21.73,76.4l-8,12c-5.35.83-11.35,3.7-16,4-.56-6.02-11.44-6.02-12,0-10.6.53-21.38-.34-32,0v-4c26.91-8.11,16.75-22.74,20.48-41.52,3.1-15.6,13.4-40.87,11.52-54.48Z" style="fill: #b5a199;"/>
  <path d="M720,2423.98c30.56,4.65,60.52,9.27,92,12,2.63.23,5.38-.28,8,0v7.99s8,0,8,0c-.67,5.16-3.84,11.07-4,16-53.58-8.32-102.62-7.66-156-20l4-24c1.3.19,2.7-.21,4,0,14.84,2.4,28.93,5.7,44,8Z" style="fill: #4a4338;"/>
  <path d="M536,2423.98c5.03.75,10.85-.58,16.02-.02,2.58,27.46-10.56,52.77-20.51,77.58-3.03,7.55-11.17,13.58-11.51,14.44h-12c1.34-3.76-1.35-12.31,0-16,2.12-5.78,9.18-11.75,11.59-18.42,6.64-18.33,16.53-38.54,16.41-57.58Z" style="fill: #b5a199;"/>
  <path d="M584,2307.98v24c0,9.14-.73,19.02,0,28,.5,6.15,4.54,13.17,4,20-14.84-1.74-4.17-3.49-8.21-12.78-.27-.62-7.36-10.69-7.93-11.05-2.16-1.37-15.07,7.11-15.86,7.83,6.33-18.02,7.79-37.69,12-56,5.22-.56,10.8.63,16,0Z" style="fill: #4a4338;"/>
  <path d="M476,2839.98c9.91,2.27,28.18-.77,40,0,4.04.26,8.84,3.85,13.56,3.11l2.44-3.11c2.77,1.39,4.83,1.69,8,4l-6.32,11.55c-9.73-1-20.16-7.01-29.68-7.55-16.13-.92-52.11,13.63-47.98-19.98,9.35-1.94,12.87,10.36,19.98,11.98Z" style="fill: #726761;"/>
  <path d="M520,2515.98c-5.13,12.98-16.57,44.05-20,56l-12-4c6.26-18.95,13.62-34.03,20-52h12Z" style="fill: #726761;"/>
  <path d="M556,2803.98c13.59-.49,11.84,13.45-2.63,14.68-2.87.24-5.06-2.73-5.37-2.68l8-12Z" style="fill: #56493f;"/>
  <path d="M532,2839.98l-2.44,3.11c-4.71.74-9.51-2.85-13.56-3.11l.02-7.97c10.13-4.11,13.75,6.85,15.98,7.97Z" style="fill: #56493f;"/>
  <path d="M664,2415.98l-.02,7.99-11.97.02-.02-12.01c7.02.24,10.58,3.84,12,4Z" style="fill: #4a4338;"/>
  <path d="M540,2383.98c-1.08,1.45.08,7.15-3.86,10.37-4.15,4.17-7.57-2.36-8.14-2.37,1.74-5.74,6.16-7.94,12-8Z" style="fill: #4a4338;"/>
  <path d="M604,2391.98c-7.94-.18-12.47-3.91-12-12,15.72,3.33,9.63,9.62,12,12Z" style="fill: #4a4338;"/>
  <path d="M596,2415.98c1.21-.2,7.96-7.3,11.97-3.92,1.16.98-.78,6.94.03,7.92l-12-4Z" style="fill: #4a4338;"/>
  <path d="M532,2819.98c-6.1.39-9.59-.12-12,0,.56-6.02,11.44-6.02,12,0Z" style="fill: #56493f;"/>
  <path d="M644,2411.98c-.52.09-3.4,5.66-7.97,3.98l-.03-7.98c.6.03,3.95-7.3,8,4Z" style="fill: #4a4338;"/>
  <path d="M616,2399.98c1.03.68,5.97-1.26,7.6.36l.4,7.64h-7.99s0-8,0-8Z" style="fill: #4a4338;"/>
  <path d="M444,2707.98l3.96,2.02v9.96s-7.96.02-7.96.02c.84-7.42,3.01-8.51,4-12Z" style="fill: #56493f;"/>
  <path d="M440,2763.98l-3.41-2.48c-.7-2.79,3.34-4.75,3.41-5.52l3.33,2.5c.79,2.9-3.12,4.55-3.33,5.5Z" style="fill: #56493f;"/>
  <path d="M276,127.98c.29.66,7.35,11.69,8,12-5.83,4.24-10.07,3.26-7.98,11.98l19.98.02c.94,1.94,25.67,21.82,32,28-5.24,15.5,9.01,19.11,12,24,4.58,7.5,2.18,14.69,16,24l39.9,31.95c.41-2.58,1.99-6.78,4.1-7.95,1.02-.57,2.97.56,4,0l12,8c-1.47,2.37,1.03,15.33,0,20l4,8c.23,13.42,15.1,76.85,22.83,95.38,1.78,4.27.75,12.15,1.17,12.62v7.99s-8,0-8,0c-23.39-38.76-34.19-77.69-40.57-123.67l-10.87-.66c-.15-10-1.19-15.83-5.2-25.05-1.59-3.65-66.68-57.15-71.05-60.99-9.75-8.58-10.55.71-16.31-13.63s-13.47-18.91-24-4c-27.45-8.88-10.28-8.15-16-20,17.6-5.91,2.42-26.8,24-28Z" style="fill: #56493f;"/>
  <path d="M1160,223.98l5.96,3.98,2.04-3.98c17.33,1.27,34.81.05,52,4l44.03,8.05c-1.07,3.82-3.93,8.03-4.03,11.95-6.99.99-9.37-3.12-7.97,7.98l7.97.02c1.39,24.05,7.73,21.81,22.67,36.14,5.03,1.32,10.03-3.66,13.33-4.14l-4,24c-29.58-.75-35.9-4.81-68,4-9.14-26.78,11.69-22.15,23.97-38.06l-.16-5.77c-2.24-.92-7.14.48-7.8-.17-.32-.32-3.17-6.31-4-8-2.04-4.14-2.75-11.21-4.06-16-6.69,3.02-14.21,3.46-11.94,12-2.62-.28-5.38.25-8,0-6.44-.62-13.79.9-20,0-17.16-2.48-42.39-14.35-56-8-9.4-3.32-9.58-1.88-20-8l12-24c7.07-.21,20.89,3.72,32,4Z" style="fill: #40322a;"/>
  <path d="M596,563.98c4.45,25.42,12.53,40.41,20,64,2.51,7.92,1.81,17.82,8,24-.44,2.25.05,5.4,0,8l-7.99.02c-5,19.47,8.4,16.37,11.99,19.98.81.82.03,7.23,3.94,10.07,4.46,3.23,9.42.98,12.06,1.93-2.01,16.01,13.55,7.79,16,8,2.61.23,5.51-.4,8,0-.31,11.25-15.92,22.73-28,28-16.92-9.26-24.28,2.09-39.98,4.03,5.2-10.71-24.06-42.02-32.02-40.03-4.37-6.22-3.68-12.93-4-20,2.92-.12,28.5,1.82,28.09-2.4l-.1-17.63-27.99.03c.8-8.99,7.07-17.19,7.33-25.86.11-3.66-9.94-44.21-11.33-46.14v-7.99s-8,0-8,0c-1.33-1.65-3.19-2.9-4-4,1.04-22.37,43.1-32,48-4Z" style="fill: #361c12;"/>
  <path d="M1220,135.98c.58.41-1.47,1.8,8,8,2.42,1.58,5.41,2.64,8,4,3.24,1.69,6.72,7.49,12,8,2.52,7.38,5.21,11.86,12,16,6.48,10.66-17.58,20.11-21.43,19.5-3.28-.52-43.21-32.25-51.02-37.05-14.41-8.87-39.3-18.39-51.55-26.45-4.48-2.95-12.66-8.49-16-12-.78-.82.41-8.31-8.17-10.07l8.17-17.93c20.24-1.44,81.43,34.83,100,48Z" style="fill: #40322a;"/>
  <path d="M1136,127.98c12.24,8.06,37.14,17.58,51.55,26.45,7.81,4.8,47.74,36.54,51.02,37.05,3.85.61,27.91-8.84,21.43-19.5,1.04.64,6.06-1.45,7.43.43,4.59,6.28-7.17,28.67,20.57,23.57-4.37,14.53-.16,29.64,0,44,.11,9.3-.05,18.68-.02,27.98-13.23,3.89-7.29-15.68-12.61-19.45-4.8-1.06-10.54-1.22-15.37-.53-.07,2.64-.15,5.37,0,8l-7.97-.02c-1.4-11.1.98-6.99,7.97-7.98.1-3.92,2.95-8.13,4.03-11.95l-44.03-8.05c6.62-11.46,38,1.63,40-.04-26.64-41.19-74.98-60.9-114.49-87.67-5.01-3.39-10.49-4.59-9.51-12.29Z" style="fill: #56493f;"/>
  <path d="M504,467.98c.25.35,5.98-1.09,8.2,2.6,6.29,10.5,14.59,43.46,23.93,51.27,10.69,8.94,60.09,3.21,70.06,18.11,3.47,6.91,2.29,26.31-10.19,24.02-4.9-28-46.96-18.37-48,4-20.8-28.12-42.49-57.58-64-88l7.56-.59.8-10.91,11.64-.5Z" style="fill: #56493f;"/>
  <path d="M1264,95.98c-1.26,7.24.7,9.42,8,8,2.51,9.87,6.64,18.1,8,28-1.42-.4-9.66.28-20-4-2.35-7.23,4.33-20.44-12-20-.35-1.35.5-3.7,0-4v-7.99s-8,0-8,0c-.17-1.3.07-2.68,0-4-.28-5.32.32-10.71,0-16.02l-7.99.02c-.92-3.94-5.9-9.2-4.27-15.66l-37.39-.28c-16.07-2.08,15.44-41.28,43.24-23.61,19.02,12.09,25.98,56.02,30.42,59.55Z" style="fill: #56493f;"/>
  <path d="M504,467.98l-11.64.5-.8,10.91-7.56.59c-18.4-26.02-32.25-49.89-48-76h7.99s0-8,0-8c.51.57,10.28-1.42,14.02,3.87,2.83,3.99,1.68,12.25,5.81,18.3,10.21,14.97,28.05,33.09,40.18,49.83Z" style="fill: #726761;"/>
  <path d="M1260,127.98c10.34,4.28,18.58,3.6,20,4,2.31.64,6.08-.73,8,0,5.78,2.22,18.72,15.11,24,20-.95,1.3-14.77,25.46-16,28-13.85-11.43-30.56-35.22-36-52-9.13-3.78-7.16-4.59-12-8-.57-3.71.84-8.78,0-12,16.33-.44,9.65,12.77,12,20Z" style="fill: #726761;"/>
  <path d="M1376,19.98l31.43,4.71c2.17,3.44-.19,8.37.57,11.29l-7.99-.03v20.03c-3.65-1.73-13.88-5.34-20.01-8-.66-8.02,4.47-11.29,11.97-12.08v-7.9s-15.97-.02-15.97-.02c.09-2.54.34-5.58,0-8Z" style="fill: #726761;"/>
  <path d="M1192,259.98c-1.23,1.42-2.73,2.62-4,4-7.97.29-16.04-.42-24,0-8.42-3.71-19.69-9.06-28-12,13.61-6.35,38.84,5.52,56,8Z" style="fill: #56493f;"/>
  <path d="M400,251.98c-2.11,1.17-3.68,5.37-4.1,7.95l-39.9-31.95c6.77,4.56,47.03,2.38,44,24Z" style="fill: #beb5ad;"/>
  <path d="M1408,35.98c2.74,10.58,4.99,21.56,8,32-8.33,1.18-9.75-9.03-16-12v-20.03s8,.03,8,.03Z" style="fill: #56493f;"/>
  <path d="M1364,35.98c.24-7.56-4.81-19.96-2.16-24.04l10.13-3.96c-2.01,4.97,3.78,10.19,4.03,12,.34,2.42.09,5.46,0,8-.02.45-3.26,4.35-4,8h-8Z" style="fill: #c2bab2;"/>
  <path d="M632,627.98c.37.55.24,6.16,0,8-.76,5.89-7.44,13.13-8,16-6.19-6.18-5.49-16.08-8-24,2.17-.7,6.78-4.29,8-4,.44.1,7.75,3.63,8,4Z" style="fill: #56493f;"/>
  <path d="M1120,87.98l-8.17,17.93c8.58,1.76,7.39,9.25,8.17,10.07-20.52,4.04-21.64-26.46,0-28Z" style="fill: #655b54;"/>
  <path d="M340,203.98c-2.99-4.89-17.24-8.5-12-24,.99.97,6.57-1.26,11.23,6.64,2.27,3.84,7.03,16.15.77,17.36Z" style="fill: #beb5ad;"/>
  <path d="M1128,219.98l-12,24c-1.26-.74-5.55.75-7.92-.07-2.17-11.02,8.94-23.6,19.92-23.93Z" style="fill: #56493f;"/>
  <path d="M404,251.98c6.37-3.45,11.81-8.9,19.98-7.98,4.9,18.2-7.4,15.06-7.98,15.98l-12-8Z" style="fill: #beb5ad;"/>
  <path d="M1384,75.98c-5.51,3.93-14.42,14-16,20h-4c-1.82-10.85,6.78-15.92,12-24,2.38,1.34,5.11,2.28,8,4Z" style="fill: #726761;"/>
  <path d="M284,139.98c1.82.88,8.68-1.91,11.29.66s-.19,9.47.71,11.34l-19.98-.02c-2.09-8.72,2.15-7.74,7.98-11.98Z" style="fill: #726761;"/>
  <path d="M1372,35.98c-.71,3.49.48,8.19,0,12-2.63.15-8.02,4.36-12,4-.06-4.76,3.85-11.15,4-16h8Z" style="fill: #726761;"/>
  <path d="M1232,75.98l7.99-.02c.33,5.32-.28,10.71,0,16.02l-7.99.02c-.85-4.97,1.03-11.58,0-16.02Z" style="fill: #726761;"/>
  <rect x="1408.02" width="7.96" height="7.96" style="fill: #c2bab2;"/>
  <path d="M416,279.98l7.98.03c1.43,3.69-3.99,7.37-3.98,7.97l-4-8Z" style="fill: #beb5ad;"/>
  <path d="M1168,223.98l-2.04,3.98-5.96-3.98c.76.02,1.86-2.76,3.19-2.71,3.28.13,4.43,2.68,4.81,2.71Z" style="fill: #56493f;"/>
  <path d="M1228,135.98c-.67,1.98.45,5.52,0,8-9.47-6.2-7.42-7.59-8-8h8Z" style="fill: #56493f;"/>
  <path d="M1264,95.98c4.16,3.31,4.27-6.65,8,8-7.3,1.42-9.26-.76-8-8Z" style="fill: #726761;"/>
  <path d="M1240,95.98h7.99s0,8,0,8c-5.41-3.24-6.19,6.2-8-8Z" style="fill: #726761;"/>
  <path d="M1364,59.98h7.99s0,8,0,8c-5.1-3.68-2.65,5.02-8-8Z" style="fill: #726761;"/>
  <path d="M68,163.98c1.16.29,2.65,3.57,4,4l7.98,27.98c-13.31,3.23-18.6-3.21-27.98-7.98-4.55-2.31-11.55-10.01-16-12,2.45-19.89,17.26-15.74,32-12Z" style="fill: #361c12;"/>
  <path d="M67.93,108.01c-1.49,11.65,13.21,13.74,15.24,16.61.56.79-2.77,14.67.82,19.33-6.9,7.07-26.7-25.95-24.04-33.92l7.98-2.03Z" style="fill: #726761;"/>
  <path d="M204,239.98c2.2-1.35-16.57-10.02-10.04-8.04,3.82-.13,21.54,4.93,22.04,8.04h-12Z" style="fill: #726761;"/>
  <path d="M148,231.98c1.35.67,5.95-1.29,7.6.38,1.14,2.47,20.4,5.06,20.4,7.62-2.14-.61-5.48.4-8,0l-20-8Z" style="fill: #726761;"/>
  <path d="M216,95.98v20c-1.83.04-11.26,10.08-18.25.18-5.73-8.13,2.08-15.69,2.25-20.18,5.1-.57,11.21.84,16,0Z" style="fill: #361c12;"/>
  <path d="M156,67.98c-.45.03-1.37,2.84-8,4l.03-7.98,7.97,3.98Z" style="fill: #726761;"/>
  <path d="M216,95.98c.51-.09,4.46-8.72,8.04-1.96l-8.04,9.96v-8Z" style="fill: #4a4338;"/>
  <path d="M1516,1095.98c14.75-10.48,31.55-44.36,52.2-30.19,13.32,9.14-14.15,34.48-11.31,49.08-19.82,17.75-39.61,109.89-63.36,112-6.29.56-15.25-5.49-20.85-2.27-1.08.62-9.15,16.61-12.79,21.37-3.92,5.12-9.23,7.07-11.89,10.01-7.6-1.29-9.37.35-8,8-13.62,4.39-5.38,3-12,12-1.85,2.51-4.19,4.41-4.08,7.94l-15.92-7.94c-15.96-30.28-35.03-58.63-51.43-90.57-5.37-10.46-30.83-48.08-31.99-52.35-2.31-8.49,3.5-15.06,3.42-21.08,8.18-3.34,15.85-3.33,24,0,10.62,24.59,24.42,55.19,40,76,2.56,25.86,10.94,36.39,20.19,59.83,11.83,8.12,50.68-44.68,59.77-53.89,3.66-8.33-19.93-10.22-25.02-9.35-11.28,1.94-32.49,32.72-41.05,19.5-12.94-20.01,29.34-34.85,34.09-48.1,3.11.23,6.4-3.66,8-4,6.89-1.48,7.63-.07,16-4,12.28-5.76,38.46-27.84,44-40l8-12Z" style="fill: #40322a;"/>
  <path d="M1492,1355.98c.66,2.11-.58,5.63,0,8,4.12,16.79,8.54,26.13,16.73,41.48,2.99,5.6,1.59,12.65,11.27,10.52,2.99,7.72,5.3,16.14,8,24l-3.96,2.04v5.94s7.96.02,7.96.02c2.17,6.91,2.36,13.96,4,20l-.02,31.98c-19.46,1.48-14.39-13.6-19.75-21.38-2.55-3.69-7.68-2.1-8.23-2.6-1.65-1.51,5.31-9.39-12-8-10.93.88-6.95,7.04-10.75,7.93-8.56,2.01-33.28-2.44-37.01.46-1.58,1.23.45,6.39-.24,7.61-2.81,4.92-47.34,58.19-50.85,59.96-11.63,5.89-27.21,7.39-25.3-9.8,1.04-9.32,26.33-28.95,33.82-38.49,24.02-30.61,35.08-69.46,38.36-107.65,13.36-.71,8.26,16.84,23.96,12l-7.98-44.02c9.81-1.39,21.79.96,32,0ZM1491.98,1435.96c.88-13.66-3.13-30.82-19.96-27.96-1.97,15.26,1.82,29.77,19.96,27.96ZM1471.54,1440.46c-19.42-4.24-21.32,6.96-19.52,23.5l23.91-8.18-4.38-15.32Z" style="fill: #40322a;"/>
  <path d="M1536,1467.98c3.22,11.86,9.84,23.28,11.7,38.64,1.75,14.45-4.33,38.6,4.16,54.57,2.29,4.29,30.09,6.91,28.14,26.79-.96-.68-4.89.15-7.84-2.08-8.4-6.35-7.17-19.43-28.16-13.93-2.9,27.74,21.84,39.19,51.79,36.43l2.25,11.79c10.06.32,22.1,1.93,21.96-12.2,1.47,1.57,10.08.83,15.56,10.41,5.25,9.18,4.22,15.89,4.44,25.59.09,3.82.47,8.38,0,12-2.2,16.94-18.81,40.93-12,56l-7.99.04-.03-16.05-15.98,4.01c9.55-25.28,26.03-67.99-12-75.96,11.4,14.49,12.9,32.73,1.97,48.06-3.96,5.56-12.44,2.84-13.97,3.9-7.61-8.93-8.13-23.27-20-28,.07-1.33-.02-2.67,0-4,.08-5.26.37-10.77,0-16-1.55-22.15-31.49-61.34-36-84-4.61-23.16-8.48-45.49-16-68,.55.5,5.68-1.09,8.23,2.6,5.36,7.78.29,22.85,19.75,21.38l.02-31.98Z" style="fill: #56493f;"/>
  <path d="M1464,1147.98c-8.37,3.93-9.11,2.52-16,4,.8-2.56,3.73-5.79,4-8,4.39.05,10.09-1.12,12,4Z" style="fill: #afa7a0;"/>
  <path d="M1604,1699.98l15.98-4.01.03,16.05,7.99-.04c.54,1.19-.63,3.55,0,4v7.99c2.66.21,5.34-.05,8,0,1.49,5.46,1.61,6.52,4,12s-7.01,21.16-4,24l-.02,11.98-7.93-.04-2.29-8.15-17.75,4.22c-5.84-7.57-11.48-11.21-12-12-2.72-4.12.06-36.14-.13-38.29-.83-9.26,6.07-12.25,8.13-17.71Z" style="fill: #40322a;"/>
  <path d="M1408,1275.98l15.92,7.94c-.11-3.52,2.23-5.43,4.08-7.94,6.82,2.55,8.37,8.97,11.42,14.57,4.53,8.3,26.75,54.73,29.21,56.77,4.21,3.48,19.3-4.25,23.37,8.66-10.21.96-22.19-1.39-32,0-1.31.18-2.71-.23-4,0-14.72-22.84-31.95-44.97-45.85-68.32-2.57-4.32-1.24-9.95-2.15-11.68Z" style="fill: #655b54;"/>
  <path d="M1580,1587.98c16.27,11.54,30.59,9.97,40,20,.14,14.13-11.9,12.52-21.96,12.2l-2.25-11.79c-29.95,2.77-54.69-8.68-51.79-36.43,20.99-5.49,19.76,7.59,28.16,13.93,2.95,2.23,6.88,1.4,7.84,2.08Z" style="fill: #40322a;"/>
  <path d="M1652,1775.98c-11.48,3.82-9.47,14.79-4,24-20.4,5.11-11.94-1.42-23.98-14-7.86-8.21-9.19-9.15-16.02-18l17.75-4.22,2.29,8.15,7.93.04.02-11.98c3.05,2.87,17.58,2.55,16,16Z" style="fill: #655b54;"/>
  <path d="M1636,1723.98c2.77.06,8.22,1.54,8.07-2.11l-4.06-33.86,20.01-.05c-1.88,17.48,8.75,54.28-20.02,48.02-2.39-5.48-2.51-6.54-4-12Z" style="fill: #bcaba2;"/>
  <path d="M1492,1363.98c10.92-2.43,7.38,5.88,10.06,11.73,6.25,13.63,12.49,26.21,17.94,40.27-9.69,2.12-8.28-4.92-11.27-10.52-8.18-15.35-12.61-24.69-16.73-41.48Z" style="fill: #655b54;"/>
  <path d="M1664,1775.98c-.48,6.11,1.77,15.03-1.79,20.26-3.4,4.99-10.1,2.72-14.21,3.74-5.47-9.21-7.48-20.18,4-24,2.87-.95,8.42.65,12,0Z" style="fill: #361c12;"/>
  <path d="M1640,1643.98l7.99.02.03,9.96-8.02,2.02c.47-3.62.09-8.18,0-12Z" style="fill: #c4b9af;"/>
  <path d="M1516,1095.98l-8,12c1.03-2.26-1.64-9.32.41-11.65,1.49-1.7,6.64.32,7.59-.35Z" style="fill: #afa7a0;"/>
  <path d="M1628,1715.98c5.63,4,4.09-6.37,8,8-2.66-.06-5.34.2-7.99,0v-7.99Z" style="fill: #56493f;"/>
  <path d="M1448,1255.98c-3.42,3.78,6.79,3.23-8,8-1.37-7.65.4-9.29,8-8Z" style="fill: #655b54;"/>
  <path d="M1532,1447.98l-7.97-.02v-5.94s3.97-2.04,3.97-2.04c.68,1.97,2.87,4.39,4,8Z" style="fill: #655b54;"/>
  <path d="M1940,1911.98l-.02,7.99c7.55,3.93,18.97-3.94,20.02-3.99,2.64-.13,5.36-.07,8,0-.37,16.77,25.66,3.01,20.02,23.99l8.03-2.92-.03-9.09,19.99,4.05-12.01,19.96c-58.95-12.47-118.51-26.93-176-44-68.45-20.33-104.19-44.6-180-40-3.14-20.61.91-28.85,22.24-31.75,62.41-8.48,198.12,60.66,269.76,75.75Z" style="fill: #40322a;"/>
  <path d="M1588,1759.98c-.77,43.66-43.14,78.64-68,112-14.23,1.94-33.95,22.79-38.58,23.53-.94.15-11.25-2.92-17.42-3.53-2.37-.23-6.64-4.2-8-4,5.55-19.23,35.61-28.48,49.99-40.01,8.82-7.07,22.54-21.17,30.11-29.89,16.8-19.35,28.81-53,51.9-58.1Z" style="fill: #56493f;"/>
  <path d="M2044,1995.98c1.11,7.8-1.89,18.37-.06,25.39,1.09,4.21,7.83,2.25,8.06,2.61,2.37,3.56-2.48,29.23-4,36-7.89,2.6-15.62,3.95-24,4-.14-3.99.2-8.02,0-12-.22-4.37,1.26-10.05-4-12,1.1-15.22-.1-28.42,4-44h4c5.07-.6,11.28.88,16,0Z" style="fill: #532d1d;"/>
  <path d="M2052,1943.98c-.31,8.49,8.77,10.03,12,16,.86,1.6-.82,6.02,0,8-12.36,9.45-1.31,24.5-20,28-4.72.88-10.93-.6-16,0v-4c.17-1.31-.23-2.71,0-4,1.57-8.78,2.35-21.17,4-28,2.31-9.57,3.24-11.17,12-16,1.41-.78,5.64.52,8,0Z" style="fill: #40322a;"/>
  <path d="M2016,1923.98c2.65.14,5.34-.09,8,0,8.41,10.79,19.98,7.52,20,20-8.76,4.83-9.69,6.43-12,16-3.71-.57-8.78.84-12,0-4.38-1.15-11.93-7.14-16-8l12.01-19.96-19.99-4.05.03,9.09-8.03,2.92c5.64-20.98-20.39-7.22-20.02-23.99,13.73.35,32.01,7.17,48,8Z" style="fill: #56493f;"/>
  <path d="M2052,2023.98c-.23-.35-6.97,1.6-8.06-2.61-1.82-7.02,1.17-17.59.06-25.39,18.69-3.5,7.64-18.55,20-28,.26.63,6.07,2.02,7.21,6.64,2.58,10.43-.24,23.76,3.9,34.91l-23.11,14.45Z" style="fill: #56493f;"/>
  <path d="M1628,1875.98c.74,1.9-.63,5.67,0,8l-12.01-.02v16.02c-.67-.67-3.31.67-3.99,0-1.82-1.78-.36-15.98-16-12,2.5-8.6-3.61-23.15,8-32,10.41,5.98,15.6-1.59,24,20Z" style="fill: #655b54;"/>
  <path d="M2040,2079.98c-2.22,9.06-2.32,19.04-4,28-9.61-3.99-18.39-3.99-28,0,5.05-13.8,4.7-20.87,12-36l20,8Z" style="fill: #655b54;"/>
  <path d="M2048,2059.98c-1.68,7.45-6.16,12.46-8,20l-20-8c.76-1.58-.51-5.61,0-8,1.33-.05,2.67,0,4,0,8.38-.05,16.11-1.4,24-4Z" style="fill: #56493f;"/>
  <path d="M1592.02,1803.96c-2.91-2.91,1.5-17.81,9.92-15.96,14.79,3.25-2.19,23.68-9.92,15.96Z" style="fill: #b5a199;"/>
  <path d="M1960,1915.98c-1.06.05-12.47,7.92-20.02,3.99l.02-7.99c5.85,1.23,14.27-2.59,20,4Z" style="fill: #56493f;"/>
  <path d="M2016,1923.98l.02-7.97c12.18-3.04,6.35,5.88,7.98,7.97-2.66-.09-5.35.14-8,0Z" style="fill: #c4b9af;"/>
  <path d="M2004,1951.98c4.07.86,11.62,6.85,16,8v28.03s8-.03,8-.03c-.23,1.29.17,2.69,0,4-1.63.79-3.55,2.27-4,4-4.1,15.58-2.9,28.78-4,44-.25,3.43-12.27,14,4,12,.2,3.98-.14,8.01,0,12-1.33,0-2.67-.05-4,0-2.2.08-15.12-6.07-23.58.42,4.65,7.65-17.47,44.54-21.24,46.73-10.43,6.06-33.04-12.92-31.18,4.85-19.76-7.76-35.08,3.89-36,24-4.83.77-11.82-1.12-16,0l1.63-16.31c-17.25-13.7-30.12-5.22-47.75-3.7-13.11,1.12-10.03-.9-9.87-11.98,21.51-3.31,38.84-6.05,60-12,3.46-.97,12.28,2.22,12.06-2.05-2.69-28.78-20.9-45.01-13.59-74.17l-30.57-29.6c15.35-23.87.17-25.38-9.46-42.61-9.71-17.37-1.17-25.91-26.44-31.57v-8c57.49,17.07,117.05,31.53,176,44Z" style="fill: #b86347;"/>
  <path d="M1908,2139.98c-.04.97,2.99,4.47,2.65,9.13-1.62,22.21-6.01,14.96-14.86,24.58-4.19,4.55-6.46,11.68-10.97,14.22-17.39,9.8-44.01-10.48-60.82-15.93v-4c2.62-.26,5.39.31,8,0,17.55-2.06,17.49-6.29,20.39-23.57,9.35-3.72,21.14,3.45,29.13,2.39,4-.53,7.67-6.06,10.48-6.82,4.18-1.12,11.17.77,16,0Z" style="fill: #b87864;"/>
  <path d="M2020,2063.98c-.51,2.39.76,6.42,0,8-7.3,15.13-6.95,22.2-12,36-12.55,34.29-42.51,16.45-64,8-1.86-17.77,20.75,1.21,31.18-4.85,3.77-2.19,25.89-39.08,21.24-46.73,8.46-6.49,21.38-.34,23.58-.42Z" style="fill: #c7856f;"/>
  <path d="M692,895.98c1.01.96-.53,9.12,6.5,11.45,5.62,1.86,15.07.7,21.5.55l.02,11.98c5.29-3.01,29.29-7.34,31.2-8.89,2.03-1.65.32-6.74.77-7.09,9.89-7.65,14.94-1.23,16-20h36c1.19,3.53,10.39,18.6,12,20,3.21,2.8,13.92,3.42,20.09,11.04,6.81,8.42,7.92,19.36,11.91,28.96-5.19-.64-10.75.43-16,0-2.28-6.46-2.63-9.89-4-16-.52-2.32.9-7.04-.03-7.97-1.01-1.02-5.94.65-7.97-.03-1.22-.41-2.87.44-4,0v-16l-15.55.59c-1.65,2.27.19,6.03-.45,7.41-9.63,20.5-41.45,12.63-46.16,19.85-4.08,6.25-.25,20.2-5.59,29.4-3.32,5.71-33.79,27.57-38.1,34.91-14.02,23.87-39.46,141.05-42.15,171.85l-2.68,3.2,2.68,4.8c.08,6.66-.11,13.34,0,20h-20c.28-3.96-.39-8.07,0-12,.6-6.09,3.2-12.87,4-20,.29-2.59-.36-5.44,0-8,1.11-7.95,7.17-23.53,8-32l4-8c3.81-63.72,16.73-124.85,44.14-181.81-20.39-11.75-39.11-4.53-40.14-34.19-.07-2.08,7.17-14.3.02-23.97,11.59-1.66,10.28,11.03,16.16,17.75,1.96,2.24,7.02,1.45,7.83,2.22Z" style="fill: #40322a;"/>
  <path d="M552,859.98c-10.95-3.73-22.05-9.14-34.28-11.72-.4-25.66-33.48-66.12,14.58-62.59,6.12,24.04,16.83,37.79,33.8,54.47,25.52-9.39,35-16.47,42.49-43.5,2.48-1.55,9.66-1.57,12.66-.75,1.96.53,21.8,28.18,24.47,32.37,3.44,5.39,2.87,14.31,6.79,21.36,8.98,16.16,41.59,19.4,39.49,46.35-.81-.77-5.87.02-7.83-2.22-5.88-6.72-4.57-19.41-16.16-17.75,7.15,9.68-.09,21.9-.02,23.97-7.98-12.98-37.7-31.4-44.32-41.74-5.98-9.34.93-16.5-11.33-20.49-3.93-1.28-8-2.51-12.17-1.63.87,16.7-20.03,36.4-36.17,31.86-.69-.2-3.38-5.06-12-8Z" style="fill: #4a4338;"/>
  <path d="M584,1167.98l-11.98.02c5.97,17.02,6.99,25.85,3.98,43.98-2.77-.98-8.46.66-12,0-.17-3.01,3.43-8.09,2.81-13.32-.33-2.81-16.24-50.21-17.86-53.63s-3.94-6.62-7-9.02l-13.95,7.97c-2.64-19.72-36.77-36.04-15.93-46.04,13.9-6.68,49.17,25.91,58.09,37.88,8.87,11.91,9.07,22.95,13.84,32.16Z" style="fill: #56493f;"/>
  <path d="M740,751.98c4.36,8.09-5.69,21.99-12,24-1.42.45-11.01.43-12,0-1.24-.54-12.93-13.51-20.33-17.81-5.9-3.43-12.03-4.17-15.67-6.19-9.94-5.51-11.55-7.08-24-12-4.01-1.58-6.44-8.51-16-8v-4c12.08-5.27,27.69-16.75,28-28,15.39,2.46,50.9,41.41,72,52Z" style="fill: #56493f;"/>
  <path d="M564,867.98c-11.87,41.27-66.89,59.64-106.21,56.17-29.53-2.6-36.58-22.48-9.87-26.31,11.64-1.67,19.5,5.1,30.02,5.35,22.3.55,71.6-16.34,74.06-43.22,8.62,2.94,11.31,7.8,12,8Z" style="fill: #56493f;"/>
  <path d="M776,731.98c1.32.4,36.94,15.81,38.26,19.74,16.21,48.08-39.3,50.11-74.26,36.26-6.87-2.72-14.19-3.27-12-12,6.31-2.01,16.36-15.91,12-24,4.94,2.48,11.39,5.96,16,8,6.93,3.06,36.3,14.54,48.04,5.96l-4.68-13.34-43.36-.62c-1.32-3.98-2.02-8.11-4.01-11.88,7.14.41,18.29-9.86,24.01-8.12ZM759.98,768.02h-15.96v3.92h15.96v-3.92Z" style="fill: #726761;"/>
  <path d="M904,743.98c-16.93,23.12-33.45,68.93-56,92-13.31,13.62-26.17,20.54-44,24v-4c-3.57-20.06,19.18-20.44,25.87-28.18,3.33-3.86,3.11-12.1,6.13-15.82,15.47-19.04,42.83-43.88,60-68h8Z" style="fill: #40322a;"/>
  <path d="M564,1211.98c.36,6.1-1.2,14.99,0,20h-12c-1.06-3.74-4.05-7.1-4-12,0-.65,5.42-4.24,3.98-7.97l-7.98-.03c-1.28-4.56-3.29-19.26-4-20l-.04-7.95-7.96-.05c-5.56-16.82-2.03-25.24-4-40l13.95-7.97c3.06,2.41,5.34,5.53,7,9.02s17.53,50.82,17.86,53.63c.62,5.22-2.98,10.31-2.81,13.32Z" style="fill: #361c12;"/>
  <path d="M584,1167.98c7.28,14.05,27.05,29.95,28,32,2.06,4.46,4.45,25.58,8,32l-.02,8.01-21.7.16c-.62-14.24-9.68-11.44-10.28-12.17-3.23-3.88-3.83-13.12-12-16,3.02-18.13,2-26.96-3.98-43.98l11.98-.02Z" style="fill: #361c12;"/>
  <path d="M716,775.98l-7.98,16.03c-20.25,5.27-47.71-21.67-28.02-40.03,3.64,2.02,9.77,2.75,15.67,6.19,7.4,4.3,19.09,17.27,20.33,17.81Z" style="fill: #c1b3ac;"/>
  <path d="M656,739.98l-4.57,19.38c-20.04,9.85-29.2-3.16-27.36-23.31,5.87,2.71,14.04-3.97,15.93-4.07,9.56-.51,11.99,6.42,16,8Z" style="fill: #c1b3ac;"/>
  <path d="M740,903.98c-7.83,1.81-8.98,3.74-20,4-6.44.15-15.89,1.32-21.5-.55-7.02-2.33-5.49-10.49-6.5-11.45,23.02-3.84,32.48-18.21,48,8Z" style="fill: #c1b3ac;"/>
  <path d="M752,903.98c-.45.35,1.26,5.44-.77,7.09-1.92,1.55-25.91,5.88-31.2,8.89l-.02-11.98c11.02-.26,12.17-2.19,20-4,3.37-.78,8.24.52,12,0Z" style="fill: #56493f;"/>
  <path d="M776,855.98v16c-2.6-.31-5.37.21-8,0-.49-.66-12.94,2.3-7.97-9.97,2.64-6.51,10.49-5.61,15.97-6.03Z" style="fill: #40322a;"/>
  <path d="M776,871.98c2.3.27,24.86-.69,27.04.89,2.88,3.2.12,8.64.96,11.11h-36c.15-2.71.48-11.35,0-12,2.63.21,5.4-.31,8,0Z" style="fill: #726761;"/>
  <path d="M804,855.98v4c-1.52.29-24.91,4.26-28,4v-8c2.64-.2,25.35.14,28,0Z" style="fill: #726761;"/>
  <path d="M664,1115.98l-4,8c.06-.63-5.48-4.45-3.99-7.97l7.99-.03Z" style="fill: #56493f;"/>
  <path d="M532,1183.98l7.96.05.04,7.95c-3.03-3.15-3.06,6.95-8-8Z" style="fill: #56493f;"/>
  <path d="M544,1211.98l7.98.03c1.44,3.73-3.97,7.32-3.98,7.97-3.88-1.51-3.14-4.94-4-8Z" style="fill: #4a4338;"/>
  <path d="M420,527.98c1.21,1.98,16.05,11.99,22.96,27.04,5.17,11.24,14.54,52.69,17.04,56.96v12.01s-12,0-12,0c-3.86-5.8-10.51-13.55-12-16-4.08-6.7-30.52-55.66-31.22-58.93-1.69-7.95,1.69-26.28,15.22-21.07Z" style="fill: #40322a;"/>
  <path d="M340,247.98l-4.38,53.6-11.62,22.4c-1.51-6.55-5.52-17.43-8-28l8.05-2.05c-1.2-9.6-6.41-21.39-8.05-29.95s-19.5-19.18-24-28c3-1.57,10.41,4.03,8-8,2.34,1.46,10.71-1.13,16.39,5.69,4.4,5.28,22.57,12.71,23.61,14.31Z" style="fill: #b87864;"/>
  <path d="M268,219.98c9.1.09,15.86-4.72,26.41-.79,8,2.98,5.15,8.51,5.59,8.79,2.41,12.03-5,6.43-8,8-3.77,1.97,8.69,7.79,8,8-11.18,3.38-35.58,1.84-48,12-.35-.48-5.41,1.05-7.11-.85-2.81-3.14,0-9.81-.89-11.15,11.06,2.87-13.17-6.61-12-8,4.43-5.28,36.39,6.5,36-16Z" style="fill: #532d1d;"/>
  <path d="M460,611.98c.22.37,7.1-1.77,8.31,2.52l23.67,53.46c-11.28,2.84-7.48-7.33-13.76-12.21-18.59-14.44-15.44-9.57-30.22-31.77h12s0-12,0-12Z" style="fill: #655b54;"/>
  <path d="M268,219.98c.39,22.5-31.57,10.72-36,16l-3.91-2.08c-5.21-10.81,16.74-17.85,26.23-18.32,7.68-.38,12.96,4.4,13.68,4.4Z" style="fill: #b86347;"/>
  <path d="M292,179.98c-10.4,2.71-16.27-1.5-24-4,10.53-14.91,18.01-10.91,24,4Z" style="fill: #726761;"/>
  <path d="M552,571.98h7.99s0,8,0,8c-.44-.61-2.7-1.41-8-8Z" style="fill: #56493f;"/>
  <path d="M344,551.98l-7.99.02v-16.02c9.99,2.78,6.34,9.86,7.99,16Z" style="fill: #726761;"/>
  <path d="M576,1211.98c8.17,2.88,8.77,12.12,12,16l3.98,35.98c-9.2,8.54-26.75-26.83-27.98-31.98s.36-13.9,0-20c3.54.66,9.23-.98,12,0Z" style="fill: #b5a199;"/>
  <path d="M532,1311.98l-2.21,8.06-13.8-.07v-7.99c5.06.63,10.79-.24,16.01,0Z" style="fill: #c4bdb7;"/>
  <path d="M332,1099.98c-15.43,1.56-5.44-6.12-4-12,5.23,1.94,3.82,7.62,4,12Z" style="fill: #726761;"/>
  <path d="M556,1307.98l-.03,7.98c-4.23,1.61-7.53-3.94-7.97-3.98,1.85-3.38,5.45-2.89,8-4Z" style="fill: #c4bdb7;"/>
  <path d="M300,243.98c1.26,6.36-2.48,10.97-4,16-2.86,9.43-2.59,11.19-4,20h-12s4,28,4,28c-2.1,2.12,5.75,12-12,4-3.17-10.45-3.39-33.12-7.95-41.25-2.52-4.5-7.72-2.33-8.05-2.75-2.68-3.46-2.61-10.11-4-12,12.42-10.16,36.82-8.62,48-12Z" style="fill: #b87864;"/>
  <path d="M308,263.98c2.51,6.43,2.68,13.35,4,20h-20c.16-1.31-.21-2.7,0-4,1.41-8.81,1.14-10.57,4-20,5.34-1.78,9.14,3.13,12,4Z" style="fill: #532d1d;"/>
  <path d="M292,279.98c-.21,1.3.16,2.69,0,4-.23,1.85-3.02,4.82-3.38,9.8-.29,3.94,3.7,8.95,3.45,11.87-.35,4.08-7.45,1.7-8.07,2.33l-4-28h12Z" style="fill: #726761;"/>
  <path d="M316,263.98c1.64,8.56,6.85,20.35,8.05,29.95l-8.05,2.05c-.85-3.61-3.08-7.37-4-12-1.32-6.65-1.49-13.57-4-20,2.07.63,5.5-.43,8,0Z" style="fill: #c7856f;"/>
  <path d="M1039.98,1536c-6.34-6.34-18.3,5.61-11.96,11.96s18.3-5.61,11.96-11.96Z" style="fill: #afa7a0;"/>
  <path d="M1024,2095.98c.5,4.56,6.88,15.02,4.64,23.4,28.5,16.87,57.84,30.39,87.36,44.6,11.52,5.55,18.51,10.64,32,16,1.16.46,2.47,3.12,4,4-.46.69-.37,13.21,0,16-36.71-.06-64.54-24.99-99.98-31.98,4.19,32.99,52.36,61.54,81.27,72.69,18.45,7.12,38.35,8.22,55.62,16.38,11.89,5.61,27.28,25.58,39.31,17.16l10.1-30.41c-9.92-6.81-22.32-6.52-33.09-11.06-6.88-2.9-50.58-23.38-52.59-25.5-1.94-2.03-.35-5.03-.64-7.27,16.76.03,28.06,4.75,28-16,2.37.52,6.51-.78,8,0,5.47,2.85,13.81,12.53,21.23,16.78,22.39,12.83,53.4,30.14,78.77,31.22,1.54,6.19,16.51,11.84,21.7,20.3,22.63,36.84-9.51,33.89-33.7,19.7-5.08-2.98-10.18-20.7-23.99-15.97,5.6,13.49,2.21,22.66-.01,35.97-22.73-2.44-15.99,2.67-11.97,19.96-15.12-1.28-12.16,4.46-16.03,12.04-11.56,22.63-10.12,45.45-15.67,69.32-6.55,7.81-15.77,5.68-24.08,2.36l23.05-89.2c-8.72-6.08-18.81-21.16-25.84-26.12-4.58-3.24-10.01-2.65-13.47-4.36-24.69-12.26-53.17-19.13-76.95-33.05-11.66-6.82-33.36-29.34-43.05-30.95-1.03-8.09-3.99-16.55-12-20v-4c-.92-8.57-.61-22.54-12-20-.31-1.18.23-2.65,0-4-.62-3.62.56-8.14,0-12.01h-7.99c.1-2.6.19-5.39,0-7.99-.43-5.96-3.47-12.72-4-20-.29-3.96.26-8.03,0-12-.35-5.28.48-10.75,0-16h12Z" style="fill: #40322a;"/>
  <path d="M904,1827.98c.53-5.12-.85-11.27,0-16,2.03-11.27,7.16-17.37,8-28,6.49.67,13.47-.39,20.03,0l-.03-12.01c1.29,1.17,6.21-1.05,11.22,6.63,4.18,6.4,17,40.05,16.93,47.44-.21,24.7-28.01,32.05-24.1,55.65.5,2.99,21.23,47.43,24.86,55.37s10.72,27.51,12.12,29.96c2.89,5.03,19.14,11.92,14.97,28.96-2.98.35-7.86,4.29-12,4-.58-1.01-9.93-7.2-13.65-12.31-10.34-14.2-30.67-44.75-38.35-59.69-1.4-2.73-2.2-7.95-4-12-2.87-6.47-5.73-13.27-8-20-1.33-3.93-2.8-8.07-4-12" style="fill: #4a4338;"/>
  <path d="M996,2371.98c3.19-1.58,23.13-8.92,23.98-7.98l-.53,27.42-15.31,4.79-.15,11.71c28.02,3.05,54.12,20.04,80.01,28.06v8c-.75.94.63,5.69-.01,7.98l-5.97.07c-3.5-10.52-7.2-8.67-18.02-8.05v7.99c-2.27-.63-5.78.65-8,0l-.03-7.98-7.97,3.98c-15.97-5.23-35.81-9.03-50.81-15.2-9.69-3.99-20.65-16.18-27.29-16.88-9.92-1.05-25.86,9.03-36.92,11.06-23.31,4.27-50.09,8.31-72.99,1.02-.31-1.03-3.18-2.47-4-4,.6-1.06,3.78-21.16,4-24,9.17,2.07,18.79,2.51,28,4,3.19.52,7.1,3.7,12,4,6.39.39,22.91-.33,24-8,2.67-.02,5.33.03,8,0,27.93-.28,45.88-17.09,68-28Z" style="fill: #40322a;"/>
  <path d="M940,1535.98c1.05,6.96,3.74,12.71,4,20,.64,17.69,9.68,41.59,8.05,62.05-1.01,12.69-2.43,70.64,3.98,76,2.65,2.22,11.39,3.97,15.98,5.95-.16,2.64.24,5.37,0,8-1.08,11.93-5.85,31.09-20,32,1.75-3.68,9.36-18.71,8-19.98-13.85,3.86-13.72-20.06-24-.02-5.79-4.79-6.28-11.75-7.49-18.52-3.85-21.62-4.56-49.19-4.51-69.48,0-2.67-.03-5.33,0-8,.16-15.55-16.3-37.22-16-56,.04-2.66-.08-5.34,0-8,13.02-12.72,3.66-27.04,32-24Z" style="fill: #4a4338;"/>
  <path d="M844,1503.98l61.99,8.4,126.01-12.42c2.7-19.12-28.2.02-34,.02h-124c-2.57,0-17.7-3.72-13.98-11.98,20.95,2.25,40.84,4.67,62.15,4.14,31.77-.8,84.06-15.27,111.9-12.46,30.95,3.13,17.67,16.44,18.69,30.49.38,5.24,2.73,9.52,3.24,13.81-5.33.09-10.67-.13-16,0,2.32-13.07-18.22-12.65-28-12-13.19.88-32.77,7.36-48,8-2.66.11-5.34-.1-8,0-3.99.15-8.01-.09-12,0-22.37.51-50.24,1.9-72,0-.63-.06-6.71-3.11-12-4-3.7-.62-8.66.81-12,0-1.14-.28-2.7-3.69-4-4v-8Z" style="fill: #726761;"/>
  <path d="M660,1411.98c57.42,31.91,120.05,55.66,183.99,68.02.32,5.3-.18,10.66,0,15.98-12.1-9.83-29.11-10.73-44-11.96,8.91,10.46,30.62,15.08,44,15.96,0,1.33,0,2.67,0,4v8c-4.44-1.07-8.34-3.09-12-4-11.32-2.82-26.56-5.17-36-8-1.75-.53-4.59-2.93-8-4-32.13-10.11-56.89-19.4-88-32-3.94-1.6-7.56-3.81-12-4-.07-2.04-4.02-6.07-4-8s8.32-12.54,3.55-19.58c-2-2.96-18.84-2.87-23.7-6.41-5.4-3.94-2.88-12.68-3.86-14.01Z" style="fill: #56493f;"/>
  <path d="M936,1719.98c10.28-20.03,10.16,3.88,24,.02,1.36,1.27-6.26,16.3-8,19.98-4.07,8.57-27.78,13.92-32.06,21.95,5.62,2.35,8.01,6.39,12.06,10.05l.03,12.01c-6.55-.4-13.54.67-20.03,0-5.41-.56-11.23-3.49-20-4-1.33-.08-2.67.05-4,0-10.62-.4-21.4.27-32.02-.02l.02,20.02c-4.28-1.84-13.42,1.6-16-8l4-24c3.93-1.83,5.38-10.17,20-12,26.63-3.34,49.38,10.44,64-16,4.58-8.28,5.6-15.32,8-20Z" style="fill: #40322a;"/>
  <path d="M1000,2003.98c9.45,17.99,12.84,17.32,16,40,.53,3.79-.5,8.11,0,12.01h7.99c1.6,12.43-1.38,27.33,0,39.99h-12c-.44-4.82-3.25-11.95-4-20-.25-2.68,3.99-16.6-.38-23.72l-7.62-.28c-3.97-13.24-9.11-20.73-16-32-.79-1.29.52-5.67,0-8l-.02-7.99h16.02Z" style="fill: #4a4338;"/>
  <path d="M1024,2163.98c.23,1.35-.31,2.82,0,4,2.19,8.21,2.97,16.24,12,20v4c-12.44,1.68-10.3,15.64-23.97,12.02,1.26-10.07-5.28-20.19-4.18-29.99.89-7.85,7.97-9.41,8.15-10.03h8Z" style="fill: #b4aca4;"/>
  <path d="M888,1779.98c-.15,12.52-13.51,17.05-20,24h-8c-1.27-2.31-1.36-2.86-4-4l-.02-20.02c10.62.29,21.4-.37,32.02.02Z" style="fill: #655b54;"/>
  <path d="M912,1783.98c-.84,10.63-5.97,16.73-8,28l-7.17-.89-4.83-31.11c8.77.51,14.59,3.44,20,4Z" style="fill: #bfb8b2;"/>
  <path d="M844,1511.98c1.3.31,2.86,3.72,4,4l-2.98,4.02,3,13.96-12.01,1.99,3.99-11.93-15.98-.06,7.98-15.98c3.66.91,7.56,2.93,12,4Z" style="fill: #bfb8b2;"/>
  <path d="M836,1767.98l-4,24-11.99,7.97c4.65-22.01-5.71-21.87,15.99-31.97Z" style="fill: #bfb8b2;"/>
  <path d="M928,1739.98c-14.62,26.44-37.37,12.66-64,16-.47-2.46.7-6.12,0-8,9.37-1.46,23.76,2.1,32,0,1.86-.47,25.21-10.89,32-8Z" style="fill: #4a4338;"/>
  <path d="M896,1747.98c-8.24,2.1-22.63-1.46-32,0-.33-.88,14.16-2.17,16.02-7.98,12.21,1.16,10.63-5.27,15.98,7.98Z" style="fill: #bfb8b2;"/>
  <path d="M904,1547.98h4c-.54,3.64.11,8.11,0,12-.08,2.66.04,5.34,0,8l-12,.02c-5.5-21.79,6.34-18.11,8-20.02Z" style="fill: #bfb8b2;"/>
  <path d="M700,1463.98l-.02,12.01-11.8-.1c-5.08-6.48-.13-14.15-.19-15.91,4.44.19,8.06,2.4,12,4Z" style="fill: #bfb8b2;"/>
  <path d="M988,1995.98c3.82-.45,7.99-.27,11.8.29,1.21,2.36-.49,6.4.2,7.71h-16.02s.02,8,.02,8l-8-4c-.52-2.34.79-6.63,0-8,4.14.29,9.02-3.65,12-4Z" style="fill: #655b54;"/>
  <path d="M1000,2051.98l7.62.28c4.37,7.12.13,21.04.38,23.72-10.16-5.27-5.94-17.11-8-24Z" style="fill: #655b54;"/>
  <path d="M976,2007.98l8,4c.52,2.33-.79,6.71,0,8-6.58.68-14.29-4.04-20-4v-4c2.69-.79,6.57-6.05,12-4Z" style="fill: #bfb8b2;"/>
  <line x1="892" y1="1827.96" x2="904" y2="1827.98" style="fill: #bfb8b2;"/>
  <path d="M908,1883.98c1.2,3.93,2.67,8.07,4,12" style="fill: #bfb8b2;"/>
  <path d="M584,2331.98l7.99-.02c.44,9.89,1.19,21.86-7.99,28.02-.73-8.98,0-18.86,0-28Z" style="fill: #bfb8b2;"/>
  <path d="M651.98,2312l-.02,5.92c-4.21,6.28-8.57,6.97-15.94,6.04v-11.96s15.96,0,15.96,0Z" style="fill: #beb5ad;"/>
  <path d="M844,1767.98l-4,24h-8l4-24c1.81-.84,6.18.84,8,0Z" style="fill: #655b54;"/>
  <path d="M1012,2123.98c.53,7.28,3.57,14.04,4,20-2.67,0-5.33,0-8,0-1.64-6.66-2.47-13.42-4-20h8Z" style="fill: #655b54;"/>
  <path d="M796,1499.98l-.02,15.98h-7.96s-.02-19.98-.02-19.98c3.41,1.07,6.25,3.47,8,4Z" style="fill: #bfb8b2;"/>
  <path d="M920,1915.98c1.8,4.05,2.6,9.27,4,12l-11.98,3.98v-15.99s7.98.01,7.98.01Z" style="fill: #bfb8b2;"/>
  <path d="M872,1519.98l-.02,7.99-11.97.02-.02-12.01c5.29.89,11.37,3.94,12,4Z" style="fill: #bfb8b2;"/>
  <path d="M1008,2143.98c1.05,4.26,2.17,8.01,4,11.96-9.59,1.57-16.97-1.86-15.98-11.94,3.97-.07,7.98-.03,11.98-.02Z" style="fill: #bfb8b2;"/>
  <path d="M619.98,2292v11.96c-4.97,5.37-24.72-16.2,0-11.96Z" style="fill: #beb5ad;"/>
  <path d="M584,2307.98c2.54-.31,7.19-5.54,11.97-3.98l.05,9.96-12.02,2.02v-8Z" style="fill: #bfb8b2;"/>
  <path d="M1012,2111.98c.26,3.97-.29,8.04,0,12h-8c-.74-3.2-5.32-7.06-3.98-11.97l11.98-.03Z" style="fill: #bfb8b2;"/>
  <path d="M879.98,1696c4.07,4.02-7.81,16.06-11.96,11.96s7.81-16.06,11.96-11.96Z" style="fill: #bfb8b2;"/>
  <path d="M1016,2151.98h7.99c.57,3.86-.61,8.38,0,12h-8c.79-2.74-.14-8.33,0-12Z" style="fill: #655b54;"/>
  <path d="M964,2011.98v4c-.63,0-8.29,7.15-11.98,3.98-10.18-8.75,10.47-7.54,11.98-7.98Z" style="fill: #beb5ad;"/>
  <rect x="840.02" y="1748" width="11.96" height="7.96" style="fill: #bfb8b2;"/>
  <path d="M924,1623.98c-.03,2.67,0,5.33,0,8l-7.96,4-.06-9.98,8.02-2.02Z" style="fill: #bfb8b2;"/>
  <rect x="856.02" y="1672" width="7.96" height="7.96" style="fill: #bfb8b2;"/>
  <path d="M868,1803.98c-1.3,1.39,2.48,7.04-2.04,8.03-9.89,2.15-4.33-5.06-5.96-8.03h8Z" style="fill: #bfb8b2;"/>
  <path d="M904,1547.98c1.12-1.28-2.35-6.49,2.03-8.04,11.29-4.01,2.34,5.54,1.97,8.04h-4Z" style="fill: #b4aca4;"/>
  <path d="M672,1251.98c.86-.35.63-6.18,7.98-4-.87,7.49-.56,13.41,8.02,12-1.67,6.15,1.34,16.66-.96,25.04-9.04,33.03-18.82,66.98-31.04,98.96.17-4.05-3.42-16.07-.03-23.98l-15.97,3.98c11.13-32.95,22.83-59.44,31.45-94.82,1.44-5.91,7.12-9.96.55-17.18Z" style="fill: #4a4338;"/>
  <path d="M668,1227.98c.12.61,2.92,2.47,4,4,8.53,12.02,10.46,5.33,24,4-2.43,7.56-6.24,17.52-8,24-8.58,1.41-8.89-4.51-8.02-12-7.35-2.18-7.11,3.66-7.98,4-22.53,9.05-13.7-.88-20-8l4.71-15.4,11.29-.6Z" style="fill: #361c12;"/>
  <path d="M668,1195.98c.16,9.45-1.65,23.92,0,32l-11.29.6-4.71,15.4c-.53-.6-7.79,1.8-8.18-2.3,6.97-14.63,3.1-30.37,4.18-45.7h20Z" style="fill: #56493f;"/>
  <path d="M620,1387.98c-11.76-1.85-18.27-11.42-28-16l2.06-8.07c12.23,4.28,28.53,8.62,25.94,24.07Z" style="fill: #c4bdb7;"/>
  <path d="M652,1163.98c-.8,7.13-3.4,13.91-4,20l-12.01.02v-20.05s16.01.02,16.01.02Z" style="fill: #c0b8b0;"/>
  <path d="M568,1355.98v8c-2.34-.09-6.42-.53-8,0v-8c.87-.2,1.59-2.76,3.14-2.97,3.12-.43,4.14,2.83,4.86,2.97Z" style="fill: #bfb8b2;"/>
  <path d="M568,1355.98c3.05.59,8.05-1.82,8.04,2l-8.04,2v-4Z" style="fill: #c4bdb7;"/>
  <path d="M1288,395.98c13.86,4.57,22.54,21.87,26.21,35.93,7.15,27.38-15.73,44.01-26.92,65.36-20.28,38.71-71.23,151.78-99.29,174.71-.23.19-3.72-4.76-5.99-.38-2.76,5.33-1.16,10.45-2.01,12.38-6.58,14.91-13.81,18.18-20,28l-7.51.46-.49,11.54c-3.67,5.41-7.45,12.96-12,20l-7.94-3.99c-4.32,5.87-3.53,18.06-4.06,19.99-1.09,4.04-2.18,13.27-4.78,15.35-2.34,1.87-6.19.06-7.22.65-8.93,5.09-17.22,7.43-23.97,18.05v5.93s7.97.02,7.97.02c-11.1,16.07-29.33,47.85-50.97,51.17-6.57,1.01-11.3-2.17-17.03-3.17,5.74-17.09-23.62-9.44-11.47-27.47,1.97-2.92,19.68-3.23,25.78-8.22,5.72-4.69,5.33-15.06,11.47-20.52,6.02-5.36,16.69-13.63,24.12-19.88,25.89-21.79,50.79-19.98,22.1-63.9.97-1.95-.41-7.91,4-16l15.98-.02c2.5-5.43-4-11.35-3.98-11.98.16-5.5,3.34-6.34,4-8l9.7,4.12c3.46-6.96,5.61-9.65,14.3-8.15l-8-15.98c7.22-7.69,33.71-27.16,34.9-29.1,2.64-4.3,1.1-12.19,4.2-17.72,12.95-23.12,26.29-53.27,56.88-45.21l-4.61-15.36c-2.2-1.32-20.79-1.54-23.37-.62-13.86-19.85-.82-23.77-.03-43.99-20.7-.94-16.81,9.65-22.14,15.77-3.89,4.47-10.1,3.04-12.65,5.38-3.7,3.4-12.7,41.31-17.19,14.84l76.01-85.99c18.17-19.75,23.44-64.75,55.99-54.01Z" style="fill: #c7856f;"/>
  <path d="M1156,535.98c4.48,26.47,13.49-11.44,17.19-14.84,2.55-2.33,8.76-.91,12.65-5.38,5.33-6.13,1.44-16.71,22.14-15.77-.79,20.22-13.83,24.14.03,43.99-5.26,1.87-16.29,24.25-19.95,28.98-13.59,17.56-26.73,31.3-42.25,46.82-23.16,23.15-68.32,72.21-73.53,106.52-.69,4.53-.4,9.16-.25,13.69l15.43-.56c3.15-2.14,4.51-22.75,8.41-28.83,2.29-3.58,7.96-2.24,8.15-2.62,28.69,43.92,3.79,42.11-22.1,63.9-7.43,6.25-18.1,14.53-24.12,19.88-6.14,5.46-5.75,15.84-11.47,20.52-6.1,4.99-23.81,5.3-25.78,8.22-12.15,18.03,17.21,10.39,11.47,27.47-36.59-6.44-55.69-28.04-56.13-66.2-.32-27.7,43-101.18,40.13-109.8,9.09,1.51,12.21-2.95,18.15-7.85,36.7-30.25,72.1-83.56,102.97-119,3.25-3.73,12.15-3.34,14.88-9.15h4Z" style="fill: #b87864;"/>
  <path d="M1248,395.98c-25.36,36.62-50.37,71.7-78.25,107.75-7.82,10.12-16.06,3.41-17.75,24.25-29.63-.53-42.61,41.52-65.91,56.23-6.76,4.27-9.98,2.36-14.09,3.77-.81,4.35,1.71,13.17-.55,15.64-1.86,2.03-9.77-.59-11.45.36l4.69-15.43c2.26-1.78,5.71-.02,7.31-.57,7.73-41.76,93.44-160.27,124-196,17.2-7.6,34.42,3,52,4Z" style="fill: #b87864;"/>
  <path d="M948,699.98c.22,6.64-.2,13.35.02,19.99,24.72-.22,8.88-23.89,35.99-15.97l-4.63,23.39c-6.07,1.8-14.06-1.08-19.51,2.43-10.09,6.5-7.77,85.68-7.99,100.36-.51,34.74,3.86,52.36,24.12,73.8,3.55,3.76-4.86,7.65,16,12,2.43.51,5.62-.54,8,0v24c-20.69-7.63-33.39-11.36-51.67-26.33-50.58-41.44-21.31-56.2-12.33-113.67.07-.44,2.85-1.26,4-8s5.71-50.05,4.01-52.02c-3.84-.52-8.47.71-12.01.02,1.93-13.58,4.04-26.81,8-40h8Z" style="fill: #40322a;"/>
  <path d="M1248,715.98c.1-4.49-.48-8.39.94-12.89,12.77-40.66,26.94-88.39,47-126.18,3.11-5.85,3.04-17.19,6.16-24.85,4.52-11.07,26.43-65.28,31.96-68.04,6.73-.86,6.38-.33,6.01,5.96-2.18,37.66-27.33,73.07-38.14,105.93-9.57,29.12-17.79,87.92-30.12,112.87-2.35,4.76-18.52,13.77-23.81,19.21.06-4-.09-8,0-12Z" style="fill: #56493f;"/>
  <path d="M1240,271.98c.66.66,5.57-.75,7.8.17l.16,5.77c-12.27,15.91-33.1,11.27-23.97,38.06-14.06,3.86-30.13,10.85-48,12-11.64.75-25.37,1.63-36-4,.48-3.75-.86-8.97,0-12,1.04-3.65,6.19-13.59,8-16,1.13-1.51,2.88-2.59,4-4,3.79-.5,8.56.74,12,0,5.66-1.22,10.22-7.5,12-8,10.39-2.91,21.39-2.82,32-4,10.92-1.21,27.21,4.87,32-8Z" style="fill: #56493f;"/>
  <path d="M1152,527.98c-.21,2.64.14,5.35,0,8-2.73,5.82-11.63,5.42-14.88,9.15-30.88,35.44-66.27,88.75-102.97,119-5.93,4.89-9.06,9.36-18.15,7.85-.28-.85-6.53-2.33-6.93-5.78-.34-7.32,25.65-26.43,32.97-34.18,6.05-6.42,16.51-27.22,17.96-28.04,1.68-.95,9.59,1.67,11.45-.36,2.26-2.47-.26-11.29.55-15.64,4.11-1.41,7.32.5,14.09-3.77,23.3-14.71,36.28-56.76,65.91-56.23Z" style="fill: #532d1d;"/>
  <path d="M1276,359.98c3.84-5.29,8.29-13.34,15.98-11.98-.15,10.32,1.63,29.61-11.98,27.98l-3.98,2.04,3.98,5.96,7.6.3.4,11.7c-32.55-10.74-37.82,34.26-55.99,54.01l-76.01,85.99h-4c.14-2.65-.21-5.36,0-8,1.69-20.85,9.92-14.14,17.75-24.25,27.89-36.05,52.89-71.12,78.25-107.75,5.27-7.61,19.48-24.27,28-36Z" style="fill: #655b54;"/>
  <path d="M1084,931.98c6.97,1.77,22.6,9.2,32,12,.49,3.8-.73,8.54,0,12-44.08,3.38-75.48-1.05-116-16v-24c26.43,5.97,60.44,10.01,84,16Z" style="fill: #56493f;"/>
  <path d="M1248,715.98c-.09,4,.06,8,0,12-13.27,13.63-32.1,40.38-52,48-.38.14-3.6-5.4-7.76-2.35-6.41,4.72-8.3,20.64-20.24,18.35l3.98-23.99h-7.98c.19-9.39-7.57-22.96,3.96-30.25,8.61-5.45,17.42,4.94,26.37,6.19,28.46,3.98,31.09-20.6,53.66-27.94Z" style="fill: #4a4338;"/>
  <path d="M1164,767.98h7.98s-3.98,24-3.98,24c11.94,2.29,13.83-13.63,20.24-18.35,4.15-3.06,7.38,2.49,7.76,2.35.03,8.32,1.06,16.65-1.07,24.89-3.15,12.15-48.89,82.75-58.82,93.23-4.46,4.71-11.53,5.4-16.11,9.88-.48-.36-9.7-.33-12,0-1.82-10.19,3.1-11.86,8.36-17.64,24.38-26.84,54.41-54.53,63.61-90.35-16.97,9.55-10.17-2.08-11.96-4-.53-.56-7.75,1.65-8.14-2.33,3.01-7.39,3.98-13.71,4.14-21.67Z" style="fill: #655b54;"/>
  <path d="M1276,359.98c-8.52,11.73-22.73,28.39-28,36-17.58-1-34.8-11.6-52-4,.97-1.14.9-6.64,3.86-9.99,22-25,42.95-32.16,76.14-22.01Z" style="fill: #b5a199;"/>
  <path d="M1340,283.98c1.52.03,12.27,3.48,20,4v24c-18.88-2.9-47.71.52-68,0l4-24c6.69-.97,15.71-3.62,20-4,7.46-.67,16.32-.16,24,0Z" style="fill: #361c12;"/>
  <path d="M928,699.98c1-1.41-1.78-9.12.48-11.43l19.49-4.55c.16,2.64-.1,5.33.03,7.98-11.46-1.92-6.53,3.12-8,8-3.96,13.19-6.07,26.42-8,40-13.19-2.56-3.78-8.5-13.97-7.99-1.63,9.06-13.45,11.19-14.03,11.99h-8c4.26-5.99,6.21-19.36,11.81-25.34,5.11-5.45,7.06,2.44,12.19-10.66,6.69.87,9.42-1.11,8-8Z" style="fill: #655b54;"/>
  <path d="M1372,363.98c-2.69,13.78-2.27,31.63-4,40l-7.97.02v9.96s3.97,2.02,3.97,2.02c-2.09,8.62-8.63,31.03-12.41,37.59-4.47,7.75-10.94,5.97-11.59.34-.34-2.96,10.94-43.18,12.01-57.93l7.98-.03c1.61-4.32-3.9-7.39-3.98-7.97-1.78-12.52,2.46-16.27,4-24h12Z" style="fill: #56493f;"/>
  <path d="M1212,259.98l-4,20c-10.61,1.18-21.61,1.09-32,4l-4-11.95c9.87,1.16,11.1-2.72,16-8.05,1.27-1.38,2.77-2.58,4-4,6.21.9,13.56-.62,20,0Z" style="fill: #c5bdb7;"/>
  <path d="M1176,327.98c1.78,27.49-26.27,9.28-40.02,7.96-1.31-4.61,3.67-9.25,4.02-11.96,10.63,5.63,24.36,4.75,36,4Z" style="fill: #c5bdb7;"/>
  <path d="M1420,339.98c1.96,10.95,20.35,23.21-16,24,.4-3.87-.6-8.31,0-12,.63-3.88,4.06-10.76,4-12h12Z" style="fill: #40322a;"/>
  <path d="M1376,355.98h-12c2.91-9.91-2.83-14.89,8-28,1.19-1.43,5.89-2.37,8-4-1.34,9.79-1.85,22.76-4,32Z" style="fill: #56493f;"/>
  <path d="M1116,775.98c-.09,11.58-11.39,17.32-16,24l-7.97-.02v-5.93c6.76-10.62,15.04-12.97,23.97-18.05Z" style="fill: #b87864;"/>
  <path d="M1148,295.98c-1.81,2.41-6.96,12.35-8,16l-11.98-.02c-.88-10.52,9.6-17.03,19.98-15.98Z" style="fill: #c5bdb7;"/>
  <path d="M1140,743.98c-3.26,5.04-3.45,12.45-12,16,.52-1.93-.27-14.12,4.06-19.99l7.94,3.99Z" style="fill: #b87864;"/>
  <path d="M1404,351.98c-.6,3.69.4,8.13,0,12-3.35.07-11.05,1.72-12.02-2.02l.02-9.96,12.01-.02Z" style="fill: #c2bab2;"/>
  <path d="M1376,355.98c-.92,3.94-3.84,7.17-4,8h-12c.8-3.98,3.51-6.32,4-8h12Z" style="fill: #726761;"/>
  <path d="M976,903.98c8.19,2.12,18.45,1.56,16,12-20.86-4.35-12.45-8.24-16-12Z" style="fill: #56493f;"/>
  <rect x="1336.02" y="464" width="7.96" height="11.96" style="fill: #56493f;"/>
  <path d="M1104,903.98c-.95.33-6.95,11.79-16,8,2.08-7.34,9.02-8.68,16-8Z" style="fill: #56493f;"/>
  <path d="M1188,671.98l-8,12c.86-1.94-.75-7.05,2.01-12.38,2.27-4.38,5.76.57,5.99.38Z" style="fill: #b87864;"/>
  <path d="M1368,403.98c-1.24,6-3.33,9.25-4,12l-3.96-2.02v-9.96s7.96-.02,7.96-.02Z" style="fill: #726761;"/>
  <path d="M1160,711.98c-2.95,4.67-5.18,7.84-8,12l.49-11.54,7.51-.46Z" style="fill: #b87864;"/>
  <path d="M1152,291.98c2.77-3.5,3.46-9.25,9.96-8.04l2.04,8.04c-3.44.74-8.21-.5-12,0Z" style="fill: #c5bdb7;"/>
  <path d="M1356,387.98c.08.58,5.59,3.65,3.98,7.97l-7.98.03c.24-3.37.09-6.98,4-8Z" style="fill: #726761;"/>
  <path d="M948,691.98c.13,2.66-.09,5.34,0,8h-8c1.47-4.88-3.46-9.92,8-8Z" style="fill: #726761;"/>
  <path d="M928,699.98c1.42,6.89-1.31,8.87-8,8,5.56-14.2,6.36-5.68,8-8Z" style="fill: #726761;"/>
  <polygon points="1280 383.98 1276.02 378.02 1280 375.98 1280 383.98" style="fill: #c7856f;"/>
  <path d="M1416,115.98c-1.57,18.02,5.3,46.79,3.96,69.96-1.17,20.33-9.89,42.09-11.96,58.04-13.55-.22-20.91,27.69-20,40-2.79,6.03-10.74,3.83-16,4,7.28-15.35,7.54-32.09,12-48,6.09-21.69,26.36-45.31,27.98-62.42,1.38-14.59-11.32-28.49-11.98-37.58-.54-7.41,7.49-20.43,8-32h4l4,8Z" style="fill: #bcaba2;"/>
  <path d="M1384,75.98c16.54,9.82,25.2,5.02,24,32-.51,11.57-8.54,24.59-8,32-18.76,10.92-26.59,37.37-51.98,31.98l44.18-50.38c1.19-7.05-1.54-6.53-4.2-9.6-1.21-1.4-1.88-3.5-4-4-2.38-.56-14.02-.62-16,0,.57-3.7-.85-8.79,0-12,1.58-6,10.49-16.07,16-20Z" style="fill: #56493f;"/>
  <path d="M1384,239.98c-4.46,15.91-4.72,32.65-12,48-3.93.12-8.09.26-12,0-7.73-.52-18.48-3.97-20-4l44-44Z" style="fill: #b5a199;"/>
  <path d="M1408,243.98c-2.09,16.08,2.19,34.98-.62,51.36l-15.36,4.66c2.79-6.07-3.85-13.73-4.02-16.02-.91-12.31,6.45-40.22,20-40Z" style="fill: #b87864;"/>
  <path d="M1376,27.98l15.98.02v7.9c-7.51.79-12.64,4.06-11.98,12.08-1.19-.51-5.81-.13-8,0,.48-3.81-.71-8.51,0-12s3.98-7.55,4-8Z" style="fill: #56493f;"/>
  <path d="M1412,107.98l7.98.03c1.59,4.14-3.93,7.48-3.98,7.97l-4-8Z" style="fill: #56493f;"/>
  <path d="M1294,1035.98c2.6,1.33,2.6,2.67,0,4v-4Z" style="fill: #beb5ad;"/>
  <path d="M1124,947.98v12h-8c-.2-1.3.27-2.73,0-4-.73-3.46.49-8.2,0-12,3.64,1.08,6.25,3.44,8,4Z" style="fill: #4a4338;"/>
  <path d="M772,2567.98c.38,3.75-2.15,8.64-4,12-14.01,2.63-21.63,3.35-36,8-6.87,2.22-19.12,4.77-24,8h-12.01s.01-8,.01-8c1.57-1.38,2.28-6.28,4-8,12.02-5.04,27.35-8.69,38.92-13.23,9.5-3.73,9.89-3.88,9.08-14.77,4.1-1.54,10.52.53,16-4,1.46,5.92,7.47,14.79,8,20Z" style="fill: #361c12;"/>
  <path d="M836,2535.98c-3.61,9.11-6.89,12.39-16,16-14.1-2.7-29.59,5.39-43.96,4.07-.53,3.94.26,7.98-.04,11.93h-4c-.53-5.21-6.54-14.08-8-20,.68-.56-2.37-6.56,2.7-8.05,11.43-3.35,61.61-8.1,65.3-11.95,2.7,1.4,3.39,7.58,4,8Z" style="fill: #40322a;"/>
  <path d="M672,2639.98c11.31-9.16,26.17-37.5,36-44,4.88-3.23,17.13-5.78,24-8-8.13,11.45-28.11,46.66-37.87,52.32-11.45,6.64-13.36.13-22.13-.32Z" style="fill: #b5a199;"/>
  <path d="M776,2567.98c-.3,3.97.34,8.04,0,12.01-2.58.44-5.6-.46-7.99,0,1.85-3.36,4.38-8.25,4-12h4Z" style="fill: #532d1d;"/>
  <path d="M1368,2151.98c6.27,6.88,14.13,12.87,24,12-6.62,25.02,12.4,20,17.93,32.04,9.71,21.14-13.4,56.72-20.09,75.8-13.24,37.75-18.09,70.32-37.98,106.02-36.26,65.05-46.91,75-47.86,154.14-.33,27.31-11.94,41.94-16,68-51.96.11-99.59,1.49-152,0-5.48-20.08,11.91-23.87,16-40,3.21.95,34.5.92,35.93-.17.9-2.5-.52-5.88.07-7.83l8,5.97c11.56-40.93,24.15-81.73,38.09-121.88,9.02-25.98,23.84-55.24,32.09-79.93,2.56-7.68,5.62-13.97-6.18-12.17,7.93-18.23,6.86-51.84,16-72,24.18,14.19,56.33,17.14,33.7-19.7-5.19-8.45-20.16-14.1-21.7-20.3-1.13-4.55-1.02-28.62.09-33.27.7-2.96,7.06-2.38,7.81-5.5,2.39-9.95-.17-25.91,4.11-37.23,18.62-.52,50.83-1.47,68-4Z" style="fill: #b86347;"/>
  <path d="M1152,2559.98c-4.09,16.13-21.48,19.92-16,40-46.68-1.33-82.89,2.57-132.14-9.86-25.28-6.38-41.12-28.51-58.25-30.1-21.1-1.96-17.16,17.01-27,15.59-19.8-22.71-62.34-25.62-82.61-39.62-.61-.42-1.3-6.6-4-8,3.01-3.15,2.86-15.69,14.85-19.17,39.45-11.45,76.34,10.21,112.27,18.05,64.22,14.01,131.19,14.85,192.89,33.11Z" style="fill: #b87864;"/>
  <path d="M1220,2623.98c5.22-.17,11.62.39,20,0,14.57-.67,29.45.8,44,0-.3,11.98-6.65,15.12-14.53,21.59-2.12,1.74-1.18,6.27-1.47,6.41-1.7.84-33.53,4.17-37.78,4.12-16.96-.21-51.64-9.72-50.22-32.12,13.29-.29,26.72.42,40,0Z" style="fill: #b86347;"/>
  <path d="M1308,2531.98c14.03-1.8,19.49,1.02,20.72,15.34l7.28.66c-7.21,15.23-13.38,35.98-20,52-13.68,1.62-18.87-.02-28,0,4.06-26.06,15.67-40.69,16-68h4Z" style="fill: #b87864;"/>
  <path d="M1376,2519.98c-.21,1.29.14,2.68,0,4s.03,2.68,0,4c-9.63,1.72-6.11,12.24-8,16-5.48,10.89-24.33,40.72-31.87,50.24-4.62,5.83-11.77,5.19-12.13,5.76-2.63.21-5.4-.31-8,0,6.62-16.02,12.79-36.77,20-52,9.33-19.71,14.68-32.63,40-28Z" style="fill: #b5a199;"/>
  <path d="M1240,2623.98c-8.38.39-14.78-.17-20,0,2.63-6.31,17.37-6.31,20,0Z" style="fill: #bb5c3a;"/>
  <path d="M1568,2451.98c.37,1.02,2.71,1.77,2.82,5.24.1,3.28-1.9,7.36-2.82,10.76l-36.03,6.02c-5.36,19.18,32.4,9.11,36.03,1.98,4.12,9.33,10.58,9.11,20,8-.36.22,1.64,6.01-2.93,7.85s-32.09,11.34-35.3,11.92c-28.7,5.26-27.75-16.25-65.78.23,2.36-12.77-24.91-15-36-16,1.11-10.71-9.27-10.6-16-16,5.2-.84,19.14-7.45,24-8,15.77-1.78,33.78,1.46,49.93-.07,21.93-2.07,40.03-13.68,62.07-11.93Z" style="fill: #532d1d;"/>
  <path d="M1448,2363.98c13.29-1.82,18.89,15.19,20,16-14.74-3.35-14.95,6-11.15,17.15,5.54,16.22,25.13,13.26,27.15,26.85-5.07.43-10.34-1.05-14.23,3.71,1.09,21.14-6.19,22.05-13.77,36.29-4.86.55-18.8,7.16-24,8-9.79,1.58-14.69-.15-20,0,7.28-21.75,11.3-66.7,20.84-85.16,5.28-10.2,14.7-4.36,15.16-22.84Z" style="fill: #b86347;"/>
  <path d="M1484,2423.98c26.54-2.23,57.5,16.42,83.29,20.83,2.21,1.75.16,5.68.71,7.17-22.04-1.75-40.14,9.86-62.07,11.93-16.15,1.53-34.16-1.71-49.93.07,7.58-14.24,14.86-15.14,13.77-36.29,3.89-4.76,9.16-3.29,14.23-3.71Z" style="fill: #b87864;"/>
  <path d="M1504,2315.98c5.38,27.01-23.36,45.04-20,72-3.42-1.7-14.63-7-16-8-1.11-.81-6.71-17.82-20-16,.14-5.71-.94-11.12-4-16,1.83-1.18-5.39-4.89,8-8,26.33-6.12,30.51-11.83,52-24Z" style="fill: #b87864;"/>
  <path d="M1568,2467.98c-.64,2.36.79,6.44,0,8-3.62,7.13-41.39,17.2-36.03-1.98l36.03-6.02Z" style="fill: #655b54;"/>
  <path d="M1452,2523.98c3.01.82,6.91,5.41,11.98,4.04,0,7.48-15.99,7.75-23.98,7.96-13.67.35-26.49,2.28-23.98-15.98,1.29-1.27,31.15,2.66,35.98,3.98Z" style="fill: #726761;"/>
  <path d="M1468,2135.98c5.77,6.27,21.51,42.56,23.06,50.94,4.1,22.2-9.8,64.94,24.74,60.87l4.22-31.81c11.9-1.87,11.63,16.84,19.98,24-18.89-4.85-10.67,15.76-18.07,24.05-2.7,3.02-7.99,5.8-13.93,11.95-21.2,21.94-62.98,28.82-56,64-13.39,3.11-6.17,6.82-8,8-1.12.72-7.33-1.61-10.72,1.05-15.62,12.26-10.74,28.8-15.06,43.17-9.32,30.96-22.53,64.82-30.22,95.78-.83,3.36.74,8.44,0,12l-7.7.22c1.21,7.25-3.39,14.19-4.3,19.78-25.32-4.63-30.67,8.29-40,28l-7.28-.66c-1.23-14.32-6.69-17.14-20.72-15.34.51-17.46,13.85-21.7,18.7-35.23,8.4-23.46,6.09-57.07,37.35-70.72,12.03-5.26,27.62,2.94,35.92-12.11.76-1.85-14.71-19.35-15.18-28.67-.26-5.13,6.92-10.72,7.65-19.22.71-8.31-4.77-20.01-3.83-23.73,1.24-4.95,10.16-6.04,13.18-10.56,13.09-19.58,16.03-45.81,21.07-66.94,2.89-12.12,6.9-44.1,11.12-52.85,3.59-7.44,20.84-10.26,24.33-23.8,2.19-8.5-4.61-24.09-2.3-36.17.62-3.23,7.64-14.4,12-16Z" style="fill: #b86347;"/>
  <path d="M1444,2347.98c3.06,4.88,4.14,10.29,4,16-.46,18.48-9.88,12.64-15.16,22.84-9.55,18.46-13.57,63.41-20.84,85.16-23.8.67-5.9,15.18-24,16,7.69-30.96,20.9-64.82,30.22-95.78,4.32-14.37-.56-30.91,15.06-43.17,3.39-2.66,9.6-.33,10.72-1.05Z" style="fill: #532d1d;"/>
  <path d="M1388,2499.98c-1.97,9.45-.38,27.17-12,24,.14-1.32-.21-2.71,0-4,.91-5.59,5.52-12.53,4.3-19.78l7.7-.22Z" style="fill: #532d1d;"/>
  <path d="M1376,2543.98c-1.96-.68-5.53.45-8,0,1.89-3.76-1.63-14.28,8-16-.1,5.33.07,10.67,0,16Z" style="fill: #532d1d;"/>
  <path d="M1632,1903.98c13.87-.75,29.9-4.77,41.84-4.19,18.4.9,46.12,13.83,72.15,15.41,9.61.59,47.5,1.92,48.24-7.46,11.01,6.48,22.86,5.8,33.77,8.24,25.27,5.66,16.73,14.19,26.44,31.57,9.63,17.23,24.81,18.74,9.46,42.61l30.57,29.6c-7.31,29.17,10.9,45.39,13.59,74.17.22,4.28-8.6,1.08-12.06,2.05-3.85-48.26-25.31-20.62-50.23-16.23-17.88,3.15-38.06,1.16-57.9,6.1-20.49,5.1-75.03,34.13-89.87,34.13h-84c-8.18,0-8.18,28,0,28h80c2.57,0,34.31-14.8,42-16l7.76,21.74c-16.38,6.41-19.01,17.54-27.76,26.26-4.04,4.03-7.87,7.97-12,12l-31.96-8.03c.17,8.96-5.67,16.74-8.04,24.03-13.73,2.23-6.7-16.55-15.93-22.07-10.44-6.25-32.43-.49-44.05,2.08l-8.02-12.01c4.12-39.14-3.88-44.31-8-76,16.73-19.44,12.23-52.27,23.25-74.77.2-7.87-11.11-16.78-19.25-17.23.41-3.92-.45-8.09,0-12,.33-2.88,5.9-11.52,6.92-19.03,3.49-25.76,2.81-53.16,13.08-76.97.68.67,3.32-.67,4,0,12.34,12.06,6.5,4.51,16,4ZM1788.03,2015.99l-65.42-3.41-4.89,3.1c-19.45,27.51,49.91,22.72,63.69,19.69l6.13-5.86.49-13.52Z" style="fill: #bb5c3a;"/>
  <path d="M1596,2175.98l8.02,12.01c11.62-2.58,33.6-8.33,44.05-2.08,9.23,5.52,2.2,24.3,15.93,22.07-.94,2.91.64,8.41,0,12l-3.8,10.02c-10.46,13.67-76.7,38.22-96.2,41.98v-24c23.72-3.3,29.99-52.89,32-72Z" style="fill: #b86347;"/>
  <path d="M1768,2123.98c21.09.28,7.52-2.14,14.68-3.95,6.09-1.54,32.24-1.16,37.23,2.02.99.63,15.99,15.66,16.26,16.8,2.03,8.69-4.35,19.99-4.18,29.14-2.61.31-5.38-.26-8,0-36.07,3.64-72.26,5.58-108,12,8.75-8.73,11.38-19.85,27.76-26.26l-7.76-21.74c3-.47,9-.47,12,0,.59.09,3.58,5.61,7.97,3.98l.03-7.98c4.76-2.29,3.84-4.11,12-4Z" style="fill: #b86347;"/>
  <path d="M1540,2239.98c4.81,4.13,17.5,8.9,24,8v24c-19.35,3.73-35.7,5.55-56,4,5.94-6.14,11.23-8.92,13.93-11.95,7.41-8.3-.81-28.9,18.07-24.05Z" style="fill: #c7856f;"/>
  <path d="M1704,2191.98c-8.86,8.65-27.76,26.29-40,28,.64-3.59-.94-9.09,0-12,2.37-7.29,8.22-15.07,8.04-24.03l31.96,8.03Z" style="fill: #c7856f;"/>
  <path d="M856,2475.98c2.14-.57,5.41.31,8,0l-4,20c-48.38,5.7-107.69,16.77-157.69,24.31-12.23,1.85-56.73,17.45-63.62,15.27-8.65-2.73-12.96-21.42-10.31-29.05,6.17-17.81,88.47-13.05,105.58-14.57,28.29-2.52,63.5-11.54,90.04-11.96.71-.01,5.26,5.5,13.5,4.12,5.65-.94,11.23-6.19,18.5-8.12Z" style="fill: #40322a;"/>
  <path d="M1260,2343.98c11.8-1.8,8.75,4.49,6.18,12.17-8.24,24.69-23.07,53.95-32.09,79.93-13.94,40.15-26.53,80.95-38.09,121.88l-8-5.97c21.72-72.22,42.52-140.24,72-208Z" style="fill: #bb5c3a;"/>
  <path d="M1144,2435.98c.65-.14,1.59,3.14,12,0v16l-15.97-3.98-.03,11.98c-1.33.1-2.67-.1-4,0-10.17.77-25.13-3.64-32,4-20.99-3.28-26.58-7.18-44-12v-7.99c10.81-.63,14.52-2.47,18.02,8.05l5.97-.07c.65-2.29-.73-7.04.01-7.98.57-.72,6.56-1.18,8-4,24.65,6.62,25.37,1.94,44-4,2.06-.66,5.55.52,8,0Z" style="fill: #56493f;"/>
  <path d="M844,2435.98l7.98-.03c2.88,11.61-1.63,19.15-3.98,28.03-3.11-.28-6.48,3.69-8,4-3.5.71-8.19-.48-12,0-.06-.84-4.12-4.31-4-8,.16-4.93,3.33-10.84,4-16v-4c4.1.25,14.5-.94,16-4Z" style="fill: #361c12;"/>
  <path d="M1164,2431.98c15.89,3.01,27.25,4.51,24.01,23.98-10.37.9-21.85-1.16-32.01.02v-20c3.03-.91,6.23-.56,8-4Z" style="fill: #40322a;"/>
  <path d="M1252,2291.98c-2.68,16.09-7.79,54.03-28,32,3.87-7.58.9-13.32,16.03-12.04-4.02-17.29-10.76-22.41,11.97-19.96Z" style="fill: #56493f;"/>
  <path d="M864,2475.98c.84-.1,2.68-4.83,8.78-3.41,6.42,1.5,26.2,16.61,19.21,23.39-10.34.91-21.86-1.17-31.98.02l4-20Z" style="fill: #726761;"/>
  <path d="M852,2423.98c.82,1.53,3.69,2.97,4,4,6.35,20.81,11.16,26.34,0,48-7.28,1.93-12.85,7.18-18.5,8.12-8.24,1.38-12.79-4.13-13.5-4.12,1.98-3.43,4.29-8.07,4-12,3.81-.48,8.5.71,12,0l.02,7.97,7.96.03c.72-3.73-.83-8.82.02-12,2.35-8.88,6.86-16.42,3.98-28.03l-7.98.03c.82-1.68-1.93-7.63,1.1-10.9,1.82-1.97,6.72-.78,6.9-1.1Z" style="fill: #726761;"/>
  <path d="M748,2551.98c.81,10.89.42,11.03-9.08,14.77-11.57,4.55-26.9,8.19-38.92,13.23,20.33-20.35,18.48-16.91,48-28Z" style="fill: #40322a;"/>
  <path d="M1136,2459.98l.03,7.98c-12.13,3.57-23.26-2.61-32.03-3.98,6.87-7.64,21.83-3.23,32-4Z" style="fill: #726761;"/>
  <path d="M1156,2451.98v4c-2.87.33-7.76,3.37-16,4l.03-11.98,15.97,3.98Z" style="fill: #726761;"/>
  <path d="M1164,2431.98c-1.77,3.44-4.97,3.09-8,4-10.41,3.14-11.35-.14-12,0,8.16-9.33,12.57-5.41,20-4Z" style="fill: #726761;"/>
  <polygon points="1175.98 2308 1175.98 2315.96 1170.06 2315.94 1164.02 2309.96 1175.98 2308" style="fill: #b4aca4;"/>
  <path d="M1044,2447.98l7.97-3.98.03,7.98c-5.04-1.48-7.57-3.86-8-4Z" style="fill: #56493f;"/>
  <path d="M720,2423.98c-1.85-13.83,5.33-5.96,12.14-5.88,6.12.07,25.95,2.01,29.02,1.15,11.08-3.1,9.9-18.87,33.51-5.84l17.33,22.57c-31.48-2.73-61.44-7.35-92-12Z" style="fill: #bab1a9;"/>
  <path d="M828,2439.98v4h-7.99s0-8,0-8c3.73.39,7.32,3.96,8,4Z" style="fill: #726761;"/>
  <path d="M1288,239.98c12.98-2.26,6.66,6.58,7.83,13.98s.72,14.89,4.8,21.49l15.36,8.53c-4.29.38-13.31,3.03-20,4-3.3.48-8.3,5.46-13.33,4.14-14.94-14.33-21.28-12.09-22.67-36.14-.15-2.63-.07-5.36,0-8,4.83-.68,10.57-.53,15.37.53,5.32,3.77-.62,23.34,12.61,19.45-.03-9.3.13-18.68.02-27.98Z" style="fill: #b5a199;"/>
  <path d="M1220,259.98c5.36.57,10.65,3.14,16,4,.83,1.69,3.68,7.68,4,8-4.79,12.87-21.08,6.79-32,8l4-20c2.62.25,5.38-.28,8,0Z" style="fill: #c1b3ac;"/>
  <path d="M1236,263.98c-5.35-.86-10.64-3.43-16-4-2.27-8.55,5.25-8.98,11.94-12,1.31,4.79,2.02,11.87,4.06,16Z" style="fill: #56493f;"/>
  <path d="M624,659.98c-.13,6.84,2.45,13.47,4,20-3.58-3.61-16.99-.52-11.99-19.98l7.99-.02Z" style="fill: #56493f;"/>
  <path d="M660,699.98c-2.45-.21-18.01,8.01-16-8,5.62,2.02,12.3,1.07,16,8Z" style="fill: #56493f;"/>
  <path d="M1236,147.98l11.98-3.99c.71,3.62-.95,9.16.02,11.99-5.28-.51-8.76-6.31-12-8Z" style="fill: #c5bdb7;"/>
  <path d="M1384,107.98l4,4c2.67,3.07,5.39,2.56,4.2,9.6l-44.18,50.38c25.39,5.39,33.22-21.06,51.98-31.98.67,9.09,13.37,22.99,11.98,37.58-1.62,17.11-21.9,40.73-27.98,62.42l-44,44c-7.68-.16-16.54-.67-24,0l-15.36-8.53c-4.08-6.6-3.64-14.18-4.8-21.49s5.14-16.24-7.83-13.98c-.16-14.36-4.37-29.47,0-44,.26-.86,6.36-12.62,8-16,1.23-2.54,15.05-26.7,16-28,2.23-3.06,5.63-5.16,8-8,1.14-1.37,15.1-15.31,16-16,3.42-2.62,30.2-19.44,32-20,1.98-.62,13.62-.56,16,0Z" style="fill: #b87864;"/>
  <path d="M1496,1467.98c-2.56,28.72-36.92,44.19-40,72-25.54,11-31.36,21.05-48,36-1.01.91-5.3.96-8,4-2.16,2.43-5.12,2.24-8,8-8.28-1.09,6.88,2.85.32,6.3-33.02,17.36-61.44,34.64-96.32,49.7-24.33,10.51-61.81,27.49-87.63,42.37-17.77,10.24-79.91,62.11-99.89,49.17l-4.48-23.54c19.31-16.96,42.39-23.18,64.83-33.17,9.43-4.2,24.54-11.07,31.17-18.83,8.05-.77,8.41-2.92,12-4,24.65-7.39,49-20.6,72-32l4-4c75.28-26.45,126.88-69.54,179.97-130.05l-19.97-5.95c.69-1.22-1.34-6.37.24-7.61,3.72-2.9,28.44,1.55,37.01-.46,3.8-.89-.18-7.05,10.75-7.93Z" style="fill: #56493f;"/>
  <path d="M1496,1467.98c17.31-1.39,10.35,6.49,12,8,7.52,22.51,11.39,44.84,16,68-31.85-.2-11.15-28.66-20.04-48.01-2.34-2.09-13.03,3.41-15.78,6.2-5.14,5.22-19.01,35.32-20.99,37.11-2.93,2.64-9.1-.21-11.2.7,3.08-27.81,37.44-43.28,40-72Z" style="fill: #beb5ad;"/>
  <path d="M1491.98,1435.96c-18.13,1.81-21.93-12.7-19.96-27.96,16.83-2.86,20.84,14.3,19.96,27.96Z" style="fill: #b5a199;"/>
  <path d="M1471.54,1440.46l4.38,15.32-23.91,8.18c-1.79-16.54.11-27.74,19.52-23.5Z" style="fill: #b5a199;"/>
  <path d="M1580,1675.98c-.35.24,1.64,6.94-2.65,8.05-6.03,1.56-14.7-.82-21.36-.04-4.17-11.96,3.6-28.48,4.01-36.01,11.87,4.73,12.39,19.07,20,28Z" style="fill: #beb5ad;"/>
  <path d="M1212,1883.98c.66.57-.66,3.39,0,4l4,8c-1.15,13.25,4.64,32.89,4.15,50.18-1.1,38.77-15.19,82.13-8.15,121.82-.98,2.1-7.74,1.84-8.41,10.05-.98,12.07,4.26,26.66,8.41,37.95-9.3-.56-16.32,3.77-24,8-2.14.08-5.81.68-7.05-.73-6.72-7.7,6.49-95.33,7.24-113.07.96-22.76.76-49.35-.24-72.14-.87-19.85-21.89-93.59,24.05-54.05Z" style="fill: #4a4338;"/>
  <path d="M1456,1887.98c1.36-.2,5.63,3.77,8,4,.77,6.65-3.89,14.28-4,20-17.49,2.48-29.15,15.86-42.61,25.53-1.88,1.35-1.08,6.27-1.39,6.47-7.37,4.52-37.03,5.45-44,20-13.31,1.05-57.09,32.58-63.51,13.43-2.03-6.05-1.5-14.77,3.39-19.56,2.73-2.68,54.26-21.26,65.08-26.89,22.62-11.76,53.94-39.23,79.03-42.97Z" style="fill: #40322a;"/>
  <path d="M1212,1887.98c1,.92,7.08-.88,7.98.03,2.48,2.5-3.94,7.53-3.98,7.97l-4-8Z" style="fill: #afa7a0;"/>
  <path d="M1564,1935.98c.26.61,6.09,2.08,7.44,6.69,4.73,16.23-12.83,20.93-19.58,31.17-7.78,11.82-26.93,51.05-27.77,64.59-.59,9.54,5.49,18.47,3.34,26.64-.5,1.92-15.73,31.59-17.58,34.76-4.54,7.77-18.02,8.53-17.99,18,19.02,30.71,9.11,71.56,56.14,74.15-1.46,8.34,2.71,16.11,4.04,23.98,16.83,12.63,26.77-65.26,23.16-77.39-1.43-4.82-7.04-6.12-7.21-6.59-13.35-37.01,2.82-102.59,8-144,8.26-1.66,12.38.72,16,8-.45,3.91.41,8.08,0,12-2.49,23.9-6.89,69.72-4,92,4.12,31.69,12.12,36.86,8,76-2.01,19.11-8.28,68.7-32,72-6.5.9-19.19-3.87-24-8-8.36-7.16-8.08-25.88-19.98-24l-4.22,31.81c-34.54,4.08-20.64-38.66-24.74-60.87-1.55-8.38-17.28-44.67-23.06-50.94-6.46-7.02-7.89-10.31-20-8l4-28c9.55-3.89,11.31-9.03,16-12,1.57-.99,7.75,2.7,12.3-2.51,14.44-16.55,25.21-82.41,40.28-106.91,6.02-9.79,26.09-28.77,35.42-38.58,2.48-2.6,3.95-4.39,8-4Z" style="fill: #361c12;"/>
  <path d="M1584,1911.98c-3.22,25.12-4.87,50.95-8,76-5.18,41.41-21.35,106.99-8,144-7.82,12.5-6.46,26.75-9.99,40.01-1.71,6.42-9.46,16.87-10.01,19.99-47.02-2.59-37.12-43.44-56.14-74.15-.03-9.46,13.45-10.22,17.99-18,1.85-3.17,17.08-32.84,17.58-34.76,2.15-8.17-3.94-17.1-3.34-26.64.84-13.54,19.99-52.77,27.77-64.59,6.75-10.24,24.31-14.95,19.58-31.17-1.35-4.61-7.18-6.08-7.44-6.69-.37-.86.1-2.59,0-4,7.7-.22,13.48-4.18,11.97-11.98l-7.97-.02c.57-2.42-.75-6.27,0-8h16Z" style="fill: #b86347;"/>
  <path d="M1460,1911.98c-.05,2.37-.92,5.74.47,7.41,30.96,7.77,63.11,18.94,95.53,20.59-9.34,9.81-29.4,28.79-35.42,38.58-15.07,24.5-25.84,90.36-40.28,106.91-4.55,5.21-10.73,1.52-12.3,2.51l3.44-87.44-39.55-14.45-15.89-42.11c.31-.19-.48-5.12,1.39-6.47,13.46-9.68,25.12-23.06,42.61-25.53Z" style="fill: #b86347;"/>
  <path d="M1612,1899.98c-10.27,23.81-9.59,51.21-13.08,76.97-1.02,7.51-6.58,16.15-6.92,19.03-3.62-7.28-7.74-9.66-16-8,3.13-25.05,4.78-50.88,8-76,.33-2.56,7.15-9.64,4-16,.48-.29,7.84-7.46,8-8,15.64-3.98,14.18,10.22,16,12Z" style="fill: #532d1d;"/>
  <path d="M1588,1895.98c3.15,6.36-3.67,13.44-4,16h-16c8.84-20.39,11.67-10.96,20-16Z" style="fill: #b87864;"/>
  <path d="M1568,1919.98l7.97.02c1.5,7.8-4.27,11.76-11.97,11.98-.53-7.43,3.31-9.09,4-12Z" style="fill: #b87864;"/>
  <path d="M1628,1883.98c1.75,6.43,5.77,12.19,4,20-9.5.51-3.66,8.06-16-4v-16.02s12,.02,12,.02Z" style="fill: #532d1d;"/>
  <path d="M2024,2051.98c-16.27,2-4.25-8.57-4-12,5.26,1.95,3.78,7.63,4,12Z" style="fill: #c7856f;"/>
  <path d="M2028,1995.98h-4c.45-1.73,2.37-3.21,4-4v4Z" style="fill: #c7856f;"/>
  <path d="M2032,1959.98c-1.65,6.83-2.43,19.22-4,28l-7.99.03v-28.03c3.21.84,8.29-.57,11.99,0Z" style="fill: #c7856f;"/>
  <path d="M1896,2095.98c-21.16,5.95-38.49,8.69-60,12-22.72,3.49-54.6-1.05-68,16-8.16-.11-7.24,1.71-12,4-2.39,1.15-6.16.66-8,4-3-.47-9-.47-12,0-7.69,1.2-39.43,16-42,16h-80c-8.18,0-8.18-28,0-28h84c14.84,0,69.38-29.03,89.87-34.13,19.84-4.94,40.02-2.95,57.9-6.1,24.92-4.39,46.38-32.03,50.23,16.23Z" style="fill: #532d1d;"/>
  <path d="M1836,2107.98c-.16,11.08-3.23,13.11,9.87,11.98,17.63-1.51,30.5-10,47.75,3.7l-1.63,16.31c-2.81.76-6.48,6.29-10.48,6.82-7.99,1.06-19.78-6.12-29.13-2.39-2.9,17.28-2.84,21.51-20.39,23.57-.17-9.14,6.21-20.44,4.18-29.14-.27-1.14-15.28-16.17-16.26-16.8-4.99-3.18-31.15-3.56-37.23-2.02-7.17,1.81,6.41,4.24-14.68,3.95,13.4-17.05,45.28-12.51,68-16Z" style="fill: #bb5c3a;"/>
  <path d="M816,903.98v16c-4.73-1.83-9.29-8.27-16-8,.65-1.38-1.2-5.14.45-7.41l15.55-.59Z" style="fill: #56493f;"/>
  <polygon points="668 1175.98 665.32 1171.17 668 1167.98 671.98 1173.94 668 1175.98" style="fill: #56493f;"/>
  <path d="M756,751.98l43.36.62,4.68,13.34c-11.74,8.57-41.11-2.9-48.04-5.96l3.27-1.95c-.24-2.42-2.67-4.23-3.27-6.05Z" style="fill: #c1b3ac;"/>
  <rect x="744.02" y="768.02" width="15.96" height="3.92" style="fill: #56493f;"/>
  <path d="M316,263.98c-2.5-.43-5.93.63-8,0-2.86-.87-6.66-5.78-12-4,1.52-5.03,5.26-9.64,4-16,.69-.21-11.77-6.03-8-8,4.5,8.82,22.41,19.71,24,28Z" style="fill: #726761;"/>
  <path d="M1452,2099.98l-4,28c-3.35.64-13.35,7.29-20.96,9.04-17.12,3.92-43.55,12.69-59.04,14.96-17.17,2.53-49.38,3.48-68,4-38.3,1.06-62.02,3.35-97.43-12.57-4.79-2.16-10.34-11.1-14.57-11.43v-8c7.68-4.23,14.7-8.56,24-8,9.82.59,26.81,10.24,38.33,11.67,49.67,6.18,154.65-8.52,201.67-27.67Z" style="fill: #40322a;"/>
  <path d="M1168,2171.98c1.43-.19,3.14.41,4,0,6.31,3.72,7.98,4.58,8,12,.06,20.75-11.24,16.03-28,16-.37-2.79-.46-15.31,0-16,.5-.76,12.34,1.96,8-12,2.6-.03,5.49.34,8,0Z" style="fill: #361c12;"/>
  <path d="M1264,1723.98c3.04,8.64-23.38,17.9-24,24-30.47-10.5,18.51-18.6,24-24Z" style="fill: #b7aea6;"/>
  <path d="M1040,1523.98c-.37,0-1.75,3.47-5.05,3.01-4.07-.57-28.73-9.28-22.95-15.01,9.78-.65,30.32-1.07,28,12Z" style="fill: #b4aca4;"/>
  <path d="M1160,2171.98c4.34,13.96-7.5,11.24-8,12-1.53-.88-2.84-3.54-4-4,1.53-18.82,10.4-7.98,12-8Z" style="fill: #b5a199;"/>
  <path d="M1039.98,1536c6.34,6.34-5.61,18.3-11.96,11.96s5.61-18.3,11.96-11.96Z" style="fill: #b4aca4;"/>
  <path d="M964,1519.98l-2.04,8.02-5.94-.05-.02-7.97c2.66-.1,5.34.11,8,0Z" style="fill: #b4aca4;"/>
  <path d="M928,2399.98c5.63-21.61,40.57-7.1,32.02-40.01,10.9,1.88,16.31,3.58,27.77,2.06,12.87-1.71,7.94-2.14,8.22,9.96-22.12,10.91-40.07,27.72-68,28Z" style="fill: #bab1a9;"/>
  <path d="M896,2407.98c-2.92-11.15,12.08-7.63,18.36-15.76l5.3.21.34,7.55c-1.09,7.67-17.61,8.39-24,8Z" style="fill: #bab1a9;"/>
  <path d="M1092,2439.98c-1.44,2.82-7.43,3.28-8,4v-8c3.49,1.08,6.62,3.63,8,4Z" style="fill: #726761;"/>
  <path d="M1172,2171.98c1.04-.49,2.56-6.51,6.14-7.85l13.85,10.35-3.99,9.5c-1.49-.78-5.63.52-8,0-.02-7.42-1.69-8.28-8-12Z" style="fill: #afa7a0;"/>
  <path d="M1024,2167.98c11.39-2.54,11.08,11.43,12,20-9.03-3.76-9.81-11.79-12-20Z" style="fill: #655b54;"/>
  <path d="M972,1699.98c4.17,1.81,10.21-4.37,7.97,7.98l-7.97.02c.24-2.63-.16-5.36,0-8Z" style="fill: #b4aca4;"/>
  <path d="M844,1495.98c.05,1.33,0,2.67,0,4-13.38-.88-35.09-5.5-44-15.96,14.89,1.23,31.9,2.13,44,11.96Z" style="fill: #726761;"/>
  <path d="M1024,2055.98h-7.99c-.51-3.89.52-8.21,0-12,6.46,1.94,7.22,5.96,8,12Z" style="fill: #655b54;"/>
  <path d="M672,1231.98c15.26,1.58,9.7.27,12.5-9.33,4.12-14.16,18.47-62.42,29.57-66.62,8.34-3.16,17.89,34.2,25.84,38.2,10.3,5.72,16.13-5.19,24.09-10.25l7.99.04c-4.91,5.66-2.5,16.49-3.99,19.96-10.25,23.91-48.23,31.21-48.21-3.87l-11.77-.15c3.67,14.82-8.8,25.98-12.03,36.02-13.54,1.33-15.47,8.02-24-4Z" style="fill: #56493f;"/>
  <path d="M888,1295.98c12.58-4.72,41.23-26.03,46.71-26.99,10.47-1.84,16.94,5.89,12.68,16.31-2.1,5.13-56.23,42.79-67.38,42.68.12-2.66.04-5.34-.02-7.99l-11.73.18c3.25,16.41-14.34,17.5-16.26,19.81,2.32-11.7-6.34-8.19-13.94-8.12-22.69.2-103.9,21.6-98.19-17.66,4.52-31.1,45.24-8.06,62.78-6.51,12.13,1.07,26.76-4.12,38.59-2.22,4.12.66,8.7,7.27,12.69,6.57,4.53-.79,5.44-11.56,6.08-12.06.94-.74,5.56.49,8,0,.4,5.15,2,11.14,7.96,12l.04-12c3.8-1.12,8.28-2.61,12-4Z" style="fill: #56493f;"/>
  <path d="M848,943.98c9.78,1.2,14.12,10.18,17.97,20.04,10.91,27.96,1.21,69.69-9.63,98.28-2.69,7.1-11.26,13.14-12.34,17.68-8.9-.9-19.5,1.29-28,0-1.33-.2-4.96-4.31-8-4,.75-1.72.02-8.78,0-12-.02-4.01.17-8.02,0-12.01h-7.99c-6.72-18.44-10.35-27.85-3.03-49.02,5.83-16.85,20.69-11.28,22.54,4,1.06,8.74-6.66,12.06-6.67,18.31-.02,12.37,11.62,32.3,27.11,26.72,9.05-38.04,4.31-73.26-7.94-108,5.25.43,10.81-.64,16,0Z" style="fill: #56493f;"/>
  <path d="M852,1339.98c1.92-2.31,19.51-3.4,16.26-19.81l11.73-.18c.06,2.65.14,5.33.02,7.99-.4,8.65-4.45,15.76-3.29,24.94,2.06,16.3,15.55,18.48,15.29,39.06,0,.35-4.54-1.23-4.07,5.79.66,9.89,22.53,24.81-7.93,26.21-.78-2.13.87-7.2,0-8,1.12-8.09,1.14-13.5-8-12-4.9-16.24-12.99-17.99-16-44-.49-4.23,1.46-10.12-4-12,.82-2.09-.89-6.92,0-8Z" style="fill: #361c12;"/>
  <path d="M880,1423.98c30.46-1.4,8.58-16.32,7.93-26.21-.47-7.02,4.07-5.44,4.07-5.79,18.41,26.16,33.41,53.86,39.61,85.68-19.35,21.69-45.78-37.72-51.61-53.68Z" style="fill: #4a4338;"/>
  <path d="M1079.96,1519.97l3.42,17.6-11.36,6.39c1.83-8.3-6.31-27.2,7.94-23.99Z" style="fill: #afa7a0;"/>
  <path d="M856,1359.98c-14.04,1.33-7.07-4.16-4-12,5.46,1.88,3.51,7.77,4,12Z" style="fill: #56493f;"/>
  <path d="M872,1403.98c9.14-1.5,9.12,3.91,8,12-.98-.9-7.17.99-7.99.01-1.17-1.38.91-8.96,0-12.01Z" style="fill: #4a4338;"/>
  <rect x="1116.02" y="1684" width="7.96" height="7.96" style="fill: #afa7a0;"/>
  <path d="M1208,543.98c2.59-.92,21.17-.7,23.37.62l4.61,15.36c-30.59-8.06-43.93,22.09-56.88,45.21-3.1,5.53-1.56,13.41-4.2,17.72-1.19,1.94-27.68,21.41-34.9,29.1-8.27,8.81-10.08,5.08-16,20-.66,1.66-3.84,2.5-4,8-5.83,2.47-9.06,6.61-12,12-4.41,8.09-3.03,14.05-4,16-.19.38-5.85-.96-8.15,2.62-3.89,6.07-5.25,26.69-8.41,28.83l-15.43.56c-.15-4.53-.44-9.15.25-13.69,5.21-34.31,50.37-83.36,73.53-106.52,15.53-15.52,28.66-29.25,42.25-46.82,3.66-4.73,14.69-27.11,19.95-28.98Z" style="fill: #532d1d;"/>
  <path d="M1140,651.98l8,15.98c-8.69-1.5-10.84,1.19-14.3,8.15l-9.7-4.12c5.92-14.92,7.73-11.19,16-20Z" style="fill: #b87864;"/>
  <path d="M1120,679.98c-.02.63,6.48,6.55,3.98,11.98l-15.98.02c2.94-5.39,6.17-9.53,12-12Z" style="fill: #b87864;"/>
  <path d="M940,791.98c-1.15,6.74-3.93,7.56-4,8l-3.98-7.97,7.98-.03Z" style="fill: #655b54;"/>
  <polygon points="747.98 736 747.96 741.92 740.04 747.98 740.02 736 747.98 736" style="fill: #c1b3ac;"/>
  <path d="M1388,111.98l-4-4c2.12.5,2.79,2.6,4,4Z" style="fill: #beb5ad;"/>
  <path d="M915.98,859.96l-5.92-.02c-18.02-19.19,7.36-24.18,5.92.02Z" style="fill: #b4aca4;"/>
  <rect x="924.02" y="752" width="7.96" height="11.96" style="fill: #b4aca4;"/>
  <polygon points="1124 959.98 1118.04 963.96 1116 959.98 1124 959.98" style="fill: #56493f;"/>
  <path d="M1416,2151.98c.6,11.12-9.16,4.46-8.31,17.7,2.96,45.94,33.26,6.99,36.31-17.7h12c-2.31,12.08,4.49,27.67,2.3,36.17-3.49,13.54-20.74,16.36-24.33,23.8-4.22,8.75-8.23,40.73-11.12,52.85-5.04,21.13-7.97,47.36-21.07,66.94-3.02,4.52-11.93,5.61-13.18,10.56-.93,3.72,4.54,15.42,3.83,23.73-.73,8.5-7.91,14.09-7.65,19.22.47,9.32,15.94,26.82,15.18,28.67-8.3,15.05-23.89,6.86-35.92,12.11-31.26,13.66-28.96,47.27-37.35,70.72-4.84,13.53-18.19,17.77-18.7,35.23h-4c.95-79.14,11.6-89.09,47.86-154.14,19.9-35.69,24.74-68.26,37.98-106.02,6.69-19.08,29.8-54.66,20.09-75.8-5.53-12.04-24.55-7.03-17.93-32.04,2.6-9.82,16.58-9.05,24-12Z" style="fill: #bb5c3a;"/>
  <path d="M1468,2135.98c-4.36,1.6-11.38,12.77-12,16h-12c2.65-11.23-12.69-9.85-21.37-7.17-4.82,1.49-6.11,6.96-6.63,7.17-7.42,2.95-21.4,2.18-24,12-9.87.87-17.73-5.12-24-12,15.49-2.28,41.92-11.05,59.04-14.96,7.61-1.74,17.61-8.4,20.96-9.04,12.11-2.31,13.54.98,20,8Z" style="fill: #b87864;"/>
  <path d="M1788.03,2015.99l-.49,13.52-6.13,5.86c-13.79,3.04-83.14,7.82-63.69-19.69l4.89-3.1,65.42,3.41Z" style="fill: #c7856f;"/>
  <path d="M1588,2099.98c-2.89-22.28,1.51-68.1,4-92,8.13.45,19.44,9.36,19.25,17.23-11.02,22.5-6.52,55.33-23.25,74.77Z" style="fill: #b87864;"/>
  <path d="M1756,2127.98l-.03,7.98c-4.39,1.63-7.38-3.88-7.97-3.98,1.84-3.34,5.61-2.85,8-4Z" style="fill: #bb5c3a;"/>
  <path d="M848,2463.98c-.84,3.19.7,8.28-.02,12l-7.96-.03-.02-7.97c1.52-.31,4.89-4.28,8-4Z" style="fill: #b5a199;"/>
  <path d="M1258.06,1616.01l5.76.19,2.39,7.97,17.79-.19c-23,11.4-47.35,24.61-72,32" style="fill: #b4aca4;"/>
  <path d="M1408,1575.98l7.97.02v5.92s-15.95,10.03-15.95,10.03l-.02-11.98c2.7-3.04,6.99-3.09,8-4Z" style="fill: #beb5ad;"/>
  <path d="M1568,2131.98c.17.47,5.78,1.78,7.21,6.59,3.6,12.13-6.33,90.02-23.16,77.39-1.34-7.88-5.51-15.64-4.04-23.98.55-3.12,8.3-13.57,10.01-19.99,3.53-13.26,2.17-27.5,9.99-40.01Z" style="fill: #c7856f;"/>
  <path d="M816,1079.98c-7.02,19.28-18.23,37.19-25.91,56.09-4.32,10.62-4.66,28.88-9.83,37.24-2.94,4.76-9.53,4.32-12.26,6.67,3.29-32.94,16.25-65.86,30.44-95.74,2.4-5.06,9.31-7.68,9.56-8.26,3.04-.31,6.67,3.8,8,4Z" style="fill: #726761;"/>
  <path d="M800,1051.98h7.99c.18,3.98-.01,7.99,0,12l-7.88-.12c-1.18-3.55.83-9.25-.12-11.88Z" style="fill: #726761;"/>
  <path d="M820,919.98c2.04.68,6.96-.99,7.97.03.92.93-.49,5.65.03,7.97h-7.99s0-8,0-8Z" style="fill: #56493f;"/>
  <path d="M1000,1715.98c1.35.82,7.58-1.74,11.08.76,2.15,1.53,7.99,17.49,8.67,21.5,1.8,10.72-15.1,26.01-31.75,21.74-2.98-11.09,19.77-30.87,12-44Z" style="fill: #afa7a0;"/>
  <path d="M876,1299.98l-.04,12c-5.96-.86-7.56-6.85-7.96-12,2.47-.5,5.86.63,8,0Z" style="fill: #b4aca4;"/>
  <path d="M1416,2151.98c.53-.21,1.81-5.69,6.63-7.17,8.68-2.68,24.02-4.06,21.37,7.17-3.05,24.69-33.35,63.64-36.31,17.7-.85-13.24,8.91-6.58,8.31-17.7Z" style="fill: #b86347;"/>
</svg>